<svg width="300" height="280" version="1.1" viewBox="0 0 300 280" xmlns="http://www.w3.org/2000/svg">
 <path d="m277.49 206.93s2.2112-10.393-10.158-13.666c-12.364-3.2725-35.515-0.85344-51.052 0-15.544 0.85201-9.4097 16.215-4.39 16.786l30.111 2.1521 35.489-5.2725" fill="#f4f3e6"/>
 <path d="m278.06 211.89c-1.2849-2.2671-3.4089-3.9337-6.2822-5.0773l-57.329 2.3546c-2.517 0.10387-4.5123 2.1776-4.5123 4.7064v2.0988c0 2.6795 2.2329 4.8182 4.9101 4.7052l56.931-2.4412c3.6299-1.2079 5.6808-3.3455 6.2822-6.3464" fill="#f4f3e6"/>
 <path d="m295.16 183.34s-5.4126 32.296-6.8914 34.898c-1.8905 3.3332-7.6112 5.0775-16.489 0 0 0 5.0752-6.9824 0-11.424l7.5017 0.1604c4.2273 0.09 7.8706-2.9743 8.5019-7.1552l2.8383-18.704 4.538 2.225" fill="#f4f3e6"/>
 <path d="m286.38 213.75c0-2.6319-2.129-4.7661-4.7596-4.7661-2.63 0-4.7632 2.1342-4.7632 4.7661 0 2.6318 2.1332 4.7662 4.7632 4.7662 2.6306 0 4.7596-2.1344 4.7596-4.7662" fill="#fff"/>
 <path d="m288.59 159.85s9.197 0.95312 9.5128 6.0306c0.31583 5.073 0.63126 18.716-4.7548 17.765-5.3952-0.95189-10.361-2.2207-10.361-2.2207l5.6028-21.575" fill="#fff"/>
 <path d="m300 103.37-15.22 89.158s-10.781 3.4927-11.417-4.7573c-0.63964-8.2512 15.54-84.401 15.54-84.401s6.9784-8.2469 11.097 0" fill="#f4f3e6"/>
 <path d="m171.58 276.87c-1.1081-3.8564-0.1078-7.4024 2.929-10.648 3.1232-0.52445 7.5407-2.009 7.7351-2.039 5.504-5.1428 11.993-6.814 20.135-2.645 0.74765 1.4848 2.5876 7.2638 3.1532 12.017-2.7596 2.757-27.709 6.4448-33.953 3.3154" fill="#383838"/>
 <path d="m205.53 273.56c0.15776 1.3031 0.2159 2.5364 0.13232 3.5748l-23.51 2.87h-9.2502c-0.59816-1.0648-1.0293-2.1076-1.3233-3.1294 13.615 0.25937 6.2565 0.87 33.953-3.3154" fill="#383838"/>
 <path d="m194.9 207.18 7.4709 54.363-22.073 3.4894-1.8609-17.93c-4.7412-45.832 7.8956-54.485 16.463-39.923" fill="#45a18f"/>
 <path d="m154.35 262.17c7.5415-2.3283 14.33-1.3198 20.153 4.0479 0.6146 5.0344 0.92605 7.8911 0 10.666-13.663 1.4061-28.082 2.4112-42.857-0.34248 1.4013-12.908 22.033-7.3582 22.726-14.371" fill="#383838"/>
 <path d="m174.48 276.89c-0.34883 1.0127-0.85636 2.0168-1.5841 3.1115h-41.624c0-1.2943 0.13232-2.4278 0.34894-3.454l42.857 0.34248" fill="#383838"/>
 <path d="m235.1 165.15c7.3971-0.23339 15.401 0.42888 22.181 2.0512 5.5164 6.342 2.4188 16.956-3.9456 16.956-10.587 0-18.236-11.328-18.236-19.007" fill="#45a18f"/>
 <path d="m160.73 210.94c3.0069-19.691 1.6396-27.075 16.678-32.002 15.03-4.9213 35.68-8.2025 35.68-8.2025 3.3568-3.3632 12.139-5.2682 22.004-5.5841 4.1575 9.017 10.236 15.353 18.236 19.007 0 12.921-33.539 10.718-63.468 13.986-11.738 1.2811-9.0809 6.415-23.704 66.411l-11.808-2.3769s3.3749-31.542 6.382-51.238" fill="#5fc9b4"/>
 <path d="m186.43 194.71c39.803-4.3462 74.281 4.1632 70.845-27.51 5.8279 1.394 10.75 3.4897 13.601 6.342 3.8808 11.874 0.15777 21.864-8.9031 24.479-9.7513 2.8136-75.271 9.0857-75.271 9.0857s-2.4614 19.696-5.4683 32.006c-3.0069 12.306-4.1915 27.626-4.1915 27.626l-10.885-2.1864c12.42-73.887 8.536-68.562 20.272-69.843" fill="#5fc9b4"/>
 <path d="m169.17 125.8c-0.53174 0.0245-4.651-1.4505-8.4579 1.1726-2.7993 1.9271-3.9191 2.6062-6.6104 2.4933-2.0726-0.0858-6.0921-0.0245-7.1088 0.38981-1.0119 0.41129-4.7025 1.087-5.5241-0.8789-0.82223-1.9691 8.1938-3.3499 8.1938-3.3499s-4.69-0.8102-9.0127 1.3808c-3.7422 1.9005-7.6828 4.805-9.526 4.9081-1.1505 0.0582-1.5269-0.9654 0.22407-3.6881 1.5834-2.4667 4.7365-6.8351 8.2288-7.9122 3.4912-1.0782 10.937-1.3076 19.473-1.0649 0 0 1.4528 0.62746 8.5526-2.6019l1.5709 9.1511" fill="#fabd8f"/>
 <path d="m194.76 87.067c0.46522 29.586 2.9936 27.859-2.6181 28.374-3.764 0.34242-33.491 0.10375-33.491 0.10375 2.1763 4.2597 3.4572 10.225 3.8242 15.999l40.699 1.6877c0.961-20.024-2.5353-30.578-8.4139-46.165" fill="#eb333b"/>
 <path d="m213.4 56.216-1.277-5.6748c-3.5386-3.1427-9.5216 0.32469-13.983 4.3982 0.19936 5.0033 0.39872 9.9035 0.58922 14.588 0 0-2.0512 7.7958 2.9162 6.6577 4.9663-1.1436 13.291-15.055 11.754-19.969" fill="#fabd8f"/>
 <path d="m207.87 154.02c-6.6854-19.462-10.099-27.924-13.517-70.337 2.0951-6.5447 4.8903-9.5013 6.8313-10.462 3.4881-0.7148 6.8017-2.961 10.038-5.9474 5.8235 31.66 3.262 54.624-3.3527 86.746" fill="#d53037"/>
 <path d="m213.09 170.73s-2.4321-7.459-5.2182-16.713c-2.3102-33.655-3.7513-48.931 3.3527-86.746 1.9636-1.8141 6.8137-3.9007 8.7351-6.087 0 0 5.1527 1.3685 13.489 4.2386 8.3373 2.8734 9.2933 4.1034 10.66 5.4709 5.3088 5.3114 7.9312 17.778 10.661 36.106 5.0238 33.639 10.75 47.018 16.107 66.541-18.888-3.2081-39.184-5.6138-57.786-2.8091" fill="#d53037"/>
 <path d="m159.92 82.487c-5.9236-1.0217-9.38-1.8484-11.137-7.7315-0.43191-1.4583-1.5567-10.687-2.6731-10.821-1.1164-0.13383-2.9374 0.42882-3.0935 5.134-0.0828 1.844 1.0733 3.7655-1.9427 4.8348-3.6858 1.3076-8.3325-0.36322-7.251 7.1729 1.0734 7.531 2.3409 10.991 6.745 10.237 4.4041-0.75794 7.9861-2.5798 12.584 0.7273l4.6046 3.3077 2.1631-12.861" fill="#fabd8f"/>
 <path d="m237.28 98.11c-39.689 15.081-33.901 14.197-52.621 7.389-10.522-3.8309-36.769-12.723-36.769-12.723 2.0317-5.9651 3.404-11.765 3.9673-17.367 43.73 13.709 39.736 13.575 47.974 10.939 6.8313-2.1852 27.062-9.981 31.981-12.033 12.871-5.3634 22.848 17.194 5.4682 23.795" fill="#eb333b"/>
 <path d="m198.73 69.527c0.58977 1.363 1.3622 2.623 2.4562 3.6924-1.5822 3.7654-4.3169 7.1031-6.8313 10.462 0.83981-5.1817 2.2594-9.9301 4.3751-14.154" fill="#eb333b"/>
 <path d="m208.37 83.682-7.1788-10.462c3.3627-2.8745 8.8309-10.064 12.214-17.003 2.1762 1.6711 5.0529 3.2469 6.5589 4.969-3.8508 6.476-9.2885 12.593-11.594 22.496" fill="#eb333b"/>
 <path d="m215.89 48.711s1.5276-6.589 0.37378-14.042c-1.1553-7.4544-8.942-19.19-15.147-18.561-6.2042 0.62749-15.93-6.4893-21.558-4.2896-5.6284 2.1985-6.1004 6.7918-6.3594 15.063-0.24083 7.4279 0.48188 29.167 9.4838 37.69 2.9763 2.818 7.1727 3.9394 11.174 3.074 5.0589-1.0959 12.478-3.9095 18.669-11.121 1.315-1.5314 2.232-3.3721 2.7345-5.3324l0.63157-2.4801" fill="#fabd8f"/>
 <path d="m218.23 51.623s-7.0133-4.5744-8.1072-7.3802c0 0 4.9582-0.0998 2.3491-7.3238-2.6175-7.2284-3.9066-2.7182-3.9066-2.7182s-4.0669-13.22-11.833-14.29c-7.7618-1.0726-22.489 8.9306-25.582 3.965-3.0968-4.9644-0.3656-13.007 3.522-15.773 3.8808-2.7659 4.0537-8.1027 4.0537-8.1027s2.3142 6.609 13.274 6.5702c10.953-0.0414 36.726-0.71391 26.23 45.053" fill="#2c2b2b"/>
 <path d="m249.82 220.68-2.9291 14.393h-9.0508l-2.2495-14.184 14.229-0.20856" fill="#f4f3e6"/>
 <path d="m235.59 248.27h14.229v-18.913h-14.229v18.913" fill="#fff"/>
 <path d="m228.33 262.87h26.953v-7.4877c0-6.8097-5.5156-12.333-12.326-12.333-8.0816 0-14.627 6.558-14.627 14.64v5.1806" fill="#f4f3e6"/>
 <path d="m289.62 274.61c0-2.9773-2.4139-5.3933-5.386-5.3933-2.9814 0-5.3944 2.416-5.3944 5.3933 0 2.9788 2.4131 5.3933 5.3944 5.3933 2.9721 0 5.386-2.4145 5.386-5.3933" fill="#f4f3e6"/>
 <path d="m288.32 266.67 2.3026 1.9049v3.4497c0 1.424-1.1554 2.5797-2.5793 2.5797h-7.6146c-1.4228 0-2.5743-1.1556-2.5743-2.5797v-3.4497l10.466-1.9049" fill="#fff"/>
 <path d="m202.68 274.61c0-2.9773-2.4147-5.3933-5.3912-5.3933-2.977 0-5.3901 2.416-5.3901 5.3933 0 2.9788 2.4131 5.3933 5.3901 5.3933 2.9765 0 5.3912-2.4145 5.3912-5.3933" fill="#f4f3e6"/>
 <path d="m201.38 266.67 2.2983 1.9049v3.4497c0 1.424-1.1504 2.5797-2.575 2.5797h-7.6097c-1.4278 0-2.5783-1.1556-2.5783-2.5797v-3.4497l10.465-1.9049" fill="#fff"/>
 <path d="m287.77 263.67c-10.332-1.9002-45.059-8.7397-45.059-8.7397l-48.984 9.5366c-1.6348 0.32009-2.8159 1.753-2.8159 3.4197v0.68814h99.711v-1.4849c0-1.6798-1.1987-3.1216-2.8516-3.4198" fill="#fff"/>
 <path d="m265.75 173.27v2.2206c0 1.5758-1.2801 2.8524-2.8508 2.8524h-10.348c-3.2921 0-6.0696 2.4324-6.5241 5.697-0.66468 4.8005-1.0683 15.306 1.0167 17.864 3.4871 4.2718 18.647 15.21 2.8509 21.076-17.123 6.3552-25.063-7.1241-22.83-10.778 2.2246-3.6491 9.825-8.5671 9.1938-16.181-0.22418-2.6528-0.19935-8.9692-0.14111-10.877 0.11597-3.7232-2.8591-6.8007-6.5805-6.8007h-16.743c-1.5799 0-2.8557-1.2766-2.8557-2.8524l27.905-3.8695 27.909 1.6489" fill="#fff"/>
 <path d="m252.75 214.31c0-1.619-1.315-2.9298-2.9288-2.9298-1.6183 0-2.9291 1.3108-2.9291 2.9298 0 1.6147 1.3108 2.9267 2.9291 2.9267 1.6138 0 2.9288-1.3121 2.9288-2.9267" fill="#f4f3e6"/>
 <path d="m238.52 214.31c0-1.619-1.3099-2.9298-2.928-2.9298-1.614 0-2.9299 1.3108-2.9299 2.9298 0 1.6147 1.3159 2.9267 2.9299 2.9267 1.6181 0 2.928-1.3121 2.928-2.9267" fill="#f4f3e6"/>
 <path d="m265.75 173.27s4.7547-6.0339-3.1707-6.9824c-7.9304-0.9519-19.663 4.1733-37.103 1.4505-17.444-2.7182-15.54 7.7526-15.54 7.7526l28.584 1.5835 27.23-3.8041" fill="#fff"/>
 <path d="m15.038 143.35-4.1018 5.4367v131.22h109.39v-131.16l-5.1402-5.143-100.15-0.34975" fill="#fff"/>
 <path d="m-9.8e-6 137.9h196.21v10.882h-7.181l-16.779 5.5063-16.734-5.5063h-155.52v-10.882" fill="#f4f3e6"/>
 <path d="m180.63 271.14h-16.739v-111.33h16.739v111.33" fill="#f4f3e6"/>
 <path d="m174.73 163.11h-4.9408c-7.8779 0-14.268-6.3895-14.268-14.272h33.473c0 7.8823-6.3862 14.272-14.264 14.272" fill="#fff"/>
 <path d="m188.99 280h-33.473c0-7.8822 6.3903-14.272 14.268-14.272h4.9408c7.8781 0 14.264 6.3895 14.264 14.272" fill="#fff"/>
 <path d="m24.076 89.145c-0.95619 2.5021-5.4508 39.087-5.4508 39.087h5.4508l4.2479-37.369-4.2479-1.7187" fill="#f4f3e6"/>
 <path d="m15.544 134.42s-1.2236-7.2151 5.7282-7.2151c6.957 0 5.1361 7.2151 5.1361 7.2151h-10.864" fill="#fff"/>
 <path d="m12.058 138.03s-1.9089-7.2195 8.9214-7.2195c10.829 0 7.9893 7.2195 7.9893 7.2195h-16.911" fill="#f4f3e6"/>
 <path d="m32.855 71.535s-8.7784-1.2899-10.924 6.4416c-1.0774 3.8829-1.0691 7.5442-0.79741 10.233 0.24901 2.4934 2.3798 4.3717 4.8801 4.3717h9.6607l-2.8161-21.046" fill="#fff"/>
 <path d="m18.703 21.241 20.926 97.837c0.40719 1.926 2.3757 3.095 4.2664 2.541l0.75592-0.22605c1.7078-0.50204 2.7379-2.2461 2.3491-3.986l-21.68-97.612c-0.44029-1.9658-2.4703-3.1172-4.3783-2.48-1.6392 0.54521-2.6044 2.233-2.2405 3.9262" fill="#f4f3e6"/>
 <path d="m100.78 138.04s3.7331-8.9947 15.441-9.7306c11.702-0.73547 9.2104 9.7306 9.2104 9.7306h-24.652" fill="#fff"/>
 <path d="m70.602 119.7 2.4792-0.72953-7.1972-24.567-2.1811-4.4759-1.6948 0.41421 8.5939 29.358" fill="#f4f3e6"/>
 <path d="m69.535 120.02 2.4801-0.72953-8.5903-29.358-1.4175 0.41421 0.3341 5.0972 7.1936 24.576" fill="#fff"/>
 <path d="m62.289 91.525 1.6642-0.77454 0.34761-1.7471-0.41156-1.4229c-0.29176-0.98142-1.3121-1.5398-2.2928-1.2517-0.97799 0.27917-1.5408 1.3058-1.249 2.2875l0.40075 1.3779 1.5408 1.5309" fill="#fff"/>
 <path d="m62.342 95.442 3.5418-1.0355-1.5832-5.4034-3.5418 1.0358 1.5832 5.4032" fill="#f4f3e6"/>
 <path d="m61.702 93.245 3.5418-1.0446 0.49981-0.90958-0.91495-0.50447-3.5527 1.0446-0.49978 0.90958 0.92575 0.50447" fill="#fff"/>
 <path d="m80.036 107.45 0.39803-0.40512-0.42235-0.90072c-0.68982-0.26098-0.98879-1.9001-1.3409-3.8002-0.3341-1.783-0.73844-4.0073-1.6426-6.3578-0.92125-2.4046-2.0334-3.7734-3.2888-4.0526-1.1014-0.26121-1.847 0.39625-1.9281 0.47741l-0.0243 0.99052 0.97799 0.03637 0.6862-0.13413c0.34763 0.08184 1.2662 0.56744 2.2757 3.188 0.851 2.2243 1.249 4.3767 1.5651 6.1147 0.46827 2.5035 0.80237 4.3226 2.2342 4.8539h0.50971" fill="#31947b"/>
 <path d="m76.184 112.83 3.4293-1.2606-0.8267-2.2695-3.4292 1.2608 0.82669 2.2693" fill="#5fc9b4"/>
 <path d="m69.852 93.533 2.1451-0.78341-0.93207-2.5576-2.146 0.7925 0.93295 2.5485" fill="#31947b"/>
 <path d="m70.379 91.642c1.1896-0.4324 1.7948-1.7471 1.3616-2.9359l-0.31248-0.88253c-0.44397-1.1797-1.7633-1.7921-2.9484-1.3597-1.1851 0.43217-1.7939 1.756-1.3652 2.9356l0.3278 0.88253c0.42865 1.1888 1.7479 1.7921 2.9367 1.3599" fill="#5fc9b4"/>
 <path d="m76.036 109.3 1.6246-0.41421s0.8339-0.7475 0.58085-1.783c-0.54573-2.2154-1.4778-5.8894-1.9173-7.0964-0.6511-1.7651-2.744-6.2677-2.744-6.2677-0.42865-1.1888-1.7479-1.801-2.9304-1.3597-1.1851 0.43217-1.8011 1.7471-1.3679 2.9356 0 0 1.3256 4.8451 1.9524 6.556 0.42867 1.1797 2.1451 4.683 3.1555 6.7361 0.45027 0.90959 1.6462 0.69339 1.6462 0.69339" fill="#5fc9b4"/>
 <path d="m75.727 110.61 2.7962-1.0267 0.3278-0.69338-0.64389-1.7651-3.8165 1.3959 0.64028 1.7742 0.69614 0.3151" fill="#31947b"/>
 <path d="m91.774 108.89 0.81949-0.45923 5.4357-11.293 0.0775-0.44127-0.57724-4.953-0.39805-0.60336-3.2257-1.891-1.1113 0.28804 0.29179 1.1167 2.8844 1.675 0.4926 4.3226-5.3294 11.086 0.37643 1.0717 0.26387 0.0819" fill="#383838"/>
 <path d="m91.44 89.157 2.5783 0.59426 0.69702-3.0709-2.5782-0.5854-0.69703 3.062" fill="#383838"/>
 <path d="m92.577 87.527 1.1149 0.25212c1.1185 0.26121 2.227-0.44127 2.4801-1.5671 0.25664-1.1167-0.43588-2.2334-1.5616-2.4855l-1.1122-0.24303c-1.1149-0.25212-2.2226 0.44127-2.4801 1.558-0.25305 1.1167 0.44397 2.2334 1.5588 2.4855" fill="#414042"/>
 <path d="m84.778 114.66 4.2173 0.96346 6.1561-24.891c0.45027-1.9813-4.7099-3.1609-5.1601-1.1708l-5.2132 25.098" fill="#414042"/>
 <path d="m92.752 111.65h-30.182l2.0929 8.4111 5.3816 3.5663-3.5635 3.7461 2.9133 10.527h16.487l2.8142-10.527-2.68-3.7461 4.6189-3.7372 2.1172-8.2401" fill="#eb333b"/>
 <path d="m66.482 127.38-1.8641-7.4833h26.018l-1.9389 7.4833h-22.215" fill="#d53037"/>
</svg>
