<svg width="600" height="600" version="1.1" viewBox="0 0 600 600" xmlns="http://www.w3.org/2000/svg">
 <path d="m314.96 6.219 278.81 278.81c8.2918 8.2918 8.2918 21.642 0 29.934l-278.81 278.81c-8.2918 8.2918-21.642 8.2918-29.934-1e-5l-278.81-278.81c-8.2918-8.2918-8.2918-21.642 0-29.934l278.81-278.81c8.2918-8.2918 21.642-8.2918 29.934 0z" fill="#efefef"/>
 <path d="m296.3 395.39a92.611 92.611 0 0 1-92.611 92.611 92.611 92.611 0 0 1-92.611-92.611 92.611 92.611 0 0 1 92.611-92.611 92.611 92.611 0 0 1 92.611 92.611z" fill="#706389" stroke-width="1.1053"/>
 <path d="m258.34 366.34-28.746 29.279c-0.21351 0.21387-0.21351 0.53428 0 0.74801l20.116 21.425c1.3623 1.3624 1.3623 3.553 0 4.9155-0.66785 0.66788-1.5762 1.0152-2.4579 1.0152-0.88136 0-1.7897-0.34722-2.4575-1.0152l-20.037-21.345c-0.21351-0.21386-0.56108-0.21386-0.7746 0l-4.8888 4.969c-4.0872 4.1408-9.5105 6.4382-15.334 6.4649-5.9038 0.028-11.514-2.4577-15.655-6.6519l-4.7015-4.7819c-0.21351-0.21386-0.56108-0.21386-0.77495 0l-20.036 21.345c-0.66785 0.66788-1.5762 1.0152-2.4579 1.0152s-1.79-0.34722-2.4579-1.0152c-1.3623-1.3624-1.3623-3.5531 0-4.9155l20.116-21.425c0.18552-0.21387 0.18552-0.53427 0-0.74801l-28.772-29.279c-0.34652-0.34722-0.90831-0.10671-0.90831 0.374v58.585c0 4.7017 3.8468 8.5487 8.5487 8.5487h94.036c4.7018 0 8.5487-3.8469 8.5487-8.5487v-58.585c0-0.48085-0.58769-0.69459-0.90831-0.374z" fill="#efefef" stroke-width=".43269"/>
 <path d="m203.68 405.83c3.9539 0 7.6669-1.5494 10.445-4.3812l41.915-42.663c-1.469-1.1755-3.2856-1.87-5.2892-1.87h-94.116c-2.0036 0-3.8472 0.69456-5.2895 1.87l41.915 42.663c2.7519 2.805 6.4649 4.3812 10.419 4.3812z" fill="#efefef" stroke-width=".43269"/>
 <path d="m488.93 204.61a92.611 92.611 0 0 1-92.611 92.611 92.611 92.611 0 0 1-92.611-92.611 92.611 92.611 0 0 1 92.611-92.611 92.611 92.611 0 0 1 92.611 92.611z" fill="#706389" stroke-width="1.1053"/>
 <path d="m411.01 178.1h23.878c0.7347 0 1.3119-0.57729 1.3119-1.312 0-2.3353-1.0231-4.5395-2.8076-6.0088l-20.02-16.689c-1.5219-1.2595-3.4114-1.9417-5.4055-1.9417-1.076 0-1.9419 0.86593-1.9419 1.9417v19.024c0 2.7551 2.2304 4.9856 4.9858 4.9856z" fill="#efefef" stroke-width=".425"/>
 <path d="m399.2 173.13v-20.992h-34.374c-4.6183 0-8.3967 3.7785-8.3967 8.3966v88.165c0 4.6182 3.7785 8.3967 8.3967 8.3967h62.976c4.6183 0 8.3967-3.7785 8.3967-8.3967v-63.762h-25.19c-6.5076 0-11.808-5.3004-11.808-11.808z" fill="#efefef" stroke-width=".425"/>
 <path d="m488.93 395.39a92.611 92.611 0 0 1-92.611 92.611 92.611 92.611 0 0 1-92.611-92.611 92.611 92.611 0 0 1 92.611-92.611 92.611 92.611 0 0 1 92.611 92.611z" fill="#706389" stroke-width="1.1053"/>
 <path d="m441.2 352.64h-10.686v6.4116c0 1.1755-0.96186 2.1372-2.1372 2.1372h-4.2741c-1.1757 0-2.1372-0.96174-2.1372-2.1372v-6.4116h-51.292v6.4116c0 1.1755-0.96151 2.1372-2.1369 2.1372h-4.2744c-1.1754 0-2.1372-0.96174-2.1372-2.1372v-6.4116h-10.686c-5.8772 0-10.686 4.8087-10.686 10.686v72.664c0 5.8772 4.8087 10.686 10.686 10.686h89.761c5.8772 0 10.686-4.8086 10.686-10.686v-72.664c0-5.8772-4.8087-10.686-10.686-10.686zm2.1372 80.144c0 2.9387-2.4043 5.3429-5.3431 5.3429h-83.349c-2.9384 0-5.3428-2.4043-5.3428-5.3429v-48.087c0-1.1754 0.96151-2.1371 2.1372-2.1371h89.761c1.1754 0 2.1372 0.96174 2.1372 2.1371zm-72.664-86.556c0-1.1755-0.96152-2.1372-2.1369-2.1372h-4.2744c-1.1754 0-2.1372 0.96173-2.1372 2.1372v6.4116h8.5487zm59.84 0c0-1.1755-0.96186-2.1372-2.1372-2.1372h-4.2741c-1.1757 0-2.1372 0.96173-2.1372 2.1372v6.4116h8.5487z" fill="#efefef" stroke-width=".43269"/>
 <path d="m296.3 204.61a92.611 92.611 0 0 1-92.611 92.611 92.611 92.611 0 0 1-92.611-92.611 92.611 92.611 0 0 1 92.611-92.611 92.611 92.611 0 0 1 92.611 92.611z" fill="#706389" stroke-width="1.1053"/>
 <path d="m203.7 260.17c-30.645 0-55.566-24.921-55.566-55.566 0-15.225 6.0288-29.423 17.004-40.008 1.7782-1.7225 4.612-1.667 6.3068 0.11097 1.7224 1.7781 1.6672 4.612-0.112 6.3068-9.1962 8.8907-14.252 20.809-14.252 33.59 0 25.699 20.92 46.621 46.62 46.621 25.699 0 46.62-20.921 46.62-46.621 0-24.199-18.532-44.176-42.175-46.426v17.393c0 2.4727-2.0004 4.4731-4.473 4.4731-2.4729 0-4.4733-2.0004-4.4733-4.4731v-22.06c0-2.4727 2.0004-4.4731 4.4733-4.4731 30.645 0 55.566 24.921 55.566 55.566s-24.894 55.566-55.539 55.566z" fill="#efefef" stroke-width=".45"/>
 <path d="m181.44 178.46 27.645 19.865c3.7509 2.695 4.6399 7.9183 1.9451 11.669-2.6952 3.7508-7.9183 4.6398-11.669 1.9449-0.77776-0.55567-1.4446-1.2224-1.9448-1.9449l-19.865-27.645c-0.88907-1.2503-0.61149-3.0006 0.6388-3.8896 1.0004-0.72236 2.306-0.66681 3.2507 0z" fill="#efefef" stroke-width=".45"/>
</svg>
