<svg width="600" height="600" version="1.1" viewBox="0 0 600 600" xmlns="http://www.w3.org/2000/svg">
 <path d="m314.96 6.219 278.81 278.81c8.2918 8.2918 8.2918 21.642 0 29.934l-278.81 278.81c-8.2918 8.2918-21.642 8.2918-29.934-1e-5l-278.81-278.81c-8.2918-8.2918-8.2918-21.642 0-29.934l278.81-278.81c8.2918-8.2918 21.642-8.2918 29.934 0z" fill="#efefef"/>
 <path d="m111 111h185.3v185.3h-185.3z" fill="#706389" stroke-width=".98592"/>
 <path d="m248.54 152.33h-89.797c-5.8795 0-10.69 4.8105-10.69 10.69v81.244c0 5.8795 4.8105 10.69 10.69 10.69h89.797c5.8795 0 10.69-4.8105 10.69-10.69v-81.244c0-5.8795-4.8105-10.69-10.69-10.69zm3.207 47.036c0 2.3518-1.9242 4.2761-4.2761 4.2761h-23.197c-1.8173 0-3.4208 1.1225-4.0355 2.8328-1.0958 3.1001-3.8217 5.7192-6.9753 5.7192h-19.242c-3.1803 0-5.9062-2.6191-6.9753-5.7192-0.58796-1.7104-2.2181-2.8328-4.0355-2.8328h-23.197c-2.3518 0-4.2761-1.9242-4.2761-4.2761v-35.277c0-2.3519 1.9242-4.276 4.2761-4.276h87.658c2.3519 0 4.2761 1.9242 4.2761 4.276z" fill="#efefef" stroke-width=".43269"/>
 <path d="m238.39 176.92h-69.486c-2.0578 0-3.7415-1.6837-3.7415-3.7415s1.6837-3.7416 3.7415-3.7416h69.486c2.0578 0 3.7415 1.6837 3.7415 3.7416 0 2.0578-1.6836 3.7415-3.7415 3.7415zm0 17.104h-69.486c-2.0578 0-3.7415-1.6837-3.7415-3.7416s1.6837-3.7416 3.7415-3.7416h69.486c2.0578 0 3.7415 1.6837 3.7415 3.7416s-1.6836 3.7416-3.7415 3.7416z" fill="#efefef" stroke-width=".43269"/>
 <path d="m303.71 111h185.3v185.3h-185.3z" fill="#706389" stroke-width=".98592"/>
 <path d="m303.71 303.7h185.3v185.3h-185.3z" fill="#706389" stroke-width=".98592"/>
 <path d="m451.89 449.14c-2.0849-9.2068-13.984-13.695-18.095-15.142-4.5164-1.5924-10.944-1.9688-15.084-2.8953-2.3741-0.52112-5.8194-1.824-6.9777-3.2137-1.158-1.3897-0.46328-14.274-0.46328-14.274s2.1426-3.3294 3.3006-6.2826c1.158-2.9242 2.4319-10.973 2.4319-10.973s2.3741 0 3.2138-4.1691c0.89747-4.5454 2.3163-6.3115 2.1426-9.699-0.17507-3.3296-1.9976-3.2426-1.9976-3.2426s1.7658-4.835 1.9686-14.853c0.25913-11.899-9.0622-23.625-25.941-23.625-17.111 0-26.231 11.726-25.97 23.625 0.23111 10.017 1.9395 14.853 1.9395 14.853s-1.824-0.0868-1.9976 3.2426c-0.17508 3.3874 1.2452 5.1535 2.1426 9.699 0.81062 4.1691 3.2134 4.1691 3.2134 4.1691s1.2742 8.0487 2.4322 10.973c1.158 2.9532 3.3006 6.2826 3.3006 6.2826s0.69473 12.884-0.46325 14.274c-1.1583 1.3897-4.6036 2.6926-6.9777 3.2137-4.14 0.92645-10.567 1.3029-15.084 2.8953-4.1113 1.4476-16.011 5.9352-18.095 15.142-0.31865 1.4476 0.78191 2.8084 2.2872 2.8084h106.51c1.4766 0 2.5768-1.3608 2.2586-2.8084z" fill="#efefef" stroke-width=".46875"/>
 <path d="m111 303.7h185.3v185.3h-185.3z" fill="#706389" stroke-width=".98592"/>
 <path d="m255.76 421.15h-104.23c-1.9108 0-3.4739 1.5635-3.4739 3.4742s1.5632 3.4742 3.4739 3.4742h104.23c1.9109 0 3.4743-1.5635 3.4743-3.4742 0-1.9108-1.5635-3.4742-3.4743-3.4742zm0 11.911h-104.23c-1.9108 0-3.4739 1.5634-3.4739 3.4742s1.5632 3.4742 3.4739 3.4742h104.23c1.9109 0 3.4743-1.5634 3.4743-3.4742 0-1.9109-1.5635-3.4742-3.4743-3.4742zm-5.2363-80.354h-93.756c-4.7895 0-8.7103 3.921-8.7103 8.7105v44.123c0 4.7895 3.9208 8.7104 8.7103 8.7104h93.756c4.7895 0 8.7106-3.921 8.7106-8.7104v-44.123c0-4.7895-3.9211-8.7105-8.7106-8.7105zm-82.117 53.603h-8.9337c-1.9108 0-3.4743-1.5634-3.4743-3.4742 0-1.9109 1.5635-3.4742 3.4743-3.4742h8.9337c1.9108 0 3.4743 1.5634 3.4743 3.4742s-1.5635 3.4742-3.4743 3.4742zm0-38.713h-8.9337c-1.9108 0-3.4743-1.5634-3.4743-3.4742 0-1.9109 1.5635-3.4742 3.4743-3.4742h8.9337c1.9108 0 3.4743 1.5634 3.4743 3.4742s-1.5635 3.4742-3.4743 3.4742zm35.239 35.735c-10.944 0-19.853-8.909-19.853-19.853s8.9092-19.853 19.853-19.853c10.944 0 19.853 8.909 19.853 19.853s-8.9092 19.853-19.853 19.853zm44.173 2.978h-8.9337c-1.9108 0-3.4743-1.5634-3.4743-3.4742s1.5635-3.4742 3.4743-3.4742h8.9337c1.9109 0 3.4743 1.5634 3.4743 3.4742 0 1.9109-1.5635 3.4742-3.4743 3.4742zm0-38.713h-8.9337c-1.9108 0-3.4743-1.5634-3.4743-3.4742 0-1.9109 1.5635-3.4742 3.4743-3.4742h8.9337c1.9109 0 3.4743 1.5634 3.4743 3.4742s-1.5635 3.4742-3.4743 3.4742z" fill="#efefef" stroke-width=".40179"/>
 <path d="m216.79 383.94a13.153 13.153 0 0 1-13.153 13.153 13.153 13.153 0 0 1-13.153-13.153 13.153 13.153 0 0 1 13.153-13.153 13.153 13.153 0 0 1 13.153 13.153z" fill="#efefef" stroke-width=".40179"/>
 <path d="m340.77 157.33v92.634c0 5.1032 4.1414 9.2714 9.2716 9.2714h92.634c5.1032 0 9.2712-4.1414 9.2712-9.2714v-92.634c0-5.1032-4.1414-9.2714-9.2712-9.2714h-92.634c-5.1303 0-9.2716 4.1414-9.2716 9.2714zm23.86 79.381c-3.4999 0.4542-6.4391-2.4848-5.985-5.985 0.29413-2.3779 2.2179-4.3017 4.5958-4.5956 3.4999-0.45423 6.4392 2.4848 5.985 5.985-0.29413 2.3779-2.2179 4.3017-4.5958 4.5956zm0-27.787c-3.4999 0.45419-6.4391-2.4848-5.985-5.985 0.29413-2.3779 2.2179-4.3017 4.5958-4.5956 3.4999-0.4542 6.4392 2.4848 5.985 5.985-0.29413 2.378-2.2179 4.3017-4.5958 4.5956zm0-27.787c-3.4999 0.45423-6.4391-2.4848-5.985-5.985 0.29413-2.3779 2.2179-4.3017 4.5958-4.5956 3.4999-0.4542 6.4392 2.4848 5.985 5.985-0.29413 2.3779-2.2179 4.3017-4.5958 4.5956zm66.102 54.025h-48.094c-2.0572 0-3.7405-1.6832-3.7405-3.7406 0-2.0573 1.6832-3.7406 3.7405-3.7406h48.094c2.0572 0 3.7408 1.6833 3.7408 3.7406 0 2.0574-1.6836 3.7406-3.7408 3.7406zm0-27.787h-48.094c-2.0572 0-3.7405-1.6833-3.7405-3.7406s1.6832-3.7406 3.7405-3.7406h48.094c2.0572 0 3.7408 1.6833 3.7408 3.7406 0 2.0574-1.6836 3.7406-3.7408 3.7406zm0-27.787h-48.094c-2.0572 0-3.7405-1.6833-3.7405-3.7406s1.6832-3.7406 3.7405-3.7406h48.094c2.0572 0 3.7408 1.6833 3.7408 3.7406s-1.6836 3.7406-3.7408 3.7406z" fill="#efefef" stroke-width=".43259"/>
</svg>
