<svg width="600" height="600" version="1.1" viewBox="0 0 600 600" xmlns="http://www.w3.org/2000/svg">
 <path d="m314.96 6.219 278.81 278.81c8.2918 8.2918 8.2918 21.642 0 29.934l-278.81 278.81c-8.2918 8.2918-21.642 8.2918-29.934-1e-5l-278.81-278.81c-8.2918-8.2918-8.2918-21.642 0-29.934l278.81-278.81c8.2918-8.2918 21.642-8.2918 29.934 0z" fill="#efefef"/>
 <path d="m244.7 126h110.59c16.62 0 30 13.38 30 30v110.59c0 16.62-13.38 30-30 30h-110.59c-16.62 0-30-13.38-30-30v-110.59c0-16.62 13.38-30 30-30z" fill="#706389" stroke-width=".98592"/>
 <path d="m156 303.41h110.59c16.62 0 30 13.38 30 30v110.59c0 16.62-13.38 30-30 30h-110.59c-16.62 0-30-13.38-30-30v-110.59c0-16.62 13.38-30 30-30z" fill="#706389" stroke-width=".98592"/>
 <path d="m422.11 126h110.59c16.62 0 30 13.38 30 30v110.59c0 16.62-13.38 30-30 30h-110.59c-16.62 0-30-13.38-30-30v-110.59c0-16.62 13.38-30 30-30z" fill="#706389" stroke-width=".98592"/>
 <path d="m67.29 126h110.59c16.62 0 30 13.38 30 30v110.59c0 16.62-13.38 30-30 30h-110.59c-16.62 0-30-13.38-30-30v-110.59c0-16.62 13.38-30 30-30z" fill="#706389" stroke-width=".98592"/>
 <path d="m525.39 234.12h-95.957c-1.7592 0-3.1986 1.4394-3.1986 3.1986s1.4394 3.1986 3.1986 3.1986h95.957c1.7592 0 3.1986-1.4394 3.1986-3.1986s-1.4394-3.1986-3.1986-3.1986zm0 10.967h-95.957c-1.7592 0-3.1986 1.4394-3.1986 3.1986s1.4394 3.1986 3.1986 3.1986h95.957c1.7592 0 3.1986-1.4394 3.1986-3.1986s-1.4394-3.1986-3.1986-3.1986zm-4.8207-73.979h-86.316c-4.4095 0-8.0193 3.6098-8.0193 8.0193v40.622c0 4.4095 3.6098 8.0193 8.0193 8.0193h86.316c4.4095 0 8.0193-3.6098 8.0193-8.0193v-40.622c0-4.4095-3.6098-8.0193-8.0193-8.0193zm-75.601 49.35h-8.2249c-1.7592 0-3.1986-1.4394-3.1986-3.1986s1.4394-3.1986 3.1986-3.1986h8.2249c1.7592 0 3.1986 1.4394 3.1986 3.1986s-1.4394 3.1986-3.1986 3.1986zm0-35.641h-8.2249c-1.7592 0-3.1986-1.4394-3.1986-3.1986s1.4394-3.1986 3.1986-3.1986h8.2249c1.7592 0 3.1986 1.4394 3.1986 3.1986s-1.4394 3.1986-3.1986 3.1986zm32.443 32.9c-10.076 0-18.278-8.2021-18.278-18.278 0-10.076 8.2021-18.278 18.278-18.278s18.278 8.2021 18.278 18.278c0 10.076-8.2021 18.278-18.278 18.278zm40.668 2.7416h-8.2249c-1.7592 0-3.1986-1.4394-3.1986-3.1986s1.4394-3.1986 3.1986-3.1986h8.2249c1.7592 0 3.1986 1.4394 3.1986 3.1986s-1.4394 3.1986-3.1986 3.1986zm0-35.641h-8.2249c-1.7592 0-3.1986-1.4394-3.1986-3.1986s1.4394-3.1986 3.1986-3.1986h8.2249c1.7592 0 3.1986 1.4394 3.1986 3.1986s-1.4394 3.1986-3.1986 3.1986z" fill="#efefef" stroke-width=".40179"/>
 <path d="m489.52 199.88a12.109 12.109 0 0 1-12.109 12.109 12.109 12.109 0 0 1-12.109-12.109 12.109 12.109 0 0 1 12.109-12.109 12.109 12.109 0 0 1 12.109 12.109z" fill="#efefef" stroke-width=".40179"/>
 <path d="m230.97 374.09c0.54372-0.5757 0.5757-1.5032 0-2.0789l-6.3326-6.7164c-0.25586-0.28784-0.63966-0.44776-1.0235-0.44776-0.38379 0-0.76759 0.15992-1.0234 0.44776l-21.269 22.1 8.4435 8.6674zm-61.951 13.689c-0.28784-0.28784-0.63966-0.44776-1.0234-0.44776-0.3838 0-0.73561 0.15992-1.0235 0.44776l-6.4286 6.6205c-0.5757 0.5757-0.5757 1.5352 0 2.1109l20.213 20.789c1.2793 1.3433 2.8785 2.1109 4.2218 2.1109 1.919 0 3.5501-1.4392 4.1898-2.0469l0.032-0.032 4.2857-4.4136z" fill="#efefef" stroke-width=".56245"/>
 <path d="m262.06 365.17-6.3326-6.7164c-0.25587-0.28784-0.63966-0.44776-1.0235-0.44776s-0.76759 0.15992-1.0235 0.44776l-44.073 45.64-16.023-16.503c-0.28785-0.28784-0.63966-0.44776-1.0235-0.44776-0.38379 0-0.73561 0.15992-1.0234 0.44776l-6.4286 6.6205c-0.57569 0.57569-0.57569 1.5352 0 2.1109l20.213 20.789c1.2793 1.3433 2.8785 2.1109 4.2218 2.1109 1.919 0 3.5501-1.4392 4.1898-2.0469l0.032-0.032 48.294-49.925c0.54371-0.54371 0.54371-1.4712 0-2.0469z" fill="#efefef" stroke-width=".56245"/>
 <path d="m350.63 181.28-8.3655-8.6033c-0.33269-0.38024-0.85558-0.57031-1.3308-0.57031-0.52289 0-0.99839 0.1902-1.3311 0.57031l-57.988 58.416-21.104-21.104c-0.3804-0.38027-0.85557-0.57037-1.3308-0.57037-0.4755 0-0.951 0.19019-1.3311 0.57037l-8.4606 8.4606c-0.76047 0.7605-0.76047 1.9488 0 2.7093l26.618 26.618c1.7112 1.7112 3.8027 2.7093 5.5612 2.7093 2.519 0 4.7057-1.8537 5.5138-2.6142h0.0483l63.55-63.883c0.66538-0.80799 0.66538-1.9963-0.0484-2.7093z" fill="#efefef" stroke-width=".8359"/>
 <path d="m333.41 303.41h110.59c16.62 0 30 13.38 30 30v110.59c0 16.62-13.38 30-30 30h-110.59c-16.62 0-30-13.38-30-30v-110.59c0-16.62 13.38-30 30-30z" fill="#706389" stroke-width=".98592"/>
 <path d="m400.83 388.71 36.556-36.557c3.3236-3.3233 3.3236-8.7907 0-12.114-3.3233-3.3233-8.7904-3.3233-12.114 0l-36.557 36.557-36.557-36.557c-3.3233-3.3233-8.7911-3.3233-12.114 0-1.6618 1.6617-2.5193 3.8594-2.5193 6.0571s0.85751 4.3954 2.5193 6.057l36.557 36.557-36.557 36.557c-1.6618 1.6616-2.5193 3.8594-2.5193 6.057 0 2.1977 0.85751 4.3954 2.5193 6.0571 3.323 3.3233 8.7908 3.3233 12.114 0l36.557-36.557 36.557 36.557c3.3233 3.3233 8.7904 3.3233 12.114 0s3.3236-8.7908 0-12.114z" fill="#efefef" stroke-width=".94266"/>
 <path d="m122.6 262.47c-28.224 0-51.176-22.952-51.176-51.176 0-14.022 5.5526-27.098 15.66-36.847 1.6376-1.5865 4.2476-1.5353 5.8085 0.10235 1.5865 1.6376 1.5353 4.2476-0.10235 5.8085-8.4696 8.1882-13.127 19.165-13.127 30.936 0 23.669 19.268 42.937 42.937 42.937s42.937-19.268 42.937-42.937c0-22.287-17.067-40.685-38.843-42.758v16.018c0 2.2773-1.8423 4.1197-4.1197 4.1197s-4.1197-1.8423-4.1197-4.1197v-20.317c0-2.2773 1.8423-4.1197 4.1197-4.1197 28.224 0 51.176 22.952 51.176 51.176s-22.927 51.176-51.15 51.176z" fill="#efefef" stroke-width=".44999"/>
 <path d="m102.1 187.22 25.46 18.295c3.4544 2.482 4.2732 7.2926 1.7912 10.747s-7.2926 4.2732-10.747 1.7912c-0.71646-0.51176-1.3306-1.1259-1.7912-1.7912l-18.295-25.46c-0.81882-1.1515-0.56294-2.7635 0.58852-3.5823 0.92116-0.66529 2.1238-0.61411 2.9938 0z" fill="#efefef" stroke-width=".44999"/>
</svg>
