<svg width="300" height="300" version="1.1" viewBox="0 0 300 300" xmlns="http://www.w3.org/2000/svg">
 <path d="m28.291 208 2 2h8e-3l68.875 68.883c14.08 14.08 32.454 21.117 50.826 21.117 18.373 0 36.751-7.0376 50.828-21.117l68.883-68.883s1.905-1.9048 2-2z" fill="#894b2c" stroke-width="0"/>
 <path d="m150-2e-6c-18.375 0-36.75 7.0395-50.83 21.119l-78.053 78.053c-28.16 28.159-28.16 73.499 0 101.66l9.172 9.168h239.42s-2e-3 -2e-3 9.172-9.168c28.16-28.159 28.16-73.499 0-101.66l-78.053-78.053c-14.08-14.08-32.453-21.119-50.828-21.119z" fill="#fdf7c0" stroke-width="4.2857"/>
 <path d="m6.9142 119.46c-4.554 9.6599-6.9142 20.085-6.9142 30.535 0 18.375 7.0389 36.746 21.119 50.824l9.174 9.1739h239.41l9.174-9.1739c14.08-14.08 21.119-32.451 21.119-50.824 0-10.45-2.3601-20.876-6.9142-30.535z" fill="#efdfa7" stroke-width="6.8275"/>
 <path d="m99.443 26.2c-1.8158 0.0094-3.6395 0.06021-5.4574 0.10881l-60.06 60.059v123.63h108.87l7.1987-178.08c-15.878-4.0537-33.13-5.8054-50.559-5.7171z" fill="#c7b280" stroke-width="4.2857"/>
 <path d="m77.534 78.421h21.658v-27.796c0-13.344-21.658-13.344-21.658 0v27.796" fill="#e0c68f" stroke-width="4.2857"/>
 <path d="m69.147 51.143-21.663 21.663v5.6082h21.663z" fill="#e0c68f" stroke-width="4.2857"/>
 <path d="m77.534 130.56h21.658v-27.799c0-13.344-21.658-13.344-21.658 0v27.799" fill="#e0c68f" stroke-width="4.2857"/>
 <path d="m47.487 130.56h21.658v-27.799c0-13.344-21.658-13.344-21.658 0v27.799" fill="#e0c68f" stroke-width="4.2857"/>
 <path d="m129.24 78.421h-21.658v-27.796c0-13.344 21.658-13.344 21.658 0v27.796" fill="#e0c68f" stroke-width="4.2857"/>
 <path d="m129.24 130.56h-21.658v-27.799c0-13.344 21.658-13.344 21.658 0v27.799" fill="#e0c68f" stroke-width="4.2857"/>
 <path d="m108.75 13.142c-3.3505 2.3617-6.5743 4.9752-9.576 7.9769l-13.56 13.56h57.189l-12.581-21.537z" fill="#e0c68f" stroke-width="4.2857"/>
 <path d="m142.83 62.838-1.1149 147.16h23.336s-2.6644-56.952-2.6644-67.045c0-18.326 43.547-43.74 45.236-62.331 2.1252-7.5338 0.63819-10.953-6.4402-8.0043 4.2212 7.6006-32.339 35.629-39.743 39.743l0.90549-40.797c-4.1652-12.094-10.929-13.988-19.516-8.7252" fill="#2c2b2b" stroke-width="4.2857"/>
 <path d="m150 0.0017778c-18.375 0-36.746 7.0388-50.824 21.118l-11.869 11.869c3.0229 19.659 19.959 34.729 40.463 34.729 5.9979 0 11.683-1.2974 16.816-3.6077 13.406 9.377 34.527 12.005 45.034 1.4983 10.844-6.9025 20.935-15.852 29.171-26.526l-17.963-17.963c-14.08-14.08-32.451-21.118-50.824-21.118z" fill="#a99726" stroke-width="4.2857"/>
 <path d="m64.304 131.93 9.5293 30.473s2.8903 3.2926 5.937-0.32571c-0.86799-4.0737-4.8703-31.6-4.8703-31.6s-7.1207-2.0937-10.596 1.4531" fill="#f1a45d" stroke-width="4.2857"/>
 <path d="m69.722 166.46c5.388-2.3732 4.6024-1.1651 4.1114-4.0583 0 0 3.2075 0.15389 5.937-0.32576 0.69163 3.6183 0.80182 4.7297 1.4918 8.3704-6.1299 1.0428-11.688 2.2634-16.958 3.1588-0.8196-4.7588 0.61389-5.0314 5.4176-7.1451" fill="#3f3e40" stroke-width="4.2857"/>
 <path d="m94.634 116.28s-20.172-0.33887-26.88 1.8125c-6.4264 2.0628-8.0713 4.0891-4.815 18.341 3.0737 2.0223 11.226 2.8148 15.322 1.7788 5.5714-1.8257 21.909-10.243 27.297-15.631 0 0 4.6252-5.3571-10.924-6.3016" fill="#2c2b2b" stroke-width="4.2857"/>
 <path d="m30.293 150.29c-14.698 0-23.928 8.2735-27.69 18.658 1.0198 3.7252 2.377 7.3671 4.0095 10.923 0.12137-11.851 8.0023-23.613 23.68-23.613 31.621-1e-5 31.594 47.768 0 47.768-2.4785 0-4.7409-0.32125-6.8306-0.86215l6.8306 6.8305c39.491 0 39.525-59.708 0-59.708z" fill="#3f3e40" stroke-width="4.2857"/>
 <path d="m128.66 204.35c31.594 0 31.621-47.764 0-47.764-31.594 0-31.621 47.764 0 47.764zm0-53.738c39.527 0 39.493 59.708 0 59.708-39.525 0-39.491-59.708 0-59.708" fill="#3f3e40" stroke-width="4.2857"/>
 <path d="m76.343 171.28 0.28024 1.2811-0.51994 0.81247-7.5605 1.6497-0.81476-0.52221-0.27862-1.2811 0.52157-0.81248 7.5605-1.6497 0.8115 0.52221" fill="#92c6c4" stroke-width="4.2857"/>
 <path d="m126.28 180.26h-94.08l12.545-36.586h60.934zm-97.907 2.7343h102.66l-23.784-42.055h-64.457l-14.422 42.055" fill="#6fb1b1" stroke-width="4.2857"/>
 <path d="m128.66 185.83c7.4216 0 7.4285-11.219 0-11.219-7.4199 0-7.4263 11.219 0 11.219" fill="#92c6c4" stroke-width="4.2857"/>
 <path d="m30.289 185.83c7.4195 0 7.4263-11.219 0-11.219-7.4225 0-7.4285 11.219 0 11.219" fill="#92c6c4" stroke-width="4.2857"/>
 <path d="m80.029 182.44 32.734-44.382-2.1986-1.6229-32.734 44.382 2.1987 1.6228" fill="#6fb1b1" stroke-width="4.2857"/>
 <path d="m118.83 138.68h-20.955l-0.68516-0.73877c0.0972-1.5713 0.54913-2.8726 1.6983-4.1183l0.86173-0.36347h17.455l0.78561 0.2898c1.0918 1.0268 1.453 2.4086 1.5226 4.208l-0.68358 0.72291" fill="#92c6c4" stroke-width="4.2857"/>
 <path d="m78.323 182.82 2.0806-1.7697c-0.22517-0.2679-26.857-30.948-36.473-42.912-4.8352-6.0132-6.4556-8.5152 2.5846-9.89l-0.41306-2.7034c-11.213 1.7097-10.549 6.7786-4.3663 14.223 10.217 12.301 36.362 42.785 36.587 43.054" fill="#6fb1b1" stroke-width="4.2857"/>
 <path d="m78.932 187.89c7.8502 0 7.857-11.868 0-11.868-7.851 0-7.857 11.868 0 11.868" fill="#92c6c4" stroke-width="4.2857"/>
 <path d="m89.723 192.54-9.339-10.649-1.3056 1.1005 9.4239 10.459 1.2213-0.91031" fill="#6fb1b1" stroke-width="4.2857"/>
 <path d="m92.882 191.57 0.21703 1.2949-0.5637 0.78574-7.6312 1.2743-0.78562-0.55997-0.21707-1.2949 0.56044-0.78574 7.6342-1.2748 0.78562 0.56061" fill="#92c6c4" stroke-width="4.2857"/>
 <path d="m78.932 183.44c1.9617 0 1.964-2.9668 0-2.9668-1.9645 0-1.9645 2.9668 0 2.9668" fill="#6fb1b1" stroke-width="4.2857"/>
 <path d="m88.502 148.67c3.0515 12.134 4.3324 18.554 7.9286 32.734 0 0-5.5894 3.748-7.6453 0.84389-4.5159-12.768-5.9152-16.406-10.924-31.781 2.2566-2.2565 6.8057-7.5578 10.641-1.7966" fill="#f9ab62" stroke-width="4.2857"/>
 <path d="m85.737 186.08c3.7766-1.768 2.98-1.228 3.0491-3.8325 0 0 4.911-0.39313 7.6453-0.84389 1.0448 4.2051 1.0448 5.4664 2.1828 8.9176-6.1384 0.97542-13.172 2.2874-18.451 3.1245-1.1857-4.4592 0.87956-5.1698 5.5736-7.3658" fill="#3f3e40" stroke-width="4.2857"/>
 <path d="m122.93 124.62c0.16358 5.1741-2.5313 6.9085-9.2546 10.431-9.2208 4.8304-12.908 6.7075-19.018 9.7049-4.4147 2.1657-4.5982 0.98223-1.8772 9.5712-3.6674 1.9646-9.513 4.3975-14.949 3.96-6.411-18.143-3.3303-19.971 3.0582-23.971 6.0446-3.7834 10.191-6.7812 24.902-16.221 13.449 0.31714 11.424 0.81021 17.138 6.5245" fill="#3f3e40" stroke-width="4.2857"/>
 <path d="m91.562 64.703c0.5337 2.444 1.0246 4.4687 2.2434 6.4778 0.07371 6.6826-7.4932 10.888-9.699 2.3748 0.23259-2.364 0.096-3.9931-0.26516-6.5382 0.3657-2.1537 5.6469-4.8167 7.7207-2.3143" fill="#f1a45d" stroke-width="4.2857"/>
 <path d="m94.767 71.452s-4.2011 6.5961-11.873 3.2343c2.0605 5.1364 10.471 41.58 10.471 41.58 3.0138 2.4954 7.8017 4.464 12.444 3.328-0.66249-9.4109-9.1496-46.774-11.042-48.141" fill="#fff" stroke-width="4.2857"/>
 <path d="m80.633 76.338c-3.1092 2.6383-7.0269 12.301-12.344 25.406 0.9087 2.2497 3.964 5.7989 6.8794 4.9084 4.3856-8.4466 5.8479-11.536 8.67-16.534 2.156 8.0781 4.6757 14.792 6.7162 26.138 1.406 1.4063 2.9422 2.6051 5.5676 3.1297-0.47134-10.346-4.6119-25.765-6.8173-30.181-2.2073-4.4104-2.6897-14.598-8.6717-12.868" fill="#b6a742" stroke-width="4.2857"/>
 <path d="m51.696 120.01c1.004-0.62687 1.0937-0.93715 15.343-15.922 2.5315 0.70512 8.7013 2.864 6.1029 4.9332-5.0559 4.1988-9.4916 7.6628-14.971 11.703-3.4086 2.5137-2.7412 1.4263-4.152 7.6388l-6.417 0.91486c-0.16573-0.99312-0.06287-1.9554 0.18514-2.6114l-0.6543 0.48398c-0.46402 0.39544-1.3166 0.58971-1.1023-0.67829 0.45716-2.7188 2.9463-4.7678 5.6653-6.4624" fill="#f9ab62" stroke-width="4.2857"/>
 <path d="m44.5 125.58 0.6123 3.0331 0.49406 0.36171c3.4018-0.37256 9.8195-0.72518 13.482-0.76971l0.87309-0.71433c0.28183-1.1942 0.25269-2.3686-0.20572-3.5137l-0.89739-0.59138c-4.0223 0.2211-9.3617 0.6852-14.007 1.656l-0.34989 0.53823" fill="#92c6c4" stroke-width="4.2857"/>
 <path d="m47.616 129.19s0.52646-3.328 4.5292-3.8954c0 0 2.3189-0.59996 1.8995 3.0537 0 0 0.1134 0.89313-1.7811 1.2903-1.9041 0.39942-4.8527 0.24574-4.6474-0.44854" fill="#f9ab62" stroke-width="4.2857"/>
 <path d="m65.624 101.79c-0.8439 1.4685-0.74349 2.9263 3.3548 6.2742 3.1183 2.5468 5.1159 2.6943 6.8259 0.74347 1.8056-2.2743-0.96703-2.4908-3.6292-4.533-3.2595-2.5022-5.0002-5.1904-6.5516-2.4845" fill="#a99726" stroke-width="4.2857"/>
 <path d="m137.54 35.389c-0.16196-0.82804-0.71598-1.9423-0.50863-3.2566 0.18951-1.208 0.68841-2.6474 0.64954-3.7348-0.0326-0.82105 1.0318-0.85251 1.2391-0.10688 0.38388 1.3726 0.42926 3.4908 0.42926 3.4908s1.866-2.0983 2.0915-3.0777c0.22513-0.98695 0.71597-4.5582 3.0736-4.6988 2.3594-0.14091 2.4354 3.0823 2.2234 4.437-0.19924 1.2594-0.1458 2.8126-2.701 6.0921l-0.91681 0.96865c-1.9844 1.7789-0.5799 2.808-9.0424 33.265-1.1566 0.12471-4.5159 0.02443-5.4086-5.7548 3.7612-11.306 9.3326-25.27 8.8727-27.624" fill="#f9ab62" stroke-width="4.2857"/>
 <path d="m98.864 71.165c2.9594-0.2412 5.0554-0.57145 7.7897-1.2926 5.0473-1.3349 10.569-3.2743 21.042-6.8794 3.0468 0.63205 5.8123 4.7678 4.5536 7.2878-4.9286 3.1543-15.038 7.4554-20.565 9.4709 3.9107 12.139 8.7163 23.328 11.243 44.862-5.886 1.576-17.517-0.87483-20.489-2.8817 0.0972-7.2964-4.5202-27.692-7.4593-33.785-1.2618-6.9355-5.9644-14.5 3.8841-16.783" fill="#b6a742" stroke-width="4.2857"/>
 <path d="m135.1 70.732c-2.1004 1.5652-2.3191 0.74575-6.0424-4.0983-2.8839-3.7542-3.5782-4.5578-1.7879-5.8367 1.8393-1.3125 3.1562 0.37482 5.3816 3.4217 1.6674 2.2811 4.9174 4.6761 2.4486 6.5129" fill="#a99726" stroke-width="4.2857"/>
 <path d="m84.104 73.552c-1.2715 0.93719-2.375 1.7903-3.4709 2.7857 1.3623 0.92618 1.4384 1.8571 1.4384 3.6183l2.3189-1.0692-0.76132 2.9686c2.1496 1.5514 3.2033 2.8885 5.6764 7.3504-1.1565-5.3571-2.259-14.288-5.2012-15.653" fill="#a99726" stroke-width="4.2857"/>
 <path d="m93.803 71.178c1.9645 0.0891 2.6427 0.13118 5.0606-0.01371-0.42274 2.2051-1.7327 4.0691-1.7327 4.0691h-2.5737l1.3169 2.5223s-1.9039 7.7301-0.89413 10.192c-2.4177-5.0447-3.152-7.0401-3.2589-9.9822-0.1134-2.9417 0.82123-5.3164 2.0824-6.7872" fill="#a99726" stroke-width="4.2857"/>
 <path d="m94.407 55.57s1.0063-2.2297 2.6469-1.3886c1.6389 0.83943 1.9154 5.9087 0.11657 6.2926-1.7994 0.38172-1.7903-1.1206-1.7903-1.1206l-0.97316-3.7834" fill="#f1a45d" stroke-width="4.2857"/>
 <path d="m77.127 60.014s-1.9594-1.4686-2.9886 0.06056c-1.0314 1.5269 1.1743 6.0981 2.9332 5.5667 1.7611-0.53142 1.0291-1.8457 1.0291-1.8457l-0.97372-3.7817" fill="#f1a45d" stroke-width="4.2857"/>
 <path d="m95.286 56.213s0.63819 2.1297 0.44383 4.6298c-0.19277 2.5-2.1453 7.5085-4.8257 9.0668-2.6827 1.56-7.1786 1.2942-9.2525-0.62279-2.0732-1.9177-4.3059-5.0605-4.6046-5.6138-0.30129-0.55589-1.0853-4.2165-1.0853-4.2165s-2.1806-2.6114-2.0445-4.8617c-0.74186-6.3886 7.1696-9.1966 8.0735-9.5866 0.90386-0.39085 9.4042 0.03086 9.8486 0.70735 0.44709 0.67658 3.9778 6.7251 3.4463 10.498" fill="#f9ab62" stroke-width="4.2857"/>
 <path d="m95.286 56.213s2.3124-12.216-3.371-14.944c0 0-2.1046-1.1183-3.8035 0.26743l-0.7872 2.4154 1.6366 2.424c1.3234 0.01929 3.9708-0.74965 6.3257 9.8369" fill="#cd3b22" stroke-width="4.2857"/>
 <path d="m82.424 37.87-10.647 10.647c-0.68074 3.2182 1e-3 7.3302 4.1853 10.94 0 0-1.4558-6.1949-0.78682-7.1566 0.67222-0.96458 2.7971-5.3044 13.786-5.9181 0 0 0.04359-3.4871-0.8538-4.8467 0 0-1.7599-3.7048-5.6837-3.6663z" fill="#cd3b22" stroke-width="4.2857"/>
 <path d="m88.343 69.7c2.3508-0.60514 4.5292-4.1697 4.5292-4.1697s-0.28183-2.3794-2.8726-2.1074c-2.5915 0.27261-5.6499 1.2949-6.279 1.616-0.63009 0.31941-1.3866 1.3731-1.1614 2.8617 0 0 3.4309 2.404 5.7836 1.7994zm-11.48-6.5266c0.68357 1.3349 3.2451 3.1897 3.8234 3.5937 0.57827 0.40624 1.1177 0.66055 0.78073-0.64971-0.3369-1.308 3.6676-3.2611 5.0246-3.6091 1.3542-0.35082 5.967-1.2994 6.5426 0.63368 0.57827 1.9354 1.2213 0.13444 1.2213 0.13444 1.1387-2.0309 1.4286-4.8878 1.4286-4.8878s1.3331 3.9417 1.1857 5.8324c-0.1458 1.888-4.6586 7.3902-7.6899 8.1698-3.0308 0.77879-9.1783-2.7571-10.39-3.4731-1.2116-0.71661-1.9263-5.7432-1.9263-5.7432" fill="#cd3b22" stroke-width="4.2857"/>
 <path d="m157.27 0.38749c-5.2033 13.712-1.4643 29.817 10.656 33.624-12.982 13.721-4.2917 42.407 20.349 37.851 8.2033 20.502 41.404 21.88 47.554-4.7712 2.8225-0.67139 5.4309-1.7514 7.8347-3.1306l-42.841-42.84c-12.219-12.218-27.672-19.118-43.552-20.734z" fill="#b6a742" stroke-width="4.2857"/>
 <path d="m237.22 202.42c-2.4108-1.2302-5.3726-1.3772-7.2544-0.21202-0.47088 1.3389-0.71889 5.1651-0.83032 6.3304 2.6783 0.63591 5.9863 0.63591 8.6653 0-0.0583-1.152-0.15711-4.7747-0.58054-6.1182" fill="#ea4121" stroke-width="4.2857"/>
 <path d="m229.13 208.54-0.0599 1.4594h8.6606l0.0648-1.4594h-8.6653" fill="#ea4121" stroke-width="4.2857"/>
 <path d="m220.21 202.42c2.4109-1.2302 5.3747-1.3772 7.2566-0.21202 0.47134 1.3389 0.71662 5.1651 0.82852 6.3304-2.6789 0.63591-5.9867 0.63591-8.6636 0 0.0567-1.152 0.1539-4.7747 0.57827-6.1182" fill="#ea4121" stroke-width="4.2857"/>
 <path d="m228.3 208.54 0.0599 1.4594h-8.6606l-0.0632-1.4594h8.6636" fill="#ea4121" stroke-width="4.2857"/>
 <path d="m227.18 165.55c0.39493 18.335 0.29207 22.761 0.29207 36.661l-7.2566 0.21201c-2.0783-17.482-2.0937-28.667-3.4978-38.165 3.7949-0.91079 7.3127-0.61195 10.462 1.292" fill="#f9ab62" stroke-width="4.2857"/>
 <path d="m230.62 165.55c-0.39716 18.335-0.6651 22.73-0.6651 36.627l7.2544 0.20751c2.0806-17.484 2.4686-28.629 3.8709-38.127-3.7926-0.91079-7.3102-0.61195-10.46 1.292" fill="#f9ab62" stroke-width="4.2857"/>
 <path d="m243.05 153.57c2.4977 6.4975 0.79256 13.265-5.8239 13.265h-16.658c-6.6159 0-8.3212-6.7679-5.8234-13.265 11.565-1.4822 18.143-1.9131 28.306 0" fill="#46494d" stroke-width="4.2857"/>
 <path d="m213.13 142.05c-0.0454-6.9775 0.0403-19.133 2e-3 -38.381 5.4686-3.4686 26.035-3.4885 31.538 0-0.0373 19.248 0.0454 31.404 2e-3 38.381-5.7973 3.0428-22.726 3.4468-31.543 0" fill="#6fb1b1" stroke-width="4.2857"/>
 <path d="m244.66 143.97c-0.0923 7.9868-0.4422 8.9669-1.6006 10.308-9.4355 2.0486-18.871 2.0486-28.306 0-1.1588-1.3417-1.5092-2.3217-1.6006-10.308 9.8773 0.3348 28.128-0.4017 31.507 0" fill="#6fb1b1" stroke-width="4.2857"/>
 <path d="m213.15 143.97c-9e-3 -0.59995-0.0137-1.9617-0.018-2.6446 10.513 2.0331 21.029 2.0331 31.543 0-5e-3 0.68288-0.0116 2.0446-0.018 2.6446-10.502 2.0291-21.005 2.0291-31.507 0" fill="#92c6c4" stroke-width="4.2857"/>
 <path d="m207.22 111.96c-0.0988-0.23194-1.596-1.6805-1.2766-3.8594 0.23422-1.6005 0.28736-2.2228-0.32623-3.3503-0.47087-0.86854-1.2903-2.5983-1.3258-3.1183-0.0403-0.51994-0.52693-2.2411-1.54-2.1766-1.0137 0.0648 0.29208 4.2057 0.29208 4.2057s-1.3326-1.8348-1.3057-4.1406c0.0244-1.9977 0.43766-4.2972 0.094-5.1029-0.21429-0.50682-0.732-0.45077-1.5291 0.86802-0.72047 1.1942-1.9217 3.4623-1.6468 5.181 0.27197 1.7188 1.7388 4.9487 3.6383 8.5443 0 0 0.57601 0.48852 0.68971 4.2028l4.2366-1.2542" fill="#f9ab62" stroke-width="4.2857"/>
 <path d="m209.26 115.74-1.8748-4.3658c-1.8303 0.0356-3.5314 0.44853-5.067 1.348 2.1292 13.158 2.5017 15.007 4.6629 24.908 2.076-5.0138 3.9617-14.288 2.2788-21.891" fill="#92c6c4" stroke-width="4.2857"/>
 <path d="m213.13 103.67s-2.4269 1.2142-2.9937 4.9332c-0.56691 3.7211-3.1537 27.495-3.1537 29.033 0 2.5623 3.292 4.6315 6.1474 1.7788 0.76518-6.9552 1.696-27.01 0-35.745" fill="#92c6c4" stroke-width="4.2857"/>
 <path d="m244.67 103.67s1.788 1.2142 2.3526 4.9332c0.56691 3.7211 3.308 26.364 3.308 27.901 0 2.5628-3.7989 5.5782-5.6606 2.9108-0.76569-6.9552-1.6989-27.01 0-35.745" fill="#92c6c4" stroke-width="4.2857"/>
 <path d="m241.44 79.025c4e-3 11.957-3.3349 23.522-3.3349 43.542-6.0939 3.3303-11.978 3.3634-18.13 0 0.92409-17.351-3.8371-32.364-3.3372-43.542 0.64744-14.439 24.799-14.124 24.802 0" fill="#f7ba2a" stroke-width="4.2857"/>
 <path d="m192 210h13.779v-36.567l-13.779 5.5872v30.979" fill="#46494d" stroke-width="4.2857"/>
 <path d="m195.86 164.91c-2.1314 0-3.8672 1.7273-3.8672 3.8588v10.555h101.65c2.0929-4.6641 3.6923-9.4889 4.7379-14.414z" fill="#2c2b2b" stroke-width="4.2857"/>
 <path d="m290.92 134.8c1.5892 9.7696 2.0023 18.881 0 26.64-6.2503 1.4999-12.81 1.4108-19.63 0-1.3971-7.5874-1.1697-16.645 0-26.558 6.315-2.6383 13.328-2.676 19.63-0.0826" fill="#ea4121" stroke-width="4.2857"/>
 <path d="m294.32 136.51c-1.5422 8.7098-1.7074 17.059 0 24.927 1.5111 0.70932 3.0258 1.0619 4.5369 1.0798 1.3011-7.3486 1.417-14.839 0.41014-22.223-1.5444-1.486-3.2016-2.7446-4.947-3.7834z" fill="#ea4121" stroke-width="4.2857"/>
 <path d="m258.58 145.6c2.5754-3.8902 5.7742-6.8815 9.3034-8.9909 1.3704 8.3211 1.364 16.601 0 24.837-2.8572 1.56-5.9914 1.3457-9.3034 0v-15.846" fill="#ea4121" stroke-width="4.2857"/>
 <path d="m290.92 164.97h-19.63c-1.2856-1.1766-1.2856-2.3508 0-3.5268h19.63c1.424 1.4617 1.1429 2.58 0 3.5268" fill="#cd3b22" stroke-width="4.2857"/>
 <path d="m294.32 161.44c-1.0268 1.176-1.0268 2.3557 0 3.5323h4.0513c0.25016-1.173 0.45381-2.3506 0.64453-3.5323z" fill="#cd3b22" stroke-width="4.2857"/>
 <path d="m267.89 161.44c1.3679 1.176 1.3679 2.3503 0 3.5268h-9.3035v-3.5268h9.3035" fill="#cd3b22" stroke-width="4.2857"/>
 <path d="m288.8 142.45c0 4.5895-15.398 4.5912-15.398 0 0-5.9815 15.398-5.9798 15.398 0" fill="#cd3b22" stroke-width="4.2857"/>
 <path d="m294.32 136.51c-2.5446 3.212-1.5691 3.6474-3.3994-1.7074-3.0983-11.681-16.228-12.149-19.63 0.0826-1.8326 4.9645-0.86803 4.5582-3.3994 1.7211 2.864-19.683 23.585-19.623 26.429-0.0956" fill="#cd3b22" stroke-width="4.2857"/>
 <path d="m294.32 136.51v28.46h-3.3994v-30.167c1.1606 0.47995 2.2966 1.0491 3.3994 1.7074" fill="#cd3b22" stroke-width="4.2857"/>
 <path d="m271.29 134.88v30.085h-3.3994v-28.364c1.1029-0.66055 2.2389-1.2343 3.3994-1.7211" fill="#cd3b22" stroke-width="4.2857"/>
</svg>
