<svg width="300" height="300" version="1.1" viewBox="0 0 300 300" xmlns="http://www.w3.org/2000/svg">
 <path d="m28.292 208 2 2h8e-3l68.875 68.883c14.08 14.08 32.454 21.117 50.826 21.117 18.373 0 36.751-7.0376 50.828-21.117l68.883-68.883s1.905-1.9048 2-2z" fill="#bf8534" stroke-width="0"/>
 <path d="m150-1e-6c-18.375 0-36.75 7.0395-50.83 21.119l-78.053 78.053c-28.16 28.159-28.16 73.499 0 101.66l9.172 9.168h239.42s-2e-3 -2e-3 9.172-9.168c28.16-28.159 28.16-73.499 0-101.66l-78.053-78.053c-14.08-14.08-32.453-21.119-50.828-21.119z" fill="#f3ba3d" stroke-width="4.2857"/>
 <path d="m85.938 34.351-49.912 49.911h227.95l-49.912-49.911z" fill="#92c6c4" stroke-width="4.2857"/>
 <path d="m165.5 81.811v-27.106c0-0.90333 0.73217-1.635 1.6418-1.635h57.977c0.90549 0 1.6381 0.73165 1.6381 1.635v27.106c-20.594 2.5897-41.02 2.6856-61.256 0" fill="#6fb1b1" stroke-width="4.2857"/>
 <path d="m129.55 64.133v-3.7044c0-0.59476-0.48433-1.0755-1.0788-1.0755h-25.467c-0.59284 0-1.0772 0.48077-1.0772 1.0755v3.7044h-3.8271v17.681c11.121 2.6397 24.157 2.6397 35.278 0v-17.681h-3.8271" fill="#6fb1b1" stroke-width="4.2857"/>
 <path d="m251.23 71.525v10.279c3.7844 0.54882 7.5746 0.86892 11.359 1.0798z" fill="#6fb1b1" stroke-width="4.2857"/>
 <path d="m85.938 34.351-2.7706 2.7706h7.3076l22.224 22.224h15.77c0.59447 0 1.0798 0.48501 1.0798 1.0798v3.6997h3.8254v15.887l2.4275 2.4274h-5.3992c-4.7096 0.89802-9.6862 1.3393-14.665 1.3393-6.0386 0-12.084-0.65811-17.645-1.9754v-15.326l-19.528-19.528v-5.2234l-42.062 42.062h226.99l-49.436-49.435zm29.891 2.7706h21.747l27.924 27.916v-10.337c0-0.90333 0.73226-1.6322 1.6406-1.6322h8.4712l-15.946-15.946h8.0525l15.955 15.946h41.443c0.90549 0 1.6406 0.72891 1.6406 1.6322v27.103c-10.387 1.3028-20.729 1.9754-31.03 1.9754-8.3555 0-16.684-0.43594-24.978-1.3393h-9.6009z" fill="#c0e0dd" stroke-width="4.2857"/>
 <path d="m195.73 83.787c-8.3555 0-16.679-0.44027-24.972-1.3438h12.151l-17.398-17.401v-10.338c0-0.90333 0.73218-1.6349 1.6418-1.6349h8.472l29.378 29.374h8.052l-29.376-29.374h41.45c0.90549 0 1.6381 0.73165 1.6381 1.6349v27.106c-10.387 1.3028-20.736 1.9758-31.037 1.9758" fill="#aad3d0" stroke-width="4.2857"/>
 <path d="m115.73 83.787c-6.0386 0-12.078-0.65845-17.639-1.9758v-15.327l15.964 15.959h16.343c-4.7096 0.89802-9.6888 1.3438-14.668 1.3438m17.639-3.7721-20.666-20.665h15.759c0.59447 0 1.0788 0.48077 1.0788 1.0755v3.7044h3.8271v15.885" fill="#aad3d0" stroke-width="4.2857"/>
 <path d="m170.75 82.445h-9.5941l-45.317-45.321h21.745l27.922 27.92v16.769c1.7464 0.23083 3.4968 0.44027 5.2466 0.63205" fill="#d4eae8" stroke-width="4.2857"/>
 <path d="m182.9 82.445h-12.151c-1.75-0.19178-3.5004-0.40122-5.2466-0.63205v-16.769l17.398 17.401" fill="#c6e3e0" stroke-width="4.2857"/>
 <path d="m83.17 37.124-4.6037 4.6037v5.2234l19.528 19.537v-2.3605h3.8254v-3.6997c0-0.59477 0.48677-1.0798 1.0798-1.0798h9.7098l-22.232-22.224zm50.199 42.891v1.7996c-0.97655 0.23083-1.9687 0.43602-2.9716 0.62776h5.4073z" fill="#cde6e4" stroke-width="4.2857"/>
 <path d="m130.4 82.445h-16.343l-15.964-15.959v-2.3539h3.8271v-3.7044c0-0.59476 0.48433-1.0755 1.0775-1.0755h9.7076l20.666 20.665v1.7963c-0.97659 0.23083-1.9685 0.44027-2.9714 0.63205" fill="#bcdedb" stroke-width="4.2857"/>
 <path d="m183.67 53.071h-8.0538l-15.944-15.947h8.052l15.946 15.947" fill="#cde6e4" stroke-width="4.2857"/>
 <path d="m213.05 82.445h-8.052l-29.378-29.374h8.0538l29.376 29.374" fill="#bcdedb" stroke-width="4.2857"/>
 <path d="m78.558 41.736-4.9217 4.9217v35.457c1.6423 2.6415 3.2833 2.6415 4.9217 0z" fill="#fff" stroke-width="4.2857"/>
 <path d="m221.89 42.19v40.254c0 4.6435 4.9218 4.0293 4.9218 0v-35.331z" fill="#fff" stroke-width="4.2857"/>
 <path d="m88.072 32.217-4.5956 4.5955h133.04l-4.3444-4.3444z" fill="#fff" stroke-width="4.2857"/>
 <path d="m38.486 81.802-5.1313 5.1312 233.76 0.46877-5.5998-5.5997z" fill="#fff" stroke-width="4.2857"/>
 <path d="m148.57 96.147c-3.6652-1.6857-6.4016-1.8571-9.4646 0.018l-0.17203 3.7428c3.3417 3.9771 5.2256 4.383 9.8173 0l-0.1806-3.76" fill="#fac49a" stroke-width="4.2857"/>
 <path d="m147.01 210h8.4999c0.0858-1.9223-0.047-3.96-0.85252-6.0938-2.2497-1.6406-4.623-1.6834-7.1315 0-0.56919 1.888-0.88638 4.0468-0.51609 6.0938" fill="#414042" stroke-width="4.2857"/>
 <path d="m139.48 210h-8.4999c-0.0842-1.9223 0.047-3.96 0.85317-6.0938 2.2497-1.6406 4.6222-1.6834 7.1315 0 0.56919 1.888 0.88637 4.0468 0.5154 6.0938" fill="#414042" stroke-width="4.2857"/>
 <path d="m147.53 203.91h7.1315l2.3417-38.755-11.714-0.0339 2.2412 38.789" fill="#8d502a" stroke-width="4.2857"/>
 <path d="m138.97 203.91h-7.1315l-2.3417-38.755 11.714-0.0339-2.2412 38.789" fill="#8d502a" stroke-width="4.2857"/>
 <path d="m126.47 155.8c0.0891 2.4571-0.38177 8.4685 3.0246 10.023 3.2212 1.4628 7.3325 1.1714 14.158 1.1714 8.5582 6e-3 10.128-0.25722 13.346-1.1714 4.5823-1.3086 3.6943-8.1201 3.6943-10.577 0-2.4571-34.391-3.9714-34.224 0.55431" fill="#8d502a" stroke-width="4.2857"/>
 <path d="m158.83 102.66c7.2768 5.4856 8.5599 30.874 8.355 32.343-0.65894 4.6401-4.9286 5.4856-7.6368 3.2457-2.7297-11.16-2.5646-23.137-0.71821-35.588" fill="#414042" stroke-width="4.2857"/>
 <path d="m127.66 102.66c-7.2768 5.4856-8.5625 30.874-8.3572 32.343 0.65829 4.6401 4.9307 5.4856 7.6359 3.2457 2.7303-11.16 2.5646-23.137 0.72112-35.588" fill="#414042" stroke-width="4.2857"/>
 <path d="m160.69 155.25c-0.0339-9.4512-1.8594-52.589-1.8594-52.589l-10.679-2.7542c-4.9085 0.66282-6.375 0.29708-9.8173 0l-10.676 2.7542s-1.3885 43.692-1.192 53.142c2.1829 2.1828 31.663 2.5942 34.224-0.55431" fill="#383838" stroke-width="4.2857"/>
 <path d="m137.82 73.098s-3.7298 2.2685-3.8949 3.7028c-0.0648 0.57145 0.75207 4.3941 0.54687 7.2398-0.30566 4.2571 1.828 9.617 3.2611 11.194 2.8726 3.1657 7.2099 4.0686 9.8726 2.1828 3.5092-2.4914 4.2566-5.9999 4.8639-9.1255 0.2229-1.1543 0.32122-0.36574 0.29657-2.2457-0.0193-1.6-0.23421-5.0969-0.4017-6.7658-0.16504-1.6514-0.1053-3.4857-0.45305-4.12l-14.092-2.0628" fill="#fac49a" stroke-width="4.2857"/>
 <path d="m134.37 85.878s-6.2388-9.8172-0.96866-12.023h2.0109v2.3028s-0.5154 0.26288-0.76518 2.4857c-0.25251 2.2285 0.69151 6.1255-0.27715 7.2342" fill="#f4f3e6" stroke-width="4.2857"/>
 <path d="m133.4 73.852s-0.67205-3.3543 2.0109-4.3144c2.6834-0.9542 10.061-4.7884 16.768 1.7257 0 0 4.4893 8.6001 0.59838 16.297 0 0-0.43993 11.285-9.4218 11.285-2.6229 0-7.8862-3.52-9.0292-10.691-0.47542-3-1.0715-8.3541-0.92636-14.303" fill="#f4f3e6" stroke-width="4.2857"/>
 <path d="m163.12 172.52h-39.471c0-4.5998 3.7298-8.3258 8.3302-8.3258h22.81c4.5999 0 8.3302 3.7257 8.3302 8.3258" fill="#fff" stroke-width="4.2857"/>
 <path d="m124.54 174.86h-4.6539v-20.56h4.6539v20.56" fill="#f4f3e6" stroke-width="4.2857"/>
 <path d="m166.8 174.86h-4.6539v-20.56h4.6539v20.56" fill="#f4f3e6" stroke-width="4.2857"/>
 <path d="m166.19 174.86h-45.613v-3.1714h45.613v3.1714" fill="#f4f3e6" stroke-width="4.2857"/>
 <path d="m122.41 206.47h-6.7029v-37.522c0-1.8514 1.4999-3.3485 3.3503-3.3485 1.8526 0 3.3526 1.4972 3.3526 3.3485v37.522" fill="#fff" stroke-width="4.2857"/>
 <path d="m171.9 206.47h-6.7012v-37.522c0-1.8514 1.4999-3.3485 3.3509-3.3485 1.8503 0 3.3503 1.4972 3.3503 3.3485v37.522" fill="#fff" stroke-width="4.2857"/>
 <path d="m114.24 208.38 1.4662-2.7771h6.7033l1.0223 2.9263c0.24977 0.72565-0.31715 1.4691-1.1229 1.4691h-7.0136c-0.87712 0-1.4486-0.87308-1.0554-1.6183" fill="#f4f3e6" stroke-width="4.2857"/>
 <path d="m163.72 208.38 1.4692-2.7771h6.705l1.0177 2.9263c0.25252 0.72565-0.31487 1.4691-1.1206 1.4691h-7.0132c-0.87712 0-1.4486-0.87308-1.0582-1.6183" fill="#f4f3e6" stroke-width="4.2857"/>
 <path d="m156.67 157.84h-26.567c-8.5492 0-15.482-6.9312-15.482-15.485 0-7.1026 5.7635-12.869 12.87-12.869h31.79c7.1096 0 12.871 5.7655 12.871 12.869 0 8.5542-6.9309 15.485-15.482 15.485" fill="#fff" stroke-width="4.2857"/>
 <path d="m78.622 115.88s0.1539-3.2343 2.9308-3.4685c2.7772-0.23421 4.4379-0.80566 5.4755-1.8971 1.1052-1.1486 3.5452-3.4114 4.5339-4.737 0.9108-1.2228-1.6138-1.6286-4.4576-0.20571-1.6852 0.84003-3.6229 1.6685-5.4755 1.2058 0 0 1.0806-0.69149 2.0829-1.2343 1.0023-0.53712 1.9286-1.2343 0-1.3885-1.9263-0.1539-5.4622 2.3943-6.4016 3.5485-1.4023 1.7314-2.5452 4.9371-2.3126 8.1771h3.6246" fill="#fac49a" stroke-width="4.2857"/>
 <path d="m64.029 199.11c-2.612-1.5885-5.0962-1.8114-7.3933 0-1.0446 3.0297-1.3926 6.0321-1.0423 9.0098 1.9149 1.3412 7.0248 0.93946 9.4441 0 0.39086-3.0022 0.0047-6.0021-1.0085-9.0098" fill="#f8d683" stroke-width="4.2857"/>
 <path d="m55.591 208.12c0.07127 0.62687 0.16749 1.2544 0.30339 1.8794h8.8033c0.15227-0.62734 0.25706-1.2548 0.33707-1.8794h-9.4441" fill="#f8d683" stroke-width="4.2857"/>
 <path d="m86.02 184.05c-3.0514-0.18852-5.3503 0.77717-6.5362 3.4514 0.48917 3.1657 1.5829 5.9828 3.2835 8.4514 2.324 0.29138 6.6519-2.4514 8.3533-4.4112-1.0582-2.84-2.8018-5.3087-5.1005-7.4914" fill="#f8d683" stroke-width="4.2857"/>
 <path d="m82.771 195.96c0.35944 0.51994 0.73492 1.0342 1.1497 1.52l7.7812-4.1086c-0.15549-0.62862-0.35944-1.2343-0.5778-1.8228l-8.3533 4.4112" fill="#f8d683" stroke-width="4.2857"/>
 <path d="m78.798 165.81 7.2236 18.245-6.5362 3.4514-8.259-16.84c0-3.2457 4.5159-5.4171 7.5716-4.857" fill="#fac49a" stroke-width="4.2857"/>
 <path d="m54.832 173.65c0.67205 7.0512 0.98225 16.851 1.8034 25.457h7.3933c0.63142-10.217 0.0086-20.548 0.45257-27.708-3.5623-1.3315-6.819-0.82851-9.6493 2.2514" fill="#fac49a" stroke-width="4.2857"/>
 <path d="m67.647 151.87c-1.0801 0.30856 6.3326-4.5887 8.5539 13.937-8.2436 5.6455-10.58 6.4285-21.37 7.8458l-0.44465-8.9712c3.2949-8.3313 6.9223-8.9772 13.261-12.811" fill="#d53037" stroke-width="4.2857"/>
 <path d="m38.624 104.74c-4.8373 2.0857-5.8685 10.543-8.2573 30.445-0.66056 5.4912 5.0919 4.7884 7.1473 3.3371 3.2772-10.846 3.4446-28.36 1.1098-33.783" fill="#eb333b" stroke-width="4.2857"/>
 <path d="m66.202 139.62c-0.66738-7.6114-1.3035-18.417-1.7274-34.366-3.1429-1.1428-5.3842-2.3257-6.9202-3.1828h-9.1762l-9.7591 2.6686c-1.3039 22.868-0.26563 26.68-1.1206 34.828 7.8613 2.3485 20.056 2.12 28.703 0.0518" fill="#d53037" stroke-width="4.2857"/>
 <path d="m66.202 139.62c-10.042-1.6857-19.387-1.8686-28.703-0.0519-2.2457 17.263-0.63883 27.314 5.8367 27.24 4.4199-0.0518 16.496-0.10851 19.413-0.0567 5.0113 0.0794 7.3642-12.417 3.4531-27.131" fill="#d53037" stroke-width="4.2857"/>
 <path d="m70.227 124.62 4.596-12.034 5.0893 1.5028c-0.28346 2.1485-4.4285 24.057-6.549 27.766-3.4171-1.3143-3.5355-9.8455-3.136-17.234" fill="#d53037" stroke-width="4.2857"/>
 <path d="m66.652 106.59c2.2771 3.0742 1.8932 11.234 7.2433 32.605 0.24574 0.98287-0.06964 1.9371-0.53375 2.6571l-1.0446 1.1029c-9.4372 5.9999-9.9596-8.2512-12.926-27.28-0.60678-3.8971-1.5847-8.8799 3.3748-10.325 0.56516-0.16573 1.152-0.1944 1.7103-0.0907 0.85475 0.1539 1.6429 0.61148 2.176 1.3315" fill="#eb333b" stroke-width="4.2857"/>
 <path d="m62.011 82.784c1.0446 2.2685 1.9954 12.011-0.78108 13.703-4.0601 2.4743-3.172-1.9085-3.672 5.5885-23.259 11.331 0.25024-25.857 4.4533-19.291" fill="#fac49a" stroke-width="4.2857"/>
 <path d="m53.954 70.171c-0.7848-0.02271-1.6141 0.06938-2.4861 0.29297 0 0-0.64513-0.0876-1.5151-0.12557l-11.501 11.501c-2.2063 12.089 6.1059 26.901 5.3405 37.006-0.70509 9.3085 14.347 12.831 14.347-7.8432 0-4.9714-3.5852-15.933 0-27.196l5.3405-1.4146c-0.70556-6.2348-4.0321-12.061-9.5259-12.221z" fill="#414042" stroke-width="4.2857"/>
 <path d="m74.024 172.52h-39.472c0-4.5998 3.7303-8.3258 8.331-8.3258h22.81c4.5999 0 8.3302 3.7257 8.3302 8.3258" fill="#fff" stroke-width="4.2857"/>
 <path d="m35.439 174.86h-4.6539v-20.56h4.6539v20.56" fill="#f4f3e6" stroke-width="4.2857"/>
 <path d="m77.705 174.86h-4.6522v-20.56h4.6522v20.56" fill="#f4f3e6" stroke-width="4.2857"/>
 <path d="m77.097 174.86h-45.613v-3.1714h45.613v3.1714" fill="#f4f3e6" stroke-width="4.2857"/>
 <path d="m33.313 206.47h-6.7029v-37.522c0-1.8514 1.4999-3.3485 3.3503-3.3485 1.8526 0 3.3526 1.4972 3.3526 3.3485v37.522" fill="#fff" stroke-width="4.2857"/>
 <path d="m82.805 206.47h-6.7033v-37.522c0-1.8514 1.4999-3.3485 3.3508-3.3485 1.8526 0 3.3526 1.4972 3.3526 3.3485v37.522" fill="#fff" stroke-width="4.2857"/>
 <path d="m26.611 205.6-0.24274 0.46877 3.9258 3.9258h2.9213c0.80568 0 1.3714-0.74755 1.1217-1.4732l-1.0212-2.9213z" fill="#f4f3e6" stroke-width="4.2857"/>
 <path d="m74.632 208.38 1.4669-2.7771h6.7029l1.0223 2.9263c0.25024 0.72565-0.31714 1.4691-1.1229 1.4691h-7.0132c-0.87712 0-1.4486-0.87308-1.056-1.6183" fill="#f4f3e6" stroke-width="4.2857"/>
 <path d="m67.574 157.84h-26.568c-8.5531 0-15.484-6.9312-15.484-15.485 0-7.1026 5.7635-12.869 12.871-12.869h31.793c7.107 0 12.871 5.7655 12.871 12.869 0 8.5542-6.9326 15.485-15.482 15.485" fill="#fff" stroke-width="4.2857"/>
 <path d="m223.54 65.063s-0.82852 1.5944 1.5772 26.84c0 0 9.6228 0.18287 12.217 0 2.6-0.18853-4.0343-11.503-4.0343-11.503s-8.8573-12.965-9.7599-15.337" fill="#eb333b" stroke-width="4.2857"/>
 <path d="m193.25 92.881s-0.46856-1.3829 0.25715-1.5714c0.73145-0.18857 5.3199-0.49714 5.9602 0.1257 0.64573 0.62284 2.6572 3.52 3.8743 4.2285 1.2228 0.70285 4.5772 2.5257 4.5772 2.5257l-2.5143 3.6399s-3.0572-3.1257-3.96-3.56c-0.90288-0.43427-3.4743-0.85713-3.4743-0.85713l-4.7199-4.5312" fill="#fac49a" stroke-width="4.2857"/>
 <path d="m198.07 94.878c-0.66283-0.90852-2.2171-2.2114-3.3143-2.5371-1.3656-0.41142-1.9486 0.28007-1.1142 1.6172s2.8457 3.0571 4.3372 3.4514c1.4857 0.39424 0.63999-1.7771 0.0907-2.5314" fill="#fac49a" stroke-width="4.2857"/>
 <path d="m225.34 84.468c-3.9943 0.30857-8.097 11.303-9.4115 15.005-0.79436 2.2228-0.39425 1.6229-10.2-3.56-1.9029 2.6228-2.7372 5.1655-3.2858 8.3772 15.417 5.8285 13.8 7.8513 21.532-2.1428 4.2572-8.4801 3.4743-13.531 1.3656-17.68" fill="#5fc9b4" stroke-width="4.2857"/>
 <path d="m241.47 81.468c-3.4972-1.0801-9.0571-0.61714-11.914 0.49144 0 0-2.4572 7.4626 3.4972 7.4626 7.1315 0 9.2688-4.6401 8.4172-7.9542" fill="#dad9cc" stroke-width="4.2857"/>
 <path d="m240.19 82.432c-0.36001-1.04-0.57142-3.2571-0.63429-4.9255-0.74859-2.6171-6.8285-2.5143-7.8288-0.27998-0.0116 1.6286-0.08 4.8801-0.75429 6.2001-5.9315 10.617 10.229 8.4342 9.2173-0.99428" fill="#fabd8f" stroke-width="4.2857"/>
 <path d="m245.24 170.79c-5.16 2.0743-15.023 1.6057-24.892 1.6057 0-40.434-0.53714-46.281 1.4972-55.615 2.0686-9.4915 2.6743-12.771 2.2857-14.097-2.7829-9.4169 1.9257-6.4855 1.2114-18.211 1.0342-0.49709 2.2229-0.73148 3.6343-0.89138 0.36574 6.2001 4.7143 9.1598 13.909 0.26288 1.3943 0.35991 2.6857 0.74849 3.7829 1.1886 2.2686 5.7827 1.7314 12.269-1.4285 16.886 0 0-2.3543 6.6286 0.35992 17.794 4.2458 17.491-4.1143 21.051-0.35992 51.081" fill="#31947b" stroke-width="4.2857"/>
 <path d="m242.89 83.838c-2.1143 2.5371-4.4284 6.0171-5.1313 9.2112-1.6858-1.6628-3.2-3.08-4.7088-3.6285 2.2114-4.9542 5.1943-7.0169 8.4172-7.9542 0.80567 0.50862 1.28 1.2971 1.4228 2.3714" fill="#5fc9b4" stroke-width="4.2857"/>
 <path d="m233.05 89.422c-0.33141-2.88-1.2-5.6344-3.4972-7.4626-0.37145 0.70281-1.9257 5.3828-1.4228 9.7315 0.9714-0.83421 2.7429-1.8628 4.92-2.2686" fill="#5fc9b4" stroke-width="4.2857"/>
 <path d="m246.67 85.029c6.7599 2.1428 7.9886 7.7656 7.9886 25.817 0 3.6228-0.5658 2.9314-17.046 14.097-2.2743-1.84-4.7657-6.1199-5.5659-8.7256 6.8229-3.2914 10.406-4.3542 12.206-5.0798 2.8457-1.1486 1.4914-3.1314 0.98855-9.2228-1.1428-5.1029 0.28573-12.491 1.4285-16.886" fill="#5fc9b4" stroke-width="4.2857"/>
 <path d="m242.32 74.032s2.68-2.3828 2.68-5.6228c0-3.2343-5.1202-7.9941-7.857-8.1312-2.7429-0.14254-5.9945-2.56-8.5942-2-2.6 0.56579-4.0858-0.2229-4.7602 3.2628-0.59996 3.1371-0.32576 12.828 3.0172 17.034 1.1029 1.3943 2.8514 2.1428 4.6513 2.04 2.28-0.13118 5.7656-0.74849 8.943-3.4 0.67998-0.5658 1.1314-1.3715 1.48-2.1714l0.43993-1.0114" fill="#fac49a" stroke-width="4.2857"/>
 <path d="m228.43 52.038c-1.5043-0.07071-3.3798 0.45004-4.8883 2.7957-3.0172 4.6915 0 10.229 0 10.229 3.6172-1.3143 5.9932-5.6335 5.9932-5.6335 1.3486 4.9714 7.3158 6.4705 7.3158 6.4705 0.29139-1.4228-0.47713-4.8715-0.47713-4.8715 3.3658 1.9314 4.135 7.6002 4.135 7.6002s1.8271-1.129 2.2099 1.4481c0.38288 2.5766-1.6323 2.62-1.6323 2.62 0.57716 4.6285-2.6685 5.7325-2.8628 6.0184 0.12588 0.37714 0.16826 1.5593 1.3225 4.5535 1.4514 3.7771 4.9556 10.036 4.9556 10.036h0.50225c8.7258 0 12.732-5.3485 12.732-5.3485-3.9993-3.9494-5.3413-10.194-6.5289-16.456l-19.194-19.193c-0.405 0.1995-0.94586 0.46037-0.94586 0.46037s-1.1324-0.65751-2.6368-0.72822z" fill="#eb333b" stroke-width="4.2857"/>
 <path d="m232.71 94.664c1.9086 1.88 3.4057 4.0228 4.4859 6.1941 1.2343 2.4914 1.9372 4.9885 2.1772 7.0971l-1.1771 0.11988c-0.20572-1.9943-0.88004-4.3427-2.0515-6.6912-1.0286-2.0514-2.44-4.1085-4.2572-5.8971l0.82286-0.82285" fill="#f4f3e6" stroke-width="4.2857"/>
 <path d="m227.67 92.988 2.6343-2.6114 3.5829 4.3144-1.9943 1.9657-4.2229-3.6685" fill="#fff" fill-rule="evenodd" stroke-width="4.2857"/>
 <path d="m239.87 106.67c1.88 0 3.4343 1.3486 3.4343 3.0171 0 1.6457-1.5544 3-3.4343 3s-3.4057-1.3543-3.4057-3c0-1.6686 1.5257-3.0171 3.4057-3.0171" fill="#fff" fill-rule="evenodd" stroke-width="4.2857"/>
 <path d="m198.96 121.22c14.406-4.6401 53.675-3.5543 57.459 0v88.778h-57.459v-88.778" fill="#fff" fill-rule="evenodd" stroke-width="4.2857"/>
 <path d="m194.62 121.22h66.15l-5.8685-11.183h-54.407l-5.8745 11.183" fill="#f4f3e6" fill-rule="evenodd" stroke-width="4.2857"/>
</svg>
