<svg width="300" height="300" version="1.1" viewBox="0 0 300 300" xmlns="http://www.w3.org/2000/svg">
 <path d="m28.292 208 2 2h8e-3l68.875 68.883c14.08 14.08 32.454 21.117 50.826 21.117 18.373 0 36.751-7.0376 50.828-21.117l68.883-68.883s1.905-1.9048 2-2z" fill="#413444" stroke-width="0"/>
 <path d="m150 2e-6c-18.375 0-36.75 7.0395-50.83 21.119l-78.053 78.053c-28.16 28.159-28.16 73.499 0 101.66l9.172 9.168h239.42s-2e-3 -2e-3 9.172-9.168c28.16-28.159 28.16-73.499 0-101.66l-78.053-78.053c-14.08-14.08-32.453-21.119-50.828-21.119z" fill="#42abb5" stroke-width="4.2857"/>
 <path d="m83.248 47.051h134.88c2.39 0 4.347 1.9567 4.347 4.3466v79.954h-143.58v-79.954c0-2.39 1.9568-4.3466 4.347-4.3466" fill="#46494d" fill-rule="evenodd" stroke-width="4.2857"/>
 <path d="m74.591 129.86h151.63c0.97127 0 1.7643 0.79453 1.7643 1.7661v1.7665h-155.16v-1.7665c0-0.97165 0.79453-1.7661 1.7665-1.7661" fill="#46494d" fill-rule="evenodd" stroke-width="4.2857"/>
 <path d="m83.707 51.856h133.96v78.004h-133.96v-78.004" fill="#2c2b2b" fill-rule="evenodd" stroke-width="4.2857"/>
 <path d="m133.32 75.954c9.2109 0 13.755 10.058 18.371 17.532l-35.634 0.18737c3.6065-13.143 10.957-17.72 17.264-17.72zm47.653 18.402-0.46598 0.78617c-2.9841 5.0344-8.043 7.4032-13.295 7.4032-6.4329 0-10.083-3.3606-13.598-8.0396zm-77.537 18.555 0.64213-18.136 10.66-0.05983c-0.42339 1.8884-0.67667 3.0309-1.3954 7.1117-0.12077 0.70646 0.90219 0.80032 1.016 0.1779 0.48454-2.7552 0.81411-4.6084 1.438-7.2969l36.633-0.19612c3.9405 5.5432 7.9792 9.1016 14.842 9.1016 7.0226 0 12.738-4.2092 14.814-9.2606l25.646-0.13933s-6.741 3.7629-10.157 5.3546c-0.60746 0.27686-0.18189 1.2248 0.42925 0.93343 4.4563-2.0746 8.1412-3.9717 12.761-7.0153 0.33832-0.23314 0.29473-0.74314-0.0763-0.90249-3.9979-1.7803-8.4506-3.4359-13.609-5.07-0.64389-0.17644-0.97127 0.77842-0.31286 0.98764 3.5468 1.1153 12.703 4.668 12.703 4.668l-26.861 0.14477c2.3245-5.4909 5.304-16.779 13.354-17.182 1.8189-0.13641 5.0092 0.40337 6.5117 1.6624 0.60026 0.486 1.1386-0.39073 0.66575-0.79153-1.3242-1.1109-4.4962-2.1768-7.7267-1.8116l-4e-3 -0.05156c-8.367 0.88693-11.161 11.661-13.929 18.183l-28.511 0.15613c-4.7486-7.3179-9.4809-18.562-19.707-18.562-7.074 0-14.708 5.292-18.264 18.768l-10.898 0.0567 1.0131-31.152 6.9159 9.9043c0.39506 0.55547 1.2277-0.03386 0.84579-0.58972l-7.8694-11.268-0.84549 0.0043-7.1494 10.33c-0.38782 0.55149 0.46496 1.1484 0.84433 0.58569l6.2267-8.9949-1.0117 31.184-8.3726 0.04744c-0.68212 0.0069-0.68212 1.0328 0.0015 1.0328l8.3469-0.04539-0.642 18.088c-0.03 0.7374 1.0003 0.7803 1.0302 0.0444" fill="#fff" stroke-width="4.2857"/>
 <path d="m3.3145 171.43c3.3606 10.739 9.2669 20.858 17.805 29.396l9.1758 9.1738h239.41l9.1738-9.1738c8.538-8.538 14.445-18.657 17.805-29.396zm266.39 38.57h8e-3z" fill="#7cd1cf"/>
 <path d="m216.45 115.99c1.2597-16.474 18.509-5.0267 21.933-2.4517l8.7523 52.787-7.2244 0.86271-11.679-47.22v47.649l-6.7787 0.4935c-1.9609-17.35-4.1165-37.707-5.004-52.123" fill="#f3f4f4" fill-rule="evenodd" stroke-width="4.2857"/>
 <path d="m253.88 170.27c-2.4414-0.93669-11.068-1.4172-13.951-0.0724l-0.0133 1.231h13.237c0.41559 0 0.72724-0.33326 0.72724-0.7389v-0.4194" fill="#413444" fill-rule="evenodd" stroke-width="4.2857"/>
 <path d="m243.83 170.22 10.056 0.0491c9e-3 -4.3509-4.5969-2.2911-6.7526-3.9433-0.8658-0.66441-5.9387 0.23374-7.2244 0.86272 0 0 0.0257 1.9479 0.0257 3.0079l3.8958 0.0231" fill="#413444" fill-rule="evenodd" stroke-width="4.2857"/>
 <path d="m229.78 170.23c-2.437-0.92503-6.0472-1.3427-8.943 0v1.1956h8.943v-1.1956" fill="#413444" fill-rule="evenodd" stroke-width="4.2857"/>
 <path d="m225.31 170.23h4.4713c0-2.3283-1.9955-4.2256-4.4713-4.2256-2.463 0-4.4713 1.8972-4.4713 4.2256h4.4713" fill="#413444" fill-rule="evenodd" stroke-width="4.2857"/>
 <path d="m221.67 72.234 6.0253-0.09694c0 1.0211 0.33325 1.7617 0.97388 2.6361 4.004 5.4952-10.644 6.3947-7.6877 0.25843 0.54111-1.109 0.6276-1.75 0.68824-2.798" fill="#e48478" fill-rule="evenodd" stroke-width="4.2857"/>
 <path d="m218.66 109.32h12.705v-2.6106c-2.5279-1.9479-9.1204-1.75-12.705 0v2.6106" fill="#dbdddc" fill-rule="evenodd" stroke-width="4.2857"/>
 <path d="m218.66 103.71c2.8439-1.8011 10.596-1.4678 12.705 0v3.0062h-12.705v-3.0062" fill="#dbdddc" fill-rule="evenodd" stroke-width="4.2857"/>
 <path d="m218.66 103.71h12.705v-2.9456c-3.3417-1.8245-9.168-2.9339-12.705 0v2.9456" fill="#dbdddc" fill-rule="evenodd" stroke-width="4.2857"/>
 <path d="m220.11 75.894c3.978 0.29559 5.6447 0.72677 9.9557-0.14726l1.2942 25.014h-12.705l1.4544-24.867" fill="#dbdddc" fill-rule="evenodd" stroke-width="4.2857"/>
 <path d="m228.67 74.771c-1.2942 0.87399-1.7747 1.1211-3.8438 1.3306l0.0994 0.41953c0.80074 1.0718 1.2206 2.0323 1.883 3.1179 1.4544-1.6756 2.0734-2.5262 3.2551-3.894-0.14713-0.04907-0.85278-0.43119-1.3938-0.97389" fill="#fff" fill-rule="evenodd" stroke-width="4.2857"/>
 <path d="m221.15 74.711c0.98687 0.81167 2.0085 1.3917 3.8914 1.38l0.21215 0.40552c-0.567 1.1228-0.91338 2.1323-1.4804 3.265-1.5021-1.4778-2.476-2.4262-3.6577-3.8685 0.30737-0.17276 0.64063-0.6783 1.0345-1.1821" fill="#fff" fill-rule="evenodd" stroke-width="4.2857"/>
 <path d="m225.35 96.671c-0.16011-0.85054 5.8003-18.829 6.3197-20.689 2.7703 0.57999 4.7443 1.2445 5.5582 2.0695 4.0516 2.785 7.3804 18.287 7.1726 31.866-0.065 0.34504-1.9003 0.3264-3.8438 1.2886l-0.9783-6.6099c-1.3549-4.6702-2.9781-14.604-3.398-14.69l2.4717 23.687c-4.0819 2.1695-5.64 2.621-9.3844 2.9915l-3.9174-19.913" fill="#413444" fill-rule="evenodd" stroke-width="4.2857"/>
 <path d="m230.06 75.749c-1.4804 4.4233-2.2682 8.8213-4.7182 20.923l6.246-8.478-1.0865-3.4378 2.2206-0.98563c-0.0736-3.3274-0.41987-5.5577-0.32036-7.6273-0.85277-0.20944-1.4285-0.18442-2.3418-0.39386" fill="#2f2430" fill-rule="evenodd" stroke-width="4.2857"/>
 <path d="m196.53 69.744s-1.6839-1.4189-1.9306-2.5314c-0.25534-1.148-0.64492-3.8027-0.9264-4.4794-0.36797-0.87043-1.4025-1.0922-1.3202 0.08957 0.0871 1.2363 0.17756 2.1526 0.17756 2.1526s-1.8007-2.4297-2.2509-2.9521c-0.65795-0.75926-2.2249-2.3046-3.6404-2.1795-1.0996 0.0957-2.7184 0.89079-1.87 3.0469 1.0605 2.6868 3.3677 5.9147 6.0514 7.3029 0.61461 0.31252 1.5064 0.94834 2.3245 2.7984l3.385-3.2482" fill="#f79185" stroke-width="4.2857"/>
 <path d="m217.77 76.289c3.2422 4.0918 6.4453 17.683 7.1074 20.27l-5.7266 20.111c-3.3157-0.83717-6.4582-1.3189-8.8346-4.1156 2.9045-9.6124 5.112-17.152 3.3027-27.59-9.96-0.17276-10.095-0.44503-11.895-2.44-1.8094-1.995-7.047-6.5319-10.557-10.51l5.3242-4.4606c3.991 3.9923 7.2939 7.7863 9.1423 9.1307 1.8353 1.3423 2.7833 0.8367 12.138-0.39557" fill="#413444" fill-rule="evenodd" stroke-width="4.2857"/>
 <path d="m220.11 75.894c1.7228 3.5862 2.2899 8.6739 4.7443 20.763l-6.5447-8.6619 1.3548-3.0945-2.0215-0.45497c0.0736-3.3391 0.21214-6.087 0.12553-8.1583 0.84849-0.22161 1.4285-0.19607 2.3418-0.39386" fill="#2f2430" fill-rule="evenodd" stroke-width="4.2857"/>
 <path d="m241.55 114.04s-0.76183 0.98563-1.3678-0.15236c-0.606-1.1363-0.41555-3.1534 0.53241-3.8637 1.1471-0.85877 1.515-0.85877 1.515-0.85877l1.7185 4.3453-2.3981 0.52937" fill="#f79185" stroke-width="4.2857"/>
 <path d="m236.35 90.007-5.5967 2.0323c2.1687 5.6207 7.917 22.218 9.0772 25.212 1.5496 0 2.6145 0.25239 3.6187-1.2613l-1.5886-5.199-5.5102-20.784" fill="#fff" fill-rule="evenodd" stroke-width="4.2857"/>
 <path d="m233.34 90.359c1.541-0.5562 2.8829-0.71546 3.0084-0.34676 0.12146 0.37007-1.0389 1.1228-2.5755 1.6773-1.554 0.55277-2.8959 0.7134-3.0214 0.3567-0.10796-0.37007 1.0475-1.1211 2.5885-1.6873" fill="#dbdddc" fill-rule="evenodd" stroke-width="4.2857"/>
 <path d="m242.22 109.17s0.99125-0.42938 2.2726 0.85877c0.70556 0.70861 1.4847 3.0504-0.13852 4.9492-0.3636 0.42596-0.97393 0.54759-1.4588 0.26533-0.24673-0.14545-0.49346-0.39218-0.67526-0.80297-0.55839-1.2648 0.38092-2.44 0.606-3.1231l-0.606-0.53113v-1.6163" fill="#f79185" stroke-width="4.2857"/>
 <path d="m231.56 63.646s1.567-0.95186 1.9003 0.60039c0.3333 1.5552-1.883 5.7317-1.9046 3.8382-4e-3 -0.55796-1.0259-3.8399 4e-3 -4.4387" fill="#e48478" stroke-width="4.2857"/>
 <path d="m217.75 63.646s-1.567-0.95186-1.9003 0.60039c-0.3333 1.5552 1.883 5.7317 1.9046 3.8382 4e-3 -0.55796 1.0302-3.8399-4e-3 -4.4387" fill="#e48478" stroke-width="4.2857"/>
 <path d="m219.85 57.65s-1.6622 0.55449-1.7748 1.6656c-0.11289 1.109-1.476 11.232 0.88735 12.652 2.8309 1.7029 5.9953 4.8849 8.9906 2.1102 2.9998-2.7764 3.8871-2.7764 3.8871-5.2179 0-0.90639 9e-3 -2.2137-0.0309-3.6642-0.0343-1.238 0.61903-3.1365 0.47177-4.4267-0.14713-1.2696-0.9783-3.485-1.2553-3.9719l-11.177 0.85226" fill="#f79185" stroke-width="4.2857"/>
 <path d="m218.07 59.317s-2.45-4.1139-0.38957-5.5492c2.3894-1.6656 5.3632-1.5168 10.159-0.6276 1.8397 0.34333 4.6577 0.73719 4.6577 0.73719s2.6664 5.9944-0.66223 11.322c0 0-0.33326-6.882-0.9999-7.548 0 0-4.3286 1.6639-9.2113 1.4981 0 0-2.8872-0.60857-3.5538 0.16749" fill="#c38a1b" stroke-width="4.2857"/>
 <path d="m217.68 65.197s-4.2767-7.7203-0.83546-8.8552l1.6708 1.3068v4.9946l-0.83546 2.5534" fill="#c38a1b" stroke-width="4.2857"/>
 <path d="m15.066 159.71-0.69476 33.214c1.2554 1.6764 2.5971 3.3005 4.0179 4.8883v-3.072c0-2.9886 2.4519-5.4159 5.4742-5.4159h19.914c3.0245 0 5.4767 2.431 5.4742 5.424v13.493h4.311s0.33077-23.506-2.8209-31.013c-0.94273-2.2411-3.0323-3.5537-5.508-4.2857-5.817-1.7234-12.33-2.9799-12.33-2.9799-4.1966 0.56062-8.6829 1.5158-10.857-0.77846-3.2435-3.42-4.4867-8.0524-4.4867-8.0524zm2.6032 11.736c0 3.1943 2.3362 5.784 5.5663 5.784h16.406c4.8437 0 8.7724 3.8815 8.7724 8.6717v1.7829c0-0.82805-0.83974-1.5792-1.6741-2.1261-0.89087-0.58003-1.9489-0.87051-3.0134-0.87051h-21.897c-2.5292 0-4.1601 2.3186-4.1601 2.3186z" fill="#fff" stroke-width="4.2857"/>
 <path d="m48.362 208.91 0.9411-1.8657h4.3149l0.65602 1.9663c0.16359 0.4869-0.20246 0.98679-0.72082 0.98679h-4.5137c-0.56533 0-0.933-0.58749-0.67869-1.0874" fill="#fff" stroke-width="4.2857"/>
 <path d="m21.872 167.8s-0.66249-5.4039 3.4847-4.1605c4.1473 1.2435 11.283 2.8948 15.266 1.9869 3.9818-0.90626 17.419-3.0406 18.085 5.1652 0.66249 8.2029-6.471 1.6406-10.121 1.8857-3.6513 0.2457-25.513 2.7748-26.715-4.8772" fill="#dbdddc" stroke-width="4.2857"/>
 <path d="m15.071 159.71v-29.759s1.9062-1.7949 4.6453 1.0245c2.7366 2.8165 4.9779 19.98 3.484 25.788-1.4934 5.8059-5.973 7.7696-8.1292 2.9463" fill="#f3f4f4" stroke-width="4.2857"/>
 <path d="m36.058 96.834 2.7366-5.6297c1.864-2.2365 7.1122-0.0069 7.7036 4.1428l-1.9332 9.7543c-3.8817-2.0286-7.7276-3.908-8.5067-8.2672" fill="#e68679" stroke-width="4.2857"/>
 <path d="m24.238 157.31s1.1063 7.6363 10.962 9.1273c10.104 1.5268 27.833-2.2165 34.506-4.8189 12.027-4.6899 7.3042 3.0108 14.002 26.457 1.223 4.2857 2.9239 13.078 2.9239 13.078 4.5407 1.248 7.5922-7e-3 9.1144-2.6474l-5.1742-58.933c-5.6696-4.9179-19.5 3.4126-41.897 9.2812-10.346 2.9394-20.831 0.047-24.438 8.457" fill="#2f2430" stroke-width="4.2857"/>
 <path d="m95.745 198.51c-2.857 1.8217-5.9002 2.6742-9.1144 2.6474-1.1711 2.0469-1.4465 4.2034-0.86173 6.4663 8.04 1.4692 16.176 1.5738 24.406 0.38859-0.78883-3.7988-7.7143-2.5691-14.43-9.5023" fill="#dbdddc" stroke-width="4.2857"/>
 <path d="m85.768 207.62c0.17169 0.65893 0.4098 1.3285 0.72729 2.0046l23.621 0.37548c0.162-0.79483 0.17169-1.4446 0.0648-1.9914l-24.406-0.38859" fill="#dbdddc" stroke-width="4.2857"/>
 <path d="m24.238 157.31c10.812-1.3098 20.64-1.2343 24.438-8.457 0.3369-18.447-0.44709-24.103-2.6207-37.404-1.1452-5.7926-8.8663-13.83-12.594-13.415-9.2036 2.4017-15.636 38.732-9.2233 59.276" fill="#f2b910" stroke-width="4.2857"/>
 <path d="m33.461 98.039c0.30291-0.73423 0.42926-1.1606 0.5718-1.4886 0.30776-0.70119 1.2456-0.83709 1.7565-0.26807 5.4489 6.0313 6.1432 6.009 10.158 9.7612 0.50374 0.4686 0.80829 1.1206 0.8439 1.8057 0.0648 1.1805-0.16522 2.3817-0.73702 3.6051-5.0383-6.1183-12.753-11.328-12.594-13.415" fill="#c38a1b" stroke-width="4.2857"/>
 <path d="m76.309 139.5c0.42116 2.9017 4.1274 12.167 7.6136 19.315 4.0714 0.6897 6.9287 0.18287 9.1299-3.2571 0 0-0.89897-14.67-2.3148-18.484-1.8103-4.8862-13.303-11.21-14.429 2.4263" fill="#413444" stroke-width="4.2857"/>
 <path d="m93.049 155.55c-2.5314 1.768-5.2796 2.556-9.1299 3.2571 0.19924 2.6583 0.68679 4.9907 1.5582 6.897 6.0467-0.39943 17.89-3.808 22.812-6.663-2.8531-4.8056-6.5272-2.5314-15.241-3.4914" fill="#f3f4f4" stroke-width="4.2857"/>
 <path d="m85.481 165.71c0.25431 0.5577 0.53777 1.0846 0.86173 1.5668l22.853-6.4132c-0.29482-0.69827-0.59447-1.2966-0.90223-1.8166l-22.812 6.663" fill="#f3f4f4" stroke-width="4.2857"/>
 <path d="m60.679 144.21 8.9087 5.8526 22.346-26.689-12.165-2.2811-19.09 23.118" fill="#fff" stroke-width="4.2857"/>
 <path d="m63.619 125.36c0.41469-0.14092 0.70462-0.30566 0.77104-0.94856l-0.29644-0.24347-0.76779 0.95306 0.29482 0.23875" fill="#287075" fill-rule="evenodd" stroke-width="4.2857"/>
 <path d="m67.785 128.88-0.3774 0.45939c-1.061-0.97543-3.636-2.8834-3.2994-3.4594l3.6766 3" fill="#287075" fill-rule="evenodd" stroke-width="4.2857"/>
 <path d="m64.078 125.98c0.48433-0.23194 0.84069-0.46406 1.0091-1.2366l-0.57827-0.47314-1.0091 1.2366 0.57827 0.47314" fill="#7cd1cf" fill-rule="evenodd" stroke-width="4.2857"/>
 <path d="m64.378 126.23c0.62524-0.10041 0.9978-0.33252 1.014-1.2388l-0.30613-0.24342-1.0091 1.2366 0.30129 0.24575" fill="#287075" fill-rule="evenodd" stroke-width="4.2857"/>
 <path d="m64.378 126.23 1.0156-1.241c1.4886 1.2166 3.2634 2.6628 4.755 3.8817-0.03257 0.56919-0.49727 1.2189-0.99454 1.2589l-4.7764-3.8994" fill="#7cd1cf" fill-rule="evenodd" stroke-width="4.2857"/>
 <path d="m69.538 130.44 1.014-1.2433 2.9756 2.5023-0.94273 1.1565c-0.97513-0.7749-2.0715-1.6428-3.047-2.4154" fill="#7cd1cf" fill-rule="evenodd" stroke-width="4.2857"/>
 <path d="m74.025 133.07 0.23164 0.4302 0.46813 0.14091-0.23486-0.43084-0.4665-0.14091" fill="#287075" fill-rule="evenodd" stroke-width="4.2857"/>
 <path d="m74.119 133.42 0.26563-0.32576-0.85689-1.3909-0.94273 1.1566 1.5339 0.55997" fill="#7cd1cf" fill-rule="evenodd" stroke-width="4.2857"/>
 <path d="m70.147 128.87-1.0156 1.2411 0.40659 0.33025 1.014-1.2433-0.40333-0.32798" fill="#287075" fill-rule="evenodd" stroke-width="4.2857"/>
 <path d="m61.618 138.64s1.4514-1.3371 2.0646-3.6697c0.61389-2.3349 5.232-5.6499 9.6964-5.5873 0 0 1.9509 0.10204 1.1047 2.2902-0.8439 2.1897-1.0269 4.096-3.1811 5.0182-2.1538 0.92165-1.7167 2.1491-3.232 3.7228-1.5129 1.576-5.3597 3.1029-5.7214 3.2834l-0.73217-5.0576" fill="#f79185" stroke-width="4.2857"/>
 <path d="m44.629 138.77c-1.4173 0.26563-5.3143-25.042-5.3143-25.042-2.208-7.7679-12.708-5.0559-12.312 2.2097 0.4422 2.5183 5.58 28.1 6.8349 31.152 2.8212 6.8662 13.607 3.4086 26.743-0.90171 1.9446-3.0737 0.67384-8.1052-2.9349-9.585-4.569 0.75258-12.04 1.9823-13.016 2.1674" fill="#c38a1b" stroke-width="4.2857"/>
 <path d="m61.198 136.02s-1.4772 0.2412-3.5493 0.5823c1.7253 2.8062 2.7075 6 2.9349 9.585 1.9491-0.64063 3.2435-1.0828 3.2435-1.0828l-2.6291-9.0844" fill="#c38a1b" stroke-width="4.2857"/>
 <path d="m44.424 75.873-11.635 11.635c-0.02486 1.8462 0.01029 3.5742 0.24274 3.8588 0.50374 0.62752 2.3772 1.7662 2.3772 1.7662s4.1551 5.8774 11.3 7.86c0 0 2.6499 1.3449 4.1853-1.423 1.5356-2.7703 6.0896-11.855 6.0519-17.243z" fill="#f79185" stroke-width="4.2857"/>
 <path d="m50.274 70.023-8.22 8.22c2.4508 0.57184 4.3084 3.1747 10.597 3.976 9.1809 1.1714 8.337-3.3649 8.337-3.3649-4.3667 0.24266-6.1187-5.9272-10.714-8.8307zm-16.816 16.816-1.2472 1.2472c-0.30806 3.1771-1.649 3.8169-1.649 3.8169 1.6744 1.9217 4.8467 1.2305 4.8467 1.2305-1.9065-2.3148-0.29297-5.3906-0.29297-5.3906s-1.303 0.43552-1.6574-0.90403z" fill="#fff" stroke-width="4.2857"/>
 <path d="m196.14 205.26c-0.59447 1.6537-0.75643 3.2297-0.56691 4.7387h22.81c0.89898-7.8347-9.384-4.192-13.576-8.8839-3.9016-0.44914-6.9823 0.58458-8.6674 4.1451" fill="#f3f4f4" stroke-width="4.2857"/>
 <path d="m154.11 187.69c0-0.82804-0.8439-1.5828-1.6789-2.1297-0.89088-0.58003-1.9439-0.8703-3.0084-0.8703h-21.9c-2.5269 0-4.1588 2.3211-4.1588 2.3211v-15.567c0 3.1943 2.337 5.7836 5.5667 5.7836h16.407c4.8442 0 8.7724 3.8862 8.7724 8.6764zm2.3235-10.462c-0.9411-2.2411-3.0355-3.5514-5.5132-4.2834-5.8149-1.7234-12.324-2.9777-12.324-2.9777-4.1968 0.56062-8.6812 1.5178-10.857-0.77653-3.2435-3.42-4.4914-8.0537-4.4914-8.0537l-2.4885-1.4262-0.99618 47.34 2.4885 1.1897 1.8258-1.0245 2e-3 -12.474c2e-3 -2.9886 2.453-5.4124 5.4776-5.4124h19.908c3.0246 0 5.4776 2.424 5.4754 5.4172l-2e-3 13.494h4.3127s0.33206-23.507-2.8194-31.014" fill="#fff" stroke-width="4.2857"/>
 <path d="m118.82 208.91 0.94436-1.8657h4.3144l0.65601 1.9663c0.16359 0.4869-0.20408 0.98679-0.72081 0.98679h-4.5133c-0.56533 0-0.93138-0.58749-0.68195-1.0874" fill="#fff" stroke-width="4.2857"/>
 <path d="m154.05 208.91 0.94436-1.8657h4.3149l0.65601 1.9663c0.16196 0.4869-0.20245 0.98679-0.72081 0.98679h-4.5133c-0.56533 0-0.933-0.58749-0.68032-1.0874" fill="#fff" stroke-width="4.2857"/>
 <path d="m127.57 167.8s-0.66249-5.4039 3.4845-4.1605c4.147 1.2435 11.281 2.8948 15.264 1.9869 3.9818-0.90626 17.422-3.0406 18.087 5.1652 0.66249 8.2029-6.4706 1.6405-10.123 1.8857-3.6497 0.24574-25.511 2.7748-26.712-4.8772" fill="#dbdddc" stroke-width="4.2857"/>
 <path d="m120.77 159.71v-29.759s1.9086-1.7949 4.6474 1.0245c2.7366 2.8165 4.9757 19.98 3.484 25.788-1.4934 5.8059-5.9756 7.7696-8.1313 2.9463" fill="#f3f4f4" stroke-width="4.2857"/>
 <path d="m165.17 198.67c-2.3173 1.8886-3.4578 3.8817-4.494 6.8396l7.7859 4.4914h15.027c0-5.94-6.9394-3.7434-10.533-6.6879-1.7035-3.3994-4.2572-5.031-7.7859-4.6427" fill="#dbdddc" stroke-width="4.2857"/>
 <path d="m174.08 171.95-8.9147 26.718c0.70298 2.8863 5.0062 4.4109 7.7859 4.6427l8.5843-20.082c0.25916-8.3503-1.9439-12.583-7.4554-11.279" fill="#2f2430" stroke-width="4.2857"/>
 <path d="m128.87 158.95c1.2748 9.4886 1.6582 10.971 39.828 12.777 3.4576 0.16277 2.3348-2.1023 25.616 33.69 3.7772-0.1134 6.8284-1.2451 10.485-4.2922-23.261-46.221-15.116-41.982-46.723-49.882-10.651-3.2143-20.645 0.1053-29.205 7.7096" fill="#413444" stroke-width="4.2857"/>
 <path d="m141.67 99.273 1.484-4.9264c0.69887-3.1943 7.8999-1.364 8.4999 3.2303 0 4.9907 0.31942 7.6093 1.3977 13.776-0.99771 2.4954-12.48-3.9931-11.382-12.081" fill="#f18d81" stroke-width="4.2857"/>
 <path d="m128.87 158.95c9.1989 0.37256 25.493-5.268 30.103-7.4867-0.56529-9.2006-2.5875-31.861-5.9284-40.107-4.0515-0.41953-8.3734-7.7923-11.382-12.081-16.572 13.679-14.014 38.808-12.793 59.674" fill="#dbdddc" stroke-width="4.2857"/>
 <path d="m184.68 133 16.507-16.953-7e-3 -1.1789-1.4692-1.4309-1.1857 0.0159-16.509 16.953 0.0154 1.1874 1.4692 1.4285 1.1776-0.0227" fill="#dbdddc" fill-rule="evenodd" stroke-width="4.2857"/>
 <path d="m185.25 130.59 3.4714-3.5668-0.0137-0.29481-0.78073-0.76114-0.2964-5e-3 -3.4709 3.5628 0.0137 0.29657 0.78073 0.76114 0.2964 7e-3" fill="#fff" fill-rule="evenodd" stroke-width="4.2857"/>
 <path d="m196.97 118.55 1.6383-1.6834-2e-3 -0.2028-0.57665-0.56061-0.1944 0.0116-1.6412 1.6828-4e-3 0.19423 0.57343 0.56061 0.20571-2e-3" fill="#fff" fill-rule="evenodd" stroke-width="4.2857"/>
 <path d="m194.05 124.04c-0.33532-0.52222-2.3549 0.75257-3.7727 0.7749-1.4173 0.0227-2.8925 0.89721-2.8925 0.89721s0.162-0.80794 1.082-1.768c0.93138-0.96004 1.2975-1.7211 1.0091-2.096-0.28993-0.37256-3.98 2.4263-4.8617 3.5291-0.88119 1.1007-1.6052 3.096-2.5823 4.152-0.60583 0.65147-10.723 5.8012-18.895 5.4862-3.6136-0.0534-6.8396 6.3394-3.4931 9.6827 8.8419 0.41546 26.234-12.015 26.268-12.018 2.6898-0.22967 4.5514-2.1497 6.0759-4.3479 1.5242-2.1988 2.3994-3.7726 2.0623-4.2926" fill="#f79185" stroke-width="4.2857"/>
 <path d="m149.16 114.05c-6.6163-10.404-15.439-3.1274-12.18 6.288 0.65117 1.8794 11.542 21.676 19.518 24.341 2.1851-2.6514 4.1383-5.877 4.3637-11.73-3.6742-4.2926-8.0782-13.201-11.701-18.899" fill="#fff" stroke-width="4.2857"/>
 <path d="m160.86 132.95c-2.6051 3.4331-3.8325 7.395-4.3637 11.73 1.116 0.37483 2.1788 0.41545 3.1452 0.018 0.84716-3.4931 1.7479-6.5893 3.4931-9.6827-0.71271-0.41482-1.4772-1.1337-2.2743-2.0646" fill="#fff" stroke-width="4.2857"/>
 <path d="m139.79 94.366s-3.1492-2.8703-3.1492-6.7744c0-3.9017 5.2474-10.263 8.4707-10.433 3.2234-0.16976 7.815-2.46 10.866-1.7788 3.0532 0.67594 5.1223 1.5446 4.8793 8.457-0.1296 3.8417 1.0998 10.935-2.8287 16.005-1.2991 1.6766-3.3572 2.5828-5.4733 2.4554-2.9731-0.17606-7.6114-1.2074-11.674-5.3747l-1.0918-2.556" fill="#f79185" stroke-width="4.2857"/>
 <path d="m140.28 95.51s-3.9868 2.1811-4.8347-6.6943c-0.84716-8.877 0.77426-18.883 13.618-20.071 12.844-1.1875 13.246 5.8907 10.839 9.4774-2.404 3.5828-12.482-0.47769-14.788 0.87077-2.3058 1.3457-5.0893 5.7682-5.259 8.1407 0 0-1.8749-2.8234-2.0361 2.54 0 0 0.17005 3.6274 1.8663 2.4086 0 0-0.0116 1.9131 0.59448 3.328" fill="#f2b910" stroke-width="4.2857"/>
</svg>
