<svg width="300" height="300" version="1.1" viewBox="0 0 300 300" xmlns="http://www.w3.org/2000/svg">
 <path d="m28.292 208 2 2h8e-3l68.875 68.883c14.08 14.08 32.454 21.117 50.826 21.117 18.373 0 36.751-7.0376 50.828-21.117l68.883-68.883s1.905-1.9048 2-2z" fill="#29212f" stroke-width="0"/>
 <path d="m150-4e-6c-18.375 0-36.75 7.0395-50.83 21.119l-78.053 78.053c-28.16 28.159-28.16 73.499 0 101.66l9.172 9.168h239.42s-2e-3 -2e-3 9.172-9.168c28.16-28.159 28.16-73.499 0-101.66l-78.053-78.053c-14.08-14.08-32.453-21.119-50.828-21.119z" fill="#44b0b4" stroke-width="4.2857"/>
 <path d="m18.146 186.84 20.449-7.5604c6.9776-2.9085 4.6629 0.66299 10.464-17.422 5.6113-1.6183 8.7545 0.41773 13.195 4.6967-7.4859 16.395-8.457 18.366-11.056 19.542-3.7721 1.7098 0 0-30 7.8749-3.0509-0.68532-4.5287-4.9954-3.0509-7.1318" fill="#2f2430" stroke-width="4.2857"/>
 <path d="m44.186 149.55c0.56679-4.6075 27.202 2.7005 27.202 2.7005s17.937 5.5958 18.514 8.2924c0.58282 2.7034 3.9257 34.868 3.9257 36.239-0.64565 3.5201-5.4686 3.9107-7.0115 0.39068-8.6173-31.922-6.303-28.321-9.3888-28.596-1.7714-0.15385-24.754 0.84115-29.577-5.5246-1.1697-1.5424-4.8909-3.52-3.6652-13.502" fill="#413444" stroke-width="4.2857"/>
 <path d="m18.146 186.84s-2.5729 0.88006-5.8676 1.5988c-0.25239 0.29665-0.3597 0.60269-0.51896 0.90402 1.4116 2.1479 2.9631 4.2309 4.629 6.2528 0.83443 6e-3 1.6756-0.12068 2.461-0.57758l2.3438-1.0463s-3.4577-4.4687-3.0469-7.1318z" fill="#7cd1cf" stroke-width="4.2857"/>
 <path d="m86.817 197.18s0.43993 2.308-0.3486 5.5872c2.4058 3.8861 9.0686 2.3326 8.0743-2.7545l-0.71435-3.2232s-4.7945 1.9219-7.0115 0.39068" fill="#7cd1cf" stroke-width="4.2857"/>
 <path d="m12.279 188.44c-0.35447 0-0.67149 0.0537-0.99609 0.0921 0.30703 0.48089 0.60116 0.96453 0.92075 1.4397-0.04029-0.86918 0.07534-1.5318 0.07534-1.5318zm3.2478 6.0518c1.093 1.3802 2.2819 2.7012 3.4905 4.0178-0.38979-2.2364-0.1674-3.4905-0.1674-3.4905-1.4102 0.027-2.4384-0.204-3.3231-0.52735z" fill="#338c92" stroke-width="4.2857"/>
 <path d="m86.47 202.77c3.2458 0.99552 6.1488 2.1607 8.0743-2.7545 0 0 1.4285 1.9665 4.983 2.5893 3.5486 0.62279 6.5542 1.5782 6.4856 7.3996h-20.16s-0.90288-4.5021 0.61715-7.2342" fill="#338c92" stroke-width="4.2857"/>
 <path d="m61.822 100.45c0 3.132-0.66288 5.2572-2.0114 5.8349-2.44 5.5247 8.6799 12.341 10.417 6.5605-1.5429-3.2748-1.2857-6.1204-1.0572-9.5446l-7.3488-2.8508" fill="#ec897d" stroke-width="4.2857"/>
 <path d="m59.812 106.28s3.9886 8.3592 10.417 6.5605c3.12 7.4215 3.3829 10.598 2.2686 13.33-1.76 4.3148-5.8059 3.6406-5.3885 24.982-8.2115 4.212-15.936 4.3727-22.922-1.5982 0.48399-4.5561 1.9309-9.1606 3.7743-13.105 3.0269-6.4662 3.1075-5.7364 3.1075-5.7364l2.0572-15.816-1.0286-4.953s4.8857-3.7902 7.7143-3.6634" fill="#fff" stroke-width="4.2857"/>
 <path d="m48.884 115.67c0.25659-0.38859 1.6114-4.5891 3.216-5.7252 1.6-1.132 5.4 0.19371 5.2745 4.821-0.13144 4.6298-6.5619 17.944-8.361 20.303-3.8595-2.3434-0.12913-19.399-0.12913-19.399" fill="#ec897d" stroke-width="4.2857"/>
 <path d="m45.858 108.4s4.3796 0.81248 4.5377 3.8462c0.15874 3.0354-0.48463 18.468-0.48463 18.468s0 6.1718-3.4732 6.3034c-3.4709 0.12471-5.529-2.4463-4.1137-9.2626 1.4131-6.8104 2.3149-11.447 2.3149-11.447l-3.344-1.8617c-0.91488-3.5262 0.65666-5.5152 4.563-6.0466" fill="#f79185" stroke-width="4.2857"/>
 <path d="m30.943 106.18c0-6.1611 4.9933-11.154 11.156-11.154 6.1612 0 11.152 4.9932 11.152 11.154 0 6.1649-4.9907 11.153-11.152 11.153-6.1629 0-11.156-4.9885-11.156-11.153" fill="#413444" stroke-width="4.2857"/>
 <path d="m39.845 106.18c0-1.2458 1.0091-2.2526 2.2543-2.2526 1.2434 0 2.2526 1.0069 2.2526 2.2526 0 1.2451-1.0091 2.2565-2.2526 2.2565-1.2451 0-2.2543-1.0114-2.2543-2.2565" fill="#f3f4f4" stroke-width="4.2857"/>
 <path d="m59.499 99.399s-2.8572-2.4508-2.8572-5.7809c0-3.3325 4.9256-6.5198 7.8459-6.6629 2.92-0.14901 6.9202-4.3478 9.6858-3.772 2.7715 0.58229 4.5373 0.43945 5.2513 4.0285 0.63999 3.2234 0.17139 12.538-3.3886 16.868-1.1771 1.4285-3.0457 2.2006-4.9659 2.0983-2.4229-0.1377-6.063-0.86399-9.4513-3.596-0.72-0.57599-1.2743-1.3195-1.6457-2.1428l-0.47426-1.0406" fill="#f79185" stroke-width="4.2857"/>
 <path d="m60.481 101.35s2.3314-1.5777 2.72-3.2228c0 0-3.3086 0.49774-2.72-3.4731 0.5943-3.9737 2.72-1.8463 2.72-1.8463s1.6343-5.9884 5.8402-6.3724c4.2-0.38858 6.3943 5.4064 6.3943 5.4064s1.6743-2.6297 1.2856-3.6297c0 0 2.1257 2.8571 1.7371 4.596 0 0 3.5772-2.8748 1.2114-9.3548-2.3715-6.4799-12.583-9.9599-19.257-4.3594-6.6742 5.6005-6.12 20.366 0.06802 22.256" fill="#f2b910" stroke-width="4.2857"/>
 <path d="m59.242 80.251s-2.5143 0.12471-3.6229 1.9017c-1.1086 1.772 1.5942 13.544-6.3236 17.029 0 0 1.5447-6.8755-0.77199-10.967-2.3194-4.0959-0.576-18.205 10.718-11.924v3.96" fill="#f2b910" stroke-width="4.2857"/>
 <path d="m56.641 81.112 2.6-4.821s1.9886 0.87938 2.4914 1.8457l-3.8343 4.016-1.2571-1.0406" fill="#287075" stroke-width="4.2857"/>
 <path d="m285.47 156.36h-13.651v-2.3662h13.651v2.3662" fill="#29212f" stroke-width="4.2857"/>
 <path d="m288.03 187.71h-17.2v-4.7811h17.2v4.7811" fill="#29212f" stroke-width="4.2857"/>
 <path d="m277.35 150.53c-0.86872 0-1.582 0.71399-1.582 1.582v51.831l3.1138-3.1138c0.70599-0.70598 1.3132-1.466 1.9838-2.1931v-46.521c0-0.86802-0.70514-1.582-1.5737-1.582z" fill="#eceeec" stroke-width="4.2857"/>
 <path d="m261.27 210h-3.6514c0-1.6741 0.76569-4.4798 3.6514-4.4798 1.1314 1.1318 0.76004 3.4397 0 4.4798" fill="#d1d5d3" stroke-width="4.2857"/>
 <path d="m261.27 205.52v4.4781h8.4378l4.4782-4.4781z" fill="#fff" stroke-width="4.2857"/>
 <path d="m270.83 166.44c-1.2571 0-2.2743-1.0223-2.2743-2.2742v-16.085c0-1.2594 1.0171-2.2748 2.2743-2.2748 1.2571 0 2.2686 1.0154 2.2686 2.2748v16.085c0 1.2519-1.0114 2.2742-2.2686 2.2742" fill="#3a3241" stroke-width="4.2857"/>
 <path d="m286.36 166.44c1.2515 0 2.2743-1.0223 2.2743-2.2742v-16.085c0-1.2594-1.0229-2.2748-2.2743-2.2748-1.2571 0-2.2743 1.0154-2.2743 2.2748v16.085c0 1.2519 1.0173 2.2742 2.2743 2.2742" fill="#3a3241" stroke-width="4.2857"/>
 <path d="m265.02 196.01c-1.3656 0-2.48-1.1071-2.48-2.4844v-16.304c0-1.3661 1.1142-2.4842 2.48-2.4842 1.3772 0 2.48 1.1181 2.48 2.4842v16.304c0 1.3773-1.1029 2.4844-2.48 2.4844" fill="#29212f" stroke-width="4.2857"/>
 <path d="m269.46 198.83c-1.3086 0-2.3657-1.0647-2.3657-2.3661v-22.823c0-1.3148 1.0571-2.3708 2.3657-2.3708 1.3028 0 2.36 1.0559 2.36 2.3708v22.823c0 1.3013-1.0571 2.3661-2.36 2.3661" fill="#3a3241" stroke-width="4.2857"/>
 <path d="m292.16 174.73c-1.3656 0-2.4693 1.1199-2.4693 2.486v9.668c1.8886-3.14 3.5813-6.3616 4.947-9.6929-0.0146-1.3537-1.1098-2.4609-2.4777-2.4609z" fill="#29212f" stroke-width="4.2857"/>
 <path d="m287.73 171.27c-1.3086 0-2.3689 1.0539-2.3689 2.3689v19.646c1.7372-2.29 3.3113-4.6564 4.7379-7.0898v-12.556c0-1.3148-1.0661-2.3689-2.3689-2.3689z" fill="#3a3241" stroke-width="4.2857"/>
 <path d="m168.88 61.325c-1.5161-5.2679-6.3635-9.1289-12.125-9.1289h-13.777c-5.5132 0-10.19 3.5423-11.911 8.4732 1.3525-0.47314 2.9761 1.7543 4.8373 1.3188 7.4962-1.7474 20.699 1.2302 32.976-0.66282" fill="#3a3241" stroke-width="4.2857"/>
 <path d="m152.4 39.499 0.21707-1.0805c0-1.5223-1.2359-2.7543-2.752-2.7543-1.5226 0-2.7566 1.232-2.7566 2.7543l0.34179 1.3103-0.65439 1.2166-10.896 18.319 2.7726 1.6005 2.0646-2.4846 9.4916-16.699 8.8166 17.154 2.8732 2.4908 2.6383-1.2903-12.156-20.537" fill="#be8625" stroke-width="4.2857"/>
 <path d="m150 0.0017725c-0.40796 0-0.81421 0.051642-1.2221 0.058585v39.835h2.4442v-39.835c-0.40792-0.0068571-0.81412-0.058585-1.2221-0.058585z" fill="#be8625" stroke-width="4.2857"/>
 <path d="m168.88 61.325c-2.7674-0.9194-5.4373-1.6274-7.9976-2.1537-7.3389 4.56-15.435 3.7542-21.348-0.61649-1.2975 0.21253-2.5068 0.45145-3.6297 0.70799-1.8612 0.43945-3.484 0.93316-4.8373 1.4063-0.45514 1.2966-0.71434 2.696-0.71434 4.1537v78.741c0 2.6697 0.82774 5.136 2.2348 7.1652 4.2251 0.66282 10.627 4.0114 18.313 3.8571 4.9732-0.0907 10.348-3.2343 16.464-4.1874 1.2732-1.9709 2.0178-4.308 2.0178-6.8348v-78.741c0-1.2166-0.18141-2.388-0.50211-3.4977" fill="#be8625" stroke-width="4.2857"/>
 <path d="m139.54 58.561v94.422h21.353v-93.805c-8.4622-1.7474-15.706-1.52-21.353-0.61825" fill="#f2b620" stroke-width="4.2857"/>
 <path d="m132.59 150.73c2.2812 3.2971 6.0802 5.4647 10.39 5.4647h13.777c4.4572 0 8.361-2.3103 10.609-5.7946-15.562 2.4217-27.821 1.4171-34.777 0.33029" fill="#3a3241" stroke-width="4.2857"/>
 <path d="m157.04 200.66h-40.425l-0.8601-0.85718 0.8601-0.86382h40.425l0.85852 0.86382-0.85852 0.85718" fill="#29212f" stroke-width="4.2857"/>
 <path d="m122.88 205.11h-3.5024c-0.81961 0-1.487-0.66963-1.487-1.4866v-7.8616c0-0.82366 0.66737-1.491 1.487-1.491h3.5024c0.8196 0 1.487 0.66737 1.487 1.491v7.8616c0 0.81702-0.66738 1.4866-1.487 1.4866" fill="#29212f" stroke-width="4.2857"/>
 <path d="m131.41 210h-5.8796c-0.94921 0-1.7189-0.77005-1.7189-1.7187v-18.241c0-0.94872 0.77101-1.7143 1.7189-1.7143h5.8796c0.94921 0 1.7189 0.76567 1.7189 1.7143v18.241c0 0.94872-0.77105 1.7187-1.7189 1.7187" fill="#3a3241" stroke-width="4.2857"/>
 <path d="m150.93 205.11h3.5024c0.81961 0 1.487-0.66963 1.487-1.4866v-7.8616c0-0.82366-0.669-1.491-1.4886-1.491h-3.5001c-0.82287 0-1.487 0.66737-1.487 1.491v7.8616c0 0.81702 0.66411 1.4866 1.487 1.4866" fill="#29212f" stroke-width="4.2857"/>
 <path d="m142.4 210h5.8817c0.94921 0 1.7188-0.77005 1.7188-1.7187v-18.241c0-0.94872-0.77105-1.7143-1.7188-1.7143h-5.8817c-0.94921 0-1.7183 0.77232-1.7183 1.721v18.234c0 0.94872 0.76942 1.7187 1.7183 1.7187" fill="#3a3241" stroke-width="4.2857"/>
 <path d="m187.3 189.57c-4.983 0-7.863 3.9486-7.863-1.3303 0-5.2744 3.2972-4.9667 8.28-4.9667 4.9829 0 8.28-0.3081 8.28 4.9667 0 5.2791-3.7143 1.3303-8.697 1.3303zm9.1543-6.9531c-2.3143-1.8816-5.5543-2.5959-8.7999-2.6183v-4e-3l-0.0907 4e-3 -0.18853-4e-3v4e-3c-3.1257 0.0227-6.2456 0.73666-8.4802 2.6183-4.8742 4.0959-0.2229 9.1473-1.3715 13.616-1.142 4.4687-1.5194 11.645 5.4112 13.766h9.3373c7.1885-2.1205 6.7942-9.2969 5.6057-13.766-1.1828-4.4687 3.6343-9.5202-1.4229-13.616" fill="#413444" stroke-width="4.2857"/>
 <path d="m208.24 204.22 4.8116-44.558c4.2913-1.3548 8.0456-0.85023 11.017 2.3732l-9.3202 42.187h-6.5088" fill="#f79185" stroke-width="4.2857"/>
 <path d="m244.06 205.04c-0.39424-0.93754-6.777-44.275-6.777-44.275 2.7486-4.6182 6.4286-4.7657 10.84-1.48l2.9314 44.944-6.9943 0.81247" fill="#f79185" stroke-width="4.2857"/>
 <path d="m213.74 205.38h-3.9372l-0.76004-3.7701c-0.22856-3.2008 5.6799-3.2478 5.457 0l-0.76003 3.7701" fill="#f3f4f4" stroke-width="4.2857"/>
 <path d="m205.56 207.89s0.17722-5.6764 5.6229-5.6764c5.4459 0 5.6456 5.6472 5.6456 5.6472-3.9029 1.0959-7.6685 1.1541-11.268 0.0291" fill="#fff" stroke-width="4.2857"/>
 <path d="m216.8 210h-11.24v-2.1071h11.24v2.1071" fill="#fff" stroke-width="4.2857"/>
 <path d="m245.2 205.04h3.9143l0.75434-3.75c0.2229-2.7879-5.6456-2.7879-5.4228 0l0.75433 3.75" fill="#f3f4f4" stroke-width="4.2857"/>
 <path d="m253.72 207.53s-0.17705-5.6382-5.5886-5.6382c-5.4116 0-5.6113 5.6159-5.6113 5.6159 3.6057 1.0804 7.32 1.2121 11.2 0.0227" fill="#fff" stroke-width="4.2857"/>
 <path d="m242.55 209.63h11.172v-2.0982h-11.172v2.0982" fill="#fff" stroke-width="4.2857"/>
 <path d="m211 158.81c-0.11499-0.1134 0.11987-2.3434 0.59996-5.4685 1.0001-0.99535 1.5886-4.1605 0.94856-5.5092 0.32576-1.7074 0.69151-3.4617 1.0801-5.1604 0.91424-0.66282 1.6515-3.4846 1.4229-5.3661 0.57146-1.8166 1.1715-3.3125 1.7714-4.2497 5.0229-6.7769 18.137-9.3595 26.554-4.5715 0 0 0.81137 2.7365 1.8743 6.6921-0.60566 1.0154 0.2172 4.404 1.5429 6.0222 0.61714 2.5085 1.2229 5.1582 1.7429 7.7365-0.78283 1.0914-0.64565 3.8348 1.0286 5.8281 0.21137 1.4685 0.35426 2.8417 0.41708 4.0468 0 0-0.86854 0.64517-2.5943 1.3012-5.9028 0.67431-14.686-5.2452-14.686-5.2452l-1.5257-5.0335s-1.6972-3.3886-2.7086-0.33707c-0.27424 0.8172-0.57711 2.1206-0.86289 3.5828-0.96574 0.96621-1.4 3.9822-0.9429 5.3434-0.33707 2.1428-0.57146 3.7771-0.57146 3.7771s-10.697 0.85023-15.091-3.3886" fill="#338c92" stroke-width="4.2857"/>
 <path d="m221.85 133.32 24.949 7.8861c-0.52564-2.1497-1.0514-4.1834-1.5314-5.9708l-14.783-4.8818-8.6345 2.9662" fill="#287075" stroke-width="4.2857"/>
 <path d="m213.64 142.66 35.932 12.11c-0.25723-1.8057-0.61149-3.7726-1.0171-5.7835l-33.492-11.686c-0.5028 1.5944-0.98289 3.44-1.4228 5.3592" fill="#287075" stroke-width="4.2857"/>
 <path d="m247.19 160.18-14.486-5.3147 1.8629 6.1491c7.0342 1.44 12.623-0.83434 12.623-0.83434" fill="#287075" stroke-width="4.2857"/>
 <path d="m211.6 153.35 15.063 5.0755c0.26859-1.6582 0.59996-3.6068 0.94291-5.3434l-15.052-5.2525c-0.3771 1.9737-0.69716 3.8708-0.95422 5.5204" fill="#287075" stroke-width="4.2857"/>
 <path d="m197.94 93.661 6.6288-6.3908 2.7202 0.71931 4.2427 4.2353-8.3443 11.771-3.184-6.5151z" fill="#eb867a" stroke-width="4.2857"/>
 <path d="m193.4 117.81s0.33707-14.743 6.6056-20.333c0 0 10.846 0.33707 7.2858-9.4906 0 0 7.1486-6.7255 15.549-5.4222 9.0056 1.4 14.44 2.7142 14.44 2.7142l-0.3486 0.94919c1.3543 1.9862-0.17721 7.0666-1.9657 7.5869l-0.22291 1.1206-5.7257-0.88636c1.9886 4.3371 11.868 25.468 14.366 34.435 0 0-3.9714 6.2678-26.554 4.5715 1.2-6.5712-1.4228-11.663-4.6342-15.245-6.0913-6.8009-8.9486-7.2565-9.6228-4.509-0.98855 4.056-1.8057 6.6004-1.8057 6.6004-2.0972 2.096-7.3372 0.9239-7.3659-2.0914" fill="#413444" stroke-width="4.2857"/>
 <path d="m215.21 129.18s0.69716-0.8463 1.52-2.132c0.74859-1.172 1.9771-1.6737 2.4343-1.2634l-0.40573 0.24569s-0.67427 1.2926-1.3486 1.9554c-0.67428 0.66741-2.2 1.1943-2.2 1.1943" fill="#f79185" stroke-width="4.2857"/>
 <path d="m223.38 125.71c-2.16-0.8972-2.9543-0.72518-4.617 0.31941-1.6629 1.0514-1.5028 1.5829-2.8457 2.7657-0.85136 0.74348-0.46295 0.2412-14.88-5.1544-1.4457-0.53776-0.8172 0.0116-0.26859-3.7366-5.4227 0.5091-7.3659-2.0914-7.3659-2.0914-0.94856 8.2165-1.3028 9.0736 2.7086 10.377 11.48 3.7257 13.943 3.9891 19.063 5.067 1.4857 0.31487 3.3829-0.72972 3.8572-1.3525 0.4686-0.61826 1.6057-1.52 2.7143-1.6874 1.1086-0.16521 2.7315-0.71888 3.2286-1.8103 0.49711-1.0914 0.57146-1.7989-1.5944-2.6965" fill="#f79185" stroke-width="4.2857"/>
 <path d="m242.77 116.83s-0.99429 0.38858-2.4458 0.75428c-1.3143 0.33085-2.1657 1.3194-1.9257 1.8754l0.36-0.30399s1.4057-0.22971 2.2286-0.65142 1.7829-1.6743 1.7829-1.6743" fill="#f79185" stroke-width="4.2857"/>
 <path d="m247.19 93.541c0-5.1535-1.64-5.3772-10.263-7.3118-0.26288 2.2857-1.88 7.3011-1.9657 7.5869 5.7545 1.3148 5.3885 0.44627 5.6456 2.904 2.0629 19.913 3.1886 19.85 1.5942 20.652-1.5657 0.78123-1.9543 0.57145-3.44 1.7874-1.4857 1.2166-1.8915 1.9023-1.7257 4.188 0.16568 2.2811 0.8457 2.4349 2.0114 2.3103 1.1658-0.12797 2.1829-1.4576 2.6743-2.4423 0.4971-0.97542 1.6914-1.7474 2.4114-2 0.72001-0.24574 2.3886-1.6743 2.44-3.1582 0.73719-20.246 0.61715-23.566 0.61715-24.516" fill="#f79185" stroke-width="4.2857"/>
 <path d="m180.55 81.858c0.15385 0.3771 2.7086 4.2057 4.6059 5.7432 1.8972 1.5314 4.863 5.4685 7.8459 6.0689 2.9829 0.60514 8.2916-0.24574 9.9429-1.8417 1.6457-1.5937 2.3143-8.7809 1.9143-10.491-0.39995-1.7143-5.5659-6.9415-6.4115-7.6851-0.8457-0.74348-0.70282-1.3034-0.70282-1.3034s-4.56-5.9129-6.9142-4.8977c-2.3543 1.0245-8.4228 6.5712-8.8916 8.5898-0.46861 2.0177-1.3885 5.8165-1.3885 5.8165" fill="#f79185" stroke-width="4.2857"/>
 <path d="m190.98 96.755s0.3486-1.692-2.7086-2.8063c-3.0572-1.1138-14.692-8.0176-10.428-13.176 0 0-2.9428-1.5383 0.32559-6.5712 3.2686-5.0361 8.5659-9.377 14.269-8.4398 1.4685 0.33707 4.68 1.8217 5.9658 1.1029 0 0 0.22856 1.964-0.67432 2.1068 0 0 4.8686 3.1028 6.2516 7.5604 1.3885 4.4575 2.7543 3.4977 2.7543 3.4977s-0.47426 1.7257-1.12 1.9709c0 0 0.82287 1.3955 2.0457 1.2566 0 0-1.1486 1.516-2.7257 0.90402 0 0 0.27425-2.6514-0.52564-3.7765-0.79436-1.1274-3.48-3.2343-4.4456-4.2342-0.96575-1.0001-2.8-2.2519-3.5258-3.3257 0 0-2.8457 2.1246-4.9256 2.5645-2.0743 0.43945-2.44 0.17203-2.44 0.17203s1.6229 1.2451 2.7372 1.3188c0 0-5.0002 4.1097-8.2745 3.0914 0 0 0.51428 1.9223 3.24 2.4937 0 0-2.84 1.7006-4.7885 0.76568 0 0 3.5943 4.2964 5.8402 6.3878 2.9486 2.7365 5.64 4.1834 6.4402 4.2165 0.79436 0.02914 2.5086-0.04028 2.5086-0.04028s0.068 1.3656-0.62863 1.7251l-0.40577-1.0692s-0.40578 1.9554-2.3772 2.4017c0 0 0.23422-1.0577-0.23421-1.6514 0 0-0.81721 1.4171-2.1486 1.5537" fill="#f2b910" stroke-width="4.2857"/>
</svg>
