<svg width="300" height="300" version="1.1" viewBox="0 0 300 300" xmlns="http://www.w3.org/2000/svg">
 <rect transform="matrix(.70711 .7071 -.70711 .7071 0 0)" x="85.057" y="-127.07" width="254.15" height="254.15" ry="71.884" fill="#ef5063" stroke-width="4.2857"/>
 <path d="m149.91 134.17c-8.75 0-15.833 7.0833-15.833 15.833s7.0833 15.833 15.833 15.833c8.75 0 15.833-7.0833 15.833-15.833s-7.0833-15.833-15.833-15.833zm-64.083 0c-8.75 0-15.833 7.0833-15.833 15.833s7.0833 15.833 15.833 15.833 15.833-7.0833 15.833-15.833-7.0833-15.833-15.833-15.833zm128.33 0c-8.75 0-15.833 7.0833-15.833 15.833s7.0833 15.833 15.833 15.833 15.833-7.0833 15.833-15.833-7.0833-15.833-15.833-15.833z" fill="#fff"/>
</svg>
