<svg width="300" height="300" version="1.1" viewBox="0 0 300 300" xmlns="http://www.w3.org/2000/svg">
 <path d="m28.292 208 2 2h8e-3l68.875 68.883c14.08 14.08 32.454 21.117 50.826 21.117 18.373 0 36.751-7.0376 50.828-21.117l68.883-68.883s1.905-1.9048 2-2z" fill="#1da7b4" stroke-width="0"/>
 <path d="m150 2e-6c-18.375 0-36.75 7.0395-50.83 21.119l-78.053 78.053c-28.16 28.159-28.16 73.499 0 101.66l9.172 9.168h239.42s-2e-3 -2e-3 9.172-9.168c28.16-28.159 28.16-73.499 0-101.66l-78.053-78.053c-14.08-14.08-32.453-21.119-50.828-21.119z" fill="#54bcc7" stroke-width="4.2857"/>
 <path d="m126.18 113.93h-17.369c-1.2275-0.74849-2.7943-0.87436-4.9042 0h-13.772v-40.102c0.47542-0.68566 0.58003-1.5657 0-2.8171v-5.1544c0.6228-1.2743 0.62053-2.7428 0-4.3941v-12.154h14.41c1.268 0.70281 2.48 0.78852 3.6143 0h18.02v2.4114c-0.89949 1.7657-0.77881 3.7028 0 5.7428v24.314c-0.70578 1.7429-0.78575 3.4114 0 4.983v5.1544c-0.83486 0.90852-0.65829 1.4915 0 1.8971v20.12" fill="#fff" stroke-width="4.2857"/>
 <path d="m90.121 61.265 14.333 17.177v-29.131h3.7543v16.805l17.976-14.566v6.0227l-17.65 14.285v25.36l17.65-15.6v5.2341l-2.3794 3.2171 2.4126 1.8228v1.96l-5.355-2.1028-12.047 9.9483v12.234h-4.9042v-30.445l-7.7028-9.6629h-6.069v-2.9428h3.4086l-3.4086-4.9028-0.018-4.7142" fill="#027274" stroke-width="4.2857"/>
 <path d="m167.23 113.93h-17.371c-1.6497-0.61714-3.284-0.62862-4.9042 0h-13.773v-34.451c0.36802-0.62279 0.31491-1.2515 0-1.8743v-5.3087c0.5559-2.0114 0.59366-4.0514 0-6.1199v-4.4001c0.40397-0.98853 0.27891-1.8628 0-2.7028v-9.7658h14.411c1.0982 0.61148 2.3035 0.59995 3.6137 0h10.176c0.42391 0.66848 1.0177 0.63432 1.752 0h6.0939v2.4114c-0.60742 1.8-0.51541 3.7314 0 5.7428v4.1485c-0.50229 0.80001-0.52921 1.6229 0 2.4685v14.474c-0.63142 1.7657-0.77264 3.4514 0 4.983v2.9143c-0.43089 0.62279-0.41323 1.2571 0 1.8971v25.582" fill="#fff" stroke-width="4.2857"/>
 <path d="m159.47 63.854 7.7902 0.23421v-2.4514l-4.1006-0.77151 4.0692-3.2914v-6.0227l-6.7166 5.4458 0.6228-7.6855h-1.752l-1.3571 9.6972-8.775 7.1086v-16.805h-3.7543v34.04l-4.569-5.5427-9.7925-18.783 0.047 2.7543 4.683 9.4113-4.7006-5.2114 0.018 6.4456 8.1005 8.7543-8.1005-3.5714v1.8686l11.112 6.1144 2.6612 4.3427v24h4.9042v-15.457l12.047-9.9428 5.3233-0.14254v-1.96l-1.864-0.28007 1.864-2.5257v-5.2229l-5.8908 5.1998-0.83486-9.92-3.6292 13.863-7.2973 6.4512v-22.137l9.8932-8.0056" fill="#027274" stroke-width="4.2857"/>
 <path d="m172.41 49.081v14.097c1.2411 1.88 1.563 3.5771 0 4.9028v7.0341c0.84861 1.0114 0.83486 1.9314 0 2.7714v36.045h25.337c1.4423-1.5713 3.3149-1.2515 4.5 0h7.5828l-0.018-38.148c-1.1142-1.3028-0.96005-2.5828 0.0696-3.8514v-22.851h-8.0538c-1.844 1.2628-3.324 1.2114-4.4846 0h-12.326c-1.5383 1.4057-2.9509 1.2571-4.2726 0h-8.3349" fill="#fff" stroke-width="4.2857"/>
 <path d="m180.74 49.081 17.02 19.697v23.531l-17.02-20.451s-3.292-13.303-4.9732-16.668l-0.69832 3.2228 2.6606 10.085-5.3242-5.3198v4.9028l8.8265 9.3826-8.8265-2.3485v2.7714l12.679 4.7601 12.676 15.131-0.018 16.154h4.5v-32.314l7.5652-5.8341 0.0696-3.8514-8.0538 5.2512v-28.102h-4.4846v14.234l-12.326-14.234h-4.2726" fill="#027274" stroke-width="4.2857"/>
 <path d="m63.309 137.56c5.6182-3.7565 23.545-3.6445 28.641-0.15874l-0.74058 68.575-7.9376 0.66282-5.7433-60.497-4.4825 60.372-7.6513-0.53776c-0.72793-21.379-1.3571-47.035-2.0851-68.416" fill="#2f2430" fill-rule="evenodd" stroke-width="4.2857"/>
 <path d="m68.821 210h-5.3503c0-3.1565 2.3995-5.7278 5.3503-5.7278 2.9509 0 5.3482 2.5714 5.3482 5.7278h-5.3482" fill="#027274" fill-rule="evenodd" stroke-width="4.2857"/>
 <path d="m87.614 210h-5.3486c0-3.1565 2.3817-5.7278 5.3486-5.7278 2.9509 0 5.3327 2.5714 5.3327 5.7278h-5.3327" fill="#027274" fill-rule="evenodd" stroke-width="4.2857"/>
 <path d="m116.65 90.562s1.4999-2.2228 1.4176-3.6091c-0.0826-1.4332-0.51592-4.6718-0.40851-5.5581 0.1377-1.1452 1.2766-1.7474 1.5738-0.33707 0.31261 1.4777 0.51091 2.5851 0.51091 2.5851s1.3039-3.4508 1.6566-4.212c0.51318-1.1115 1.8394-3.4445 3.5378-3.7703 1.3218-0.25431 3.4846 0.13607 3.2074 2.9463-0.34341 3.5-1.9754 8.0558-4.6513 10.578-0.61826 0.57372-1.4531 1.616-1.7949 4.0582l-5.049-2.6811" fill="#f79185" stroke-width="4.2857"/>
 <path d="m82.972 77.551-8.3795-0.03386c0 1.6274-0.74058 3.6611-2.004 4.893-1.516 5.7904 11.71 8.4261 12.37 0.86802-1.5937-1.5623-1.8772-3.944-1.9869-5.7274" fill="#e7867a" fill-rule="evenodd" stroke-width="4.2857"/>
 <path d="m69.768 137.78h18.889v-51.124h-18.889v51.124" fill="#dbdddc" fill-rule="evenodd" stroke-width="4.2857"/>
 <path d="m79.171 90.819h-1.8617c-0.75888 8.0622-1.5623 18.051-2.3189 26.113l2.7143 7.9529 2.5555-8.1895c-0.3795-7.6366-0.75888-16.031-1.0892-25.877" fill="#413444" fill-rule="evenodd" stroke-width="4.2857"/>
 <path d="m78.888 87.014-0.96168-0.01543c-1.7057 0.2211-2.2572 0.34568-2.2572 1.3726 0 1.152 1.4041 3.3771 2.7926 3.3771s2.6337-2.3657 2.6337-3.52c0-1.1674-0.14092-1.2142-2.2075-1.2142" fill="#2f2430" fill-rule="evenodd" stroke-width="4.2857"/>
 <path d="m72.592 82.407c1.1983 1.9394 3.0777 3.6291 6.2345 4.0245l-0.15874 0.56691c-2.1629 2.1291-4.2143 4.4018-5.9019 5.7274-2.1628-2.2565-2.5869-5.6961-2.7143-8.4886 1.1206-0.41078 1.6566-0.97769 2.5406-1.8302" fill="#fff" fill-rule="evenodd" stroke-width="4.2857"/>
 <path d="m84.961 83.277c-1.2144 1.4199-3.4869 3.3125-6.4063 3.1382l0.11177 0.58508c1.6566 2.0514 3.0137 4.1337 4.228 5.7741 2.2412-2.0023 3.9509-4.953 4.3127-7.9816-0.89949-0.47314-1.2834-0.78574-2.2457-1.516" fill="#fff" fill-rule="evenodd" stroke-width="4.2857"/>
 <path d="m80.589 120.81-1.2456 20.812h13.143c0.63142-13.775 1.7212-25.861 2.368-39.636 10.206 5.9378 17.824 7.9199 20.213 5.1274 0.90579-1.0582 5.3345-8.5045 8.8993-16.853l-6.5808-3.6137c-4.2275 7.1652-3.4555 5.6335-6.7368 11.725-4.9393-3.1251-12.25-10.229-19.629-12.18 0 0-6.0605 7.7095-10.431 34.618" fill="#413444" fill-rule="evenodd" stroke-width="4.2857"/>
 <path d="m89.808 130.01h-7.0873l-0.66056 0.64743v0.70979l0.66056 0.64744h7.0873l0.66283-0.64744v-0.70979l-0.66283-0.64743" fill="#2f2430" fill-rule="evenodd" stroke-width="4.2857"/>
 <path d="m74.611 121.15c-0.09394-1.1543-7.7795-33.484-8.5513-35.977-4.1183 0.75659-7.0539 1.672-8.2543 2.7925-6.027 3.772-6.612 25.5-6.2949 43.864 0.29884 2.8417 8.5093 2.4463 8.6829-0.33029l0.081-5.076c0.018-1.2544 0.09557-2.5069 0.22967-3.7542l1.516-14.16 1.136 32.995 13.27-0.2211-1.8149-20.134" fill="#413444" fill-rule="evenodd" stroke-width="4.2857"/>
 <path d="m40.149 132.57c3.788-0.25204 7.5738-0.48917 11.362-0.74348 1.4999 1.5937 7.3573 1.3909 8.6829-0.33025l10.157-0.91551 1.3412 19.071-30.201 1.9892-1.3417-19.071" fill="#027274" fill-rule="evenodd" stroke-width="4.2857"/>
 <path d="m66.404 134.58 1.7834-0.11177 0.78802 11.022-1.7652 0.11177-0.80636-11.022" fill="#029a9c" fill-rule="evenodd" stroke-width="4.2857"/>
 <path d="m58.359 144.06s1.192 2.4731 1.2412 4.0468c0.04916 1.576 0.2097 2.8508-1.0023 2.4508 0 0-1.212-0.59828-1.1851-2.4862 0.02914-1.8908 0.94629-4.0114 0.94629-4.0114" fill="#f79185" stroke-width="4.2857"/>
 <path d="m57.875 139.46c0.03086 1.4709-0.08263 3.1897 0.48399 4.6024 0 0-0.59593 2.2748-0.37256 3.3102 0.20752 0.95536 1.1113 1.4868 0.45549 3.8748-0.0567 0.19423-0.43089 1.4269-3.0606 1.192-1.7589-0.15875-4.0754-0.35944-4.4062-2.8143-0.32803-2.4554 0.43539-4.8754 0.89315-6.1919 0.45549-1.3195 0.99309-2.8371 0.864-3.9468l5.1429-0.0257" fill="#f79185" stroke-width="4.2857"/>
 <path d="m51.511 131.83c0.06154 3.5982 0.15549 7.0692 0.25204 10.288l8.2882-0.48852 0.14254-10.13-8.6829 0.33025" fill="#413444" fill-rule="evenodd" stroke-width="4.2857"/>
 <path d="m70.051 84.241c2.2572 7.8256 4.056 29.064 4.623 37.254-2.5869-8.2521-7.0848-17.562-7.6513-19.409 0.5355-0.96167 2.1915-2.8388 1.8772-3.156-0.80568-0.77262-2.1789-1.3256-3.536-2.3503 0.11177-4.5137 0.82175-8.6159 0.69652-11.408 1.2612-0.29948 2.7143-0.50455 3.9909-0.93089" fill="#2f2430" fill-rule="evenodd" stroke-width="4.2857"/>
 <path d="m87.207 84.794c-2.5714 4.8595-6.9776 23.035-6.6159 36.022 2.5714-8.2366 6.1222-16.426 7.5262-18.524-0.5355-0.9623-2.0509-2.8885-1.7183-3.2034 0.78806-0.77198 2.3971-1.5308 3.7389-2.5554-0.11014-4.5137 0.74105-7.5428 0.88393-10.335-1.2795-0.28573-3.8149-1.404-3.8149-1.404" fill="#2f2430" fill-rule="evenodd" stroke-width="4.2857"/>
 <path d="m71.769 59.084s-2.3395 0.77944-2.4932 2.3371c-0.15712 1.5582-2.0714 15.766 1.2451 17.759 3.9737 2.3908 8.4133 6.8571 12.621 2.9623 4.2058-3.8948 5.4532-3.8948 5.4532-7.3234 0-1.2725 0.01586-3.1074-0.04029-5.1428-0.0486-1.7366 0.02272-4.5784-0.18514-6.3886-0.20589-1.7834-0.52937-4.719-0.91796-5.3969l-15.683 1.1938" fill="#f79185" stroke-width="4.2857"/>
 <path d="m68.585 70.064s-3.5069-10.904-1.3263-11.839c0 0 0.78399-0.39085 1.3263-1.0921l2.1806 0.75711-0.70055 2.9817s-1.556 5.6142-1.48 9.1919" fill="#c38a1b" stroke-width="4.2857"/>
 <path d="m70.064 60.871s1.0109-1.0892 3.9732-0.70054c2.9594 0.39021 5.9195 0.61148 9.5023-0.08263 3.5823-0.69604 4.3526 0.55139 4.98 6.3149 0 0 3.2789-6.9329-0.38404-13.788 0 0-2.1811 2.0246-4.3616 2.1811-2.1812 0.15548-7.089 0.31195-9.8173-0.85718-2.7252-1.1674-5.2925 1.0132-5.3726 3.1937 0 0 0.15386 2.4154 1.48 3.7388" fill="#c38a1b" stroke-width="4.2857"/>
 <path d="m235.59 65.598s-0.75888 1.4972 1.444 25.217c0 0 8.8196 0.17721 11.199 0 2.3817-0.17721-3.6966-10.805-3.6966-10.805s-8.1185-12.183-8.9465-14.411" fill="#8d502a" stroke-width="4.2857"/>
 <path d="m229.15 202.38s-3.016-3.0297-5.9778-1.0315c-0.97543 2.0737-0.51381 1.7703-5.4647 1.8348-2.676 0.0356-5.3148-0.16037-6.3682 4.5715 5.0422 0.68288 10.77 1.4576 16.634 2.2502 0.28346-2.3548 0.23666-1.7634 1.1766-7.6251" fill="#bf1f3a" stroke-width="4.2857"/>
 <path d="m275.49 194.3c-1.2437-0.039-3.8537 0.20062-4.788 2.712 1.2011 2.4571-0.30849 2.6477-2.0006 4.5115-3.3057 3.6497-4.6946 4.4952-2.4442 8.5713 2.541-1.4108 5.0388-2.7618 7.458-4.1015l5.1647-5.1647c0.22637-0.22637 0.41345-0.47455 0.63618-0.70311-0.79711-1.5172-1.5632-2.9121-3.3482-5.7672 0 0-0.26344-0.0456-0.678-0.0586z" fill="#bf1f3a" stroke-width="4.2857"/>
 <path d="m234.54 140.57c-6.1805 29.806-3.8372 15.257-11.37 60.775l5.9778 1.0315c12.203-41.309 6.9888-24.961 19.957-62.399l-3.5177-1.5829s-9.8726-3.48-11.047 2.1771" fill="#383838" stroke-width="4.2857"/>
 <path d="m258.19 139.21c2.4509 30.388 1.1138 22.891 3.7789 27.925 6.5983 12.463 14.199 27.217 14.199 27.217l-5.46 2.6514s-9.9686-14.309-16.389-22.925c-3.2297-4.3371-2.08 1.7257-11.884-35.588 2.7012-3.3028 12.755-6.0286 15.755 0.71999" fill="#414042" stroke-width="4.2857"/>
 <path d="m253.3 73.604h-9.0961v11.56h9.0961v-11.56" fill="#f0b98f" stroke-width="4.2857"/>
 <path d="m254.93 85.218s1.7743 1.9543 2.348 4.3941c-0.0664 2.2342-2.3503 30.434-1.8994 32.577 0.45095 2.1486 2.8126 17.023 2.8126 17.023-1.8749 1.8057-16.768 4.28-23.652 1.3543 1.596-9.2913 4.4914-15.063 5.4977-23 0.56919-4.4858 0.56289-9.3599-1.0132-12.137-1.7034-3-2.2097-6.3201-0.12471-8.0742 3.364-2.8285 4.0023-3.9771 5.3036-8.8855 3.0137-4.2743 7.8772-5.7998 10.728-3.2514" fill="#ed2247" stroke-width="4.2857"/>
 <path d="m253.3 80.11c-3.2074 0.32005-7.8189 1.8457-9.3211 3.8685 0 1.6628 0.0518 2.8171 0.22513 4.4914 2.3755-1.7028 5.547-4.2342 10.384-4.4914-0.37937-1.1714-0.79436-2.5543-1.2881-3.8685" fill="#bf1f3a" stroke-width="4.2857"/>
 <path d="m254.33 83.225c0.25886 0.75432 0.39716 1.1657 0.59593 1.9943-7.0269 1.9086-11.328 7.4571-15.406 12.537-1.9463 0.48578-1.4755-1.6743-1.4755-1.6743 4.2143-7.5029 9.2028-11.057 16.286-12.857" fill="#414042" stroke-width="4.2857"/>
 <path d="m229.98 101.72-9.1882 6.4855s1.5738 5.4055 7.9513 7.7314c3.0017-4.7314 5.9079-9.7542 5.9079-9.7542s0.31487-5.0284-4.6715-4.4627" fill="#414042" stroke-width="4.2857"/>
 <path d="m237.06 106.09c-0.64063 0.69149-1.7166 0.73148-2.4063 0.0907l-5.7073-5.4514c-0.68743-0.63998-0.72746-1.72-0.0875-2.4057l2.4686-2.6571c0.82351-0.2172 1.2634-0.69715 1.3349-1.4343l0.94402-1.0229c0.63884-0.68566 1.7166-0.72565 2.404-0.08584l5.7082 5.4514c0.6897 0.63998 0.72746 1.7143 0.0891 2.4l-4.7482 5.1141" fill="#383838" stroke-width="4.2857"/>
 <path d="m231.32 95.671 5.2972 4.8115 1.1292-1.3715-5.0915-4.8741-1.3349 1.4343" fill="#414042" stroke-width="4.2857"/>
 <path d="m220.79 108.21-2.6 2.7371s5.4018 5.64 8.1515 7.4914c1.3017-1.3486 2.4-2.4971 2.4-2.4971s-6.1522-4.9028-7.9513-7.7314" fill="#383838" stroke-width="4.2857"/>
 <path d="m246.16 132.8c-0.1134 0.18853-0.43089 1.4513-1.5874 1.9714-1.116 0.49144-3.2452 0.61714-5.2543 4.0228-0.64972 1.1029-0.17658 1.9086 0.8394 1.0057 0.73655-0.65147 1.5822-1.5657 1.6314-1.4685 0 0-0.042 0.92571-0.86173 2.3542-3.2206 5.6284 0.21656 8.1029 2.5697 5.3258 2.424-2.8628 4.4932-6.4572 4.8412-9.1426l0.0193-0.69149c-0.0244-0.39424 5e-3 -1.2058 0.52466-1.7714l-2.7229-1.6057" fill="#fac49a" stroke-width="4.2857"/>
 <path d="m250.15 115.23c-1.9263 6.2172-5.9508 18.074-5.9508 18.074 0.74349 0.73148 3.4915 2.28 5.5513 3.2343 3.3303-8.1886 6.2726-15.725 7.7302-19.931 1.9372-5.6001 1.636-5.7029 1.1852-11.246-0.36398-4.44-0.72111-7.9426-1.3909-15.754-0.36399-4.2399-9.4531-4.7772-8.2989 3.3657 2.6246 18.503 3.3303 15.297 1.1737 22.257" fill="#bf1f3a" stroke-width="4.2857"/>
 <path d="m239.04 59.333c-1.5635 0.20177-2.8397 0.95596-3.2143 2.9548-0.55141 2.9485-0.3 12.059 2.7623 16.013 1.0137 1.3028 2.617 2.014 4.269 1.9169 1.7611-0.10851 4.2697-0.9266 6.9056-2.3437 0.72746-0.20006 1.1782-0.66488 2.6451-2.8878 0.32962-0.50031 0.58496-0.97233 0.84545-1.4397z" fill="#fac49a" stroke-width="4.2857"/>
 <path d="m235.63 55.925c-0.0146 0.02229-0.0274 0.036-0.042 0.05859-2.768 4.4112 0 9.6175 0 9.6175 2.8303-1.058 4.5369-3.7653 5.064-4.6538zm16.649 16.649c-0.31693 0.14366-0.60266 0.19251-0.60266 0.19251 0.55145 3.6743-1.1134 4.6032-1.9169 5.1059 0.45086 3.2571 1.3777 10.603 5.0473 14.272 1.3593-0.05687 9.4625 0.20006 12.079-4.9637z" fill="#8d502a" stroke-width="4.2857"/>
 <path d="m154.83 199.17c0.35087-27.029 0.4017-26.458 1.1566-45.655 3.9863-3.3771 10.217 1.0959 10.217 1.0959-2.8754 22.645-2.5183 20.343-6.1633 44.558-0.87712 1.5088-4.3702 1.366-5.2097 0" fill="#fac49a" stroke-width="4.2857"/>
 <path d="m154.83 199.17s2.1989 0.90839 5.2098 0c1.2435 2.7589 1.9309 6.2678 1.6052 10.823h-3.1252c-0.76745-0.51574-1.444-0.47995-2.1697 0h-3.3458c-0.49324-3.1786 0.93545-8.7655 1.8257-10.823" fill="#d53037" stroke-width="4.2857"/>
 <path d="m154.83 199.17 1.52 10.823h2.1697l1.52-10.823h-5.2098" fill="#eb333b" stroke-width="4.2857"/>
 <path d="m185.1 199.17c-1.5537-24.565-1.6006-22.656-4.5806-45.865-4.2589-3.0222-9.2191 0.80631-9.2191 0.80631 4.2726 24.589 3.7972 21.417 8.5916 45.06 1.152 1.1539 3.208 1.6629 5.208 0" fill="#fac49a" stroke-width="4.2857"/>
 <path d="m185.1 199.17s-2.1989 0.90839-5.208 0c-1.2451 2.7589-1.9326 6.2678-1.6046 10.823h3.1229c0.76745-0.51574 1.4464-0.47995 2.1715 0h3.344c0.49325-3.1786-0.93318-8.7655-1.8257-10.823" fill="#d53037" stroke-width="4.2857"/>
 <path d="m185.1 199.17-1.5183 10.823h-2.1715l-1.5183-10.823h5.208" fill="#eb333b" stroke-width="4.2857"/>
 <path d="m155.78 131.58c-1.7188 8.6005-2.7212 13.509-4.4417 22.029 0 0 17.058 7.3439 33.433 0.27891-1.6406-10.073-2.404-14.439-4.0692-22.308-3.7143-3.7143-20.06-4.5244-24.922 0" fill="#d53037" stroke-width="4.2857"/>
 <path d="m166.04 82.84c3.2349 2.5491 5.3662 2.1651 8.1879 0.58281 1.7697 1.029 5.3328 1.5377 7.5425 2.308-1.2234 20.366-3.4063 24-3.4063 31.542 0 5.4355 1.1475 8.9485 2.3434 14.303-3.4372 2.1206-18.456 3.3486-24.922 0 1.0469-5.5084 2.7143-9.0106 3.0023-17.953 0.12471-3.904-1.0469-21.046-0.74349-27.417 2.5069-0.97769 5.4892-1.96 7.9955-3.3663" fill="#414042" stroke-width="4.2857"/>
 <path d="m181.77 85.728c2.5937 0.79028 3.232 2.0806 4.1406 9.2189 0.95084 7.4729 1.4109 11.843 1.676 17.495 0.19196 4.0914-6.4239 4.6744-7.3059 0.79482-1.4018-6.1611-1.2698-23.88 1.4891-27.509" fill="#383838" stroke-width="4.2857"/>
 <path d="m140.28 88.454 6.201-2.1828 0.53083-1.1138-4.0646-11.531-1.1115-0.53082-6.1989 2.1897-0.53147 1.1068 4.0652 11.531 1.1091 0.53082" fill="#383838" fill-rule="evenodd" stroke-width="4.2857"/>
 <path d="m140.17 86.092 4.9085-1.7326 0.0745-0.17138-3.3218-9.422-0.16504-0.08747-4.911 1.7257-0.0664 0.17138 3.324 9.4246 0.15874 0.09073" fill="#414042" fill-rule="evenodd" stroke-width="4.2857"/>
 <path d="m143.65 85.904c0.32348 0.91486-1.0806 1.4063-1.4022 0.49774-0.32349-0.92005 1.0783-1.4176 1.4022-0.49774" fill="#fff" fill-rule="evenodd" stroke-width="4.2857"/>
 <path d="m138.25 75.524 1.7057-0.60059 0.0615-0.13118-0.12472-0.35262-0.13118-0.06964-1.7052 0.60514-0.0632 0.13118 0.12308 0.3549 0.13445 0.06317" fill="#414042" fill-rule="evenodd" stroke-width="4.2857"/>
 <path d="m147.29 94.158s-2.7366-3.0445-3.1075-4.2388c-0.36802-1.2011-0.18287-3.0468-0.46003-4.2411-0.27652-1.1988-2.1206-4.7948-2.4886-4.6114-0.36849 0.18287-0.36849 0.9194 0 2.0291 0.36801 1.1023 0.18287 1.8011 0.18287 1.8011s-0.82805-1.248-1.9349-1.8011c-1.1075-0.55362-2.2126-2.3194-2.672-2.0337-0.46231 0.27891-0.37076 1.8503 0 4.1537 0.36801 2.304 1.1251 4.4798 3.1337 5.7141 1.6183 0.99372 3.228 5.1835 3.228 5.1835 1.8857 0.02272 3.1383-0.51608 4.1183-1.9554" fill="#fac49a" stroke-width="4.2857"/>
 <path d="m153.78 102.83c-2.2634-3-3.308-4.5312-6.4865-8.6742-1.4714 0.29254-2.3754 0.58229-4.1183 1.9554 2.5309 5.8457 3.8326 9.3993 8.2968 17.451 2.636-2.3257 2.308-10.732 2.308-10.732" fill="#414042" stroke-width="4.2857"/>
 <path d="m151.47 113.56c1.3726 1.9777 4.3127 2.268 5.6876 0.89022 1.3126-1.308 2.1966-11.736 2.4692-17.118 0.33887-6.7144-0.18579-8.8525-1.5874-11.131-2.4286 1.0914-3.5869 2.3594-4.4842 7.3816-1.3862 7.7656-2.88 13.699-2.0852 19.978" fill="#383838" stroke-width="4.2857"/>
 <path d="m181.06 96.138c-1.868 3.6851-19.134 7.5269-22.833-4.0445 0 0-6.7698-16.201-1.504-29.571 5.265-13.373 13.543-13.714 21.665-5.4869 8.1245 8.2281 7.1829 30.194 2.6715 39.102" fill="#d53037" stroke-width="4.2857"/>
</svg>
