<svg width="300" height="300" version="1.1" viewBox="0 0 300 300" xmlns="http://www.w3.org/2000/svg">
 <path d="m28.292 208 2 2h8e-3l68.875 68.883c14.08 14.08 32.454 21.117 50.826 21.117 18.373 0 36.751-7.0376 50.828-21.117l68.883-68.883s1.905-1.9048 2-2z" fill="#bf8534" stroke-width="0"/>
 <path d="m14.59 106.68c-21.412 28.212-19.249 68.375 6.5273 94.152l9.1719 9.168h239.42s-0.00213-0.00197 9.1719-9.168c25.777-25.776 27.94-65.938 6.5274-94.152h-270.82z" fill="#f3ba3d" stroke-width="4.2857"/>
 <path d="m150 0c-18.375 0-36.75 7.0396-50.83 21.119l-78.055 78.053c-2.3838 2.3837-4.5472 4.8988-6.5273 7.5078h270.82c-1.98-2.6089-4.1438-5.1242-6.5274-7.5078l-78.055-78.053c-14.08-14.08-32.451-21.119-50.826-21.119z" fill="#2c2b2b" fill-rule="evenodd" stroke-width="4.2857"/>
 <path d="m16.141 104.68c-1.9298 2.366-3.6663 4.8331-5.25 7.3672h278.22c-1.5836-2.5339-3.3204-5.0013-5.25-7.3672h-267.72z" fill="#3f3e40" fill-rule="evenodd" stroke-width="4.2857"/>
 <path d="m43.338 96.147c-3.6652-1.6857-6.4016-1.8572-9.4646 0.018l-0.17203 3.7428c3.3417 3.9771 5.2256 4.383 9.8173 0l-0.1806-3.76" fill="#fac49a" stroke-width="4.2857"/>
 <path d="m41.778 210h8.4999c0.08584-1.9223-0.04697-3.96-0.85252-6.0938-2.2498-1.6406-4.623-1.6834-7.1315 0-0.56919 1.888-0.88638 4.0468-0.51609 6.0938" fill="#414042" stroke-width="4.2857"/>
 <path d="m30.073 202.66c-1.188 5e-3 -2.3489 0.42694-3.4738 1.2472-0.24956 0.66047-0.33493 1.2921-0.46878 1.9336l4.1602 4.1601h3.9593c0.37093-2.0468 0.05023-4.2057-0.51896-6.0938-1.2546-0.84171-2.47-1.2526-3.658-1.2472z" fill="#414042" stroke-width="4.2857"/>
 <path d="m42.292 203.91h7.1315l2.3417-38.755-11.714-0.0339 2.2411 38.789" fill="#8d502a" stroke-width="4.2857"/>
 <path d="m33.733 203.91h-7.1315l-2.3417-38.755 11.714-0.0339-2.2411 38.789" fill="#8d502a" stroke-width="4.2857"/>
 <path d="m21.236 155.8c0.0891 2.4571-0.38177 8.4685 3.0246 10.023 3.2212 1.4628 7.3325 1.1714 14.158 1.1714 8.5582 6e-3 10.128-0.25722 13.346-1.1714 4.5823-1.3086 3.6943-8.1201 3.6943-10.577 0-2.4571-34.391-3.9714-34.224 0.55431" fill="#8d502a" stroke-width="4.2857"/>
 <path d="m53.602 102.66c7.2768 5.4856 8.5599 30.874 8.355 32.343-0.65893 4.6401-4.9286 5.4856-7.6368 3.2457-2.7297-11.16-2.5646-23.137-0.7182-35.588" fill="#414042" stroke-width="4.2857"/>
 <path d="m22.428 102.66c-7.2768 5.4856-8.5625 30.874-8.3572 32.343 0.65829 4.6401 4.9307 5.4856 7.6359 3.2457 2.7303-11.16 2.5646-23.137 0.72112-35.588" fill="#414042" stroke-width="4.2857"/>
 <path d="m55.458 155.25c-0.03386-9.4512-1.8595-52.589-1.8595-52.589l-10.679-2.7542c-4.9085 0.66282-6.375 0.29708-9.8173 0l-10.676 2.7542s-1.3885 43.692-1.192 53.142c2.1829 2.1828 31.663 2.5942 34.224-0.55431" fill="#383838" stroke-width="4.2857"/>
 <path d="m47.576 72.717-17.888 17.888c1.7951 5.5251 6.1329 8.2448 8.4378 8.2448 8.9821 0 9.4171-11.283 9.4171-11.283 2.9296-5.7955 1.1122-12.086 0.03343-14.849z" fill="#f4f3e6" stroke-width="4.2857"/>
 <path d="m57.884 172.52h-39.471c0-4.5998 3.7298-8.3258 8.3302-8.3258h22.81c4.5999 0 8.3302 3.7257 8.3302 8.3258" fill="#fff" stroke-width="4.2857"/>
 <path d="m19.299 174.86h-4.6539v-20.56h4.6539v20.56" fill="#f4f3e6" stroke-width="4.2857"/>
 <path d="m61.565 174.86h-4.6539v-20.56h4.6539v20.56" fill="#f4f3e6" stroke-width="4.2857"/>
 <path d="m60.957 174.86h-45.613v-3.1714h45.613v3.1714" fill="#f4f3e6" stroke-width="4.2857"/>
 <path d="m13.826 165.6c-1.8504 0-3.3566 1.4968-3.3566 3.3482v18.206c1.9648 3.2347 4.1829 6.3539 6.705 9.3162v-27.522c0-1.8514-1.4956-3.3482-3.3482-3.3482z" fill="#fff" stroke-width="4.2857"/>
 <path d="m66.665 206.47h-6.7012v-37.522c0-1.8514 1.4999-3.3485 3.3508-3.3485 1.8503 0 3.3503 1.4972 3.3503 3.3485v37.522" fill="#fff" stroke-width="4.2857"/>
 <path d="m58.492 208.38 1.4692-2.7771h6.705l1.0177 2.9263c0.25252 0.72565-0.31487 1.4691-1.1206 1.4691h-7.0132c-0.87712 0-1.4486-0.87308-1.0584-1.6183" fill="#f4f3e6" stroke-width="4.2857"/>
 <path d="m51.429 157.84h-26.567c-8.5492 0-15.482-6.9312-15.482-15.485 0-7.1026 5.7635-12.869 12.871-12.869h31.79c7.1096 0 12.871 5.7655 12.871 12.869 0 8.5542-6.9309 15.485-15.482 15.485" fill="#fff" stroke-width="4.2857"/>
 <path d="m248.23 98.178c0.48579-1.2571 0.77717-2.6857 0.92572-4.2571 3.2686-2.2971 7.3145-2.7885 10.394-0.2229 0.22856 1.6172 0.62281 3.1257 1.2743 4.4798-0.66848 4.6457-10.606 4.1714-12.594 0" fill="#fac49a" stroke-width="4.2857"/>
 <path d="m284.5 150.34c-1.8857 1.2686-2.6971 3.2514-2.2972 6.0342 1.4628 1.1371 2.8915 1.9486 4.2572 2.52 2.2286-2.0628 3.1543-4.863 3.1029-8.2113-1.5028-0.52577-3.2057-0.61148-5.0628-0.3429" fill="#5fc9b4" stroke-width="4.2857"/>
 <path d="m291.12 151.44c-0.49711-0.31422-1.0171-0.55996-1.5657-0.75432l-3.1029 8.2114c0.54862 0.22855 1.0914 0.42291 1.6172 0.58281l3.0514-8.0399" fill="#5fc9b4" stroke-width="4.2857"/>
 <path d="m268.86 142.06c4.8973 2.6514 11.549 6.0629 15.634 8.2799l-2.2972 6.0342-11.554-3.32c-1.9143-3.52-3.7086-7.7772-1.7829-10.994" fill="#383838" stroke-width="4.2857"/>
 <path d="m267.21 203.27c-2.72-1.9491-5.4742-1.9-8.2573 0-0.65147 1.4954-0.9714 3.0977-0.98854 4.8081 3.4686 0.85717 6.9373 0.85717 10.406 0-0.0339-1.5937-0.41709-3.1965-1.1599-4.8081" fill="#5fc9b4" stroke-width="4.2857"/>
 <path d="m257.96 208.08c-6e-3 0.62686 0.0291 1.2675 0.10204 1.924h10.183c0.0972-0.63835 0.1377-1.2811 0.11987-1.924h-10.406" fill="#5fc9b4" stroke-width="4.2857"/>
 <path d="m255.91 166.8c1.4057 14.897 1.36 20.36 3.0458 36.471h8.2573c0.72-17.877 1.6514-22.928 1.6514-37.505-4.16-2.4514-8.5256-1.3371-12.955 1.0342" fill="#383838" stroke-width="4.2857"/>
 <path d="m237.73 153.17c-1.2971 7.2286 1.5028 13.628 7.3599 13.628h20.806c4.6629 0 5.8286-6.2969 4.6457-12.348-10.869-3.8285-21.817-3.72-32.812-1.28" fill="#414042" stroke-width="4.2857"/>
 <path d="m269.74 129.53c-0.25706-3.3485-0.2172-7.1369-0.47426-11.737 3.1886-4.9542 3.2286-10.754 0.42862-17.314-2.5886-1.1543-5.5715-1.9028-8.8745-2.2971-4.2913 1.88-8.4913 1.9657-12.595 0-3.1372 0.52564-6.1316 1.3199-8.9945 2.7257-1.1029 7.9941-0.55432 17.371 0.16569 28.645 9.24 1.4913 19.177 1.4285 30.343-0.0227" fill="#5fc9b4" stroke-width="4.2857"/>
 <path d="m269.69 100.48c5.5942 2.3828 6.8572 10.171 8.0799 16.891 2.6686 14.686 4.4799 19.977-1.56 20.943-3.4858 0.55431-5.4686-2.32-6.9485-5.1312-1.3885-13.788-1.2456-25.863 0.42862-32.703" fill="#31947b" stroke-width="4.2857"/>
 <path d="m239.63 133.73c-1.0229 7.1828-1.0286 11.914-1.8972 19.434 7.2686 3.7086 25.44 2.6628 32.812 1.28-0.018-3.0114-0.32576-18.948-0.51429-20.748-10.766-1.4171-20.709-1.6-30.4 0.0339" fill="#5fc9b4" stroke-width="4.2857"/>
 <path d="m239.4 129.55c0.0858 1.3315 0.17139 2.6743 0.26289 4.0571l-0.0291 0.12634c9.8002 0.39424 19.726 0.36574 30.4-0.0339-0.10205-1.3199-0.17722-2.7142-0.29139-4.1714-10.64 0.38858-20.566 0.42291-30.343 0.0227" fill="#31947b" stroke-width="4.2857"/>
 <path d="m239.23 100.9c-5.5942 2.3828-6.8572 10.171-8.0799 16.891-2.6686 14.686-4.4799 19.977 1.56 20.943 3.4858 0.55431 5.4686-2.32 6.9485-5.1312 1.3885-13.788 1.2456-25.863-0.42862-32.703" fill="#31947b" stroke-width="4.2857"/>
 <path d="m274.06 172.52h-39.475c0-4.5998 3.7315-8.3258 8.3315-8.3258h22.812c4.5999 0 8.3315 3.7257 8.3315 8.3258" fill="#fff" stroke-width="4.2857"/>
 <path d="m235.48 174.86h-4.6513v-20.56h4.6513v20.56" fill="#f4f3e6" stroke-width="4.2857"/>
 <path d="m277.75 174.86h-4.6513v-20.56h4.6513v20.56" fill="#f4f3e6" stroke-width="4.2857"/>
 <path d="m277.14 174.86h-45.617v-3.1714h45.617v3.1714" fill="#f4f3e6" stroke-width="4.2857"/>
 <path d="m233.36 206.47h-6.7029v-37.522c0-1.8514 1.5028-3.3486 3.3543-3.3486 1.8457 0 3.3486 1.4972 3.3486 3.3486v37.522" fill="#fff" stroke-width="4.2857"/>
 <path d="m279.49 165.6c-1.8457 0-3.3482 1.4968-3.3482 3.3482v34.612l2.7372-2.7371c1.412-1.412 2.6973-2.8921 3.9676-4.386v-27.489c0-1.8514-1.5052-3.3482-3.3566-3.3482z" fill="#fff" stroke-width="4.2857"/>
 <path d="m225.19 208.38 1.4628-2.7771h6.7085l1.0171 2.9263c0.2514 0.72565-0.31423 1.4691-1.12 1.4691h-7.0115c-0.88003 0-1.4515-0.87325-1.0571-1.6183" fill="#f4f3e6" stroke-width="4.2857"/>
 <path d="m267.61 157.84h-26.566c-8.5543 0-15.486-6.9312-15.486-15.485 0-7.1026 5.7656-12.869 12.874-12.869h31.789c7.1088 0 12.869 5.7655 12.869 12.869 0 8.5542-6.9313 15.485-15.48 15.485" fill="#fff" stroke-width="4.2857"/>
 <path d="m131.98 183.8c-2.2514 0.10204-4.0172 1.1658-5.1142 3.5428-0.12634 2.3543 0.98855 5.3657 1.8628 6.6741 1.5886 0.18853 7.9372-4.3315 8.5428-6.3886-1.3543-1.8343-3.3372-2.9943-5.2916-3.8285" fill="#5fc9b4" stroke-width="4.2857"/>
 <path d="m128.73 194.01 1.2286 1.3656 7.9942-5.9142c-0.0907-0.65716-0.32576-1.2514-0.67997-1.84l-8.5428 6.3886" fill="#5fc9b4" stroke-width="4.2857"/>
 <path d="m124.28 166.13c2.4458 3.9486 4.3085 10.988 7.6972 17.663l-5.1142 3.5428c-4.7829-6.6115-8.4-9.9942-11.377-14.446-3.0343-5.7312 4.977-11.189 8.7943-6.7598" fill="#fac49a" stroke-width="4.2857"/>
 <path d="m106.98 201.8c-1.7429-1.4285-3.7657-1.8171-6.1715-0.77879-1.6686 1.6628-2.8457 4.6495-3.0743 6.2026 1.0571 1.208 8.7999 2.0851 10.623 0.95776 0.2229-2.272-0.47426-4.4575-1.3772-6.3818" fill="#5fc9b4" stroke-width="4.2857"/>
 <path d="m97.732 207.22c-0.11987 0.5697-0.05186 1.2388 0 1.8417l9.9031 0.93771c0.37711-0.54913 0.58865-1.1452 0.72001-1.8217l-10.623-0.95776" fill="#5fc9b4" stroke-width="4.2857"/>
 <path d="m116.35 166.88c-3.8343 13.406-6.3656 23.571-9.3716 34.92l-6.1715-0.77879c1.1715-11.678 2.6229-22.741 3.5829-34.141 2.8114-2.8057 9.2345-2.72 11.96 0" fill="#fac49a" stroke-width="4.2857"/>
 <path d="m125.75 152.22c-9.3258-5.0798-24.715-4.4228-32.479 0-2.8503 6.0912-0.34796 14.651 4.4499 14.651h24.469c5.337 0 6.8743-8.7256 3.56-14.651" fill="#31947b" stroke-width="4.2857"/>
 <path d="m125.75 152.22c3.0857-10.36-3.1543-20.811-0.33707-48.047l-7.2288-1.3371c-4.5086 3.3428-10.983 3.0971-15.903-0.33141l-7.1212 1.223c1.3383 19.685-3.8903 44.37-1.8886 48.492 7.0098 3.5028 22.273 4.1428 32.479 0" fill="#dad9cc" stroke-width="4.2857"/>
 <path d="m125.41 104.18c5.8993 1.56 5.5068 6.1144 8.5068 31.028 0.50165 4.16-4.2257 5.3369-6.8555 3.72-3.1326-9.2798-4.3213-28.074-1.6514-34.748" fill="#f4f3e6" stroke-width="4.2857"/>
 <path d="m95.161 103.73c-5.8993 1.56-5.5067 6.1144-8.5068 31.028-0.50164 4.16 4.2257 5.3369 6.8555 3.72 3.1326-9.2798 4.3213-28.074 1.6515-34.748" fill="#f4f3e6" stroke-width="4.2857"/>
 <path d="m102.28 102.51 2.3314-1.6114c2.56 1.6114 9.3999 1.6114 12.069 0l1.5028 1.9428c0.59431 4.8227-14.714 4.5085-15.903-0.33141" fill="#f4f3e6" stroke-width="4.2857"/>
 <path d="m120.44 81.318c-1.8915 19.046 0.0116 21.16 1.8914 29.863-23.737-0.63432-24.063-11.08-24.909-23.748-1.7429-25.868 24.652-22.525 23.017-6.1144" fill="#8d502a" stroke-width="4.2857"/>
 <path d="m129.81 172.52h-39.47c0-4.5998 3.732-8.3258 8.3332-8.3258h22.806c4.6059 0 8.3315 3.7257 8.3315 8.3258" fill="#fff" stroke-width="4.2857"/>
 <path d="m91.227 174.86h-4.6539v-20.56h4.6539v20.56" fill="#f4f3e6" stroke-width="4.2857"/>
 <path d="m133.49 174.86h-4.6573v-20.56h4.6573v20.56" fill="#f4f3e6" stroke-width="4.2857"/>
 <path d="m132.88 174.86h-45.617v-3.1714h45.617v3.1714" fill="#f4f3e6" stroke-width="4.2857"/>
 <path d="m89.105 206.47h-6.7059v-37.522c0-1.8514 1.4999-3.3485 3.3526-3.3485 1.8508 0 3.3532 1.4972 3.3532 3.3485v37.522" fill="#fff" stroke-width="4.2857"/>
 <path d="m138.59 206.47h-6.7029v-37.522c0-1.8514 1.5028-3.3485 3.3543-3.3485s3.3486 1.4972 3.3486 3.3485v37.522" fill="#fff" stroke-width="4.2857"/>
 <path d="m80.928 208.38 1.4662-2.7771h6.7059l1.02 2.9263c0.25204 0.72565-0.31714 1.4691-1.1206 1.4691h-7.0132c-0.87776 0-1.4491-0.87308-1.0582-1.6183" fill="#f4f3e6" stroke-width="4.2857"/>
 <path d="m130.42 208.38 1.4685-2.7771h6.7029l1.0171 2.9263c0.2514 0.72565-0.31423 1.4691-1.12 1.4691h-7.0115c-0.88003 0-1.4515-0.87308-1.0571-1.6183" fill="#f4f3e6" stroke-width="4.2857"/>
 <path d="m123.36 157.84h-26.566c-8.5513 0-15.482-6.9312-15.482-15.485 0-7.1026 5.7635-12.869 12.871-12.869h31.789c7.1088 0 12.874 5.7655 12.874 12.869 0 8.5542-6.9373 15.485-15.486 15.485" fill="#fff" stroke-width="4.2857"/>
 <path d="m194.8 154.17 1.9543-1.9828c-2.8514-23.48-0.89722-25.68-0.32576-48.758-7.8686-2.4686-19.852-2.4686-27.72 0 0.63434 25.726 2.2058 27.92-0.32576 48.758l1.4629 1.9828h24.955" fill="#d53037" stroke-width="4.2857"/>
 <path d="m174.45 129.03c3.48 0 3.1029 4.8514 0 4.8514-2.8286 0-3.3372-4.8514 0-4.8514" fill="#eb333b" stroke-width="4.2857"/>
 <path d="m182.84 137.84c3.4858 0 3.1029 4.8458 0 4.8458-2.8286 0-3.3314-4.8458 0-4.8458" fill="#eb333b" stroke-width="4.2857"/>
 <path d="m174.71 146.13c3.4858 0 3.1086 4.8458 0 4.8458-2.8229 0-3.3314-4.8458 0-4.8458" fill="#eb333b" stroke-width="4.2857"/>
 <path d="m190.53 146.36c3.4858 0 3.1029 4.8514 0 4.8514-2.8286 0-3.3372-4.8514 0-4.8514" fill="#eb333b" stroke-width="4.2857"/>
 <path d="m182.66 118.03c3.4858 0 3.1086 4.8514 0 4.8514-2.8286 0-3.3314-4.8514 0-4.8514" fill="#eb333b" stroke-width="4.2857"/>
 <path d="m173.82 111.12c3.4858 0 3.1029 4.8514 0 4.8514-2.8286 0-3.3372-4.8514 0-4.8514" fill="#eb333b" stroke-width="4.2857"/>
 <path d="m190.34 128.75c3.48 0 3.1029 4.8514 0 4.8514-2.8343 0-3.3372-4.8514 0-4.8514" fill="#eb333b" stroke-width="4.2857"/>
 <path d="m193.68 111.21c2.2057 2.7028-1.7886 5.4741-3.7543 3.0742-1.7943-2.1886 1.64-5.6515 3.7543-3.0742" fill="#eb333b" stroke-width="4.2857"/>
 <path d="m168.7 103.43c-2.5486 0.11498-4.2686 7.2226-6.8058 15.651 0.53148 0.53146-0.32006 2.2742-0.81137 2.6286-0.78854 2.5085-1.6629 5.0798-2.6572 7.5715-1.8058 4.5085 3.6857 8.3712 6.7886 5.2744 0.29709-1.2399 1.1658-1.4913 2.4514-2.24 1.2343-2.0629 2.0572-2.6114 2.0572-2.6114 0.91423-4.7828 0.82286-22.44-1.0229-26.274" fill="#eb333b" stroke-width="4.2857"/>
 <path d="m206.7 129.28c-0.9829-2.4628-1.8457-4.9941-2.6286-7.4742-0.88569-1.1314-1.6-2.76-1.3715-4.503-2.2514-7.6229-3.9086-13.766-6.2743-13.874-1.8514 3.8343-2.0572 21.394-1.1486 26.177 0 0 0.63433 0.59995 1.8 2.2914 0.76003 6e-3 1.48 0.96004 1.4115 2.0743 3.56 5.1029 10.034-0.13119 8.2115-4.6915" fill="#eb333b" stroke-width="4.2857"/>
 <path d="m163.07 130.95c-1.2171 1.9486 0.48579 3.5714 2.1486 3.6057l6e-3 -6e-3c0.8802-0.53159 1.5487-1.0801 2.4459-2.2344-0.6285-1.6514-3.2686-3.4914-4.5999-1.3656" fill="#d53037" stroke-width="4.2857"/>
 <path d="m165.63 122.07c1.1943-2.4628-1.9315-4.6572-3.7257-2.9942-0.26288 0.86287-0.53147 1.7428-0.81137 2.6286 0.58864 1.7714 3.5772 2.3542 4.5373 0.36574" fill="#d53037" stroke-width="4.2857"/>
 <path d="m204.07 121.81c-0.48579-1.5372-0.9372-3.0457-1.3715-4.503-2.1429 1.1714-0.85719 4.5715 1.3715 4.503" fill="#d53037" stroke-width="4.2857"/>
 <path d="m201.82 129.64c-1.6457-2.0171-4.5999 0.38275-4.743 2.2571 0.47996 0.81719 0.96005 1.4228 1.4115 2.0743 2.04 0.87436 5.223-2.0228 3.3314-4.3315" fill="#d53037" stroke-width="4.2857"/>
 <path d="m184.03 210h4.2c0.18287-2.8908-0.92572-5.1072-3.3257-6.6565-0.51429 2.212-0.80002 4.4331-0.8742 6.6565" fill="#d53037" stroke-width="4.2857"/>
 <path d="m193.9 210c-0.2172-2.2211-0.65717-4.4507-1.3143-6.6852-1.7657 1.4572-2.76 3.6805-2.9657 6.6852h4.28" fill="#d53037" stroke-width="4.2857"/>
 <path d="m192.58 203.31-0.39995-2.0383c-2.1943-2-4.5257-2.1314-7.0115 0l-0.26858 2.0668 3.3257 6.6565h1.3885l2.9657-6.6852" fill="#eb333b" stroke-width="4.2857"/>
 <path d="m181.09 210h-4.2c-0.18288-2.8908 0.92571-5.1072 3.3314-6.6565 0.50863 2.212 0.80002 4.4331 0.86855 6.6565" fill="#d53037" stroke-width="4.2857"/>
 <path d="m171.23 210c0.2172-2.2211 0.65718-4.4507 1.3143-6.6852 1.7657 1.4572 2.76 3.6805 2.9657 6.6852h-4.28" fill="#d53037" stroke-width="4.2857"/>
 <path d="m172.54 203.31 0.39994-2.0383c2.1943-2 4.5258-2.1314 7.0115 0l0.26855 2.0668-3.3314 6.6565h-1.3828l-2.9657-6.6852" fill="#eb333b" stroke-width="4.2857"/>
 <path d="m184.39 167.22c0.73719 14.468 0.2172 19.703 0.78853 34.057h7.0115c0.57146-13.126 1.7371-24.611 2.96-34.68-3.8914-2.4-7.4572-1.9828-10.76 0.62279" fill="#fac49a" stroke-width="4.2857"/>
 <path d="m181.45 167.22c-0.74285 14.468-0.92007 19.703-1.4914 34.057h-7.0115c-0.57146-13.126-1.0401-24.611-2.2629-34.68 3.8915-2.4 7.4572-1.9828 10.766 0.62279" fill="#fac49a" stroke-width="4.2857"/>
 <path d="m196.75 152.19c-9.5431 0.64564-18.017 0.58864-28.372 0-4.6629 12.971 1.7486 15.029 4.4229 15.029h20.223c2.6743 0 8.3885-2.0571 3.7257-15.029" fill="#414042" stroke-width="4.2857"/>
 <path d="m194.35 81.935c-1.8857 19.046 1.68 21.211 3.56 29.914-19.72-1.4285-25.726-11.131-26.577-23.794-1.7429-25.874 24.646-22.531 23.017-6.1199" fill="#414042" stroke-width="4.2857"/>
 <path d="m201.84 172.52h-39.475c0-4.5998 3.7315-8.3258 8.3315-8.3258h22.812c4.5999 0 8.3315 3.7257 8.3315 8.3258" fill="#fff" stroke-width="4.2857"/>
 <path d="m163.26 174.86h-4.6513v-20.56h4.6513v20.56" fill="#f4f3e6" stroke-width="4.2857"/>
 <path d="m205.52 174.86h-4.6513v-20.56h4.6513v20.56" fill="#f4f3e6" stroke-width="4.2857"/>
 <path d="m204.92 174.86h-45.617v-3.1714h45.617v3.1714" fill="#f4f3e6" stroke-width="4.2857"/>
 <path d="m161.14 206.47h-6.7029v-37.522c0-1.8514 1.5028-3.3485 3.3543-3.3485 1.8514 0 3.3486 1.4972 3.3486 3.3485v37.522" fill="#fff" stroke-width="4.2857"/>
 <path d="m210.63 206.47h-6.7029v-37.522c0-1.8514 1.5028-3.3485 3.3543-3.3485 1.8457 0 3.3486 1.4972 3.3486 3.3485v37.522" fill="#fff" stroke-width="4.2857"/>
 <path d="m152.96 208.38 1.4629-2.7771h6.7085l1.0171 2.9263c0.2514 0.72565-0.31423 1.4691-1.1201 1.4691h-7.0115c-0.88003 0-1.4515-0.87308-1.0571-1.6183" fill="#f4f3e6" stroke-width="4.2857"/>
 <path d="m202.45 208.38 1.4628-2.7771h6.7085l1.0171 2.9263c0.2514 0.72565-0.31423 1.4691-1.12 1.4691h-7.017c-0.87438 0-1.4457-0.87308-1.0514-1.6183" fill="#f4f3e6" stroke-width="4.2857"/>
 <path d="m195.39 157.84h-26.566c-8.5543 0-15.486-6.9312-15.486-15.485 0-7.1026 5.7656-12.869 12.874-12.869h31.789c7.1088 0 12.869 5.7655 12.869 12.869 0 8.5542-6.9313 15.485-15.48 15.485" fill="#fff" stroke-width="4.2857"/>
 <path d="m160.73 93.644c1.3913 0.69136 2.7419 1.7093 4.0544 3.0156l-4.9243 6.6312c-2.5201-2.079 0.23165-3.6971-1.39-6.9912 0.16878-1.3408 0.88964-2.2515 2.2602-2.6557" fill="#d53037" stroke-width="4.2857"/>
 <path d="m146.74 101.37c0.68019 1.6871 0.78493 2.5831 0.18746 4.842-0.0724 0.27849-0.33412 0.47074-0.63095 0.47074h-2.6003l-0.61144-0.40671c-0.93039-2.3945-0.61106-3.1364 0.0171-4.9062 1.2348-0.73572 2.4498-0.81462 3.638 0" fill="#d53037" stroke-width="4.2857"/>
 <path d="m139.27 78.267c1.974 10.901 2.0529 12.099 3.8338 23.101 1.2534 0.0875 2.4696 0.0949 3.638 0-0.87614-12.935-1.0919-15.414-1.7806-22.911-1.9807-1.114-3.8859-1.278-5.691-0.18994" fill="#e8b288" stroke-width="4.2857"/>
 <path d="m148.39 78.34c0 4.0127-0.29559 3.1933 1.2497 4.6697 1.113 1.0622 11.089 10.632 11.089 10.632-0.57198 0.9908-1.3374 1.8707-2.2602 2.6557-13.251-11.003-13.251-11.003-14.512-12.205-0.84048-0.80476-0.52149-0.45715-1.044-5.6344 1.7869-1.3853 3.6086-1.5431 5.4767-0.11734" fill="#fac49a" stroke-width="4.2857"/>
 <path d="m150.07 37.33c-1.0822-0.11927-1.1916-0.45715-1.1916-2.8615-0.3969-1.3285-3.3546-1.4765-4.0386 0-0.0839 1.6945-0.0457 2.6939-1.1263 2.7482-3.7736 5.3005 6.9159 5.1351 6.3566 0.11327" fill="#e8b288" stroke-width="4.2857"/>
 <path d="m163.6 44.204c4.3183-1.3951 6.1445-1.9977 7.1786-2.3945 0.80954-0.30917 1.5538-0.74549 2.2454-1.2531 0.6666-0.49187 1.443-0.89223 1.9854-1.0402 0.71464-0.19971 2.8912-0.22813 3.6354 0.35871 0.74584 0.58774 0.16877 0.60608-0.39691 0.54329-0.56438-0.06437-1.2052-0.08494-1.2052-0.08494 0.62628 0.68742 1.6563 0.89223 2.588 1.0253 1.5714 0.21677 2.4908 1.066 1.7661 1.2963-0.78369 0.24887-2.4302 0.46727-3.213 0.61744-0.73573 0.13941-1.5796-0.08764-2.7839-0.75659-0.71366-0.39437-1.2286-0.15776-1.739 0.12304l-0.32027 0.19843c-0.79505 0.53978-1.9718 1.4519-9.5053 5.4299-0.91934-1.1954-0.88244-3.0154-0.23538-4.0632" fill="#fac49a" stroke-width="4.2857"/>
 <path d="m131.89 42.314c-3.6566-2.599-5.1969-3.7129-6.0523-4.3971-0.67072-0.53382-1.2374-1.1685-1.7289-1.856-0.47576-0.66569-1.0846-1.2768-1.5515-1.5774-0.61616-0.3969-2.6758-1.0698-3.5739-0.73225-0.89975 0.33788-0.35593 0.52744 0.20031 0.63475 0.55805 0.10723 1.1746 0.2748 1.1746 0.2748-0.81738 0.46727-1.8633 0.35995-2.7925 0.2082-1.5651-0.2562-2.7139 0.27981-2.1002 0.71241 0.66536 0.47065 2.1605 1.1648 2.8555 1.5368 0.65465 0.35022 1.5308 0.38202 2.8924 0.10346 0.80576-0.16376 1.2199 0.21206 1.6143 0.63102l0.24056 0.28491c0.58042 0.74798 1.4049 1.962 7.281 7.9722 1.262-0.86506 1.8166-2.6062 1.5406-3.7956" fill="#fac49a" stroke-width="4.2857"/>
 <path d="m139.39 51.006c4.0383-1.0279 9.0579 0.39437 11.747 2.0667-2.121 5.1647 1.2942 7.1746-1.4715 23.248-2.0655 1.2178-10.695 1.1771-12.605-0.1353-5.5668-14.838 1.2926-22.876 2.3292-25.18" fill="#d53037" stroke-width="4.2857"/>
 <path d="m149.66 76.321c-0.1098 0.64105-0.22813 1.3001-0.35871 1.9841-5.5903 0.22427-6.6438 0.25273-11.448-0.14164-0.29216-0.67169-0.5559-1.331-0.79852-1.9778 4.1616 0.23876 8.3645 0.2808 12.605 0.1353" fill="#eb333b" stroke-width="4.2857"/>
 <path d="m162.56 49.081c-1.5393-0.46315-3.5247-1.5897-7.6372-3.6846-1.368-2.3182-0.7692-5.0849 0.26473-6.0732 3.9585 2.4201 4.8472 3.9657 6.9965 4.6757 0.99348 1.2433 1.2585 4.2405 0.37608 5.0824" fill="#d53037" stroke-width="4.2857"/>
 <path d="m163.6 44.204c0.30664 1.5579 0.31676 2.7952 0.22054 4.3281-0.25273 0.51394-0.6531 0.73199-1.2569 0.54831-0.1161-1.555-0.24038-3.2521-0.37607-5.0824 0.30064-0.56438 1.1474-0.42874 1.4124 0.20571" fill="#eb333b" stroke-width="4.2857"/>
 <path d="m148.54 39.559c-1.5427 1.0979-3.9793 0.46341-4.3479-0.13316-3.1622 3.023 1.0254 16.535 4.3479 0.13316" fill="#fff" stroke-width="4.2857"/>
 <path d="m140.33 37.724c-3.4654 1.9437-4.9012 2.7668-8.3705 3.9376-1.2288 0.77892-1.5541 3.4788-0.95657 4.6028 4.4589-0.81462 4.815-1.2843 8.3002-2.1358 1.5787-1.7734 2.1851-5.2979 1.0266-6.4045" fill="#d53037" stroke-width="4.2857"/>
 <path d="m131.96 41.658c-0.51647 1.6907-0.76534 2.858-0.95657 4.6028-0.17349 0.34384-0.67522 0.36844-0.90704-0.02871-0.0653-1.8115 0.25522-3.5123 0.98242-5.0922 0.38679-0.24261 0.91556-0.0465 0.88115 0.51771" fill="#eb333b" stroke-width="4.2857"/>
 <path d="m139.5 47.53c-1.7314-4.347 1.0092-4.8767 0.8256-9.8052 0.58522-0.25873 1.1904-0.43474 1.8204-0.5136 1.1904 1.1386 2.1381 5.7857 2.557 10.757 2.842-5.4017 3.9708-7.6384 6.7548-10.298 1.3531 0.38802 2.6015 0.93415 3.7291 1.6563-0.67046 2.6062-0.64552 3.5208-0.26473 6.0732-1.7119 2.8712-2.3614 4.4228-3.791 7.6726-3.3878 0-8.5402-1.1042-11.747-2.0667 0.66661-1.6563 0.34861-2.8886 0.1158-3.4764" fill="#eb333b" stroke-width="4.2857"/>
 <path d="m150.07 37.33c0.47452 0.09497 0.93922 0.20854 1.3913 0.34037-0.71456 1.8017-1.2828 3.5751-1.6118 5.2979l-1.479-0.16787 0.72849 1.432c-2.1223 1.6465-2.9798 2.5498-4.5686 4.6002-0.10097-0.82688-0.018-1.4986 0.30103-1.9693 1.1459-2.5299 3.4442-7.3791 5.2389-9.5335" fill="#d53037" stroke-width="4.2857"/>
 <path d="m142.1 41.766c0.24039-1.3718 0.21455-2.9182 0.0483-4.5548 0.50384-0.06437 1.0241-0.06617 1.5639 6e-3 0.84524 3.1574 0.94647 6.3316 1.1178 9.647l-0.30103 1.9693c-0.58025-2.2724-1.1831-3.66-2.2293-5.5062l0.9045-0.77866-1.1042-0.78269" fill="#d53037" stroke-width="4.2857"/>
 <path d="m155.84 33.674s-9.4299 5.5975-17.967-0.75659c0 0-0.59533-4.5561 2.0851-8.4458 2.6791-3.8906 3.8477-5.3125 9.1209-3.13 0 0 4.0818-1.8005 5.9675 4.7421 1.8854 6.5464 0.79342 7.5899 0.79342 7.5899" fill="#8d502a" stroke-width="4.2857"/>
 <path d="m149.08 22.592s-2.7678 6.0248-7.9303 7.4644c0 0 0.69381 6.6561 5.3597 6.6561 4.6659 0 6.4526-4.0164 6.6523-6.6561 0.19843-2.6384-1.4137-6.4105-4.0818-7.4644" fill="#fac49a" stroke-width="4.2857"/>
 <path d="m247.63 67.93c-0.51956 0.20151-1.153 0.43975-1.5151 0.56918-2.68 0.95999-2.0006 4.311-2.0006 4.311-4.7027 1.9667-0.4422 9.6278 0.57754 11.342 0.11833 0.99282 0.22552 2.2276 0.34321 2.9632 1.1371 7.1712 6.4089 10.689 9.0318 10.689 8.9773 0 9.4171-11.275 9.4171-11.275 0.33335-0.65888 0.53469-1.3262 0.75335-1.9922l-16.607-16.607z" fill="#8d502a" stroke-width="4.2857"/>
</svg>
