<svg width="300" height="300" version="1.1" viewBox="0 0 300 300" xmlns="http://www.w3.org/2000/svg">
 <path d="m28.292 208 2 2h8e-3l68.875 68.883c14.08 14.08 32.454 21.117 50.826 21.117 18.373 0 36.751-7.0376 50.828-21.117l68.883-68.883s1.905-1.9048 2-2z" fill="#8d502a" stroke-width="0"/>
 <path d="m150 0c-18.375 0-36.75 7.0395-50.83 21.119l-78.053 78.053c-28.16 28.159-28.16 73.499 0 101.66l9.172 9.168h239.42s-2e-3 -2e-3 9.172-9.168c28.16-28.159 28.16-73.499 0-101.66l-78.053-78.053c-14.08-14.08-32.453-21.119-50.828-21.119z" fill="#f0ae2f" stroke-width="4.2857"/>
 <path d="m64.152 56.154v0.003906l0.001953-0.001953-0.001953-0.001953zm0 0.003906-42.094 42.094-1.0449 102.44c0.04234 0.0429 0.074707 0.09039 0.11719 0.13281l9.1738 9.1758h220.46v-138.96l-2.9394-2.9375h-48.592v19.109h-62.721v-24.057h-46.861v33.281h-25.496v-40.283z" fill="#f1b948"/>
 <path d="m115.99 80.237c-0.65147 2.8057-0.67431 4.8857-0.35426 7.1772 0 8.2401-13.423 4.0343-11.023-1.3943 1.0173-1.1886 1.6286-2.3542 1.7543-4.2628 0.0745-1.2114 6.1715-5.3485 9.6232-1.52" fill="#e9ac7d" stroke-width="16.198"/>
 <path d="m111.13 148.33c-7.6352-0.13229-15.64 2.5558-18.111 9.207-5.6455 0.1942-10.698 2.227-14.281 5.3984-2.6173-1.24-5.639-1.959-8.8848-1.959-9.4567 0-17.162 6.0566-17.652 13.668-7.269 1.674-12.605 7.1019-12.605 13.57 0 3.3026 1.4069 6.3386 3.7441 8.75h0.003906c-3.0002 2.2346-4.8965 5.4432-4.8965 9.0215 0 1.4316 0.37718 2.7748 0.99609 4.0176h126.58c9.0529-5.6688 10.371-16.194 3.2402-23.205 4.913-11.571-4.9374-28.753-19.732-30.73 2.378-7.206-4.5026-5.007-10.234-5.8184-6.4282-0.9198-9.7188-0.81698-12.873 4.2285-2.1023-3.7204-8.5521-6.0317-15.289-6.1484z" fill="#5fc9b4"/>
 <path d="m165.56 1.7809c-1.4921 18.22-3.5956 33.446-6.9056 48.128l15.235 0.4269c1.7543-11.177 3.4334-24.817 4.4447-36.805 1.0057 12 2.6878 25.651 4.4366 36.805l15.235-0.4269c-2.571-11.402-4.3903-23.128-5.784-36.06-8.1502-5.9477-17.227-9.9779-26.66-12.07z" fill="#fff" stroke-width="4.2857"/>
 <path d="m136.38 132.3-38.428 77.699h27.92c6.7178-13.651 13.148-28.127 19.148-42.133 9.7316-6.96 17.44-11.434 33.371-11.434 15.72 0 23.497 4.4854 33.223 11.434 6.0098 14.035 12.436 28.501 19.148 42.133h27.916l-38.428-77.699h-83.871z" fill="#fff"/>
 <path d="m199.99 59.387h-43.337c-5.7489 23.029-9.2058 36.886-16 57.947h25.766c2.2572-10.394 4.3085-20.8 7.6916-42.189h8.4228c3.3943 21.485 5.4459 31.879 7.7143 42.314 3.7144 0 20.875-0.10852 25.744-0.10852-6.8285-21.166-10.291-35.08-16-57.968" fill="#fff" stroke-width="16.198"/>
 <path d="m135.1 115.92v11.395h0.02344l-0.02148 0.00977h-0.00196v7.5762h86.43v-7.5762l-0.01953-0.00977h0.01953v-11.395h-86.43z" fill="#f4f3e6" stroke-width="16.198"/>
 <path d="m156.08 48.939v7.5469h0.05469c-0.01825 0.001494-0.03644 0.002409-0.05469 0.003906v5.1895h44.477v-5.1895c-0.01755-0.001486-0.03519-0.002423-0.05273-0.003906h0.05273v-7.5469h-44.477z" fill="#f4f3e6" stroke-width="16.198"/>
 <path d="m90.542 202.09s3.6172-1.5732 6.2572 0c0.26889 3.2257 0.18304 4.9422 0 8.2859h-16c0.34826-5.0648 2.8114-4.8818 6.0056-5.5041 4.12-0.80635 3.2515-0.64062 3.7371-2.7817" fill="#eb333b" stroke-width="16.198"/>
 <path d="m116.28 136.74c1.4222 37.32 2.0402 30.079 1.4692 65.202-2.3199 1.3909-5.52 1.212-6.72 0-5.5029-37.596-5.9546-52.405-7.0059-52.405-1.0464 0-3.1143 19.258-7.0518 52.478-3.2115 0.59138-6.6686-1.1115-6.6686-1.1115-0.23974-39.593-0.50863-28.016 2.3201-66.96 10.8 0.39994 23.657 2.8 23.657 2.8" fill="#414042" stroke-width="16.198"/>
 <path d="m119.05 205.87c-0.71919 0.3348-8.7545 0.44627-9.2229 0.0133l-0.0163-4.0623c0.42926-0.37076 8.4686-0.6183 9.2173 0.0875 0.75485 0.70349 0.3369 3.8172 0.0326 3.9624" fill="#383838" stroke-width="16.198"/>
 <path d="m97.734 205.56c-0.81639 0.23195-9.2345-0.60921-9.6575-1.0869l0.3936-4.0424c0.46329-0.32576 8.9658 0.40577 9.6459 1.1852 0.67385 0.77653-0.0486 3.8503-0.38229 3.944" fill="#383838" stroke-width="16.198"/>
 <path d="m120.04 210.38c-3.0114-2e-3 -7.44-6e-3 -11.234-0.0107-0.081-8.1766 11.154-8.1852 11.234 0.0107" fill="#eb333b" stroke-width="16.198"/>
 <path d="m59.359 87.72s-1.2972-0.73718-2.12-1.5314c-0.8172-0.79435-2.3257-1.4456-1.6286-3.4915 0.2514-0.73148 0.67432-1.9314 0.71435-2.8685 0.04029-1.0514-0.70869-1.2458-1.2286-0.68001-0.54279 0.58864-1.1314 1.7314-1.7371 3.6744 0 0-0.86289-1.4228-1.6-1.4972-0.73136-0.07453-2.0457 0.14901-2.1772 0.47425 0 0 0.95422 4.743-0.27424 7.3658 0 0 2.1829 0.81719 3.8971 0.90856 1.7143 0.0972 3.8686 1.36 4.4113 1.8914l1.7429-4.2457" fill="#fac49a" stroke-width="16.198"/>
 <path d="m52.866 77.644 6.0858 1.7714 0.5718 1.0458-3.2971 11.314-1.0399 0.57145-6.0858-1.7714-0.5718-1.0401 3.2971-11.32 1.0399-0.57145" fill="#383838" fill-rule="evenodd" stroke-width="16.198"/>
 <path d="m52.879 79.941 4.8232 1.4 0.081 0.16037-2.6971 9.2571-0.1458 0.09068-4.8172-1.4057-0.081-0.15386 2.6973-9.2571 0.1458-0.09073" fill="#414042" fill-rule="evenodd" stroke-width="16.198"/>
 <path d="m56.248 79.928c0.25757-0.89138-1.1193-1.2914-1.3768-0.39428-0.26242 0.89721 1.1144 1.3028 1.3768 0.39428" fill="#414042" fill-rule="evenodd" stroke-width="16.198"/>
 <path d="m51.602 90.214 1.6743 0.49144 0.0648 0.11987-0.0972 0.3486-0.1296 0.06801-1.6743-0.48578-0.0648-0.12634 0.0972-0.3486 0.1296-0.06806" fill="#414042" fill-rule="evenodd" stroke-width="16.198"/>
 <path d="m49.575 81.788s3.6457-0.51994 3.5772 1.1428c-0.081 1.6685-0.24622 5.6344-1.5826 6.0857 0 0-2.3029 0.96004-3.0858-0.65717-0.78883-1.6229 0.4908-6.246 1.0918-6.5712" fill="#fac49a" stroke-width="16.198"/>
 <path d="m139.41 137.58s0.56044 2.2114 1.4854 2.9485c0.96056 0.75432 3.2628 2.3144 3.7601 2.8857 0.65118 0.73718 0.38876 1.8057-0.68032 1.1943-1.1144-0.63998-1.9258-1.143-1.9258-1.143s1.4514 2.7828 1.7373 3.44c0.41144 0.9542 1.142 3.1201 0.38876 4.383-0.588 0.98288-2.063 2.1315-3.6916 0.36574-2.0287-2.2-3.9943-5.823-4.08-8.9485-0.0116-0.72-0.20088-1.8401-1.5599-3.44l4.5656-1.6857" fill="#fac49a" stroke-width="16.198"/>
 <path d="m116.28 136.74c-6.9545 0.72565-17.36 0.10851-23.657-2.8-0.63982-7.9774-0.54913-9.6171-0.5313-15.303 5.8856-0.26854 22.977 0.3429 26.938 3.4-1.0173 6.2172-1.0691 7.7541-2.7487 14.703" fill="#d53037" stroke-width="16.198"/>
 <path d="m58.875 86.374c9.1428 2.2229 11.08 2.7371 15.966 3.8114 2.5886 0.57145 1.1484 0.6228 12.577-1.1829 4.32-0.68567 10.36-2.4914 17.194-2.9828 0.65117 4.8801 9.2002 6.8969 11.023 1.3943 13.274 5.6914 12.835 4.6341 14.697 14.434 3.7258 19.634 1.2683 10.943 11.503 38.389-2.2229 1.8458-3.6914 1.8458-6.3999 2.4001-10.64-23.216-8.7142-19.005-13.846-36.748-0.46329 4.1486-1.1663 5.9657-1.6286 10.674-5.7656 1.8971-20.949-0.30857-27.559-3.6344 0.38876-6.9201 0.5313-12.503 1.0286-14.269-20.515 0.43993-16.812 1.0571-24.664-1.6742-4.1543-1.4457-6.0686-2.0286-11.852-4.5484 0.29644-1.7999 1.9601-6.063 1.9601-6.063" fill="#d53037" stroke-width="16.198"/>
 <path d="m119.03 122.03c-5.16-0.61714-21.548-2.6458-26.938-3.4-0.01157-2.8228 0.1134-4.0114 0.30292-5.703l27.559 3.6343c-0.34826 2.4057-0.52646 3.3314-0.9249 5.4685" fill="#eb333b" stroke-width="16.198"/>
 <path d="m117.08 81.06s-5.9375 3.48-12.943 2.4001c0 0-2.8344 0.11987-3.0801-2.8972-0.25106-3.0172-0.63982-12.714 1.5145-17.395l17.841-0.91439s3.3258 9.5031 3.0116 10.388c-0.31423 0.88002-2.8859 7.4631-3.5772 7.8115-0.68521 0.3486-2.7658 0.60565-2.7658 0.60565" fill="#fac49a" stroke-width="16.198"/>
 <path d="m121.79 81.904s-1.8286-2.0458 2.2342-8.2114c4.0687-6.1598 3.3772-12.857-4.8802-17.445-8.2629-4.5943-13.703 4.926-18.715 2.3144 0 0-2.5199 3.6229 5.9375 6.2112 7.2459 2.2285 9.5602-0.79435 12.56 1.4915 1.0237 0.78286 1.5777 2.0228 1.5485 3.3028l-0.0486 2.3942s2.6515-1.7201 1.5145 2.9257c-0.86821 3.1314-2.4743 1.5942-2.4743 1.5942s0.19436 3.3258-2.3771 4.5887c0 0 2.4914 1.8458 4.7027 0.83434" fill="#383838" stroke-width="16.198"/>
 <path d="m199.2 139.28 2.8213-3.7811 2.8217 3.7811v10.835h-5.643v-10.835" fill="#fff" stroke-width="16.198"/>
 <path d="m214.97 206.35 2.1049-36.055c-3.9577-4.0983-8.0268-0.4017-8.0268-0.4017s0.47542 31.618 0.49342 36.402c0 0 2.9755 3.0514 5.4288 0.0551" fill="#f9ab62" stroke-width="16.198"/>
 <path d="m217.07 210h-9.5898c0-8.4822 9.5898-8.4822 9.5898 0" fill="#46494d" stroke-width="16.198"/>
 <path d="m181.35 204.47c4.7636-1.0268 4.6115-0.52448 5.0799-2.2969 1.3554-0.83258 4.5407-0.6228 5.2633-0.25676-0.29885 4.0335-0.13608 5.241-0.59366 8.0871h-15.641c0-2.6251 0.2634-4.3101 5.8912-5.5337" fill="#46494d" stroke-width="16.198"/>
 <path d="m191.68 201.92c1.3349-4.1473 7.8909-33.561 7.8909-33.561s-3.6766-3.1766-8.4018 0l-4.7525 33.817c1.0674 0.64062 4.1521 0.85268 5.2633-0.25676" fill="#f9ab62" stroke-width="16.198"/>
 <path d="m210.23 133.17c-0.14901-3.7366 1.6876-6.9017 1.7099-8.5538l3.6942 0.21252 5.8505 10.092-0.50444 6.8057c-2.7657-0.72111-9.0982-2.1966-10.75-8.5559" fill="#3f3e40" stroke-width="16.198"/>
 <path d="m198.83 123.86 3.0383 0.16976c0.75433 1.2966 2.7343 2.4686 2.0154 8.4754-0.75434 7.788-7.1538 9.2121-10.536 8.0155 0.64921-5.415 1.1314-9.3994 1.1314-9.3994l4.3504-7.2612" fill="#3f3e40" stroke-width="16.198"/>
 <path d="m203.12 129.04c0.0761-2.0377-0.50683-3.7142-1.2612-5.0108h10.018c-0.0227 1.6514-0.375 4.7657 0.20979 8.4754 1.6517 6.3595 6.123 8.4908 8.8886 9.2121l-2.1965 29.623s-6.201 2.3994-11.453 0c-0.30111-6.0068-1.1514-26.711-1.1514-26.711l-5.5046 26.72s-5.6992 0.83939-10.951-2.0108c0.38795-3.8978 2.4195-18.794 3.6206-28.82 3.8526-0.9531 9.027-3.6898 9.7813-11.48" fill="#46494d" stroke-width="16.198"/>
 <path d="m220.42 132.25s-1.8058 1.5714-4.105 1.8171c-1.9108 0.20507-3.538 3.9371-4.0581 5.3035-0.32138 0.83939 0.42198 1.2497 1.1608 0.35944 0.74109-0.88637 1.2924-1.6566 1.2924-1.6566s1.3906 1.9131 3.5268 2.5829c0 0 1.0938-1.4755 1.5268-2.2703 0.43299-0.79255 1.1071-2.129 2.4553-2.7656l-1.7992-3.3703" fill="#f9ab62" stroke-width="16.198"/>
 <path d="m170.29 101.46s-1.1005-4.0738-1.8594-4.6268c-0.75661-0.54912-1.3772-1.1719-3.7881-0.96004-2.4109 0.20507-2.6875-0.62507-3.4441-0.83031-0.75888-0.20571-1.308 0.20507-0.82629 0.76114 0.48223 0.54912 1.7902 1.5822 2.2726 1.7879l3.3749 2.1315c0.41323 0.41095 1.3772 2.5423 1.308 3.1651-0.0697 0.6183 2.9623-1.4285 2.9623-1.4285" fill="#f9ab62" stroke-width="16.198"/>
 <path d="m227.64 82.504c1.384 0.0064 5.4399-0.07774 9.1428 8.9151 3.7055 8.9931 5.469 30.303 2.9978 33.183-2.4688 2.8863-5.8192 2.8863-5.8192 2.8863l-2.7344-14.641-3.5871-30.343" fill="#ea4121" stroke-width="16.198"/>
 <path d="m218.27 86.486s2.0893-4.4173 5.0268-4.4173c2.2054 0 3.7366 0 4.9376 0.70735 3.9242 2.3081 11.199 27.515 5.7322 44.708-2.3371 0.60514-6.6138-0.43945-6.6138-0.43945l-9.0828-8.9086v-31.652" fill="#cd3b22" stroke-width="16.198"/>
 <path d="m213.37 79.491s-0.0133 2.0114 0.47769 3.9309c-0.73218 3.2566-9.0626 3.0583-9.7925-0.26807 0.34792-1.1674 0.56225-1.9217 0.67205-3.5039 0.0842-1.2058 5.1896-3.9891 8.6426-0.15874" fill="#e79e59" stroke-width="16.198"/>
 <path d="m214.47 85.598c-0.33934-1.1138-0.42861-1.2234-0.61389-2.1697-1.25 0.6228-7.2502 1.1474-9.8015-0.27488-0.27892 0.95309-0.4155 1.364-0.72793 2.2611 0.25885 4.2457 10.739 3.7903 11.143 0.18338" fill="#af7d06" stroke-width="16.198"/>
 <path d="m217.08 86.1c-0.645-0.09073-1.7478-0.23893-2.6116-0.49778-2.7634 2.2742-8.025 2.9372-11.143-0.18334-0.52856 0.20117-1.388 0.29948-2.3011 0.33707-0.26113 1.1789 1.2011 15.608 1.2011 15.608l0.89949 13.004-0.0486 9.4932 0.10042 1.96 8.1519 0.19826 1.0001-13.953 2.4019-14.051 2.3505-11.915" fill="#926805" stroke-width="16.198"/>
 <path d="m198.87 85.89c-3.6674 0.32575-5.5693 1.1583-7.1898 3.7702-0.83031 1.3367-5.6023 10.886-8.8526 17.384-1.0783 2.1611-0.34569 2.2126-3.3503-0.79435-4.4867-4.4867-6.201-6.3818-9.0313-9.5828-2.4577 1.4624-3.6452 3.0692-5.0109 4.9671 5.3503 6.1067 7.5823 8.3635 12.962 14.25 2.2726 2.4869 4.3393 3.9201 7.308 0.94855 3.6075-3.6045 5.0627-6.5022 6.9648-9.0179 0.44855 8.0361-2e-3 23.465-0.30176 25.468 2.4223 0.97769 6.357 0.89313 9.4025 0.69895 2.2183-4.875 2.2566-39.589-2.9001-48.094" fill="#46494d" stroke-width="16.198"/>
 <path d="m198.87 85.89c0.74803-0.07611 1.1251-0.07611 2.1498-0.12797 0.85025 0.60064 5.1519 35.611 2.7521 47.768-0.50164 0.24797-1.0732 0.37709-2.0018 0.45304 1.3188-13.27-0.0891-34.366-2.9001-48.094" fill="#3f3e40" stroke-width="16.198"/>
 <path d="m218.98 86.486c2.3058 0.58281 3.5157 0.87938 6.1586 1.8395-2.2746 5.337-1.6674 9.3946-1.0804 17.886-0.48206 2.4801-0.91518 14.411-1.0156 18.867-2.8684 3.48-5.3615 7.4978-5.5852 8.8101-1.4554 0.29949-3.25 0.52693-4.5827 0.3954-3.567-14.953 0.96883-43.427 6.105-47.798" fill="#46494d" stroke-width="16.198"/>
 <path d="m226.48 117.7c1.4486-2.2343 1.0268-0.90175-2.4108-11.484-1.6116-3.5937-3.2411-16.995 1.0804-17.886 1.9844 0.71434 3.2053 2.5599 5.1185 8.4171 7.4242 22.737 6.2902 18.908 4.5335 21.913-3.4778 5.9438-7.8973 12.882-12.308 18.71-2.3572-1.2452-5.6319-4.1023-5.8325-5.2007 3.4241-4.7995 4.8305-6.7701 9.8195-14.469" fill="#3f3e40" stroke-width="16.198"/>
 <path d="m218.98 86.486c-0.78579-0.15386-1.2612-0.28118-1.9018-0.39488-6.4308 15.359-7.1743 37.189-5.8929 47.867 0.47105 0.20571 0.90631 0.26339 1.6898 0.32622 2e-3 -18.48 0.45304-30.238 6.105-47.798" fill="#3f3e40" stroke-width="16.198"/>
 <path d="m226.1 85.418c-0.17867-1.1068-3.8794-1.6446-4.5849-0.64452-0.70544 1.0062-5.181 20.949-3.4399 27.201 2.2745 8.1651 5.1583 9.2095 5.1583 9.2095s0.92636-1.8057 0.0309-3.0778c-0.48433-0.68811-1.7165-2.7839-1.558-10.103 0.16037-7.3217 4.8326-19.857 4.3929-22.585" fill="#ea4121" stroke-width="16.198"/>
 <path d="m218.05 58.629s2.1563 4.4575 2.3013 5.8971c0.0583 0.58975-1.654 1.3371-1.4933 4.2635 0.23212 4.2235 0.10689 9.2386-1.6987 10.326-3.6674 2.2052-7.7636 6.3257-11.645 2.7297-3.8817-3.5937-5.0315-3.5937-5.0315-6.7542 0-1.1766-0.0154-2.8687 0.0356-4.7481 0.0227-0.79889 0.21026-1.5537 0.3531-2.9017 0.10852-1.036-1.0607-1.9954-0.96459-2.8303 0.18952-1.6451 1.2701-4.5137 1.6295-5.1428l16.514-0.83939" fill="#f9ab62" stroke-width="16.198"/>
 <path d="m218.94 68.781s4.0648-4.9148 2.1965-9.9441c0 0-1.0067-2.8972-4.0246-1.9532 0 0 1.7232-3.5091-2.875-3.944-4.6003-0.42861-10.062 2.4394-13.225 0.93252 0 0-1.7257-1.0754-2.0138-1.7942 0 0-0.97771 3.1429 0.87711 4.806 0 0-2.4595 7.9242 0.99151 10.549 0 0-0.30403-6.201 1.2942-6.9998 1.596-0.80117 2.7611-0.71434 4.6209-0.57145 1.8573 0.14254 3.4019 0.25658 3.4019 0.25658s-2.8843 2.1074-7.0179 1.9891c0 0 4.5562 2.792 11.118-1.6742 0 0 3.5848-2.0691 4.0201 2.2857 0.43526 4.3525 0.63626 6.0621 0.63626 6.0621" fill="#2c2b2b" stroke-width="16.198"/>
 <path d="m206.97 73.286c1.5179-1.1206 2.3729-0.18968 2.5046-0.02271 0.13118-0.16748 0.98889-1.0982 2.5046 0.02271 1.6517 1.2234 2.1317 1.2971 2.8259 0.64517 0 0-0.047 2.0178-2.0112 2.3725-1.9354 0.3531-2.8862-0.44627-3.3192-1.2406-0.43299 0.79435-1.3817 1.5937-3.3195 1.2406-1.9618-0.3549-2.0108-2.3725-2.0108-2.3725 0.69425 0.65198 1.1737 0.57827 2.8258-0.64517" fill="#2c2b2b" stroke-width="16.198"/>
</svg>
