<svg width="300" height="300" version="1.1" viewBox="0 0 300 300" xmlns="http://www.w3.org/2000/svg">
 <path d="m28.29 208 2 2h8e-3l68.875 68.883c14.08 14.08 32.454 21.117 50.826 21.117 18.373 0 36.751-7.0376 50.828-21.117l68.883-68.883s1.905-1.9048 2-2z" fill="#c7c9c8" stroke-width="0"/>
 <path d="m150 0c-18.375 0-36.75 7.0395-50.83 21.119l-78.053 78.053c-28.16 28.159-28.16 73.499 0 101.66l9.172 9.168h239.42s-2e-3 -2e-3 9.172-9.168c28.16-28.159 28.16-73.499 0-101.66l-78.053-78.053c-14.08-14.08-32.453-21.119-50.828-21.119z" fill="#dbdddc" stroke-width="4.2857"/>
 <path d="m72.322 100.1s-3.2971-4.6113 0-12.029c3.2914-7.4111 1.6457-12.514 0-18.531-1.6457-6.0114 6.4228-22.32 22.732-14.411l-2.1428 3.7884s-0.45192 4.1199-3.52 5.6c-3.0686 1.4857-7.1887 3.6227-7.6798 5.0227-0.49078 1.4 5.2683 11.537 5.1028 12.566-0.162 1.0229-0.162 3.1656-1.0691 3.9884-0.90221 0.82283-8.48 14.006-13.423 14.006" fill="#c38a1b" stroke-width="4.2856"/>
 <path d="m95.052 55.125s8.3998 0.98851 8.234 12.188c-0.16521 11.2-4.7772 14.823-0.65763 22.24 0 0-11.04-0.40576-10.051-7.5084 0 0 7.0228-9.9541 5.3253-13.246-1.6971-3.297-6.1426-7.8567-4.994-9.8856 1.1484-2.0285-0.38876-2.6342-0.38876-2.6342l2.5314-1.1543" fill="#c38a1b" stroke-width="4.2856"/>
 <path d="m84.408 85.347c0.73717-1.0971 0.51428-2.8799 0.2229-5.1029 0-4.8971 7.3828-5.0171 8.3943-0.7028-0.01155 1.9829-0.67996 3.697 0.07453 5.2798 3.9828 10.886-11.154 13.354-8.6913 0.52576" fill="#e78377" stroke-width="4.2856"/>
 <path d="m92.909 58.914s-5.7654 5.6-13.669 7.7427c0 0-0.98806 15.811 10.377 15.811 11.366 0 9.8797-15.811 9.8797-15.811s-5.9313-4.1199-6.5883-7.7427" fill="#f79185" stroke-width="4.2856"/>
 <path d="m77.456 80.342 6.6568-1.8571 0.63496-1.1314-3.4628-12.383-1.1322-0.63997-6.6573 1.8629-0.63495 1.1314 3.463 12.383 1.1306 0.63431" fill="#fff" fill-rule="evenodd" stroke-width="4.2856"/>
 <path d="m78.137 69.139c-0.97674-3.4856-5.6287 3.3599-4.5085 6.1314 0.7937 1.9657 0.28671 3.2056-0.162 5.2854 0.32559 1.5085 2.4973 1.9028 3.3315 0.57144l0.53129-2.2628s0.74347-1.4343 0.86334-2.4228c0.18304-1.4572-0.54911-1.9428 0.24622-3.3084 0.78881-1.3656 0.1134-2.4685-0.30292-3.9941" fill="#f79185" stroke-width="4.2856"/>
 <path d="m77.825 87.893-1.9885 2.1485c-4.4344 4.6571-5.594 15.131-2.68 14.645 1.2343-1.3028 2.8057-3.1884 5.0167-5.8228 2.7658-3.6856 2.5029-10.354-0.34826-10.971" fill="#bf1f3a" stroke-width="4.2856"/>
 <path d="m78.172 81.618c-0.78881-0.49709-5.2511-1.5085-6.4511-0.88-1.5421 3.8342-6.7083 21.748-6.8454 22.274-0.74831 2.8742 0.21707 2.8341 2.0628 3.577 2.4686 1.0001 3.5543 0.89718 6.2171-1.9028 1.5599-3.0913 2.68-14.645 2.68-14.645l2.3371-8.4224" fill="#ed2247" stroke-width="4.2856"/>
 <path d="m118.48 101.17s1.6166-2.3143 2.5029-2.7885c0.886-0.47995 4.2171-2.3943 4.4798-3.0228 0.25105-0.60564 1.2456-3.497 0.86334-6.08l-0.47944-0.51427c-0.22353-0.02914-0.46323 0.06801-0.51992 0.61147-0.1134 1.0799-0.50862 2.5884-1.3542 3.1027-0.84551 0.51427-2.7828 1.5885-3.6514 2.8856-0.86818 1.2971-4.1542 3.3599-4.1542 3.3599l2.3144 2.4457" fill="#f79185" stroke-width="4.2856"/>
 <path d="m100.16 103.2c2.2287 6.2398 5.9771 13.92 10.36 9.5427 3.7084-3.7084 6.1541-6.0513 9.9599-10.274-0.64627-1.4972-4.0342-4.4686-5.5254-4.3426-6.377 7.1141-5.7487 6.9598-6.8514 4.257-0.21056-0.52562-5.5713-14.617-8.7371-16.371-1.6052 4.1713-2.1087 9.2684 0.7937 17.189" fill="#bf1f3a" stroke-width="4.2856"/>
 <path d="m100.54 112.03c-2.2685-12.057 2.3657-10.394 0.0972-16.497-1.6686-4.4741-1.2748-9.5196-1.2748-9.5196-2.1372-0.7828-3.2915-1.1886-6.2741-1.1886-1.3882 2.2571-2.5658 4.6229-4.3028 6.8514-1.9143-2.6628-2.6915-4.3143-4.3885-6.3255-2.7487 0.73146-4.9425 1.3543-6.5827 2.5485 0.86334 3.457 1.0917 7.0854 0.34826 10.971 2.4858 7.5482 3.5372 10.811 3.6285 13.211 1.6401 3.1199 16.509 3.2513 18.749-0.0518" fill="#ed2247" stroke-width="4.2856"/>
 <path d="m100.98 114.78c-0.14579-0.98286-0.30289-1.9028-0.44055-2.7542-4.5942 0.80564-12.595 1.1599-18.749 0.0519 0.03255 1.1142-0.1296 2.0457-0.45676 3.1256 5.3883 0.74282 14.269 1.0342 19.646-0.4229" fill="#61c3c5" stroke-width="4.2856"/>
 <path d="m58.774 117.08c-18.001 0.0907-35.542 0.83273-51.688 2.034-12.77 26.709-8.147 59.527 14.038 81.709l9.1739 9.1737h119.69v-87.25c-26.383-4.0999-59.227-5.8275-91.211-5.6668z" fill="#fff" stroke-width="4.2856"/>
 <path d="m1.1112 137.77c-0.93659 5.4204-1.2217 10.913-0.90401 16.389h140.44v-16.389z" fill="#f3f4f4" stroke-width="4.2856"/>
 <path d="m6.1424 178.87c0.37509 0.85176 0.77038 1.6964 1.1802 2.5362l3.4905-2.5362z" fill="#dbdddc" stroke-width="4.2856"/>
 <path d="m28.941 168.43 3.3909 10.434h10.968l-8.8747 6.4455 3.3909 10.434-8.8751-6.4511-8.8726 6.4511 3.3886-10.434-8.873-6.4455h10.969l3.388-10.434" fill="#dbdddc" stroke-width="4.2856"/>
 <path d="m61.436 168.43 3.3886 10.434h10.971l-8.8743 6.4455 3.3886 10.434-8.8743-6.4511-8.8743 6.4511 3.3886-10.434-8.8743-6.4455h10.971l3.3886-10.434" fill="#dbdddc" stroke-width="4.2856"/>
 <path d="m93.925 168.43 3.3886 10.434h10.971l-8.8743 6.4455 3.3886 10.434-8.8743-6.4511-8.8743 6.4511 3.3885-10.434-8.8743-6.4455h10.971l3.3885-10.434" fill="#dbdddc" stroke-width="4.2856"/>
 <path d="m126.41 168.43 3.3884 10.434h10.971l-8.8743 6.4455 3.3886 10.434-8.8743-6.4511-8.8743 6.4511 3.3886-10.434-8.8743-6.4455h10.972l3.3886-10.434" fill="#dbdddc" stroke-width="4.2856"/>
 <path d="m11.139 111.73c-2.2412 3.5432-4.1811 7.2174-5.7418 11.015h144.59c4.7772 0 4.7772-11.015 0-11.015z" fill="#f3f4f4" stroke-width="4.2856"/>
 <path d="m45.484 74.814-24.358 24.358c-1.1559 1.1559-2.1868 2.3795-3.2478 3.5908 0.51984 0.7853 1.3652 1.3393 2.3773 1.3393h38.337c1.6052 0 2.9046-1.3045 2.9046-2.9045v-23.479c0-1.6057-1.2992-2.9045-2.9046-2.9045z" fill="#f3f4f4" stroke-width="4.2856"/>
 <path d="m44.807 94.283h-10.759l-3.5869 17.583h17.929l-3.583-17.583" fill="#fff" stroke-width="4.2856"/>
 <path d="m131.56 100.35h10.314c0.87466 0 1.508 0.71998 1.589 1.5885l0.76615 8.3483c0.081 0.86852-0.71434 1.5829-1.589 1.5829h-11.977c-0.8747 0-1.6858-0.71432-1.589-1.5829l0.89737-8.3483c0.0972-0.86852 0.71434-1.5885 1.589-1.5885" fill="#fff" fill-rule="evenodd" stroke-width="4.2856"/>
 <path d="m142.33 109.08 0.89737 0.89718-0.89737 0.89719-0.90222-0.89719 0.90222-0.89718" fill="#dbdddc" fill-rule="evenodd" stroke-width="4.2856"/>
 <path d="m136.77 90.563c1.8514 0 3.3543 0.96001 3.3543 2.1543l0.16521 15.605c-0.081 0.82283-1.6686 1.6914-3.52 1.6914-1.8456 0-3.5084-0.67995-3.5084-1.6914l0.16522-15.605c0-1.1942 1.4967-2.1543 3.3428-2.1543" fill="#f3f4f4" fill-rule="evenodd" stroke-width="4.2856"/>
 <path d="m134.14 94.51h5.2344v2.7828h-5.2344v-2.7828" fill="#fff" fill-rule="evenodd" stroke-width="4.2856"/>
 <path d="m135.72 93.031h2.3429l0.27372 0.27424-0.27372 0.26853h-2.3429l-0.27373-0.26853 0.27373-0.27424" fill="#fff" fill-rule="evenodd" stroke-width="4.2856"/>
 <path d="m134.14 98.208h1.0464v0.0567c-0.47944 0.68566-0.47944 1.5942 0 2.2742v0.0858h-1.0464v-2.4171" fill="#fff" fill-rule="evenodd" stroke-width="4.2856"/>
 <path d="m138.51 98.208h1.0399v2.4171h-1.0399v-0.19423c0.38876-0.64561 0.37093-1.44 0-2.0514v-0.17138" fill="#fff" fill-rule="evenodd" stroke-width="4.2856"/>
 <path d="m136.81 97.917c0.82284 0 1.4854 0.66847 1.4854 1.4857 0 0.81717-0.66247 1.4857-1.4854 1.4857-0.81637 0-1.4805-0.66864-1.4805-1.4857 0-0.81718 0.66248-1.4857 1.4805-1.4857" fill="#fff" fill-rule="evenodd" stroke-width="4.2856"/>
 <path d="m136.43 98.705 0.38227-0.7028 0.42926 0.7028z" fill="#fff" fill-rule="evenodd" stroke-width="4.2856"/>
 <path d="m136.43 100.13 0.38227 0.70849 0.42926-0.70849z" fill="#fff" fill-rule="evenodd" stroke-width="4.2856"/>
 <path d="m137.51 99.01 0.70297 0.38291-0.70297 0.43426z" fill="#fff" fill-rule="evenodd" stroke-width="4.2856"/>
 <path d="m136.12 99.01-0.70783 0.38291 0.70783 0.43426z" fill="#fff" fill-rule="evenodd" stroke-width="4.2856"/>
 <path d="m134.75 101.76 0.80018 0.80565-0.80018 0.79999-0.80016-0.79999 0.80016-0.80565" fill="#fff" fill-rule="evenodd" stroke-width="4.2856"/>
 <path d="m136.78 101.76 0.80018 0.80565-0.80018 0.79999-0.805-0.79999 0.805-0.80565" fill="#fff" fill-rule="evenodd" stroke-width="4.2856"/>
 <path d="m138.75 101.76 0.80501 0.80565-0.80501 0.79999-0.7937-0.79999 0.7937-0.80565" fill="#fff" fill-rule="evenodd" stroke-width="4.2856"/>
 <path d="m134.75 103.8 0.80018 0.79999-0.80018 0.80565-0.80016-0.80565 0.80016-0.79999" fill="#fff" fill-rule="evenodd" stroke-width="4.2856"/>
 <path d="m134.75 105.83 0.80018 0.79999-0.80018 0.79999-0.80016-0.79999 0.80016-0.79999" fill="#fff" fill-rule="evenodd" stroke-width="4.2856"/>
 <path d="m136.78 103.8 0.80018 0.79999-0.80018 0.80565-0.805-0.80565 0.805-0.79999" fill="#fff" fill-rule="evenodd" stroke-width="4.2856"/>
 <path d="m136.78 105.83 0.80018 0.79999-0.80018 0.79999-0.805-0.79999 0.805-0.79999" fill="#fff" fill-rule="evenodd" stroke-width="4.2856"/>
 <path d="m138.75 103.8 0.80501 0.79999-0.80501 0.80565-0.7937-0.80565 0.7937-0.79999" fill="#fff" fill-rule="evenodd" stroke-width="4.2856"/>
 <path d="m138.75 105.83 0.80501 0.79999-0.80501 0.79999-0.7937-0.79999 0.7937-0.79999" fill="#fff" fill-rule="evenodd" stroke-width="4.2856"/>
 <path d="m136.75 108.7 0.44057 0.43426-0.44057 0.43991-0.43409-0.43991 0.43409-0.43426" fill="#fff" fill-rule="evenodd" stroke-width="4.2856"/>
 <path d="m151.51 5.7941h-3.02v52.726h3.02v-52.726" fill="#fff" fill-rule="evenodd" stroke-width="4.2856"/>
 <path d="m150 2.5e-6c-3.0567 0-6.1036 0.26326-9.1404 0.65287l-9e-3 0.008557v6.236l0.63617 0.62776h17.034l0.65308-0.62776v-6.236c-3.0482-0.39256-6.1057-0.66127-9.1739-0.66127z" fill="#f3f4f4" fill-rule="evenodd" stroke-width="4.2856"/>
 <path d="m154.89 68.792c0-4.4797-9.7786-4.4797-9.7786 0 0 4.4741 9.7786 4.4741 9.7786 0" fill="#c38a1b" fill-rule="evenodd" stroke-width="4.2856"/>
 <path d="m152.8 52.417h-5.6051l-0.77103 0.82849v4.3083h7.1428v-4.3083l-0.76777-0.82849" fill="#f3f4f4" fill-rule="evenodd" stroke-width="4.2856"/>
 <path d="m163.13 68.518c-0.57663-7.1197-6.2343-12.725-13.132-12.725-6.8947 0-12.553 5.6056-13.132 12.725l0.54911 0.59994h25.165l0.54912-0.59994" fill="#fff" fill-rule="evenodd" stroke-width="4.2856"/>
 <path d="m195.21 138.27c-1.4457 2.5486-2.4914 2.8342-3.5258 3.5084-0.65715 0.42278-2.5829 2.3428-2.9029 2.7884-0.18851 0.26858-0.47993 1.3028 0.72001 0.87435 1.2058-0.43427 1.9429-1.5143 1.9429-1.5143s-1.1715 2.657-1.1543 3.1884c0 0 5.0741 0.49143 6.0911 0.0454 0 0 0.83432-2.08 1.1943-3.2742 0.38858-1.3086 0.0291-1.8742 1.3486-5.1256 0 0-3.2342-1.3371-3.7142-0.49143" fill="#e78377" stroke-width="4.2856"/>
 <path d="m185.1 152.56 3.4628-4.9657 9.3658 0.0291 2.88 4.937 1.2391-1.1942-2.8744-4.937-1.2456-0.71998-9.3543-0.0291-1.1889 0.61713-3.4628 4.9657 1.1776 1.2971" fill="#2f2430" stroke-width="4.2856"/>
 <path d="m206.41 150.8c1.6004 9.1767 1.6971 17.994-0.081 26.359l-2.3257-6e-3c-1.0577-8.5484-0.97675-17.348 0.081-26.364l2.3314 0.0115" fill="#2f2430" stroke-width="4.2856"/>
 <path d="m182.14 150.72c1.7771 8.9084 1.7999 17.703-0.081 26.364l-2.3257-6e-3c-1.2634-9.0798-1.1938-17.857 0.081-26.364l2.3257 6e-3" fill="#2f2430" stroke-width="4.2856"/>
 <path d="m211.21 150.81c0.66247 0 1.2003 0.54276 1.2003 1.2058l-0.081 23.965c-4e-3 0.6628-0.54264 1.1999-1.2052 1.1942l-4.8114-0.018 0.081-26.359 4.8054 0.0115" fill="#413444" stroke-width="4.2856"/>
 <path d="m204.07 150.78-0.081 26.364-21.943-0.068 0.081-26.364 21.937 0.068" fill="#413444" stroke-width="4.2856"/>
 <path d="m174.76 150.69 5.0454 0.018-0.081 26.364-5.0398-0.018c-0.66248 0-1.2003-0.53712-1.1938-1.2l0.081-23.965c0-0.66281 0.5426-1.2 1.2003-1.2" fill="#413444" stroke-width="4.2856"/>
 <path d="m199.49 157.19c-0.0129 4.1599-12.84 4.3314-12.829-0.0403 0.0129-4.3657 12.84-3.977 12.829 0.0403" fill="#2f2430" stroke-width="4.2856"/>
 <path d="m190.51 148.22s-0.8342-0.71432 0.36609-2.1771c1.2003-1.4685 2.3144-1.2628 3.5486-1.1314 0.95406 0.0972 1.9143 0.36008 2.0972 1.3315 0.0972 0.55995-0.11339 1.1314-0.53129 1.5085-0.51509 0.46859-1.3768 1.1029-2.1944 1.0742-1.291-0.0454-3.2858-0.60564-3.2858-0.60564" fill="#f79185" stroke-width="4.2856"/>
 <path d="m203.74 86.624c-4.9828 4.6057-5.6681 13.383-5.4054 21.491 0.37092 11.525 0.38875 9.4398-0.18305 12.491-2.0113 10.651-2.6456 11.606-4.5826 19.211 1.2408 1.2914 3.1427 2.4914 5.1886 2.4914 0 0 3.3256-7.817 4.2284-10.685-0.36608-4.257-2.04-34.759 0.75483-44.999" fill="#c38a1b" stroke-width="4.2856"/>
 <path d="m187.91 202.44c3.9713-0.33029 3.617-6e-3 4.1371-0.33723 1.5437-1.9748 7.4857 0.27488 7.5084 1.3064-0.588 2.848-0.88602 4.2787-1.5146 6.7117-3.4743-0.61422-16.92-2.7926-16.92-2.7926 1.0108-5.2678 3.6857-4.6297 6.7884-4.8886" fill="#287075" stroke-width="4.2856"/>
 <path d="m233.35 198.68c-0.36607-2.4 4.9542-4.0056 5.6283-4.0056 1.6686 1.8857 3.0857 3.9713 4.6058 5.9827-2.84 2.1022-13.023 9.4613-13.023 9.4613-2.5829-3.0313-1.8915-4.4017 0.50216-7.1385 2.1715-2.4828 1.8743-2.2486 2.2857-4.2997" fill="#287075" stroke-width="4.2856"/>
 <path d="m205.88 131.41c11.068-6.0911 15.377 4.8569 14.76 16.851-2.1143 3.537-5.3197 8.1199-8.537 13.583-7.8341 13.314-2.4742-0.2514-11.343 42.59-3.0687-0.3194-7.2058-1.6588-9.2913-2.5114 1.8686-19.914 3.0914-21.737 4.1372-31.29 0.89737-8.2399-0.38228-2.217 10.275-39.221" fill="#bf1f3a" stroke-width="4.2856"/>
 <path d="m228.11 132.65c-2.1828 12.731-3.4743 12.674-5.8683 29.319-1.1436 7.9484-1.6744 5.7427 1.406 10.16 5.4397 7.8054 16.732 22.548 16.732 22.548-1.1549 1.8514-5.8571 5.6797-8.5884 6.2171-9.5883-11.48-11.303-13.685-18.303-23.137-5.3257-7.1942-4.0972-5.5884-3.9428-14.394 0 0-0.0129-13.143 0.83421-31.684 7.7711-5.2511 12.909-3.8456 17.731 0.97138" fill="#ed2247" stroke-width="4.2856"/>
 <path d="m213.59 79.751s2.3485 0.18287 3.2286 0.87417c0.12959 0.92568-0.32068 2.4685-0.32068 2.4685s-2.96 1.0857-2.9087-3.3427" fill="#f2b910" stroke-width="4.2856"/>
 <path d="m206.25 72.165h8.0741l-0.23684 14.028h-7.8376z" fill="#e78377" stroke-width="4.2856"/>
 <path d="m214.19 80.624s1.0334 1.7314 2.1428 2.5599c1.1079 0.82849-3.737 47.943-3.737 47.943s-5.2571 1.6628-8.7144 0.69149c-1.2456-3.9427-1.6117-45.016 2.3714-49.13 0.72564 1.8686 3.5086 2.5485 7.937-2.0629" fill="#413444" stroke-width="4.2856"/>
 <path d="m203.26 88.81-2.4286 6.0054s-3.2571 20.251 2.6058 41.65c1.7428-0.15389 2.8057-0.92568 3.4-1.3428 0 0-2.9257-17.931-2.72-24.845-0.82768-6.8514-1.108-12.708-1.108-12.708l0.25105-8.7597" fill="#f2b910" stroke-width="4.2856"/>
 <path d="m206.25 82.227c-0.37393 0.29107-1.5316 1.2259-2.2349 2.5445-1.7658 3.2856-3.4139 8.977-3.4654 9.7596 0.84068 0.89718 1.9252 1.8248 1.9252 1.8248l-1.7076 1.6992s2.8624 10.61 3.3482 12.221c-0.21042-4.625-1.6032-20.956 2.1345-27.621z" fill="#c38a1b" stroke-width="4.2856"/>
 <path d="m215.93 82.844s6.6114 2.8513 8.3424 4.4283c1.4173 5.114 4.9028 14.971 4.9028 14.971s-1.5258 27.17-1.0626 30.399c-5.6283 1.7543-15.589 1.8457-17.297 1.3486-1.5826-5.0227-1.3493-23.114-1.0626-25.879 1.2003-5.9998 2.8628-16.143 2.8628-16.143l3.3143-9.1253" fill="#f2b910" stroke-width="4.2856"/>
 <path d="m215.27 129.6c-2.6573-18.548 0.95408-42.353 5.5143-42.971 6.6286-0.89718 13.291 22.634 18.526 40.039 1.9314 6.4057-3.9142 12.68-10.554 13.486-6.6397 0.81135-12.537-3.937-13.486-10.554zm-3.6972 0.44574c1.1144 8.674 8.954 14.863 17.635 13.805 8.6797-1.0571 16.257-9.2397 13.806-17.628-6.1824-21.148-13.657-41.496-22.383-40.581-8.1256 0.84567-12.052 21.114-9.0568 44.403" fill="#287075" stroke-width="4.2856"/>
 <path d="m252.97 144.49s2.9144-8.8398-2.2857-18.771l-46.451 5.657s-2.8629 7.177 1.1938 18.274l47.54-5.1599" fill="#7cd1cf" stroke-width="4.2856"/>
 <path d="m242.75 146.22 1.6117-0.20006c0.57662-0.068 0.98805-0.59427 0.92004-1.1714l-2.2342-18.32-3.7028 0.45144 2.2342 18.32c0.0648 0.5771 0.59446 0.98851 1.1711 0.92003" fill="#338c92" stroke-width="4.2856"/>
 <path d="m214.8 149.28 2.0115-0.24574 0.771-0.98286-2.2629-18.125-3.7086 0.45144 2.2115 18.137 0.9767 0.76567" fill="#338c92" stroke-width="4.2856"/>
 <path d="m216.49 80.428s2.143 1.1828 2.1544 2.4171c0.0129 1.2399-1.7486 6.3084-2.4742 8.3881-0.737 0.17704-1.7373 0.77714-1.7373 0.77714l0.77103 2.4514-5.4568 13.651s-0.0648-8.9483 0.55398-12.96c0.62848-4.0113 4.4112-12.434 6.1884-14.726" fill="#c38a1b" stroke-width="4.2856"/>
 <path d="m228.33 130.71s-0.51347 2.1657-1.0399 2.777c-0.52641 0.61147-1.5145 1.28-1.9601 2.4686-0.40658 1.0971-0.67382 2.5314-1.2165 3.417-0.41141 0.66846 0.45676 1.1942 0.98321 0.67429 0.96538-0.96571 2.0002-2.7085 2.0002-2.7085s0.56528 2.6285 0.29157 3.5484c-0.27374 0.92568-1.5485 4.1313 0.34824 5.36 1.8971 1.2228 3.4743-1.4228 3.937-2.6456 0.42926-1.1428 1.2052-2.4114 0.61714-6.3483l-0.30291-1.2343c-0.17657-0.50861-0.3369-1.72 0.46811-4.1313l-4.1256-1.1771" fill="#f79185" stroke-width="4.2856"/>
 <path d="m224.27 87.275s7.3087 7.2855 14.703 16.646c2.5201 3.1884 3.1942 4.6456 1.8229 8.9997-2.6573 8.4053-4.2856 11.914-7.4857 20.285-2.2744 0.19422-5.5601-0.4286-6.4516-1.72 2.4229-9.6511 3.44-12.526 4.6284-18.023 0.86817-4.017 1.5939-3.1313-1.1322-5.9883-2.8343-2.9713-3.7372-4.097-11.703-12.057-4.0342-4.0341 1.2165-12.348 5.6171-8.1426" fill="#c38a1b" stroke-width="4.2856"/>
 <path d="m216.66 74.814s2.5258-2.3028 2.5258-5.4341-4.4112-9.7141-6.9997-9.8513c-2.5886-0.1377-6.0286-2.2342-8.48-1.6914-2.4458 0.54277-2.5486 1.9314-3.1829 5.3086-0.56532 3.0342-1.6572 11.994 1.4967 16.063 1.0464 1.3486 2.6972 2.0743 4.3942 1.9714 2.1428-0.12634 5.3656-0.80564 8.3656-3.3713 0.6398-0.5486 1.1322-1.2458 1.4627-2.0171l0.41627-0.97703" fill="#f79185" stroke-width="4.2856"/>
 <path d="m216.66 74.814s4.9657-1.7314 3.6-11.531c-1.3606-9.7998-10.617-11.571-17.286-8.851-6.6684 2.7256 0 4.7656-5.3086 8.7139 0 0 5.2914 0.9142 7.4857-4.4399 0 0-0.26886 4.1999-1.4967 5.3428 0 0 4.8628-1.88 5.4285-4.52 0 0 0.0163 3.6513-0.66246 4.52 0 0 1.7714-1.1771 2.04-3.0799 0 0 4.0855 3.3656 4.3542 6.0397 0 0 1.5032-1.7828 1.6344 2.5542 0 0 0 1.6172-1.223 2.16 0 0-0.53776 1.5543 1.4352 3.0913" fill="#2f2430" stroke-width="4.2856"/>
</svg>
