<svg width="300" height="300" version="1.1" viewBox="0 0 300 300" xmlns="http://www.w3.org/2000/svg">
 <path d="m28.291 208 2 2h8e-3l68.875 68.883c14.08 14.08 32.454 21.117 50.826 21.117 18.373 0 36.751-7.0376 50.828-21.117l68.883-68.883s1.905-1.9048 2-2z" fill="#c7c9c8" stroke-width="0"/>
 <path d="m150 5e-7c-18.375 0-36.75 7.0395-50.83 21.119l-78.053 78.053c-28.16 28.159-28.16 73.499 0 101.66l9.172 9.168h239.42s-2e-3 -2e-3 9.172-9.168c28.16-28.159 28.16-73.499 0-101.66l-78.053-78.053c-14.08-14.08-32.453-21.119-50.828-21.119z" fill="#dbdddc" stroke-width="4.2857"/>
 <path d="m100 20.367c-0.27043 0.26229-0.56131 0.486-0.82869 0.75335l-32.503 32.503v156.38h33.331z" fill="#cccecd" stroke-width="4.9042"/>
 <path d="m91.779 85.78h-16.889v-8.4467h16.889v8.4467" fill="#fff" stroke-width="4.2857"/>
 <path d="m133.33 2.0411c-12.156 2.902-23.701 8.9829-33.331 18.323v189.64h33.331z" fill="#dbdddc" stroke-width="4.9042"/>
 <path d="m125.11 85.78h-16.889v-8.4467h16.889v8.4467" fill="#fff" stroke-width="4.2857"/>
 <path d="m150 0.0010782c-5.6006 0-11.187 0.73436-16.666 2.0424v207.96h33.331v-207.96c-5.4789-1.308-11.065-2.0424-16.666-2.0424z" fill="#cccecd" stroke-width="4.9042"/>
 <path d="m158.45 85.78h-16.889v-8.4467h16.889v8.4467" fill="#fff" stroke-width="4.2857"/>
 <path d="m166.66 2.0411v207.96h33.34v-189.63c-9.6318-9.3446-21.181-15.429-33.34-18.331z" fill="#dbdddc" stroke-width="4.9042"/>
 <path d="m191.78 85.78h-16.889v-8.4467h16.889v8.4467" fill="#fff" stroke-width="4.2857"/>
 <path d="m200 20.375v189.63h33.331v-156.37l-32.511-32.511c-0.26456-0.26452-0.55278-0.4854-0.82029-0.74499z" fill="#cccecd" stroke-width="4.9042"/>
 <path d="m205.3 161.57c3.7124-0.90896 8.9915-1.1172 11.137-2.7269 0.20906-0.87857 0.24073-1.8162 0.18261-2.7839l3.3938-0.0377 3.39 2.1551c-0.39879 1.6316-0.46273 3.6162-1.2 4.893-0.73723 1.2768-13.355 1.3998-17.142 1.6257-0.31675-1.113-0.37676-2.4923 0.23825-3.1254z" fill="#e8b187" stroke-width="4.2857"/>
 <path d="m225.11 85.78h-16.889v-8.4467h16.889v8.4467" fill="#fff" stroke-width="4.2857"/>
 <path d="m223.55 158.2c-2.84-0.86854-3.9486-1.4056-7.44-2.2686 0.6915-7.5202 0.5256-10.834 2.4971-15.468 2.3314 1.9086 5.3945 9.96 4.9427 17.737" fill="#383838" stroke-width="4.2857"/>
 <path d="m205.3 161.57s-4.4285-0.2229-6.8456 0.98854c-1.8628 0.93138-5.7142 5.0113-4.4859 8.8055 3.24-4.8459 6.183-6.0116 11.171-6.0172-0.18287-1.3086-0.21707-2.5886 0.16037-3.7771" fill="#383838" stroke-width="4.2857"/>
 <path d="m225.77 131.62c-2.8457 2.1028-6.1942 5.3944-7.4572 8.1656 0.97724 2.1828 1.8 4.5202 2.0343 6.5773 3.6228-2.9428 5.5029-8.097 6.8743-13.903-0.53713-0.31423-1.017-0.58865-1.4515-0.84001" fill="#424143" stroke-width="4.2857"/>
 <path d="m224.75 141.94c5.3829 9.5829 6.063 13 9.2229 24.583 0.1377 0.50864 11.886 4.5772 7.8001-17.114-2.44-5.1484-5.8856-10.514-10.286-14.16-6.1085-1.9943-8.9598 2.7371-6.7372 6.6913" fill="#424143" stroke-width="4.2857"/>
 <path d="m220.99 199.91c-1.8286-1.8286-5.3658-0.99424-7.9029 1.7103-1.8571 4.3864-10.16-0.66978-11.188 7.1383 6.4745 0.83936 13.126 0.81249 19.926 0 0.73714-2.7342 0.32006-5.7142-0.83435-8.8483" fill="#424143" stroke-width="4.2857"/>
 <path d="m201.9 208.76-0.10204 1.2388h19.606l0.42291-1.2388h-19.926" fill="#424143" stroke-width="4.2857"/>
 <path d="m261.35 208.88c4.68-3.1228 5.1373-4.9556 3.6229-17.288-1.7257-0.43993-3.7314-0.19423-5.9602 0.59996-1.4457 3.5542-1.5944 7.1769-0.45146 10.869-1.3771 1.0068-2.2343 3.248-2.0228 5.2612 0.67432 0.37547 2.52 0.91551 4.8116 0.55834" fill="#424143" stroke-width="4.2857"/>
 <path d="m264.97 191.6c-0.56581 15.576 0.38275 12.491-3.4057 16.322l-1.2171 0.40804h-3.8114c0.0632 0.58976 0.20572 1.1588 0.46295 1.672h3.4457l1.2171-0.40397c5.3885-4.5514 4.0857-1.0062 4.8227-17.398-0.47426-0.26854-0.9829-0.4686-1.5143-0.59996" fill="#424143" stroke-width="4.2857"/>
 <path d="m258.87 191.3c-7.977 1.36-9.5255 1.6-14.428 2.5372 4.5142-5.9087 8.6456-13.537 5.5715-20.314-2.4114-5.3199-3.7657-14.685-8.2342-24.109 0.20572 5.7257 0.16038 13.234-1.8571 15.257-0.93139 0.92571-5.1429 1.7028-5.5145 0-2.5371-11.829-2.9314-13.571-8.7541-22.891-1.9486-3.1314-0.38859-6.9258 5.8402-6.5259-1.3315-1.1086-2.7543-2.0628-4.2686-2.7886-7.1829 3.5314-7.6458 10.291-6.5028 16.594 0.3714 2.0457 5.0799 15.857 5.0799 15.857s-15.234 1.9771-19.754 4.0228c-5.463 2.4686-6.3656 1.9257 4.3942 33.255l11.703-2.5354c-0.75433-4.1143-2.2571-10.948-4.2686-14.617 3.0686 1.3656 8.6683 2.1028 11.394 2.1028-3.8171 10.32-10.554 22.853 0.52577 22.853 2.8514 0 8.7712-1.7388 30.44-7.368 0-5.6336-0.74851-7.1709-1.3656-11.331" fill="#5fc8b4" stroke-width="4.2857"/>
 <path d="m215.29 134.27 5.5479-7.3149 2.1567 2.8244-2.6571 4.177-3.7963 2.3943z" fill="#e8b187" stroke-width="4.2857"/>
 <path d="m225.77 131.62c-0.71434-1.0286-1.6-1.5429-2.7829-1.8457-0.78618 1.171-1.7323 2.3089-2.7736 3.3801-1.1233 1.1556-2.3574 2.2335-3.6207 3.1913 0.28007 1.2915 0.83435 2.4971 1.72 3.44 3.2457-1.4228 6.3429-4.8802 7.4572-8.1656" fill="#383838" stroke-width="4.2857"/>
 <path d="m224 156.25c-1.8514 5.703-1.28 6.4856-3.0628 6.8058-6.72 1.2058-12.737 1.6972-15.697 1.6686-1.2971 1.4513-1.3828 2.8457-0.52578 4.2114 19.086 1.1258 19.629 1.24 21.669 0.35991 2.1257-0.90853 2.0857-1.52 5.4288-10.68-0.93138-3.3943-5.577-4.3256-7.8112-2.3657" fill="#f9c499" stroke-width="4.2857"/>
 <path d="m205.24 164.73c-1.9257-0.33708-5.1656-0.29709-6.783 0.84-3.2285 2.2743-5.5715 5.5714-4.44 9.8285 0.21137 0.80567 2.2571 0.43427 2.7371-0.0453 2.0857-2.08 1.5028-4.377 7.9599-6.4114-0.17721-1.4056 0-2.8057 0.52577-4.2114" fill="#424143" stroke-width="4.2857"/>
 <path d="m223.32 156.12c3.5257 0.66848 6.057 1.2399 9.0742 2.7828 3.2171-5.8745 3.2514-20.96-2.4457-22.383-9.2401-2.3143-6.6288 11.166-6.6288 19.6" fill="#383838" stroke-width="4.2857"/>
 <path d="m220.96 123.49s1.2228-3.4857-0.38293-6.4629c-1.6057-2.9771-7.2858-3.5943-9.8113-2.4-2.5314 1.1999-7.92-0.74285-9.9772 1.0286-2.0457 1.7771-2.2857 1.4743-1.1599 5.0057 1.017 3.1771 4.5772 12.257 9.6626 14.514 1.68 0.74284 3.6171 0.58864 5.1827-0.37711 1.9771-1.2229 4.6916-3.52 6.2285-7.497 0.33141-0.8457 0.43993-1.76 0.36009-2.6686l-0.10205-1.1429" fill="#f9c499" stroke-width="4.2857"/>
 <path d="m222.83 125.26s-3.8 0.0794-4.8742-2.8457c0 0 2.1771-0.83435-0.39425-3.7942-2.5771-2.9543-2.0572 1.1086-2.0572 1.1086s-2.12-7.0402-7.8686-3.4457c-5.7485 3.6-9.2058 5.1257-12.909-3.2343 0 0 5.823 0.54861 9.5714-4.2343 3.7486-4.7829 10.394-4.8514 14.8 3.6286 4.4057 8.4913 3.7314 12.817 3.7314 12.817" fill="#8c5129" stroke-width="4.2857"/>
 <path d="m62.696 210h-20.743c-1.0512 0-1.9086-0.85719-1.9086-1.9152v-48.549c0-1.0554 0.85689-1.9126 1.9086-1.9126h20.743c1.0512 0 1.9084 0.85719 1.9084 1.9126v48.549c0 1.0581-0.85689 1.9152-1.9084 1.9152" fill="#413444" stroke-width="4.2857"/>
 <path d="m197.78 210h-20.737c-1.0571 0-1.9143-0.85719-1.9143-1.9152v-48.549c0-1.0554 0.85718-1.9126 1.9143-1.9126h20.737c1.0571 0 1.9086 0.85719 1.9086 1.9126v48.549c0 1.0581-0.85136 1.9152-1.9086 1.9152" fill="#413444" stroke-width="4.2857"/>
 <path d="m182.98 142.21 2.3371-5.8059s0.96005-1.8394-0.62863-3.344c-1.5828-1.5017-1.4743-3.1246-1.4743-3.1246s0.0116-2.7188 4.9428-4.0183c0 0 18.006-4.5647 17.966 2.7503-0.0454 7.3196-12.074 7.2742-12.074 7.2742s-6.2688 0.19423-7.1028 7.8909l-3.9657-1.6228" fill="#bf1f3b" stroke-width="4.2857"/>
 <path d="m56.654 142.21-2.3428-5.8059s-0.96052-1.8394 0.62846-3.344c1.589-1.5017 1.4805-3.1246 1.4805-3.1246s-0.01629-2.7188-4.9483-4.0183c0 0-18.006-4.5647-17.96 2.7503 0.03257 7.3196 12.069 7.2742 12.069 7.2742s6.2688 0.19423 7.1028 7.8909l3.9714-1.6228" fill="#bf1f3b" stroke-width="4.2857"/>
 <path d="m190.68 144.29c-3.4285-2.9131-6.4685-6.2456-9.1312-9.873-4.6114-6.2812-11.148-15.047-15.303-19.739-3.0057-3.388-6.8799-5.2496-10.897-5.2496h-73.766c-3.5715 0-7.0226 1.4732-9.8512 4.172-0.80019 0.75888-1.4854 1.6269-2.12 2.52l-11.514 16.187c-3.0285 4.268-6.4856 8.205-10.125 11.971-3.2399 3.3617-5.6516 8.0469-5.1485 18.143l-0.0648 28.399s-0.852 8.2522 10.691 8.0135l132.64 0.23892s10.771 0.12472 10.537-9.6116v-32.886c0-5.7926-3.0057-9.777-5.9542-12.285" fill="#ec2247" stroke-width="4.2857"/>
 <path d="m86.131 162.83h66.498l4.3659 9.3258h-75.489l4.6286-9.3258" fill="#bf1f3b" stroke-width="4.2857"/>
 <path d="m163.39 194.17h-89.101c-0.82933 0-1.508-0.67414-1.508-1.509v-13.332c0-0.83259 0.68032-1.5088 1.508-1.5088h89.101c0.82852 0 1.5085 0.67642 1.5085 1.5088v13.332c0 0.83486-0.67998 1.509-1.5085 1.509" fill="#bf1f3b" stroke-width="4.2857"/>
 <path d="m157.37 162.29s22.211-8.2903 24.651-9.5713c0 0 9.6798-4.3933 9.9086 5.868 0 0-0.92572 8.4866-11.263 11.882-10.337 3.3931-19.132 0.61598-19.132 0.61598l-4.1657-8.7943" fill="#fff" stroke-width="4.2857"/>
 <path d="m81.502 162.29s-22.217-8.2903-24.657-9.5713c0 0-9.6742-4.3933-9.9086 5.868 0 0 0.92491 8.4866 11.263 11.882 10.337 3.3931 19.137 0.61598 19.137 0.61598l4.1658-8.7943" fill="#fff" stroke-width="4.2857"/>
 <path d="m63.134 138.69 12.331-19.08c2.7143-3.04 6.303-4.7387 10.023-4.7387h65.962c3.5943 0 7.0569 1.5714 9.7428 4.4242 6.2058 6.6004 12.48 18.246 12.628 18.246 0 0-44.473 13.337-110.68 1.1497" fill="#2f2430" stroke-width="4.2857"/>
</svg>
