<svg width="300" height="300" version="1.1" viewBox="0 0 300 300" xmlns="http://www.w3.org/2000/svg">
 <path d="m28.292 208 2 2h8e-3l68.875 68.883c14.08 14.08 32.454 21.117 50.826 21.117 18.373 0 36.751-7.0376 50.828-21.117l68.883-68.883s1.905-1.9048 2-2z" fill="#8d502a" stroke-width="0"/>
 <path d="m150 2e-6c-18.375 0-36.75 7.0395-50.83 21.119l-78.053 78.053c-28.16 28.159-28.16 73.499 0 101.66l9.172 9.168h239.42s-2e-3 -2e-3 9.172-9.168c28.16-28.159 28.16-73.499 0-101.66l-78.053-78.053c-14.08-14.08-32.453-21.119-50.828-21.119z" fill="#f0ae2f" stroke-width="4.2857"/>
 <path d="m184.03 119.12c-44.221 0.00139-81.409 15.642-93.986 21.27-13.094-10.446-31.05-16.84-51.244-16.84-11.432 0-23.586 2.0556-35.977 6.5781-6.9972 24.291-0.91836 51.488 18.289 70.697l9.1758 9.1758h239.4l9.1758-9.1758c20.985-20.985 26.306-51.507 16.014-77.354-13.735 3.7088-25.038 8.8204-32.209 15.318-26.33-14.656-53.614-19.669-78.637-19.67h-0.00586z" fill="#f0b63f"/>
 <path d="m284.17 156.37c-15.148-0.0227-30.293 2.0059-45.008 6.1289l-1.1973 0.33398c-83.318 24.034-89.262 2.7453-177.66 8.4883-23.595 1.5347-40.406 4.2188-54.291 7.291 3.5064 8.0477 8.4991 15.614 15.102 22.215l9.1719 9.1738h239.41l-45.711 45.713h0.00196l54.887-54.887c12.24-12.24 19.143-27.725 20.742-43.637-5.1376-0.47961-10.29-0.81286-15.443-0.82031h-0.00781z" fill="#31947b"/>
 <path d="m113.56 52.414-8.8417 4.5484-9.0997-3.92-0.18626-4.857 17.942-0.6228 0.18467 4.8514" fill="#f8d683" stroke-width="4.2857"/>
 <path d="m114.48 79.478-8.4685 14.743-9.473-14.12-0.94272-27.057 17.942-0.62862 0.94109 27.063" fill="#fff" stroke-width="4.2857"/>
 <path d="m157.87 47.511-8.5268 5.0798-9.344-3.3543-0.4665-4.8398 17.87-1.7257 0.4665 4.8398" fill="#f8d683" stroke-width="4.2857"/>
 <path d="m160.48 74.46-7.5466 15.234-10.322-13.508-2.6052-26.948 17.871-1.7257 2.6028 26.948" fill="#fff" stroke-width="4.2857"/>
 <path d="m185.75 36.446c-40.168 7.9478-78.908 11.14-113.7 11.786l-2.0758 2.0759c38.86-0.77815 79.019-4.4815 116.18-11.836z" fill="#f4f3e6" stroke-width="4.2857"/>
 <path d="m124.52 4.7357c-9.2245 3.5078-17.9 8.9271-25.354 16.381l-78.046 78.047c-16.709 16.709-23.427 39.46-20.307 61.088 7.9006-4.5986 14.027-11.422 17.209-19.738 5.4934 1.6628 11.353 2.5698 17.444 2.5698 31.022 0 54.471-23.267 54.471-51.964 0-5.5255 0.75723-10.845-0.97349-15.845 21.745-13.508 36.06-36.468 36.06-62.52 0-2.715-0.19924-5.3785-0.50211-8.019z" fill="#31947b" stroke-width="4.2857"/>
 <path d="m219.42 43.093-0.48595 4.8715 8.546 5.0391 3.8588-1.3728-8.186-8.178z" fill="#f8d683" stroke-width="4.2857"/>
 <path d="m218.95 47.923-2.6032 26.953 7.55 15.234 10.321-13.51 1.942-20.139-7.6002-7.6088z" fill="#fff" stroke-width="4.2857"/>
 <path d="m186.18 36.454-0.45193 2.0173c11.799 2.6668 25.005 4.9315 39.207 6.7632l-2.8879-2.8878c-22.193-2.9179-35.476-5.8033-35.867-5.8928z" fill="#f4f3e6" stroke-width="4.2857"/>
 <path d="m181.09 32.65v177.35h9.7188v-177.35h-9.7188z" fill="#f4f3e6"/>
 <path d="m46.083 197.24c-1.5069 1.6572-2.6337 3.524-3.2274 5.6867l11.988 7.0714h9.9912c0.40804-3.0245-0.66346-4.5493-3.6388-4.7657-4.9169-0.35717-3.6383 0.56224-7.2205-3.536-2.1543-2.8394-4.7104-4.5364-7.8929-4.4567" fill="#eb333b" stroke-width="4.2857"/>
 <path d="m92.167 203.9c-0.37482 2.328-0.4017 4.4241 0.20524 6.0981h22.745s0.018-4.7948-4.1988-4.9714c-7.4108-0.30565-3.9977 0.51364-9.1203-1.9977-3.692-1.3926-6.9509-1.2765-9.6312 0.87081" fill="#eb333b" stroke-width="4.2857"/>
 <path d="m99.646 161.37c-5.1428-12.337-6.4491-18.114-11.016-28.703-3.4062-2.9029-4.8904-4.9028-8.348-6.3085-5.0828-0.25723-10.118-0.0632-15.105 0.59995-2.5045 2-4.7412 4.2742-5.9108 7.7087 2.7502 37.491 3.056 32.811 1.5227 35.314-1.3839 2.2571-14.705 27.257-14.705 27.257l7.8929 4.4567c23.437-36.308 21.316-30.377 21.68-35.502 0.4017-5.6627 0.66055-11.028 0.70508-18.651 15.024 23.583 13.474 20.143 13.474 22.44 0 2.5143 2.328 33.917 2.328 33.917l9.6312-0.8708c-1.0715-38.172-1.1606-39.298-2.1491-41.657" fill="#fff" stroke-width="4.2857"/>
 <path d="m88.632 132.67c-1.3679-3.1828-2.5846-5.823-2.5846-5.823-1.9285-0.2229-3.8485-0.38293-5.7634-0.48579 1.2811 4.977 3.9485 6.1542 8.348 6.3085" fill="#f4f3e6" stroke-width="4.2857"/>
 <path d="m65.18 126.96c-2.1406 0.28573-4.2697 0.65717-6.3878 1.1142 0.16504 2.3371 0.32802 4.5257 0.47717 6.5944 3.7234-0.55431 5.6918-3.1257 5.9108-7.7087" fill="#f4f3e6" stroke-width="4.2857"/>
 <path d="m97.207 41.125c-3.212 0.47995-7.337 2.1943-9.5334 4.7773-1.4149 1.6857-27.703 13.057-26.957 15.897 3.08 1.9371 6.8815 1.1258 11.549-0.27424 13.964-9.1829 15.806-10.737 17.716-10.726 1.324 0.01157 4.3307 0.26288 5.1428 0.11987 1.0469-0.18287 1.5514-1.2571 0.23485-1.4685-1.3754-0.2172-2.404-0.3486-2.404-0.3486s3.1182-1.36 3.8057-1.72c0.99762-0.52564 3.0868-1.8571 3.308-3.4343 0.17365-1.2343-0.288-3.2057-2.8617-2.8229" fill="#fac49a" stroke-width="4.2857"/>
 <path d="m65.45 85.962c-0.81492-8.4342-3.2834-11.337-4.0628-18.406 2.076-2.0743 6.7658-2.8686 10.253-0.71434 0.52919 4.3598 2.7925 8.7544 5.3369 12.36 0.25658 4.5085-7.4798 9.5258-11.527 6.7598" fill="#eb333b" stroke-width="4.2857"/>
 <path d="m60.638 67.727c-1.2989-1.3656-1.5046-3.0629-0.61602-5.7943 3.4331-0.71434 7.5376-1.0342 12.245-0.40577 0.49324 1.6571 0.46165 3.4514-0.0023 5.343-4.5158-0.26288-7.1721-0.018-11.627 0.85718" fill="#d53037" stroke-width="4.2857"/>
 <path d="m95.167 92.108c5.3549 6.1885 8.7655 11.594 12.449 20.8-1.9846 2.1714-4.6075 3.5086-7.9932 3.8457-4.7125-7.8398-6.2163-11.017-7.7369-14.703-1.808-5.1827 0.10204-10.194 3.2817-9.9428" fill="#eb333b" stroke-width="4.2857"/>
 <path d="m83.694 78.685 3.8903-4.7143c2.4177-0.2229 5.9575 2.5486 7.5852 5.1257l-2.8686 4.6114c-2.308 2.1485-8.6069-1.1258-8.6069-5.0228" fill="#e5af86" stroke-width="4.2857"/>
 <path d="m58.79 128.07c8.2988 2.68 18.865 1.1486 27.256-1.2286-1.9691-10.452-0.3549-16.183 5.8388-24.794 0.30175-3.6514 1.4223-6.9484 3.2817-9.9428l-2.8686-8.4c-2.8771-0.67431-6.6381-2.9543-8.6069-5.0228-2.496 2.7714-5.2058 2.48-6.7143 0.51428-3.2902 2.9771-7.0782 5.2971-11.527 6.7598-5.4085 17.423-6.3886 24.023-6.6603 42.114" fill="#d53037" stroke-width="4.2857"/>
 <path d="m84.56 73.778s-1.98-3.2857-0.98223-6.6514c1.0001-3.3657 6.6411-5.1943 9.4666-4.5201 2.8211 0.67997 7.8886-2.4343 10.348-1.0629 2.46 1.3656 2.6382 1.0057 2.2388 4.8343-0.35717 3.44-2.0468 13.428-6.7341 16.794-1.5491 1.1142-3.5583 1.3715-5.3502 0.72-2.2657-0.82285-5.5161-2.5828-7.9199-6.297-0.51316-0.78852-0.81882-1.6971-0.92862-2.6342l-0.1377-1.1828" fill="#fac49a" stroke-width="4.2857"/>
 <path d="m83.034 75.968s3.8771-0.72565 4.3504-3.9257c0 0-2.388-0.38293-0.40397-3.9371 1.9914-3.5486 2.3239 0.6915 2.3239 0.6915s0.66509-7.6114 7.268-5.1715c6.6021 2.44 10.437 3.2571 12.426-6.0227 0 0-5.7946 1.7885-10.62-2.2743-4.8261-4.0628-11.591-2.7314-14.27 6.8284-2.6782 9.5601-1.0738 13.811-1.0738 13.811" fill="#8d502a" stroke-width="4.2857"/>
 <path d="m88.404 84.75c0.07127 5.9828 9.9123 5.0057 9.7589 0.03386-0.21655-6.9887-9.8416-6.9085-9.7589-0.03386" fill="#414042" stroke-width="4.2857"/>
 <path d="m91.666 85.705 0.25885 13.217c0.15548 1.6457 3.0091 1.5772 2.9308-0.1539l-0.02443-12.983c-0.92005-0.77151-2.3908-0.85135-3.1651-0.07937" fill="#414042" stroke-width="4.2857"/>
 <path d="m107.62 112.91c-3.1343-7.4228-8.7303-21.651-10.75-22.183-1.3125-0.33707-4.3409-1.9486-5.5332-0.86854-1.1897 1.0743-1.4309 4.5257-0.43765 6.3887 0.99307 1.8686 2.1051 1.5829 3.3525 1.4228 0.83485-0.10851 1.0652-0.21137 2.8571 4.9144 1.4486 6.4114 2.2748 12.463 2.5183 14.171 0.41481 2.9029 9.9907 1.2114 7.9932-3.8457" fill="#fac49a" stroke-width="4.2857"/>
 <path d="m226.12 153.01c-8.8126 26.64-15.362 44.901-16.062 46.495-0.85717 1.944-0.61375 2.1337-1.9846 1.9063-9.2763-1.5582-10.346-3.3068-11.547 0.55606 1.8977 1.8972 12.792 6.0998 17.23 6.0998 1.6023-3.8902 0.0502-4.3526 2.136-8.2902 11.603-21.918 2.4331-4.524 20.556-41.095-0.88636-3.1829-6.2549-6.0115-10.328-5.6743" fill="#f1bb91" stroke-width="4.2857"/>
 <path d="m244.38 205.08c-0.85688-1.7634-1.7519-1.8486-2.7428-5.652-0.69813-2.688-4.1474-18.151-5.3755-22.522-1.8657-6.6514-2.2766-3.9771 3.864-16.486-2.4577-3.3314-5.7274-4.9886-9.9106-4.7601-4.3328 15.646-4.1651 12.697-3.2903 18.64 0.54587 3.6971 9.5292 26.452 9.92 27.811 1.3801 4.8304-9.5827 1.4217-9.8172 5.9125 6.5489 1.5177 15.965 1.6743 17.352-2.944" fill="#fac49a" stroke-width="4.2857"/>
 <path d="m232.38 205.22c0.90384 0.6228 1.0577 1.4868 1.0577 2.864 0.5669 0.37255 1.1857 0.40624 1.8503 0.0308 0.1134-1.3286-0.4179-2.652-1.1678-3.1343-0.72728-0.1134-1.1695-0.0826-1.7413 0.23893" fill="#d53037" stroke-width="4.2857"/>
 <path d="m227.03 208.03c-0.0326 0.50456 0.0163 1.1115 0.1296 1.8686h12.337c0.78398 0 1.542-0.24574 2.1736-0.70349l3.3463-2.4086c-0.21056-0.72518-0.42278-1.2634-0.63497-1.7006-5.3185 3.9125-1.4805 2.944-17.352 2.944" fill="#d53037" stroke-width="4.2857"/>
 <path d="m203.06 204.29c0.1134-1.1805-0.1134-2.5469-0.69651-4.02 0.87308-0.17606 1.6783 0.039 2.4394 0.53597 0.83095 1.5155 1.0026 2.9571 0.66736 4.3367-1.082 0.11824-1.8903-0.15875-2.4102-0.85251" fill="#d53037" stroke-width="4.2857"/>
 <path d="m196.05 203.71 16.844 6.1855c0.36119-0.68743 0.63659-1.2881 0.86008-1.824l-17.23-6.0998c-0.1458 0.48852-0.29965 1.0622-0.47296 1.7383" fill="#d53037" stroke-width="4.2857"/>
 <path d="m220.16 91.251c-0.0403-2.1485-0.33479-3.4914-1.48-6.2627 0.97996-3.4571 2.7834-3.8057 5.6806-3.1486 0.93771 2.1029 2.2948 4.497 3.7725 5.4458 3.2051 9.8858-9.5892 13.874-7.973 3.9657" fill="#f1bb91" stroke-width="4.2857"/>
 <path d="m200.05 100.38c0.0648-0.91423-1.8571-3.36-2.2965-3.8343-0.25915-0.28573-1.3833-0.86854-1.1744 0.61714 0.21219 1.4857 1.2796 2.5943 1.2796 2.5943s-2.7789-1.9829-3.3904-2.0857c0 0-1.7811 5.7313-1.5112 7.0058 5.0738 2.8229 5.5538 3.6914 7.3619 5.4227 2.8571 0.46294 4.2074-2.08 2.7857-4.4914-4.0315-3.2972-3.163-3.5714-3.0538-5.2285" fill="#f1bb91" stroke-width="4.2857"/>
 <path d="m212.46 105.3c-3.192 5.9087-2.8657 5.2285-4.0491 4.3598-2.3526-1.7257-4.06-3.0343-5.3078-4.0514-0.99761 1.4572-1.9577 3.0171-2.7857 4.4914 7.9285 7.5998 7.301 7.4687 9.944 7.4687 2.2926 0 4.4532-3.24 7.1763-6.36 1.0892-4.16-2.6068-6.9201-4.9778-5.9087" fill="#f1bb91" stroke-width="4.2857"/>
 <path d="m193.13 97.662s1.0253-0.79435 2.4263 0.93707c1.4011 1.7314 0.90385 2.9657 0.46003 4.3598-0.34663 1.0742-0.87955 2.12-2.0406 2.0971-0.66736-0.0116-1.2715-0.39994-1.6084-0.97705-0.41305-0.69715-0.94435-1.84-0.71271-2.7771 0.35961-1.4743 1.4756-3.64 1.4756-3.64" fill="#fac49a" stroke-width="4.2857"/>
 <path d="m216.97 95.725c-2.6268 5.7484-2.9417 6.12-4.5154 9.5712 1.8908 1.6857 3.5399 3.6686 4.9774 5.9087l2.5537-3.68c0.30292-4.2457-0.85036-8.1428-3.016-11.8" fill="#d53037" stroke-width="4.2857"/>
 <path d="m242.09 97.658c-0.93299-2.3086-3.2365-5.5255-5.2204-7.023-2.2348-1.68-4.9752-2.88-8.2302-3.3486h-0.51346s-0.16195 6.303-3.1497 7.4687c-0.67221 0.26288-4.3838 2.4629-4.8235-3.5029-1.3768 0.94855-2.5427 2.16-3.1497 4.0857-1.9462 19.114 14.681 13.091 18.397 25.634 3.304 11.154-7.9615 16.897-10.623 27.16 0.35798 3.9485 23.808 17.337 27.85 10.634 0.26404-13.148 6.5738-18.217 6.4508-26.291-0.29481-19.143-7.049-10.263-16.989-34.817" fill="#eb333b" stroke-width="4.2857"/>
 <path d="m238.05 155.83c-7.8972-3.8-11.909-6.6514-13.265-7.6971-0.40332 1.56-0.65763 2.8057-0.65763 2.8057 2.6074 3.1771 4.8659 4.1943 10.886 7.0628 10.839 5.1544 11.636 5.76 17.64 3.9314 0 0-0.0648-1.2971-0.0163-3.1657-5.0935 1.1658-5.0159 1.6572-14.585-2.9372" fill="#d53037" stroke-width="4.2857"/>
 <path d="m217.62 111.9s-2.02-1.2686-3.3794-1.4628c-1.3548-0.19423-2.4394-0.45711-2.2143 0.62863 0 0 0.4017 1.1029 2.0383 1.2628 1.6337 0.16038 3.5554-0.42861 3.5554-0.42861" fill="#fac49a" stroke-width="4.2857"/>
 <path d="m230.58 107.01c-0.1458 5.3541 0.30128 5.5144-1.5388 5.5315-4.6512 0.0567-9.0732 0.63433-11.426-0.63432 0 0-2.0223 0.29708-2.8949 6e-3 -0.80501-0.27424-1.1792-1.1086-3.3056-0.77151-0.17657 0.0291-1.278 0.23421-1.325 2.5314-0.0326 1.5372-0.081 3.5543 2.0017 4.08 2.0936 0.51994 4.2594 0.0972 5.4419-0.17138 4.8081-1.0801 16.004 4.0686 19.031 1.04 1.2148-1.2113 0.64628-0.89704 1.495-10.017-0.74995-3.2285-6.0406-3.8114-7.4802-1.5942" fill="#fac49a" stroke-width="4.2857"/>
 <path d="m230.58 107.01c2.7497-6e-3 5.2345 0.54861 7.4802 1.5942 0.45839-3.5143 1.1889-16.703-3.904-18.234-4.6452-1.3886-4.8261 8.7201-3.576 16.64" fill="#d53037" stroke-width="4.2857"/>
 <path d="m229.06 83.614s2.877-2.6228 2.877-6.1885c0-3.56-4.0645-9.5369-7.0088-9.6912-2.944-0.1539-7.8612-2.08-10.649-1.4572-2.7902 0.61714-6.2725 0.78852-5.1874 4.7198 0.93136 3.3828-0.23001 11.754 3.3594 16.388 1.1857 1.5257 3.5308 3.56 6.2429 2.5943 2.3508-0.8457 4.7725-0.89138 8.0022-3.0343 0.86656-0.57711 1.5388-1.4 1.9484-2.36l0.41468-0.97139" fill="#fac49a" stroke-width="4.2857"/>
 <path d="m229.27 85.517s-5.8949-6.4341-7.3058-14.52c0 0-0.60093 3.5257 0 4.7657 0 0-4.2811-1.3428-5.9845-5.4171-1.7029-4.0686-3.5308-2.9428-3.5308-2.9428s-0.41468-4.3714 1.7519-6.2112c0 0 6.9685-3.4229 13.478 0 6.5069 3.4229 10.031 7.0971 10.651 12.149 0.61876 5.0455-0.69325 10.903-9.0599 12.177" fill="#414042" stroke-width="4.2857"/>
 <path d="m212.45 67.401 2.3879-3.2972-0.6366-2.9143s-3.9662-1.2228-5.3146 3.8857c-1.346 5.1141-1.035 9.2914-2.2742 10.686 0 0 3.1137 0.4686 4.1136-3.5543 0.99779-4.0342 1.7234-4.8055 1.7234-4.8055" fill="#414042" stroke-width="4.2857"/>
 <path d="m166 135.28h-2.0513v-7.2398l2.0513 2.0514v5.1887" fill="#9cddcf" stroke-width="4.2857"/>
 <path d="m187.62 202.04c3.6983 5.1184 9.1734 1.3926 9.1734 7.857h-8.3656l-11.94-3.1183c0.0972-2.076 0.67868-4.0468 2.0047-5.8547 3.6519-0.92459 6.8056-0.79255 9.1272 1.116" fill="#8d502a" stroke-width="4.2857"/>
 <path d="m155.74 209.9h18.096c0.87466-3.8417-3.4686-3.3194-9.0222-5.8817l-9.3127-2.132c-0.83094 2.7166-0.78397 5.3884 0.23974 8.0138" fill="#8d502a" stroke-width="4.2857"/>
 <path d="m184.78 135.6c14.123 30.897 12.877 28.914 11.864 33.08-0.91032 3.7486-9.0222 33.358-9.0222 33.358-3.0691 0.55543-6.8862 0.33253-9.1272-1.116 0 0 3.3456-26.362 4.2564-30.317 1.0853-4.6856 1.8148-1.6114-11.051-24.64 0 0-1.3768 18.634-1.3768 22.851 0 1.8057-4.8458 31.306-5.5152 35.196-3.1097 1.2451-7.5359-0.67659-10.138-2.7366 0 0 2.3302-26.111 2.837-31.18 0.7289-7.2741-3.5227-22.709-1.6206-37.268 9.9929-1.3086 19.687-0.77717 28.895 2.7714" fill="#414042" stroke-width="4.2857"/>
 <path d="m132.47 79.174c0.57145 0.20571 2.904 2.5943 2.904 2.5943s-0.83712-1.2456-0.7835-2.7143c0.0567-1.4685 1.0223-0.70281 1.2388-0.39424 3.7074 5.2915 0.9194 6.2344 3.2388 9.2571 1.6828 2.1943 7.6743 9.8571 8.6583 11.2 2.0023 2.7257 1.4269 1.9657 4.2457-0.85718 2.8302 0.35991 4.8325 3.0457 4.8325 6.4058-5.9952 5.1428-6.1941 6.3484-8.774 5.5658-4.4575-1.36-8.7569-15.2-15.565-21.583-0.64289-0.60565-2.6537-2.9886-2.6537-2.9886-0.0403-1.28 2.6583-6.4855 2.6583-6.4855" fill="#fac49a" stroke-width="4.2857"/>
 <path d="m131.19 78.938s1.1225-0.58281 2.172 1.32c1.0512 1.9085 0.35798 3.0114-0.31101 4.2742-0.51672 0.97705-1.2083 1.8914-2.3216 1.6685-0.64306-0.12634-1.1582-0.60565-1.3833-1.2171-0.27698-0.74284-0.58962-1.9314-0.20245-2.8 0.60093-1.3543 2.0469-3.2457 2.0469-3.2457" fill="#fac49a" stroke-width="4.2857"/>
 <path d="m190.81 115.07c0.80794-4.5257 3.2142-6.2858 7.0469-5.5487 1.1805 7.5827 1.348 8.2684 3.5737 10.491l9.1914 9.2399c2.1919 1.1142 3.6165-0.44575 7.9915 3.0286 0.29429 0.22856 1.0001 1.2456-0.4686 1.2114-1.4691-0.0339-2.6657-0.9429-2.6657-0.9429s2.2434 2.4686 2.4177 3.0514c0 0-5.3618 2.3828-6.6295 2.2686 0 0-2.2143-2.1943-2.8234-2.8286-6.1606-6.3771-10.536-8.0914-14.069-11.623-2.0937-2.0971-2.1988-3.6228-3.5646-8.3485" fill="#fac49a" stroke-width="4.2857"/>
 <path d="m218.06 136.89s0.65279-1.0857-1.1906-2.2457c-1.8412-1.1658-2.9817-0.53712-4.2788 0.0518-1.0043 0.45711-1.9624 1.0971-1.8057 2.2228 0.081 0.63999 0.53292 1.1886 1.129 1.4514 0.73216 0.32006 1.8977 0.70281 2.7839 0.37144 1.3882-0.51994 3.3612-1.8514 3.3612-1.8514" fill="#fac49a" stroke-width="4.2857"/>
 <path d="m163.18 82.851c-3.1942 2.08-7.8059 9.2515-11.71 14.748 1.841 2.44 3.7942 5.0344 5.8568 7.7601l4.4331-4.7143c2.7097-5.577 3.8525-13.64 1.4189-17.794" fill="#5fc9b4" stroke-width="4.2857"/>
 <path d="m191.89 85.868c4.4777 1.5485 5.3215 17.348 5.9712 23.651-0.39038 2.0114-5.3815 5.2572-7.6028 5.703l-0.8018-4.8685c-1.9023-8.4171-1.2521-19.428 2.4326-24.485" fill="#5fc9b4" stroke-width="4.2857"/>
 <path d="m183.87 132.43 0.91357 3.1714c-6.884 2.0114-21.917 0.23422-28.895-2.7714-0.1134-1.3715 0.25594-2.6 1.1144-3.6914 7.52-1.5942 24.587 0.30292 26.868 3.2914" fill="#5fc9b4" stroke-width="4.2857"/>
 <path d="m161.77 100.65 1.4189-17.794c3.297-1.3715 5.7274-1.4628 8.6206-1.3715 3.1942 6.5198 9.9106 7.8115 15.404 2.7143 1.4335 0.28573 2.6252 0.54278 4.6804 1.6743l-2.4326 24.485c-4.8261 18.474-2.8708 21.543-5.5894 22.074-6.6046 1.2971-18.821-0.78282-26.868-3.2914-4.5291-3.1257 2.1737-20.206 4.7656-28.491" fill="#31947b" stroke-width="4.2857"/>
 <path d="m184.21 83.468c-0.24797-1.64-0.25886-3.24 0-4.8-1.9754-1.64-4.317-2.1657-7.0092-1.6229-0.47995 1.6571-1.3389 3.1943-2.4577 4.6401-0.3303 7.9658 9.7837 7.9084 9.4666 1.7828" fill="#efb990" stroke-width="4.2857"/>
 <path d="m171.81 81.48c0.86334 0.04534 1.8103 0.11987 2.9394 0.20571 0 0 1.4173 4.7657 4.8659 4.7657 0.43735 0.89138 0.47943 1.7085-0.22676 2.3828l-7.4913 2.0914c0.23486-3.0457 0.17168-6.2112-0.081-9.4457" fill="#5fc9b4" stroke-width="4.2857"/>
 <path d="m184.21 83.468c1.2343 0.3771 2.1561 0.55997 2.9977 0.72565-0.67868 2.9486-1.1322 5.943-1.2116 9.0115l-6.6136-4.3714 0.22675-2.3828c3.4462 0 4.6007-2.9828 4.6007-2.9828" fill="#5fc9b4" stroke-width="4.2857"/>
 <path d="m187.87 58.32s2.2811 0.76002 2.4332 2.28c0.162 1.5257 2.0199 15.389-1.2164 17.337-3.8748 2.3314-8.2118 6.6912-12.317 2.8914-4.1022-3.8057-5.3185-3.8057-5.3185-7.1485 0-1.2399-0.0163-3.0343 0.0326-5.0228 0.0486-1.6914-0.85036-4.2973-0.6479-6.063 0.19924-1.7371 1.3412-4.7713 1.721-5.4398l15.308 1.1658" fill="#fac49a" stroke-width="4.2857"/>
 <path d="m190.98 69.737s2.2497-7.1485 0.50374-10.869c-1.7497-3.7314-2.6336-3.6514-2.3833-4.6401 0 0-0.88602 0.50863-0.8099 1.6571 0 0-0.60904-1.5085 0.30291-3.7143 0 0-0.98969 0.84004-1.3703 1.9829 0 0-1.2926-2.5086-1.0626-4.7143 0 0-2.1297 1.7429-2.2052 2.96 0 0-0.68356-1.3656-0.37902-2.2 0 0-1.2051 0.53147-3.1119 2.28-1.9086 1.7486-3.3389 0.98854-5.3211 1.8228-1.9846 0.83421-6.2073 5.4741-3.7548 13.685 0 0 0.55559-6.8455 1.3153-7.5998 0.7613-0.76568 1.9755-1.2686 3.8018-0.7485 1.8234 0.51994 9.4216 0.72565 11.406 0.36574 1.9816-0.36008 2.5622 1.6 3.069 9.7315" fill="#383838" stroke-width="4.2857"/>
</svg>
