<svg width="300" height="300" version="1.1" viewBox="0 0 300 300" xmlns="http://www.w3.org/2000/svg">
 <path d="m28.292 208 2 2h8e-3l68.875 68.883c14.08 14.08 32.454 21.117 50.826 21.117 18.373 0 36.751-7.0376 50.828-21.117l68.883-68.883s1.905-1.9048 2-2z" fill="#2f2430" stroke-width="0"/>
 <path d="m150 0c-18.375 0-36.75 7.0395-50.83 21.119l-78.053 78.053c-28.16 28.159-28.16 73.499 0 101.66l9.172 9.168h239.42s-2e-3 -2e-3 9.172-9.168c28.16-28.159 28.16-73.499 0-101.66l-78.053-78.053c-14.08-14.08-32.453-21.119-50.828-21.119z" fill="#42abb5" stroke-width="4.2857"/>
 <path d="m167.66 199.72 2.6297 8.3995 7.7075-0.82139-4.8219-28.714c-1.6474-1.4576-4.0915-1.2232-5.2428-0.081-2.0092 7.9529-1.6966 19.817-0.27261 21.216" fill="#fff" stroke-width="4.2857"/>
 <path d="m163.16 210c-0.57146-6.9775 7.3149-7.0512 7.7298-3.0066 8.043-1.0916 9.1835 0 9.1835 3.0066h-16.913" fill="#287075" stroke-width="4.2857"/>
 <path d="m160.54 177.43-2.1497 30.754h8.5608l2.4886-29.598c-0.51767-1.9331-8.2475-2.8817-8.8993-1.1562" fill="#dbdddc" stroke-width="4.2857"/>
 <path d="m160.21 206.52c-0.27652-4.6341-9.4154-6.9376-8.6696 3.4798h17.485c0.7788-4.4755-3.056-3.2634-8.8149-3.4798" fill="#338c92" stroke-width="4.2857"/>
 <path d="m178.73 95.761c-1.808-17.953-11.723-24.781-31.181-16.7-4.527 1.8794-3.0692 9.6158-0.7788 10.268 6.1222 13.85 22.205 20.6 27.602 17.902 4.98-0.83258 4.8373-6.7032 4.3573-11.469" fill="#2f2430" stroke-width="4.2857"/>
 <path d="m167.16 102.45s3.9423-1.2451 3.7343-4.2497c-0.4686-6.8125-7.7812-5.0361-5.1875-0.9377-8.145 3.4285-3.5291-16.343-18.937-7.9371-2.7926 8.3772 2.0938 7.6958 1.504 17.12-0.0907 1.4617-0.11824 2.9125 2.6989 1.9708 3.6075 8.7942 5.2389 8.3258 10.428 5.6044 0.0842 1.612 0.11661 2.4245-0.83032 3.6857 4.8905-0.58748 3.9932-2.3194 10.065-2.4914-2.2074-5.1942-2.0646-2.9594 3.7366-7.9885-5.1253-0.73037-6.9978-3.0514-7.212-4.7772" fill="#f79185" stroke-width="4.2857"/>
 <path d="m151.36 101.35c-1.4486 0.38794-2.98-4.2525-1.7988-4.7434 1.6852-0.69651 3.4058 4.3101 1.7988 4.7434zm13.848-5.2795c-2.772 1.2166-10.332 0.85718-13.348 0.75484-0.97771-2.2343-4.1092-2.5045-3.6315 1.348l-1.1344 0.31487c-0.57373 0.60449-0.1806 1.404 0.4869 1.348l1.1405-0.38794c0.70509 4.0263 5.4442 4.4618 3.656-1.1427 5.0585 0.03257 11.25 0.23421 13.335-1.0406 0.23439-0.14254-0.19423-1.1538-0.50456-1.1942" fill="#ed2247" stroke-width="4.2857"/>
 <path d="m156.07 130.05c-4.3303 9.7949-5.5248 12.451-8.1583 16.073-1.1898 1.5783 3.424 7.0692 5.3302 6.5669 1.0554-1.2743 1.984-2.5892 2.3994-3.8057 2.0869-6.1384 1.5069-16.783 0.42862-18.835" fill="#dbdddc" stroke-width="4.2857"/>
 <path d="m146.89 150.64c-3.3977 2.1788-3.3217 2.0737-3.8977 3.5891-1.3188 3.4737-2.0469 7.6006 1.344 6.1204 1.692-0.74284-0.4422-4.4862 5.3126-6.3432 0.12472-0.75887-1.1251-2.864-2.7589-3.3663" fill="#f79185" stroke-width="4.2857"/>
 <path d="m147.91 146.13c-0.77944 0-1.8686 1.3617-1.8686 2.4508 0.95083 2.6474 1.5178 3.8817 5.013 6.5892 1.324 0 2.1857-1.348 2.1857-2.4731-3.0938-2.0983-4.3573-3.6514-5.3302-6.5669" fill="#dbdddc" stroke-width="4.2857"/>
 <path d="m170.64 115.22c7.692 6.0175 4.4486 30.652 6.5383 63.034-6.5246 0.91971-16.982 0.22774-22.777-3.116 3.5069-44.091-1.4463-51.638 6.1745-57.428 1.5354-1.1696 7.5048-4.4961 10.065-2.4914" fill="#fff" stroke-width="4.2857"/>
 <path d="m175.51 129.03c-4.3016-15.886-11.928-10.424-11.514-5.5152 0.39313 4.6512 4.8279 11.658 9.5782 29.504 1.5046 0.86108 8.4309-1.5896 8.4309-2.864-1.5429-4.6675-4.563-13.989-6.4955-21.125" fill="#dbdddc" stroke-width="4.2857"/>
 <path d="m176.71 155.32c1.0159 3.252 0.83486 5.2234 4.824 6.2232 1.6492 0.41708 3.252-1.0697 2.4509-1.5205-2.3194-1.2965-3.5852-3.1428-3.0383-6.2052-0.53083-1.2234-4.656 0.16504-4.2366 1.5023" fill="#f79185" stroke-width="4.2857"/>
 <path d="m173.57 153.02c-0.58282 1.0555-2e-3 2.7988 0.81022 3.1291l8.6006-3.0559c0.39493-0.62232 0.24977-2.5423-0.97998-2.9371-2.4937 0.83939-6.4445 2.176-8.4309 2.864" fill="#dbdddc" stroke-width="4.2857"/>
 <path d="m167.94 155.55v-4.3302c-2.8663 1.652-4.9355 2.616-7.3149 2.2274l-0.0858 3.6588c1.0715 1.3772 6.3618 0.21655 7.4002-1.556" fill="#dbdddc" stroke-width="4.2857"/>
 <path d="m160.54 157.11-0.27892 11.857c1.0423 0.85717 6.0828 1.3703 7.6788-0.1053v-13.308c-2.3395 1.0114-4.9715 1.7834-7.4002 1.556" fill="#dbdddc" stroke-width="4.2857"/>
 <path d="m160.82 128.97c0.71662-5.5204 2.2795-9.8506 5.8976-14.154-0.47996-0.22739-1.8549 0.24574-2.0914 0.68065-3.864 4.5938-4.3196 7.6495-5.0675 13.52-2.5646 1.4685-2.2051 7.0731-0.92864 9.2858l1.0783-0.62279c-1.0892-1.8863-1.2275-6.6766 0.48917-7.6006 2.8366 0.86802 3.0669 9.4109 0.41936 10.754l0.56225 1.1075c3.5138-1.7771 3.3731-11.411-0.35945-12.971" fill="#413444" stroke-width="4.2857"/>
 <path d="m159.97 140.56c1.0806-0.85718 2.1314 1.1983 1.3995 1.7366-1.2702 0.9309-2.2812-1.0337-1.3995-1.7366" fill="#2f2430" stroke-width="4.2857"/>
 <path d="m158.32 138.51c-0.89949-1.0469 1.1183-2.1788 1.6857-1.4646 0.9795 1.2349-0.95084 2.3217-1.6857 1.4646" fill="#2f2430" stroke-width="4.2857"/>
 <path d="m115.55 134.32c13.176-1.5092 9.8949 10.725 1.1337 7.4978-2.0823-0.77263-3.1006-5.799-1.1337-7.4978" fill="#f79185" stroke-width="4.2857"/>
 <path d="m75.356 134.47c-13.174-1.5092-9.2701 10.575-0.5091 7.3478 2.0829-0.77263 2.4754-5.652 0.5091-7.3478" fill="#f79185" stroke-width="4.2857"/>
 <path d="m74.846 141.81c-2.9954-26.765 42.896-26.366 41.835 0-4.6359 3.2274-38.913 2.7725-41.835 0" fill="#2f2430" stroke-width="4.2857"/>
 <path d="m85.312 116.64c0.72048-8.1158-8.5269-3.8011-12.248 3.5937-1.6137 3.2057-1.0331 5.3369-0.30566 7.0045 2.6229 6.0184 9.6498 17.143 14.44 11.534 6.261-7.3392-3.6966-1.768-1.8863-22.132" fill="#f79185" stroke-width="4.2857"/>
 <path d="m105.84 116.64c-0.67659-7.6289 7.2922-4.1828 11.511 2.3017 2.2949 3.5268 2.1183 5.8409 1.152 8.0468-2.5983 5.9262-9.6922 17.473-14.549 11.783-6.2589-7.3392 3.6966-1.768 1.8863-22.132" fill="#f79185" stroke-width="4.2857"/>
 <path d="m83.298 74.907c0 14.417-1.1651 18.989 3.4937 18.989h16.089c4.6539 0 3.4932-4.5428 3.4932-18.989-5.0469-1.9148-17.969-1.9371-23.076 0" fill="#dbdddc" stroke-width="4.2857"/>
 <path d="m95.859 87.155v3.9554h7.1208v-3.9554h-7.1208" fill="#fff" stroke-width="4.2857"/>
 <path d="m60.652 68.71 12.94 21.394c0.9576 1.5829-1.136 2.6297-6.8482 7.9375-3.1541 1.8211-5.0336-0.90402-2.8594-2.9777 3.8013-3.6342 5.8817-4.3954 4.8369-5.9824l-13.378-20.372c1.4219-1.0159 3.9241-2.0114 5.3079 0" fill="#fff" stroke-width="4.2857"/>
 <path d="m64.479 95.667c-2.288-3.2857-8.7566 1.9668-7.1876 4.2411 1.0134 1.4624 4.4576 6.0338 4.4576 6.0338 3.5446-0.55363 6.1029-4.2972 6.1029-6.7366l-3.3728-3.5382" fill="#dbdddc" stroke-width="4.2857"/>
 <path d="m59.414 108.52 9.5178-10.495c1.0334-1.2634 1.9733-0.15711 3.0847 0.86108 1.1475 1.0469 3.6789 2.2971 2.6429 3.5314l-9.6073 10.754c-2.346-0.39266-5.2432-2.7697-5.6383-4.6512" fill="#fff" stroke-width="4.2857"/>
 <path d="m65.165 55.129-11.241 11.241c0.37822 0.90038 0.8406 1.7198 1.423 2.3353h12.397c3.2967-4.0851 2.4576-11.075 0-13.577l-2.0926-0.48548z" fill="#dbdddc" stroke-width="4.2857"/>
 <path d="m82.449 37.845-16.8 16.799c0.02014 5.3485 0.24274 11.935 0.24274 20.265h55.119c0-26.172 2.5863-37.064-7.7846-37.064z" fill="#fff" stroke-width="4.2857"/>
 <path d="m71.332 56.779c-1.4242 0-1.5826 1.9777 0 1.9777h18.197c1.384 0 1.5331-1.9777 0-1.9777h-18.197" fill="#dbdddc" stroke-width="4.2857"/>
 <path d="m71.332 61.737c-1.4242 0-1.5826 1.9777 0 1.9777h18.197c1.384 0 1.5331-1.9777 0-1.9777h-18.197" fill="#dbdddc" stroke-width="4.2857"/>
 <path d="m71.332 66.696c-1.4242 0-1.5826 1.9846 0 1.9846h18.197c1.384 0 1.5331-1.9846 0-1.9846h-18.197" fill="#dbdddc" stroke-width="4.2857"/>
 <path d="m97.231 66.696c-1.424 0-1.5822 1.9846 0 1.9846h4.413c1.384 0 1.5314-1.9846 0-1.9846h-4.413" fill="#f2b910" stroke-width="4.2857"/>
 <path d="m82.214 178.87v22.158c6.0913 3.1718 18.36 2.7723 23.105 0v-16.48c-7.2142-3.4285-15.096-6.0291-23.105-5.6785" fill="#fff" stroke-width="4.2857"/>
 <path d="m55.342 149.45h4.0715c1.7277 0.71434 2.2255 3.4794 0 4.2857h-4.0715c-1.7902-0.48689-1.4554-3.3617 0-4.2857" fill="#dbdddc" stroke-width="4.2857"/>
 <path d="m79.531 174.79v-14.897c15.634-2.4108 31.688-3.0583 46.093 0h10.582c-0.59139 7.9418 1.5829 11.861 6.9579 14.897-15.561 2.2098-44.735 4.0446-63.63 0" fill="#fff" stroke-width="4.2857"/>
 <path d="m59.414 155.34 5.1137 4.5535h61.098c2.1652-1.8977 2.9663-3.0582 6.0309-4.5535-24.946-1.6251-47.812-2.4931-72.245 0" fill="#dbdddc" stroke-width="4.2857"/>
 <path d="m64.578 147.83c0-3.3417-0.74105-8.0112 3.5112-8.0112h55.012c4.2212 0 3.5115 4.5827 3.5115 8.0112-6.6206 3.8679-57.557 3.7874-62.036 0" fill="#dbdddc" stroke-width="4.2857"/>
 <path d="m79.565 174.79h63.6c-10.317 16.634-9.9601 17.011-12.112 17.011h-20.527c-2.3034 0-2.5583-1.6518-5.208-7.2522l-24.558-6.0402c-1.5469-0.37726-1.1943-2.0959-1.1943-3.7187" fill="#dbdddc" stroke-width="4.2857"/>
 <path d="m59.414 147.83v7.5154h72.245v-7.5154h-72.245" fill="#fff" stroke-width="4.2857"/>
 <path d="m55.346 64.947-25.053 25.053v111.03c5.8037 2.5893 19.647 2.2924 25.053 0z" fill="#fff" stroke-width="4.2857"/>
 <path d="m54.455 200.52h-24.166v9.4799h99.686c0-3.7366 0.82805-9.4799-4.0023-9.4799h-71.52" fill="#dbdddc" stroke-width="4.2857"/>
 <path d="m229.33 173.64h44.349c2.2498-3.0289 1.868-10.805 0-13.315-13.641-1.2411-32.824-1.2411-44.349-0.0227-1.2325 2.8948-2.1429 9.752 0 13.337" fill="#dbdddc" stroke-width="4.2857"/>
 <path d="m278.16 159.22c-1.9551 0.0572-3.6486 0.48732-4.4867 1.1132v45.694l5.2063-5.2062c1.9171-1.9171 3.676-3.9194 5.3319-5.9849v-34.503c-1.8794-0.8594-4.0969-1.1705-6.0519-1.1132z" fill="#dbdddc" stroke-width="4.2857"/>
 <path d="m224.22 209.96c2.3863-4e-3 5.1052 0.3729 5.1052-1.3527v-48.308c-3.2126-1.6811-9.1411-1.1428-9.8816-7e-3v48.33c0 1.7098 2.6269 1.3504 4.7764 1.337" fill="#dbdddc" stroke-width="4.2857"/>
 <path d="m211.76 158.49c0 2.3994 3.9355 1.7988 7.6856 1.7988l64.77 0.0339c3.1766 0 6.8079 0.50863 6.8079-1.7994 0-3.4394-1.0824-6.5086-6.3125-6.5086h-66.635c-5.1275 1.5e-4 -6.315 3.0801-6.315 6.4756" fill="#fff" stroke-width="4.2857"/>
 <path d="m256.89 151.91c0.16749 0 0.88166-0.1134 1.7657 0.46911 1.0692 0 2.1023-0.30175 2.328-1.536l0.95765-5.2049c0.29884-1.6366-1.1098-2.1051-2.3303-2.3508l-2.7212 8.6228" fill="#fff" fill-rule="evenodd" stroke-width="4.2857"/>
 <path d="m255.99 144.83h-37.145c-0.16749 0-0.31942 0.0551-0.43089 0.18742-0.11177 0.1134-0.14901 0.26339-0.13119 0.42861 0.33708 2.9708 1.4845 5.3369 3.7926 6.8386 0.0956 0.0761 0.20751 0.0923 0.31941 0.0923h36.264c2.2143-12.132 4.4486-24.261 6.6652-36.393 0.1134-0.67431-0.0583-1.3149-0.48917-1.8572-0.45078-0.52692-1.0514-0.80566-1.7274-0.80566-0.43089 0-1.1075-0.1134-1.2189 0.4686-1.7857 10.194-3.5692 20.371-5.3525 30.571-0.039 0.26113-0.26336 0.46911-0.54459 0.46911" fill="#dbdddc" fill-rule="evenodd" stroke-width="4.2857"/>
 <path d="m249.66 149.79h-16.114c-0.2229 0-0.41254-0.18969-0.41254-0.41709v-2.0874c0-0.22062 0.18968-0.41031 0.41254-0.41031h16.114c0.22581 0 0.41323 0.18969 0.41323 0.41031v2.0874c0 0.2274-0.18742 0.41709-0.41323 0.41709" fill="#fff" fill-rule="evenodd" stroke-width="4.2857"/>
 <path d="m255.23 148.32c0 1.7811 2.7235 1.7811 2.7235 0 0-1.7657-2.7235-1.7657-2.7235 0" fill="#fff" fill-rule="evenodd" stroke-width="4.2857"/>
 <path d="m221.85 148.32c0 1.7811 2.7212 1.7811 2.7212 0 0-1.7657-2.7212-1.7657-2.7212 0" fill="#fff" fill-rule="evenodd" stroke-width="4.2857"/>
 <path d="m230.54 149.34h-3.6606c-0.16976 0-0.29884-0.1296-0.29884-0.28573v-1.444c0-0.16504 0.1296-0.29708 0.29884-0.29708h3.6606c0.16976 0 0.30176 0.13118 0.30176 0.29708v1.444c0 0.15712-0.13119 0.28573-0.30176 0.28573" fill="#fff" fill-rule="evenodd" stroke-width="4.2857"/>
 <path d="m276.65 139.94h2.9194c0.0403 0 0.0713-0.0291 0.0713-0.0664v-14.835c0-0.0403-0.0309-0.0761-0.0713-0.0761h-2.9194c-0.0403 0-0.0696 0.0356-0.0696 0.0761v14.835c0 0.0373 0.0291 0.0664 0.0696 0.0664" fill="#fff" fill-rule="evenodd" stroke-width="4.2857"/>
 <path d="m278.22 129.56-0.57374 9.638 2.2189 0.13118 0.57146-9.638-0.19196-0.2412-1.7457-0.0956-0.27891 0.20524" fill="#287075" fill-rule="evenodd" stroke-width="4.2857"/>
 <path d="m278.22 129.56 2.2166 0.13119-0.79256-2.1943c-0.15227-0.3954-0.19196-0.3954-0.37256-0.0244l-1.0514 2.0869" fill="#287075" fill-rule="evenodd" stroke-width="4.2857"/>
 <path d="m271.79 139.5 0.99309-0.47995-4.0737-8.4175-0.28118-0.10688-0.74105 0.35944 0.0291 0.23892 4.0737 8.4064" fill="#287075" fill-rule="evenodd" stroke-width="4.2857"/>
 <path d="m267.71 131.09 0.99309-0.49143-1.7652-1.5245c-0.33952-0.29657-0.29027-0.17833-0.14901 0.10367l0.92169 1.9131" fill="#287075" fill-rule="evenodd" stroke-width="4.2857"/>
 <path d="m269.51 131.03 1.3326 9.2455 2.196-0.31037-1.3326-9.2498-0.24056-0.20117-1.7257 0.25204-0.22967 0.26339" fill="#413444" fill-rule="evenodd" stroke-width="4.2857"/>
 <path d="m269.51 131.03 2.196-0.31423-1.2228-1.996c-0.2211-0.34791-0.26113-0.34791-0.3732 0.0518l-0.59996 2.2588" fill="#413444" fill-rule="evenodd" stroke-width="4.2857"/>
 <path d="m273 131.41 0.55997-0.0403-0.0291-0.46859-0.33253 0.0154c-0.29027 0.0356-0.47996 0.0518-0.49144-0.0454l-0.29028-3.9931c-0.0193-0.25251 0.20117-0.18968 0.46231-0.21201l0.31941-0.018-0.0291-0.47378-0.56225 0.0403c-0.31037 0.0227-0.54052 0.29026-0.52059 0.59836l0.31038 4.0868c0.0291 0.30809 0.30176 0.54231 0.60287 0.50909" fill="#ed2247" fill-rule="evenodd" stroke-width="4.2857"/>
 <path d="m272.9 126.68 1.7057-0.13118-0.10041-1.4217-1.7166 0.12471 0.11177 1.4285" fill="#ed2247" fill-rule="evenodd" stroke-width="4.2857"/>
 <path d="m273.9 139.75 1.7143-0.11988c0.0193-0.0116 0.0403-0.0291 0.0403-0.0519l-1.0022-13.121c0-0.0154-0.0193-0.0403-0.0518-0.0403l-1.7052 0.13119c-0.0193 0.0116-0.0403 0.0291-0.0403 0.0519l1.0024 13.121c0 0.018 0.0227 0.0403 0.042 0.0292" fill="#ed2247" fill-rule="evenodd" stroke-width="4.2857"/>
 <path d="m273.47 123.9c-1.8749 0.15386-1.7366 1.9594 0.14092 1.8166 1.8663-0.14739 1.7343-1.9531-0.14092-1.8166" fill="#ed2247" fill-rule="evenodd" stroke-width="4.2857"/>
 <path d="m284.73 133.01-0.51137-0.18968 0.16037-0.43311 0.30176 0.11498c0.26113 0.0972 0.43089 0.17606 0.47088 0.0794l1.3326-3.6514c0.0907-0.22808-0.1377-0.22808-0.37076-0.31941l-0.29884-0.10204 0.15874-0.43946 0.51138 0.18742c0.28118 0.1134 0.43311 0.42179 0.32104 0.7028l-1.3749 3.7325c-0.10041 0.27891-0.41953 0.43247-0.70054 0.31877" fill="#2f2430" fill-rule="evenodd" stroke-width="4.2857"/>
 <path d="m286 128.56-1.0338-0.38404 0.32169-0.86172 1.0223 0.38177-0.31038 0.86399" fill="#2f2430" fill-rule="evenodd" stroke-width="4.2857"/>
 <path d="m281.61 140.47-1.0315-0.37709c-0.0193 0-0.0193-0.0227-0.0193-0.0339l4.4019-11.942c0.0107-0.0137 0.0193-0.0244 0.0403-0.0244l1.0338 0.38339c0.0107 0.0116 0.0193 0.018 0.0107 0.0403l-4.404 11.948c0 5e-3 -0.0193 0.0154-0.0309 5e-3" fill="#2f2430" fill-rule="evenodd" stroke-width="4.2857"/>
 <path d="m286.13 126.75c1.1337 0.41095 0.732 1.5023-0.40235 1.0846-1.1224-0.41027-0.72047-1.5085 0.40235-1.0846" fill="#2f2430" fill-rule="evenodd" stroke-width="4.2857"/>
 <path d="m282.19 127.87-1.9863 11.616 1.656 0.27891 1.9869-11.609-0.11177-0.21201-1.3035-0.22337-0.24121 0.14902" fill="#f2b910" fill-rule="evenodd" stroke-width="4.2857"/>
 <path d="m282.19 127.87 1.6566 0.28572-0.38177-1.9108c-0.0713-0.34178-0.10042-0.34791-0.27262-0.0518l-1.0024 1.6766" fill="#f2b910" fill-rule="evenodd" stroke-width="4.2857"/>
 <path d="m271.71 152.38h9.7993c0.15064 0 0.27197-0.10693 0.30112-0.26113 0.52221-3.2011 1.0537-6.4062 1.5851-9.6072-0.10041-0.72972-0.0599-1.4576 0.35263-2.136 0.10042-0.58281 0.18969-1.1382 0.29027-1.7143 0.0291-0.19423-0.11177-0.3549-0.30175-0.3549h-14.254c-0.1806 0-0.32168 0.16037-0.29027 0.3549 0.0891 0.57145 0.18969 1.1429 0.28119 1.7143 0.53147 0.74738 0.49144 1.3548 0.35087 2.136 0.53083 3.2011 1.0645 6.4062 1.596 9.6072 0.0193 0.1539 0.14902 0.26113 0.2898 0.26113" fill="#dbdddc" fill-rule="evenodd" stroke-width="4.2857"/>
 <path d="m269.82 142.51h13.572l0.19196-1.1251-0.4422-0.34341-13.342-0.0159-0.16037 0.35944 0.18112 1.1251" fill="#fff" fill-rule="evenodd" stroke-width="4.2857"/>
 <path d="m283.59 141.39 0.16037-1.0109h-14.275l0.16976 1.0109h13.945" fill="#fff" fill-rule="evenodd" stroke-width="4.2857"/>
 <path d="m237.73 93.863c0 10.741-8.7082 19.451-19.451 19.451-10.741 0-19.449-8.7098-19.449-19.451 0-10.743 8.7082-19.453 19.449-19.453 10.743 0 19.451 8.7102 19.451 19.453" fill="#7cd1cf" stroke-width="4.2857"/>
 <path d="m234.96 93.863c0 9.2163-7.4709 16.685-16.685 16.685s-16.684-7.4691-16.684-16.685c0-9.212 7.4692-16.687 16.684-16.687s16.685 7.4755 16.685 16.687" fill="#fff" stroke-width="4.2857"/>
 <path d="m220.19 93.863c0 1.0629-0.85719 1.92-1.9171 1.92-1.0582 0-1.9177-0.85718-1.9177-1.92 0-1.0577 0.85947-1.9148 1.9177-1.9148 1.06 0 1.9171 0.85718 1.9171 1.9148" fill="#413444" stroke-width="4.2857"/>
 <path d="m228.38 95.05h-10.109v-2.3617h10.109v2.3617" fill="#413444" stroke-width="4.2857"/>
 <path d="m219.42 79.321v15.52h-2.2857v-15.52h2.2857" fill="#413444" stroke-width="4.2857"/>
</svg>
