<svg width="300" height="300" version="1.1" viewBox="0 0 300 300" xmlns="http://www.w3.org/2000/svg">
 <path d="m28.292 208 2 2h8e-3l68.875 68.883c14.08 14.08 32.454 21.117 50.826 21.117 18.373 0 36.751-7.0376 50.828-21.117l68.883-68.883s1.905-1.9048 2-2z" fill="#457e32" stroke-width="0"/>
 <path d="m150-2e-6c-18.375 0-36.75 7.0395-50.83 21.119l-78.053 78.053c-28.16 28.159-28.16 73.499 0 101.66l9.172 9.168h239.42s-2e-3 -2e-3 9.172-9.168c28.16-28.159 28.16-73.499 0-101.66l-78.053-78.053c-14.08-14.08-32.453-21.119-50.828-21.119z" fill="#5faa40" stroke-width="4.2857"/>
 <path d="m30.716 128.02c7.4465-3.1205 6.8328-13.261-6.5645-21.187l-0.82805 0.37255c-2.2411 18.761 7.3925 20.815 7.3925 20.815" fill="#457e32" fill-rule="evenodd" stroke-width="4.2857"/>
 <path d="m70.449 141.79c-4.4002-0.74802-5.6002 1.6268-7.5999 1.4394l-0.45712 0.16037c-1.6274 2.3749-3.8149 2.7474-4.9085 1.0668l-0.74803-0.13445c-2.5623 3.4177-12.703 2.7771-9.7145-2.9348-4.6697-1.6005-3.4686-5.1497 1.9223-7.3662 6.8302-2.8011 15.797-1.1474 21.643 6.8592 0.66849 0.90852 0.88003 1.0668-0.1377 0.90852" fill="#a5c792" fill-rule="evenodd" stroke-width="4.2857"/>
 <path d="m34.934 148.86c4.5892-6.4332 14.599-10.009 25.591-10.355 4.857-0.16037 4.6457-0.18741 0.02743 0.45321-10.114 1.3617-19.214 5.4171-26.205 13.343 0.21429-1.1474 0.39943-2.2942 0.58685-3.4417" fill="#363536" fill-rule="evenodd" stroke-width="4.2857"/>
 <path d="m35.439 131.65c2.616 7.8972 21.055 0.21201 18.895-6.2725-3.6829-11.127-22.579-4.884-18.895 6.2725" fill="#457e32" fill-rule="evenodd" stroke-width="4.2857"/>
 <path d="m32.371 138c1.5469-4.6161 4.8549-8.0866 8.9371-11.448 2.056-1.6811 1.8954-1.4685 0.18742 0.2412-4.136 4.0822-7.3389 8.0309-8.1382 12.968-0.34792-0.58684-0.66738-1.1744-0.98632-1.7611" fill="#363536" fill-rule="evenodd" stroke-width="4.2857"/>
 <path d="m39.789 133.04c0.081-8.4063 15.823-11.928 24.232-5.2572l0.10852 0.7211c-4.9136 7.8724-21.885 11.714-24.34 4.536" fill="#457e32" fill-rule="evenodd" stroke-width="4.2857"/>
 <path d="m32.799 141.55c3.8412-7.0984 8.3795-14.384 20.681-14.598 2.5892-0.0274 2.1874-0.0274-0.081 0.26807-8.3795 1.0937-14.649 5.6027-19.48 15.797 0.02571 0.69424-0.96005-1.2006-1.1206-1.4662" fill="#363536" fill-rule="evenodd" stroke-width="4.2857"/>
 <path d="m10.513 126.15c1.3858 8.4839 8.2989 13.555 21.857 14.462-1.4154-13.448-8.3816-18.732-21.485-15.049l-0.37256 0.58748" fill="#a5c792" fill-rule="evenodd" stroke-width="4.2857"/>
 <path d="m18.973 130.13c5.4176 2.2142 10.221 5.5778 13.398 9.7143-0.3486-1.1474-0.69425-2.3217-1.0428-3.4691-2.8549-3.2834-7.3389-5.5247-12.062-6.5935-2.4017-0.53082-2.8549-0.69196-0.29254 0.3486" fill="#363536" fill-rule="evenodd" stroke-width="4.2857"/>
 <path d="m2.8547 141.69c3.016 2.1343 3.4954 5.7102 5.4446 5.7904l0.42635 0.21429c1.9217 2.7211 4.5622 3.0668 6.0039 1.5738l0.74803-0.0274c3.3886 3.096 10.087 1.7074 8.5646-4.404 3.016-0.66737 4.6989-4.6161-0.47996-6.6449-5.7365-2.268-12.649-1.0668-20.627 2.5628-1.0691 0.47944-0.90853 0.34792-0.081001 0.9348" fill="#457e32" fill-rule="evenodd" stroke-width="4.2857"/>
 <path d="m12.781 141.69c4.7773 0.69197 7.2588 1.4669 9.3686 2.5874 0.93318 0.53305 1.0937 0.64063 1.4394 1.6291 2.2143 6.1366 5.7365 8.4308 9.2079 10.594 0.34564-0.88164 0.6675-1.7612 1.0132-2.6428-4.7765-1.8411-5.8702-4.2942-8.4862-8.4329-0.82625-1.3057-1.3087-1.6805-2.7749-2.2942-2.9886-1.228-6.7252-1.8686-9.7681-1.8417-2.4286 0-2.2411 0.0534 0 0.40169" fill="#363536" fill-rule="evenodd" stroke-width="4.2857"/>
 <path d="m28.312 183.87c0.39943-9.2588 0.29482-18.547 1.1744-27.781 0.50636-5.3369 2.4817-8.1381 1.5754-13.555-1.2811-7.3906-1.4149-15.585-0.77426-23.431 0.74803 8.0331 2.268 15.826 5.1497 23.111 2.4286 6.1358-0.69425 9.2318-1.2549 15.663-0.7182 8.6472-0.23893 17.375-0.34569 26.074-1.8417-0.0274-3.6829-0.0534-5.5247-0.081" fill="#363536" fill-rule="evenodd" stroke-width="4.2857"/>
 <path d="m19.376 186.01 1.0547 14.054c0.24052 0.24737 0.4416 0.51694 0.6864 0.76169l9.1741 9.1739h12.757l0.52736-0.5106 1.7662-23.479z" fill="#4f5165" fill-rule="evenodd" stroke-width="4.2857"/>
 <path d="m16.226 188.65h32.266l0.5577-0.56061v-5.4171l-0.5577-0.53374h-32.266l-0.53375 0.53374v5.4171l0.53375 0.56061" fill="#35393d" fill-rule="evenodd" stroke-width="4.2857"/>
 <path d="m195.64 149.45c5.1887-24.106 3.7829-77.138 0-108.52-21.862-11.384-77.418-8.7501-99.018 1.192-3.6473 30.91-4.6629 81.728 0 107.33 27.937 3.3931 83.988 3.9668 99.018 0" fill="#65b3cc" stroke-width="4.2857"/>
 <path d="m167.24 152.03 31.427-31.42c-0.47426 11.357-1.4457 21.451-3.0343 28.834-5.3315 1.4063-15.82 2.2434-28.393 2.5851" fill="#90c6d4" stroke-width="4.2857"/>
 <path d="m153.22 152.21c-19.989 0-42.088-1.0023-56.597-2.7634-4.6629-25.596-3.6473-76.414 0-107.33 11.757-5.4107 33.569-8.6566 54.532-8.6566 17.556 0 34.519 2.2771 44.482 7.4644 2.2343 18.518 3.64 44.58 3.3486 67.782l-43.509 43.495c-0.74996 5e-3 -1.5048 5e-3 -2.2611 5e-3" fill="#90c6d4" stroke-width="4.2857"/>
 <path d="m163.95 155.32-10.371-1.2182 1.0561-1.0582h11.589l-2.2744 2.2766m35.294-35.29v-11.585l0.2172-0.21428 1.4285 10.157-1.6457 1.6429" fill="#8fc179" stroke-width="4.2857"/>
 <path d="m166.23 153.04h-11.589l0.83906-0.83939c4.0532-0.0154 8.004-0.0745 11.766-0.17366l-1.0156 1.0132m32.443-32.433c0.16037-3.8411 0.26289-7.8278 0.31423-11.902l0.26289-0.26339v11.585l-0.57712 0.58002" fill="#abcca1" stroke-width="4.2857"/>
 <path d="m155.48 152.2 43.509-43.495c-0.0518 4.0737-0.1539 8.0605-0.31423 11.902l-31.427 31.42c-3.7618 0.10041-7.7126 0.15874-11.766 0.17366" fill="#abcfd8" stroke-width="4.2857"/>
 <path d="m195.64 40.93v108.51h-99.018v-107.33c-4.7546 2.1874-7.8686 4.7275-8.6122 7.5514v108.38h116.24v-108.33c-1.0743-3.56-4.1429-6.4709-8.6113-8.7963" fill="#457e32" stroke-width="4.2857"/>
 <path d="m99.528 46.711c3.6857 3.5868 11.42 5.9892 16.714 0.97315 4.9736-4.7095 6.7925-2.8371 9.8756 0 3.5645 3.2771 12.85 4.0914 15.701 0.79936 3.4755-4.016 4.4465-5.4869 10.512 0.12634 3.6559 3.3886 14.292 2.0337 16.205-0.76971 2.9731-4.3641 5.391-4.0337 9.4329 0.20053 3.8527 4.0314 14.431 2.9623 16.654-0.82332 3.6172-6.1744 6.3485 0.84342 9.6228 2.5085v-10.232c-41.241-3.4617-70.843-3.2942-116.24 0v10.176c5.1815-1.9423 6.3129-8.0292 11.522-2.96" fill="#ee7117" stroke-width="4.2857"/>
 <path d="m248.9 167.47h-28.057c-1.7314 0-2.3772 1.2228-3.9372 3.1091l0.32006 0.75887c12.052 0.99534 20.366 0.74347 31.686-0.0761 1.1886-1.1897 0.93138-2.4908-0.0116-3.792" fill="#fff" stroke-width="4.2857"/>
 <path d="m252.65 171.26c-1.4685-20.544 2.2972-35.334 9.1428-48.818 0.32006-0.62978-0.25706-1.1651-0.83435-2.0714l-0.38859-7e-3c-10.64 16.415-11.812 31.301-11.657 50.897 1.4572 0.8954 2.3371 1.0136 3.7372 0" fill="#e2eaef" stroke-width="4.2857"/>
 <path d="m245.41 183.94h-23.674c-1.1427-1.5046-1.0914-2.6897 0-4.4155h23.674c1.1258 1.7234 0.99425 2.748 0 4.4155" fill="#e2eaef" stroke-width="4.2857"/>
 <path d="m248.9 173.45v35.778l-0.77135 0.77198h-1.9486l-0.77718-0.77198v-35.778c1.3543-0.80858 2.1314-1.0023 3.4972 0" fill="#fff" stroke-width="4.2857"/>
 <path d="m221.73 173.45v35.778l-0.77134 0.77198h-1.9486l-0.77718-0.77198v-35.778c1.3543-0.80858 2.1372-1.0023 3.4972 0" fill="#fff" stroke-width="4.2857"/>
 <path d="m215.83 173.45h36.149l0.67998-0.67885v-1.5092h-36.829c-0.65717 0-0.65717 2.188 0 2.188" fill="#e2eaef" stroke-width="4.2857"/>
 <path d="m197.76 203.21 0.71431-17.422c2.88-26.719 13.972-27.16 13.972-15.759-3.0229 0-2.3143-0.41944-2.8 2.3348-3.3657 19.06-1.2057 8.0892-6.24 30.845-2.2057 2.0137-4.1657 2-5.6456 0" fill="#f5a95e" stroke-width="4.2857"/>
 <path d="m185.61 198.7c6.5983-20.79 11.798-39.839 11.798-39.839 1.68-3.9708 1.2571-5.3657 10.891-5.1758 2.5429 5.4955 3.1829 8.6403 2.1543 13.212-4.2629 0.45939-3.3429-0.64062-4.9372 3.3211-2.3886 5.9155-9.6343 20.415-13.497 28.991-2.7428 1.8348-5.979 1.1515-6.4098-0.50909" fill="#fab86d" stroke-width="4.2857"/>
 <path d="m174.82 199.62c1.2942-2.0223 3.8166-1.0286 10.897-0.82105 1.2327 0.8972 4.6612 1.2989 6.4098 0.50862-0.16521 2.4777-0.86336 3.5537-2.1657 6.6184l-14.786-5.2474-0.35473-1.0582" fill="#21201f" stroke-width="4.2857"/>
 <path d="m197.76 203.21c1.8457 0.77249 3.76 0.68112 5.6456 0 0.82852 2.8102 0.8457 4.4777 0 6.7881h-15.709l-0.68521-0.65828c-0.22354-5.1004 4.8116-0.58683 10.749-6.1298" fill="#21201f" stroke-width="4.2857"/>
 <path d="m213.74 110.91c-1.0457-0.72514-3.28-2.5-4.2686-3.1966-2.1657-0.38172-4.7143 1.7057-4.7143 3.9954 0.54287 1.7057 0.93142 3.0582 1.3886 5.2234 3.2172-1.0154 5.8402-2.9754 7.5943-6.0222" fill="#f5a95e" stroke-width="4.2857"/>
 <path d="m212.2 101.24s2.7829-1.1429 2.8514 2.248c0.0686 3.3908-3.1829 3.2788-3.1829 3.2788l-1.2914-2.7634 1.6229-2.7634" fill="#f5a95e" stroke-width="4.2857"/>
 <path d="m212.2 101.24s1.1258 4.5492-1.9257 8.7839c-3.0457 4.2342-7.0916 4.2251-7.0916 4.2251s-5.9315-0.94401-7.206-3.5491c-1.2683-2.6028-2.6056-5.7681-2.7085-8.0601-0.0972-2.2925 14.629-13.049 14.726-12.413 0.10204 0.63368 5.5659 4.536 5.4973 5.3524-0.068 0.81719-1.2915 5.6605-1.2915 5.6605" fill="#fab86d" stroke-width="4.2857"/>
 <path d="m212.2 101.24s0.30858-2.9594-0.45711-4.0039c-0.77135-1.0446-1.0458-3.4623-3.0458-2.5737-2.0057 0.89022-0.28007 1.8234-5.3143 3.0514-5.0345 1.2275-10.617 4.7832-10.531 8.3326 0 0-4.7773-4.9508-0.47944-14.021 0 0 2.5086-7.7296 8.6743-6.1761l6.657 0.2028 5.52 4.3795s3.3372 3.6834 1.2171 10.549c0 0-1.44 2.9285-2.24 0.25885" fill="#c52629" stroke-width="4.2857"/>
 <path d="m213.96 89.482s2.0171-4.9709-5.6915-7.2942c-7.7143-2.3217-8.3315 2.1182-8.3315 2.1182l6.7428 3.0914 7.2802 2.0846" fill="#c52629" stroke-width="4.2857"/>
 <path d="m212.78 90.429 1.183-0.94628s-4.7027-4.3101-14.023-5.1758l-0.4971 1.3502s11.32 3.1314 13.337 4.7721" fill="#e2eaef" stroke-width="4.2857"/>
 <path d="m219.07 152.89c7.4173-0.36172 19.857 1.4418 27.331 3.0268 0.82852 14.835-4.5257 14.567-33.949 14.114-3.5372-5.2118-5.5599-10.313-4.1486-16.348 5.2972-0.18561 7.6059-0.32168 10.766-0.79255" fill="#4f5165" stroke-width="4.2857"/>
 <path d="m184.46 107.94 0.0648 1.1583c-1.3169 2.7902-7.6166 6.2609-11.402 6.0089l-0.72729-0.60741c0.98644-5.3412 5.973-8.9793 12.06-6.5601" fill="#eda80f" stroke-width="4.2857"/>
 <path d="m173.71 114.16c0.11341-2.0091 0.81961-0.9623 1.3299-2.9154 0.40333-1.5578 2.0829-1.2229 3.2612-2.2903 1.8041-1.6292 1.9486 0.26563 3.5469-0.46178 1.3104-0.59836 1.5664 0.67204 2.6858 0.6045 0.95247 16.712 0.99944 15.61 0.64466 15.77-0.31911 0.14738 0.44221 0.65601-12.047-9.761l0.57827-0.94628" fill="#f8ca15" stroke-width="4.2857"/>
 <path d="m181.41 115.95-0.27373 0.0518-0.34178-0.59995-0.47135 0.0826c-0.31264-0.71888 0.3693-1.2765 0.97351-0.75205l-0.16196 0.42634 0.28834 0.444-0.0137 0.34791" fill="#fff" stroke-width="4.2857"/>
 <path d="m182.85 120.93 0.0326 0.33252-0.53131 0.18107 9e-3 0.4686c-0.52967-0.042-1.0529-0.94855-0.67384-1.3195l0.46165 0.3771 0.39849-0.17138 0.30292 0.13118" fill="#fff" stroke-width="4.2857"/>
 <path d="m178.82 113.19-0.20893 0.18969-0.5151-0.41095-0.42116 0.34632c-0.53615-0.54231-0.0326-1.5761 0.74675-1.3995l-0.1296 0.64517 0.40817 0.28752 0.1296 0.34179" fill="#fff" stroke-width="4.2857"/>
 <path d="m175.89 115.15-0.1296 0.27488-0.47786-0.042-0.0648 0.46457c-0.64307-0.18968-0.89576-1.4201-0.0648-1.6406l0.081 0.55362 0.43736 0.0227 0.22354 0.36801" fill="#fff" stroke-width="4.2857"/>
 <path d="m182.3 109.02 0.36609 0.79889-0.36609-0.79889" fill="#eda80f" stroke-width="4.2857"/>
 <path d="m184.08 118.97c-0.59121-0.0599-0.29318 0.80794 0.12961 0.80567l-0.12961-0.80567" fill="#eda80f" stroke-width="4.2857"/>
 <path d="m180.47 112.63 0.081 0.65197-0.081-0.65197" fill="#eda80f" stroke-width="4.2857"/>
 <path d="m181.87 111.32 0.0972 0.6497-0.0972-0.6497" fill="#eda80f" stroke-width="4.2857"/>
 <path d="m180.9 110.01 0.081 0.6497-0.081-0.6497" fill="#eda80f" stroke-width="4.2857"/>
 <path d="m176.71 110.38 0.0972 0.64919-0.0972-0.64919" fill="#eda80f" stroke-width="4.2857"/>
 <path d="m174.73 112.68 0.0972 0.64971-0.0972-0.64971" fill="#eda80f" stroke-width="4.2857"/>
 <path d="m176.73 115.94 1.0707 1.8303-1.0707-1.8303" fill="#5faa40" stroke-width="4.2857"/>
 <path d="m184.01 113.25c0.53615 0.26563-0.1458 1.5268-0.40817 1.3948l0.40817-1.3948" fill="#5faa40" stroke-width="4.2857"/>
 <path d="m182.1 120.02 1.745 1.6514c0.22839-0.35944-1.2456-2.1983-1.745-1.6514" fill="#5faa40" stroke-width="4.2857"/>
 <path d="m179.59 117.01 0.36445 1.4262-0.36445-1.4262" fill="#5faa40" stroke-width="4.2857"/>
 <path d="m183.52 116.19c0.91359 1.9954 0.29319 2.6983-0.49243-0.0777l0.49243 0.0777" fill="#5faa40" stroke-width="4.2857"/>
 <path d="m181.75 113.97-0.1296-0.6651c1.8103-0.11824 1.5955-3.5405-0.92006-3.3931l-0.1458-0.56224c2.3013-0.72338 4.509 4.0937 1.2068 4.6204" fill="#fff" stroke-width="4.2857"/>
 <path d="m176.18 114.15c-0.31101-0.25024-0.27373-1.9731 1.0172-2.0177l0.0163-0.50001c-1.8926-0.047-2.1023 2.0308-1.4837 2.8817l0.4422-0.36399" fill="#fff" stroke-width="4.2857"/>
 <path d="m180.15 110.55c0.0107 0.82851-1.8309 0.99376-2.0069 0.0486-0.17821-0.94628 1.9932-0.87711 2.0069-0.0486" fill="#e92c31" stroke-width="4.2857"/>
 <path d="m182.92 117.71c0.65439 0.87256-0.53615 1.5469-1.0399 0.74965-0.50211-0.79662 0.41469-1.5892 1.0399-0.74965" fill="#e92c31" stroke-width="4.2857"/>
 <path d="m178.87 117.66c-0.65118 0.55769 0.91033 2.4148 1.5664 1.9794 0.81476-0.54231-1.035-2.4349-1.5664-1.9794" fill="#e92c31" stroke-width="4.2857"/>
 <path d="m179.3 115.21-0.52484 0.47314c0.0972 1.3188 1.3542 0.79435 1.1938 0.21655l-0.66901-0.68969" fill="#e92c31" stroke-width="4.2857"/>
 <path d="m182.39 114.73c-0.55723 0.69196 0.86011 1.8103 1.2391 1.3817l-1.2391-1.3817" fill="#e92c31" stroke-width="4.2857"/>
 <path d="m176.94 114.23c0.46166 0.74737-0.54262 1.7252-1.189 1.0692-0.64629-0.65665 0.81961-1.6743 1.189-1.0692" fill="#e92c31" stroke-width="4.2857"/>
 <path d="m189.84 119.71s-0.50284-1.44-0.69141-1.9891c-0.19428-0.54913-0.50859-1.1091-1.2857-1.7051-0.69716-0.53601-2.1034-1.4954-2.4006-0.97084-0.29198 0.51998 2.2692 2.5754 2.2692 2.5754l2.1086 2.0897" fill="#fab86d" stroke-width="4.2857"/>
 <path d="m183.28 113.45c0.78721 0.52058 2.5355 1.8594 3.2304 2.3954l0.49727 0.53147 1.2116 1.1852 0.65117 0.48223 1.1322 1.4526c2.3886 2.5206 4.2743 6.9844 11.206 13.263 2.9486 2.708 4.6856 3.3325 5.9028 7.4982-4.2629 2.8188-7.8399 5.5109-11.057 0.27197-4.6286-7.5355-5.3602-13.475-7.4456-16.85-0.1458-0.20974-0.93138-1.2657-2.7944-2.2703-2.08-1.1228-5.7656-3.7634-6.855-6.4576-1.0918-2.6982 2.5068-2.7028 4.3217-1.5023" fill="#fab86d" stroke-width="4.2857"/>
 <path d="m206.79 120.39c1.9029-5.3571 5.3143-8.4843 10.977-8.4843 2.0743 0 4.8116 1.5982 7.7713 4.2548-0.1377 1.4018 0.82852 1.8434 1.9257 1.8434 5.3143 5.4064 11.017 13.721 14.766 22.105-1.1486 0.1377-0.30857 1.772 0.58865 1.3703 2.1257 5.0537 3.4915 10.073 3.5772 14.44-6.2173 3.1851-25.08-0.47314-27.331-3.0268l0.17704-0.90852c1.2915-0.36398 1.1314-1.4354 0.38276-2.3011 1.1086-7.7789-0.91423-8.3793-2.9371-9.857-11.286-8.2748-10.503-15.364-9.8971-19.435" fill="#f8ca15" stroke-width="4.2857"/>
 <path d="m241.65 149.67c-1.9657 0-1.9657 2.5451 0 2.5451 1.6114 0 1.6114-2.5451 0-2.5451" fill="#eda80f" stroke-width="4.2857"/>
 <path d="m227.89 126.26c-1.2343-1.5245-3.2172 0.0745-1.9829 1.6 1.0171 1.2548 2.9943-0.34568 1.9829-1.6" fill="#eda80f" stroke-width="4.2857"/>
 <path d="m219.53 113.52c-1.2343-1.5245-3.2172 0.0745-1.9829 1.6005 1.0114 1.2544 2.9943-0.34568 1.9829-1.6005" fill="#eda80f" stroke-width="4.2857"/>
 <path d="m213.04 115.5c-1.2343-1.5268-3.2115 0.0745-1.9772 1.5983 1.0114 1.2544 2.9943-0.34341 1.9772-1.5983" fill="#eda80f" stroke-width="4.2857"/>
 <path d="m220.85 120.73c-1.2343-1.5245-3.2172 0.0745-1.9829 1.6005 1.0114 1.2542 2.9943-0.34633 1.9829-1.6005" fill="#eda80f" stroke-width="4.2857"/>
 <path d="m237.02 143.93c-0.78283-1.7988-3.12-0.78801-2.3429 1.0136 0.64565 1.48 2.9829 0.46859 2.3429-1.0136" fill="#eda80f" stroke-width="4.2857"/>
 <path d="m230.66 137.28c-0.77718-1.8017-3.1143-0.78801-2.3314 1.0109 0.63999 1.4777 2.9772 0.46684 2.3314-1.0109" fill="#eda80f" stroke-width="4.2857"/>
 <path d="m221.73 133.55c-0.78283-1.7989-3.12-0.78736-2.3372 1.0136 0.63999 1.48 2.9772 0.46632 2.3372-1.0136" fill="#eda80f" stroke-width="4.2857"/>
 <path d="m237.02 131.89c-0.78283-1.8017-3.12-0.78801-2.3429 1.0109 0.64565 1.48 2.9829 0.46911 2.3429-1.0109" fill="#eda80f" stroke-width="4.2857"/>
 <path d="m232.49 150.15c-0.77718-1.8011-3.1143-0.79028-2.3372 1.0109 0.64565 1.48 2.9772 0.46684 2.3372-1.0109" fill="#eda80f" stroke-width="4.2857"/>
 <path d="m240.4 141.79c-0.64565-1.4977 0.85719-2.4417 1.8343-1.6851l0.58864 1.3703c-0.18853 1.0514-1.8857 1.5446-2.4229 0.31487" fill="#eda80f" stroke-width="4.2857"/>
 <path d="m225.54 116.16c0.63433 0.56918 1.2743 1.1829 1.9257 1.8434-1.3257 1.5937-3.1886-0.73876-1.9257-1.8434" fill="#eda80f" stroke-width="4.2857"/>
 <path d="m221.37 151.05c6e-3 1.2011-1.4 1.516-2.1257 0.93089 0.1539-0.8303 0.2799-1.5914 0.38276-2.3011 0.74285-0.30566 1.7314 0.14738 1.7429 1.3703" fill="#eda80f" stroke-width="4.2857"/>
 <path d="m225.25 144.45c-0.0116-1.9623-2.56-1.9446-2.5486 0.018 0.0116 1.6114 2.5543 1.5937 2.5486-0.018" fill="#eda80f" stroke-width="4.2857"/>
 <path d="m215 134.65c-0.0116-1.9623-2.56-1.944-2.5486 0.0154 0.0116 1.6136 2.56 1.596 2.5486-0.0154" fill="#eda80f" stroke-width="4.2857"/>
 <path d="m217.77 111.9c-0.85137-1.4303-2.3029-3.2497-3.6-2.2143-3.5486 2.824-5.6229 4.3148-9.0228 7.4155-0.84571 0.77262-0.89722 1.9777 1.9143 3.2834 2.1714-3.5805 6.8859-6.7234 10.709-8.4844" fill="#eda80f" stroke-width="4.2857"/>
 <path d="m202.86 128.6c4.8973-5.9999 9.4685-11.477 13.406-8.2075 4.1829 3.4731 2.7143 6.5292-6.7886 17.283-4.377-0.89249-6.2173-3.984-6.6172-9.0758" fill="#eda80f" stroke-width="4.2857"/>
 <path d="m202.86 128.6c1.5372 3.904 3.5143 6.9531 6.6172 9.0758-0.72001 0.81492-1.5429 1.6811-2.36 2.5874-2.8743-1.6366-7.1829-5.1411-7.4058-8.9043 0.61149-0.74056 2.5429-2.0177 3.1486-2.7588" fill="#eda80f" stroke-width="4.2857"/>
 <path d="m148.18 139.86h7.308v-0.32576l-0.24133-0.19422-2.9372-1.1183v-3.0268c-0.0972-2.1697-1.4287-2.5737-1.0934 0v3.0268l-2.795 1.1183-0.24133 0.19422v0.32576" fill="#fff" fill-rule="evenodd" stroke-width="4.2857"/>
 <path d="m154.8 123.21c0.34016 1.2788 0.66249 3.2051 1.0043 4.4794v7e-3c-2.1297 0.97314-7.3616 1.3932-8.1382 0l0.852-4.4862h6.2812" fill="#fff" fill-rule="evenodd" stroke-width="4.2857"/>
 <path d="m155.8 127.69c0.24947 1.0737 0.18304 5.208-3.5046 7.5895-0.52968 0.21428-0.72082 0.11661-1.027 0.0107-3.964-2.752-3.7565-6.8104-3.6068-7.5938l8.1382-7e-3" fill="#4d8fb1" fill-rule="evenodd" stroke-width="4.2857"/>
 <path d="m156.77 138.86c0-0.2634-0.1134-0.78801 0.5637-0.78107l28.744-2e-3c0.63661 5e-3 0.55724 0.67431 0.55724 0.93771 0 0.26335 0.0326 0.84569-0.55882 0.84569h-28.748c-0.64954 0-0.5556-0.71434-0.5556-1.0001" fill="#fff" stroke-width="4.2857"/>
 <path d="m165.51 136.26c0.26563-1.1389 1.9936-1.1405 2.2611 0-0.7759 0.38177-1.5502 0.32104-2.2611 0" fill="#eda80f" stroke-width="4.2857"/>
 <path d="m173.32 136.26c0-1.275 2.6361-1.1251 2.6361 0-1.0302 0.33659-1.6206 0.36801-2.6361 0" fill="#eda80f" stroke-width="4.2857"/>
 <path d="m180.08 136.26c-0.0326-0.75934 1.5145-0.75711 1.5712 0-0.55723 0.0939-0.95731 0.11987-1.5712 0" fill="#eda80f" stroke-width="4.2857"/>
 <path d="m160.93 136.26h21.541l-0.1458 1.1246h-21.118l-0.27861-1.1246" fill="#f8ca15" stroke-width="4.2857"/>
 <path d="m158.26 138.15h26.855c1.2084 0 1.4595-2.7006-0.68357-2.9531-2.2059-0.25658-1.8618 2.0383-2.6698 2.0383h-20.061c-0.93948 0-0.40659-2.228-2.4932-2.096-2.5337 0.16037-2.0646 3.0108-0.94921 3.0108" fill="#eda80f" stroke-width="4.2857"/>
 <path d="m161.92 136.26c0.20409-0.40624 2.0361-0.58748 2.0361 0 0 0.58456-2.4577 0.83258-2.0361 0" fill="#eda80f" stroke-width="4.2857"/>
 <path d="m169.52 136.26c-0.081 0.55769 1.5064 0.43246 1.5064 0 0-0.43311-1.3768-0.97769-1.5064 0" fill="#eda80f" stroke-width="4.2857"/>
 <path d="m177.47 136.26c0 0.60676 1.8236 0.38794 1.7949 0-0.0486-0.54685-1.7949-1.1405-1.7949 0" fill="#eda80f" stroke-width="4.2857"/>
 <path d="m135.71 122.98-12.451 14.022 0.19599 0.43088h24.9l0.19277-0.43088-12.451-14.022h-0.38713" fill="#fff" stroke-width="4.2857"/>
 <path d="m129.48 135.24c-0.17747 0.0628-0.41649 0.0416-0.48305 0.2559-0.12351 0.21673-0.29125 0.42064-0.38751 0.64525v3.2004c0.18613 0.1659 0.34851 0.38914 0.5496 0.51895 4.5193-2e-3 9.039 5e-3 13.558-4e-3 0.23366-0.0167 0.29533-0.30343 0.44447-0.45154 0.102-0.17696 0.0197-0.41365 0.0462-0.61508v-2.6797c-0.29018-0.29018-0.58037-0.58037-0.87052-0.87051h-12.857z" fill="#65b3cc" stroke-width="4.2857"/>
 <path d="m118.98 128.7c1.3153 0 2.3863-1.0338 2.3863-2.3057 0-1.2725-1.0723-2.3126-2.3863-2.3126-1.312 0-2.3879 1.04-2.3879 2.3126 0 1.272 1.0756 2.3057 2.3879 2.3057" fill="#5faa40" fill-rule="evenodd" stroke-width="4.2857"/>
 <path d="m120.97 131c1.312 0 2.3863-1.0331 2.3863-2.3057 0-1.272-1.0739-2.3126-2.3863-2.3126-1.3169 0-2.3926 1.0406-2.3926 2.3126 0 1.2725 1.0756 2.3057 2.3926 2.3057" fill="#e92c31" fill-rule="evenodd" stroke-width="4.2857"/>
 <path d="m116.68 131.53c1.3201 0 2.3863-1.0376 2.3863-2.3126 0-1.272-1.0674-2.3126-2.3863-2.3126-1.3104 0-2.3886 1.0406-2.3886 2.3126 0 1.2748 1.0788 2.3126 2.3886 2.3126" fill="#4d8fb1" fill-rule="evenodd" stroke-width="4.2857"/>
 <path d="m117.82 138.69h1.6812v-3.812h-1.6812v3.812" fill="#e2eaef" fill-rule="evenodd" stroke-width="4.2857"/>
 <path d="m124.67 130.03c-0.53294 2.6851-1.6412 5.3258-6.0313 5.3125-4.3954-7e-3 -5.3773-3.6251-5.7386-5.4462l11.77 0.13444" fill="#fff" fill-rule="evenodd" stroke-width="4.2857"/>
 <path d="m113.55 139.87h9.9639v-0.30566c0-0.73426-0.60258-1.3326-1.3363-1.3326h-7.2905c-0.73376 0-1.3363 0.59836-1.3363 1.3326v0.30566" fill="#fff" fill-rule="evenodd" stroke-width="4.2857"/>
 <path d="m147.84 206.65c-1.5761 1.328-3.496 1.328-4.3325 0-1.3153-20.02-1.1922-37.491 0-61.517 0.95084-0.95082 2.5914-1.4086 4.3325 0 1.2586 23.812 1.2068 40.801 0 61.517" fill="#fff" stroke-width="4.2857"/>
 <path d="m152.17 206.65c1.5744 1.328 3.4931 1.328 4.3303 0 1.3153-20.02 1.1922-37.491 0-61.517-0.95084-0.95082-2.5916-1.4086-4.3303 0-1.2618 23.812-1.2084 40.801 0 61.517" fill="#fff" stroke-width="4.2857"/>
 <path d="m147.84 145.14v61.517c0.92328 1.2434 3.0016 1.672 4.3303 0v-61.517c-1.5275-1.5245-3.2257-1.1075-4.3303 0" fill="#fff" stroke-width="4.2857"/>
 <path d="m143.5 206.65c-0.83744 0.83712-1.5453 0.80117-1.8709 0v-61.517c0.426-0.6411 1.0334-0.83712 1.8709 0v61.517" fill="#fff" stroke-width="4.2857"/>
 <path d="m156.5 206.65c0.83743 0.83712 1.542 0.80117 1.8725 0v-61.517c-0.42926-0.6411-1.035-0.83712-1.8725 0v61.517" fill="#fff" stroke-width="4.2857"/>
 <path d="m169.95 206.65h-39.891c-1.0934 0-1.3266 0.67838-3.2881 3.3457h46.466c-1.9624-2.6674-2.1943-3.3457-3.2881-3.3457" fill="#e2eaef" stroke-width="4.2857"/>
 <path d="m194.05 142.31c-0.81151-1.4056-1.3023-2.6806-2.9657-2.6806h-82.17c-1.6629 0-2.1584 1.2748-2.9686 2.6806-0.83422 1.4445-1.4854 2.8308 0.0133 2.8308h88.072c1.4967 0 0.85201-1.3862 0.0163-2.8308" fill="#e2eaef" stroke-width="4.2857"/>
 <path d="m92.328 203.97c0.0648-15.562-0.01328-18.995 0.18304-30.694-5.0953 6.4015-6.5002 11.395-7.2099 22.129l0.83096 8.7633c2.784 1.4395 4.3346 1.312 6.1968-0.1989" fill="#c52629" stroke-width="4.2857"/>
 <path d="m82.651 169.67c0.84553-8.9909-2.7995-21.104-0.71919-28.957 3.1782-3.6097 6.0086-6.1881 8.9756-7.5582 1.2538 0.56451 2.4885 1.1828 3.6559 1.8594l-1.1436 29.823c-0.29482 11.388-3.5308 17.223-10.81 38.169-1.3234 0.29709-2.335 0.35019-3.1852 0.15874 0-5.1544 2.7234-28.143 3.2257-33.496" fill="#e92c31" stroke-width="4.2857"/>
 <path d="m81.931 140.71c-1.2003-3.6388-0.68516-7.0696 1.7206-10.114 2.3395 0.59836 4.8395 1.4714 7.2549 2.556-1.3833 3.4262-4.0806 6.1358-8.9756 7.5582" fill="#c52629" stroke-width="4.2857"/>
 <path d="m78.892 161.39c-2.2567-13.79-6.5109-26.355-2.3458-31.712 1.884-0.11662 4.3865 0.21882 7.107 0.91486-4.7589 11.092 1.96 27.359 0.79693 39.752-0.50375 5.3524-4.268 28.236-5.0246 32.815-1.1776-0.2679-2.0491-1.0114-3.0132-2.2771 0.85042-9.9616 1.8903-15.897 2.8389-27.821 0.47944-6.0359 0.72082-5.076-0.35962-11.672" fill="#e92c31" stroke-width="4.2857"/>
 <path d="m88.728 210h12.755c0.44221-5.3571-4.9955-3.0177-9.1543-6.0355-1.884 0.39716-3.0715 0.49324-6.1968 0.1989l2.5959 5.8366" fill="#21201f" stroke-width="4.2857"/>
 <path d="m88.728 210h-4.8635c-1.1727 0-0.97513-0.0534-10.167-4.0754 0.18467-1.6788 1.6052-3.7656 2.7166-5.0382 2 1.4531 2.8143 1.7903 6.198 2.1183 0 0 0.60095 1.0406 2.7566 1.7211 3.9133 1.2297 3.0161 1.4624 3.3595 5.2744" fill="#363536" stroke-width="4.2857"/>
 <path d="m96.485 86.401c-1.2389-2.0782-1.0651-3.9531-1.0651-5.9155-1.3749-3.0783-3.136-3.2566-6.5739-2.2588-0.27887 1.58-0.87258 2.4286-1.7452 3.3771 3.4017 3.3257 5.5247 4.605 9.3841 4.797" fill="#f4a75c" stroke-width="4.2857"/>
 <path d="m107.2 101.14s3.696-0.8777 5.1669-2.4l0.94231 0.97143 0.53542 2.9348s-3.0914 1.4754-3.9303 3.076c0 0-3.344-2.9577-2.7143-4.5822" fill="#f4a75c" stroke-width="4.2857"/>
 <path d="m115.24 102.04s-0.48228 1.4731-1.6675 0.38799c-1.1851-1.0868-1.8617-3.8457-0.98002-4.7695 0.94857-0.9914 1.8194-0.94229 1.8194-0.94229l3.4332 3.7057-2.6052 1.6183" fill="#f4a75c" stroke-width="4.2857"/>
 <path d="m115.75 100.06-0.95731 0.33707 0.87309 2.368c0.38392 0.43311 0.88441 0.25658 0.89088-0.3126-0.33531-0.98403-0.47297-1.4086-0.80503-2.3926" fill="#35393d" fill-rule="evenodd" stroke-width="4.2857"/>
 <path d="m116.44 103.54 0.1296 0.17139 5e-3 0.21882-0.1296-0.17365-5e-3 -0.21656" fill="#21201f" fill-rule="evenodd" stroke-width="4.2857"/>
 <path d="m116.63 103.71-0.25269 0.0875-0.71919-1.0268 0.89088-0.3126 0.081 1.2526" fill="#bfc4c9" fill-rule="evenodd" stroke-width="4.2857"/>
 <path d="m113.56 93.879-0.95568 0.33432-0.0648-0.19144 0.95731-0.33252 0.0648 0.18968" fill="#35393d" fill-rule="evenodd" stroke-width="4.2857"/>
 <path d="m113.66 94.132c-0.17005 0.42861-0.37903 0.63141-0.95893 0.33951l-0.1458-0.45145 0.95246-0.33432 0.162 0.44627" fill="#bfc4c9" fill-rule="evenodd" stroke-width="4.2857"/>
 <path d="m113.66 94.132-0.95893 0.33951c0.53615 1.5155 1.4481 4.1022 1.9817 5.6198l0.96541-0.32104-1.9869-5.6382" fill="#35393d" fill-rule="evenodd" stroke-width="4.2857"/>
 <path d="m114.68 100.11 0.96056-0.33707 0.0972 0.29027-0.95731 0.33707-0.1134-0.29027" fill="#e2eaef" fill-rule="evenodd" stroke-width="4.2857"/>
 <path d="m114.53 96.622s2.3594-0.49315 3.304 0.31487c1.0109 0.86626 2.2206 2.1274 1.1 5.0335-0.252 0.6537-0.92173 1.0508-1.6114 0.91714l-1.1251-0.66287c-1.02-1.0851-0.71431-2.5537-0.60686-3.5091l-0.22342-0.55144-0.36171-0.18973-0.47542-1.3526" fill="#f4a75c" stroke-width="4.2857"/>
 <path d="m134.22 97.766-6.3373-5.2341-0.48917 0.081-0.41469 0.67366c2.3879 1.98 4.2206 3.0406 7.2412 4.4798" fill="#eda80f" stroke-width="4.2857"/>
 <path d="m125.75 111.46-8.3105-5.1428-0.1296-0.52692 8.0692-13.04 0.52967-0.12471 8.3105 5.1407 0.1296 0.53147-8.0692 13.037-0.5313 0.12472" fill="#f8ca15" stroke-width="4.2857"/>
 <path d="m113.83 101.04s6.7059-2.7857 7.7812-2.2611c1.0788 0.52465 4.0338 1.1875 4.2126 2.5937 0.1782 1.4063-1.643 3.8571-3.3818 4.5355-1.7389 0.67885-2.3194-0.14902-3.0652-0.97769-0.74349-0.82577-1.3234-0.0794-1.8211 0.0826l-2.8977 1.712-0.8277-5.6849" fill="#fab86d" stroke-width="4.2857"/>
 <path d="m111.7 100.93c-0.31586-0.68112-0.52158-1.0652-1.2651-1.2903-3.0778 1.3457-6.3326 3.1045-7.149 1.4822 0 0-3.0046 2.9125-1.3493 4.0331 1.6611 1.1183 8.0559-1.3457 9.7633-4.2251" fill="#bfc4c9" stroke-width="4.2857"/>
 <path d="m85.998 82.548c3.692 0.77716 7.7679 2.576 10.489 3.8554 5.292 11.069 8.3122 12.259 6.0755 17.27-3.9595 8.8572-3.7297 18.866-7.9976 31.339-6.3635-0.89314-11.156-2.4868-18.018-5.3301 8.9289-23.899-0.50053-37.942 9.4509-47.134" fill="#e2eaef" stroke-width="4.2857"/>
 <path d="m88.21 86.324c-6.8435 3.1028-1.2521 9.473 7.1568 24.185 1.1209 1.9577 1.8388 4.7567 7.0646 3.1182 4.6513-1.4599 9.2611-3.5314 14.485-7.0354-0.55561-2.612-1.3509-5.1672-3.7166-6.3706-12.241 5.7612-10.257 5.3417-12.876 0.65425-5.3413-9.5583-7.0668-16.839-12.114-14.551" fill="#bfc4c9" stroke-width="4.2857"/>
 <path d="m96.704 90.318c-7.7388-7.6028-8.6092-4.9624-10.707-7.7725l1.1047-0.94173c2.5246 0.66509 7.1876 2.748 9.3841 4.797 0.52805 1.7874 0.53293 2.2565 0.21866 3.9171" fill="#bfc4c9" stroke-width="4.2857"/>
 <path d="m103.47 68.298 0.1296 0.07453-0.0326-0.11987-0.0972 0.04697-0.16521-0.09073-5e-3 -0.02443 0.22839-0.08747-0.0972-0.35018c3.3258-1.2881 6.4415-2.2234 8.6606-1.6497l0.081 0.12797 0.41791 0.08747 0.20571 0.1743 0.37582 0.2679c0.23486 3.5223-6.3082 5.0712-10.625 1.9685l0.91681-0.4218" fill="#c52629" stroke-width="4.2857"/>
 <path d="m87.31 75.704s-2.5982-2.232-2.5982-5.2632c0-3.0314 4.4777-5.9309 7.1362-6.0629 2.6605-0.13123 6.3018-3.9548 8.8171-3.4263 2.5201 0.52692 4.1292 0.39312 4.779 3.6611 0.58474 2.9348 0.162 11.406-3.0846 15.346-1.0707 1.3012-2.7703 2.0068-4.5159 1.9085-2.2052-0.12313-5.52-0.78351-8.6002-3.268-0.65602-0.52692-1.163-1.2006-1.5048-1.9486l-0.42926-0.94628" fill="#fab86d" stroke-width="4.2857"/>
 <path d="m88.21 77.478s2.1207-1.4309 2.4709-2.9331c0 0-3.0086 0.45548-2.4709-3.1582 0.53778-3.6114 2.4709-1.6783 2.4709-1.6783s1.4886-5.4492 5.3173-5.7994c3.8234-0.35262 5.8196 4.92 5.8196 4.92s1.5226-2.3908 1.1695-3.3063c0 0 1.9326 2.6029 1.5826 4.1857 0 0 3.2521-2.6183 1.0982-8.5161-2.1544-5.8949-11.446-9.0578-17.522-3.9617s-5.5715 18.528 0.0648 20.247" fill="#363536" stroke-width="4.2857"/>
 <path d="m87.078 58.283s-2.288 0.1134-3.2994 1.7297c-1.0091 1.6136 1.4514 12.323-5.7545 15.491 0 0 1.406-6.2519-0.70625-9.9775-2.1069-3.7228-0.51995-16.56 9.7595-10.846v3.6028" fill="#363536" stroke-width="4.2857"/>
 <path d="m84.712 59.067 2.3662-4.3885s1.808 0.80116 2.2651 1.676l-3.4886 3.6565-1.1436-0.944" fill="#4d8fb1" stroke-width="4.2857"/>
 <path d="m107.26 65.38c-4.0782-0.87256-8.328 0.73036-13.672 1.6451 0 0 1.6252 0.45321 3.1251 1.0828 2.2188 0.93316 5.2187 2.2789 7.6873 1.6474 2.3886-0.33025 6.5156-3.3548 8.7703-3.0023-0.45356-1.0159-2.8372-1.0629-5.9109-1.3731" fill="#e92c31" stroke-width="4.2857"/>
 <path d="m94.96 63.203c3.7296 0.45548 8.8213-0.48222 10.971-1.268 0.66249 0.75484 1.4692 2.7925 1.3299 3.4462-3.6159 1.4332-8.5153 2.4491-13.67 1.6451-2.4241-0.3771-7.5155-2.6782-9.0871-3.8057 0.24459-1.6068 0.59769-2.252 1.359-3.2074 1.8926 1.2252 5.3705 2.7343 9.0961 3.1897" fill="#c52629" stroke-width="4.2857"/>
 <path d="m150 0.0017725c-18.375 0-36.746 7.0388-50.825 21.118l-11.166 11.166v7.2068h116.24v-14.95l-3.4236-3.4235c-14.08-14.08-32.451-21.118-50.825-21.118z" fill="#f68d11" stroke-width="6.9651"/>
</svg>
