<svg width="300" height="300" version="1.1" viewBox="0 0 300 300" xmlns="http://www.w3.org/2000/svg">
 <path d="m28.292 208 2 2h8e-3l68.875 68.883c14.08 14.08 32.454 21.117 50.826 21.117 18.373 0 36.751-7.0376 50.828-21.117l68.883-68.883s1.905-1.9048 2-2z" fill="#141c23" stroke-width="0"/>
 <path d="m150-2.6e-6c-18.375 0-36.75 7.0395-50.83 21.119l-78.053 78.053c-28.16 28.159-28.16 73.499 0 101.66l9.172 9.168h239.42s-2e-3 -2e-3 9.172-9.168c28.16-28.159 28.16-73.499 0-101.66l-78.053-78.053c-14.08-14.08-32.453-21.119-50.828-21.119z" fill="#ef3053" stroke-width="4.2857"/>
 <path d="m197.68 129.2h4.6676v77.459h-4.6676v-77.459" fill="#141c23" fill-rule="evenodd" stroke-width="4.2857"/>
 <path d="m252.43 129.2h-4.665v77.459h4.665v-77.459" fill="#141c23" fill-rule="evenodd" stroke-width="4.2857"/>
 <path d="m193.64 126.9h62.379l0.20748 0.21137v4.56l-0.20748 0.24574h-62.379l-0.21026-0.24574v-4.56l0.21026-0.21137" fill="#16252f" fill-rule="evenodd" stroke-width="4.2857"/>
 <path d="m193.88 204.98h62.345l0.24348 0.14254v4.7365l-0.24348 0.14254h-62.345l-0.24283-0.14254v-4.7365l0.24283-0.14254" fill="#16252f" fill-rule="evenodd" stroke-width="4.2857"/>
 <path d="m211.02 98.932c-6.6343 20.634-6.6343 50.725 0 71.352 7.5108 23.531 20.558 23.531 28.072 0 6.6339-20.628 6.6339-50.721 0-71.352-7.5138-23.525-20.561-23.525-28.072 0" fill="#a3e1ed" fill-rule="evenodd" stroke-width="4.2857"/>
 <path d="m212.56 174.6-3.1543-5.7428 0.75485-1.4171c0.27197 0.96573 0.55997 1.92 0.85946 2.8514 0.4908 1.5372 1.004 2.9714 1.54 4.3084m31.199-49.405c-0.37937-5.7826-1.1142-11.44-2.1989-16.737l2.0646-3.88 0.88166 19.114-0.74739 1.5028" fill="#b2e6ef" stroke-width="4.2857"/>
 <path d="m216.02 180.9-3.46-6.3029c-0.53598-1.3371-1.0492-2.7714-1.54-4.3084-0.29949-0.93136-0.58749-1.8857-0.85947-2.8514l31.399-58.984c1.0846 5.2971 1.8195 10.954 2.1989 16.737l-27.739 55.709" fill="#d0eff6" stroke-width="4.2857"/>
 <path d="m208.02 158.01-2.8012-6.1885 1.5223-3.0685c0.31714 3.1542 0.74349 6.2571 1.2788 9.257m31.531-57.587c-0.15064-0.49709-0.30566-1.0001-0.46406-1.4915-1.0492-3.2857-2.208-6.1144-3.4446-8.4856l0.88637-1.7885 4.2657 9.3483-1.2434 2.4171" fill="#a5e1ed" stroke-width="4.2857"/>
 <path d="m208.94 160.05-0.92007-2.0343c-0.5355-3-0.96167-6.1028-1.2788-9.257l28.902-58.307c1.2366 2.3714 2.3954 5.1998 3.4446 8.4856 0.15875 0.49144 0.31265 0.99423 0.46406 1.4915l-30.612 59.622" fill="#c5ecf3" stroke-width="4.2857"/>
 <path d="m211.2 99.408c-6.5469 20.36-6.5469 50.052 0 70.409 7.413 23.217 20.288 23.217 27.701 0 6.5469-20.36 6.5469-50.052 0-70.409-7.4126-23.217-20.287-23.217-27.701 0zm-4.4846-1.4115c2.6029-8.0626 8.172-20.686 18.335-20.686s15.732 12.623 18.335 20.686c6.7993 21.337 6.7993 51.895 0 73.234-2.6029 8.0626-8.172 20.686-18.335 20.686s-15.732-12.623-18.335-20.686c-6.7989-21.337-6.7989-51.895 0-73.234" fill="#16252f" fill-rule="evenodd" stroke-width="4.2857"/>
 <path d="m126.88 203.78v-24h-6.6005v24c0 0.50378-0.37496 0.91284-0.87875 0.94336-8.2668 0.43928-11.252 2.1059-13.14 4.3371-0.31264 0.37851 0.0634 0.94336 0.53551 0.94336h33.569c0.47105 0 0.85025-0.56485 0.53336-0.94336-1.9167-2.2311-4.8712-3.8977-13.138-4.3371-0.50276-0.0304-0.88085-0.43967-0.88085-0.94336" fill="#c2ac89" fill-rule="evenodd" stroke-width="4.2857"/>
 <path d="m139.49 110.92c12.292-3.1111 15.246 3.8042 14.365 10.403-0.81643 6.3488-5.3752 11.19-6.318 18.953-0.78579 6.4126 0.15737 9.0531 2.6722 8.1419 0.72347-0.25191 1.3521-0.18925 1.8544 0.0623 1.3506 0.84843 2.0113 3.3313 1.6968 4.9658-7.638 37.152-52.963 37.341-60.193 0-0.31367-1.6346 0.31474-3.6779 1.6972-4.9337 0.50379-0.28389 1.1323-0.34654 1.8544-0.0951 2.5471 0.91096 3.4902-1.7292 2.7029-8.1419-0.94316-7.7635-5.5003-12.604-6.3493-18.953-0.8481-6.5986 2.1064-13.514 14.364-10.403 11.977 3.018 19.708 3.018 31.652 0" fill="#c2ac89" fill-rule="evenodd" stroke-width="4.2857"/>
 <path d="m141.88 158.39c3.6138 0 4.7139 2.2937 5.6876 4.3692-9.9305 21.436-37.844 21.436-47.807 0 0.97483-2.0757 2.0754-4.3692 5.6893-4.3692h36.43" fill="#f5f2e9" fill-rule="evenodd" stroke-width="4.2857"/>
 <path d="m95.298 149.11c-0.06339-0.34611 0.06339-0.66064-0.03171-0.59653-1.604 0.75381-2.0433 3.5191-1.7598 4.9658 6.8508 38.032 53.465 38.032 60.347 0 0.25136-1.4468-0.18904-4.2442-1.7915-4.998l-0.0317 0.47168c-4.6518 32.563-49.882 34.354-56.735 0.15686" fill="#e2d4bd" fill-rule="evenodd" stroke-width="4.2857"/>
 <path d="m156.54 145.79s1.3902 1.4423 2.5646 1.6606c1.1759 0.21981 1.4979-0.0381 3.0434 1.0422 1.547 1.0798 4.4336 2.4844 4.755 3.6618 0.32155 1.1759 1.23 3.0038 0.85736 3.4595-0.3741 0.45569-1.0727 0.69861-1.3201-0.23584-0.24741-0.93445-0.85886-2.2601-2.1849-2.9647-1.3257-0.70307-0.81189-0.0611-1.8976-0.29996-1.0846-0.23695-4.4044-0.37371-4.8223-0.56746-0.41769-0.19226-1.9342-1.7959-2.8336-2.9197l1.838-2.8366" fill="#f0c099" stroke-width="4.2857"/>
 <path d="m157.53 151.54s1.888 0.91251 2.8441 0.99111c0.95584 0.0771 3.17 0.96796 3.5221 0.42214 0.35384-0.54583 0.021-0.99111-0.75729-1.3421-0.78051-0.35065-1.3201-0.35211-2.476-1.0813 0 0-4.0344-1.6651-3.1336 1.0101" fill="#f0c099" stroke-width="4.2857"/>
 <path d="m119.62 111.06c1.1088-1.9598 1.7728-4.0017 2.1175-6.2931 2.3958-1.6953 5.2877-1.468 7.7709 0.6632 0.0656 2.9509 0.5589 4.8287 1.4654 6.8408 0.69305 4.2699-10.6 5.7899-11.354-1.2109" fill="#f0c099" stroke-width="4.2857"/>
 <path d="m108.93 148.68c0.41615-7.5184 0.40453-25.764-1.7248-33.983 3.6314-1.0694 7.3183-2.5076 11.666-4.7657 1.9923 3.2155 3.1087 4.1358 7.5073 5.6785 2.6474-0.88307 4.3359-2.0716 5.883-4.4635 2.3332 1.0172 4.058 1.8294 7.1015 3.249 0.50803 10.244 1.1163 16.737 1.4204 32.358-10.653 1.7247-22.723 1.8265-31.853 1.9267" fill="#76d2e6" stroke-width="4.2857"/>
 <path d="m139.36 114.39c7.4053 3.7781 7.4825 16.788 10.636 21.358 4.4452 6.4401 4.3779 5.4728 7.9526 11.178l-1.035 2.4248c-8.1566-2.211-13.117-5.1638-16.319-10.032-3.1876-6.6951-3.416-18.791-1.2355-24.928" fill="#fff" stroke-width="4.2857"/>
 <path d="m117.78 149.63c-1.294 1.588-7.6063 2.0276-8.7909-0.20532-3.3009-0.49333-6.6528-1.4758-8.7836-3.1801-1.9432-1.5544 0.72138-30.015 6.999-31.55 5.7052 4.0836 2.435 17.563 2.435 24.753 4.8116 0.22834 6.771 0.71018 12.629 3.0679 0.41931 2.9677-1.4584 4.9602-4.4889 7.1142" fill="#fff" stroke-width="4.2857"/>
 <path d="m118.87 109.93c0.0424-0.61109 0.20915-2.9248 0.66644-2.4219 1.7098 1.889 3.1858 3.3049 5.202 4.6127 0.60836 0.39488 0.45943 0.98742 0.57352 3.1-2.7394 0.76383-6.9236-2.9845-6.4419-5.2907" fill="#fff" stroke-width="4.2857"/>
 <path d="m127.18 115.32c0.2313-2.0344 0.13834-2.5672 0.57454-2.9136 1.8019-1.4308 2.6183-2.3511 3.1626-3.67 0.34325-0.8309 1.1688 1.5127 1.3506 2.407-0.53863 2.7534-3.5251 4.0389-5.088 4.1768" fill="#fff" stroke-width="4.2857"/>
 <path d="m134.32 156.27c14.973 11.203 14.118 10.32 14.118 13.403 0 0.0317 1.9722 29.596 2.2066 31.726 3.5251 1.7758 7.2275 2.0552 9.3584-0.076 0 0 0.67809-19.796 1.2165-29.139 0.35701-6.1799 0.93897-8.3686-3.5278-11.831 0 0-14.579-9.7006-19.905-9.9273-5.3255-0.22877-3.467 5.8448-3.467 5.8448" fill="#141c23" stroke-width="4.2857"/>
 <path d="m168.96 208.18c-0.63686-4.2688-5.283-6.7624-8.9482-6.8511-3.5878 0.36552-5.7785 0.41918-9.3583 0.076-0.70132 3.1045-0.98967 4.659-0.89247 6.7636 6.5786 0.85581 11.616 1.0622 19.199 0.0116" fill="#a2a395" stroke-width="4.2857"/>
 <path d="m149.76 208.17c-0.46577 0.63158-0.36969 1.2195 0.15737 1.8339h19.071c0.49324-0.71459 0.4626-1.2459-0.0317-1.8224-7.1795 0.38116-12.21 0.29245-19.199-0.0116" fill="#b4b5a6" stroke-width="4.2857"/>
 <path d="m168.59 155.84c-10.554-5.0181-22.286-13.723-34.6-20.244-3.8672-2.0478-8.2453 2.4979-11.716 6.9235-1.9025 2.588-2.3581 3.3854-4.4889 7.1142-1.876 0.29246-5.3079 0.31149-8.7956-0.20931 0.29678 3.1711 2.0639 15.489 11.61 15.489 9.8405 0 9.4972-3.3984 15.622-11.159 10.6 3.3794 19.209 5.8842 29.952 9.1898 2.0914-2.2851 2.8266-4.1045 2.4174-7.1044" fill="#16252f" stroke-width="4.2857"/>
 <path d="m170.72 167.18c1.6477-2.9446 3.2007-7.8886 3.8572-11.556-10.611-3.0389-11.242 9.6436-3.8572 11.556" fill="#a2a395" stroke-width="4.2857"/>
 <path d="m176.35 156.23c-0.44255-0.4002-1.0361-0.62146-1.7784-0.59802-1.3465 3.3924-3.0274 8.2915-3.8572 11.556 0.62315 0.33904 1.1718 0.58795 1.8891 0.31705l3.7465-11.276" fill="#b4b5a6" stroke-width="4.2857"/>
 <path d="m134.12 95.344s1.9535-1.1886 2.3697 0.74892c0.41469 1.9412-2.3492 7.1502-2.3753 4.7914-7e-3 -0.70045-1.2836-4.7914 6e-3 -5.5405" fill="#fbcaa0" stroke-width="4.2857"/>
 <path d="m116.89 95.344s-1.955-1.1886-2.3697 0.74892c-0.41619 1.9412 2.3492 7.1502 2.3738 4.7914 7e-3 -0.70045 1.2855-4.7914-4e-3 -5.5405" fill="#fbcaa0" stroke-width="4.2857"/>
 <path d="m119.5 87.87s-2.0769 0.69308-2.2151 2.0791c-0.13941 1.3823-1.8414 14.013 1.1062 15.783 3.5322 2.1238 7.4795 6.0955 11.217 2.6342 3.739-3.4651 4.8468-3.4651 4.8468-6.5091 0-1.1327 0.0107-2.7609-0.0424-4.5715-0.0424-1.5463 0.77627-3.9122 0.5904-5.5217-0.18377-1.5872-1.224-4.3482-1.5706-4.9555l-13.939 1.0619" fill="#fbcaa0" stroke-width="4.2857"/>
 <path d="m117.28 89.949s-3.058-5.1342-0.48797-6.9265c2.9793-2.0753 6.6909-1.889 12.673-0.77871 2.2981 0.4248 5.8158 0.92035 5.8158 0.92035s3.3244 7.4781-0.83122 14.125c0 0-0.41508-8.5881-1.246-9.419 0 0-5.4 2.0753-11.494 1.8667 0 0-3.6008-0.76011-4.4302 0.2124" fill="#141c23" stroke-width="4.2857"/>
 <path d="m116.8 97.286s-5.337-9.635-1.0404-11.051l2.0813 1.6319v6.2297l-1.0403 3.1894" fill="#141c23" stroke-width="4.2857"/>
 <path d="m76.514 183.27c-0.3531-4.692-0.79372-10.055-1.5534-17.77 3.596-1.7726 5.3477-1.3394 7.7499 1.6783 0.1296 6.1941-0.0094 8.9043 0 16.154-1.4659 1.3883-5.2166 1.5044-6.1968-0.0632" fill="#fbcaa0" stroke-width="4.2857"/>
 <path d="m77.568 204.19c1.6697 0.56026 2.9847 0.788 5.2436 0.27454 0.01071 1.7366 0.03257 3.5714 0.0486 5.5358h-12.413c-0.67385-4.8394 1.5745-5.8504 7.125-5.8101" fill="#76d2e6" stroke-width="4.2857"/>
 <path d="m77.568 204.19c-0.1296-3.4687-0.23164-6.4062-0.35473-9.1538 2.0092-1.0178 3.5645-1.1719 5.5355-0.0133 0.01371 2.7322 0.03257 5.8572 0.0648 9.4418-1.1938 2.1986-5.172 1.7187-5.2436-0.27454" fill="#76d2e6" stroke-width="4.2857"/>
 <path d="m77.019 191.11c-0.0648-1.2968-0.1458-2.5893-0.23164-3.9196 2.0777-0.9197 3.6961-0.99552 5.9285 0.0339 0.0023 1.1897 0.0064 2.4799 0.01072 3.8928-2.0087 1.038-3.451 1.1942-5.7077-7e-3" fill="#76d2e6" stroke-width="4.2857"/>
 <path d="m76.788 187.2c-0.081-1.2634-0.17169-2.5602-0.27699-3.9263 2.3732 0.1764 4.0445 0.25221 6.1968 0.0632 0.0023 1.1719 0.0047 2.4576 9e-3 3.8973-2.0805 0.18969-3.7034 0.12797-5.9285-0.0339" fill="#76d2e6" stroke-width="4.2857"/>
 <path d="m77.212 195.03c-0.0648-1.3371-0.1296-2.6295-0.19114-3.9152 2.1069 0.14901 3.6898 0.19423 5.7077 7e-3 0.0069 1.2098 0.01157 2.5022 0.01629 3.895-1.9708 0.18304-3.5263 0.14901-5.5355 0.0133" fill="#76d2e6" stroke-width="4.2857"/>
 <path d="m91.595 183.27c0.35473-4.692 0.79693-10.154 1.5534-17.868-3.5961-1.7726-5.4065-1.2343-7.8103 1.788-0.1296 6.1898 0.0648 8.8928 0.0648 16.143 1.4659 1.3883 5.2166 1.5044 6.1968-0.0632" fill="#fbcaa0" stroke-width="4.2857"/>
 <path d="m90.541 204.19c-1.6697 0.56026-2.9845 0.788-5.241 0.27454-0.01329 1.7366-0.03257 3.5714-0.0486 5.5358h12.413c0.67385-4.8394-1.5761-5.8504-7.1276-5.8101" fill="#76d2e6" stroke-width="4.2857"/>
 <path d="m90.541 204.19c0.1296-3.4687 0.23486-6.4062 0.35636-9.1538-2.0108-1.0178-3.5668-1.1719-5.5355-0.0133-0.01586 2.7322-0.03257 5.8572-0.0648 9.4418 1.1922 2.1986 5.1699 1.7187 5.241-0.27454" fill="#76d2e6" stroke-width="4.2857"/>
 <path d="m91.089 191.11c0.0648-1.2968 0.1458-2.5893 0.23164-3.9196-2.0777-0.9197-3.6937-0.99552-5.9263 0.0339-0.0047 1.1897-0.0064 2.4799-0.01329 3.8928 2.0108 1.038 3.4508 1.1942 5.7073-7e-3" fill="#76d2e6" stroke-width="4.2857"/>
 <path d="m91.321 187.2c0.081-1.2634 0.17494-2.5602 0.27699-3.9263-2.3709 0.1764-4.0424 0.25221-6.1968 0.0632 0 1.1719-0.0023 2.4576-0.0069 3.8973 2.0806 0.18969 3.7011 0.12797 5.9263-0.0339" fill="#76d2e6" stroke-width="4.2857"/>
 <path d="m90.897 195.03c0.0648-1.3371 0.1296-2.6295 0.18952-3.9152-2.1046 0.14901-3.6898 0.19423-5.7073 7e-3 -0.0047 1.2098-0.01157 2.5022-0.01629 3.895 1.9686 0.18304 3.5246 0.14901 5.5355 0.0133" fill="#76d2e6" stroke-width="4.2857"/>
 <path d="m62.636 132.62c-0.08687 1.1606-0.33257 2.096-0.42399 2.348-0.19659 0.51998-2.6806 3.7257-2.0914 5.4218 0.56688 1.6406 1.2543 3.2811 4.2926 3.864l0.72742-0.0623c0.45545-0.17884 1.0783-0.52058 0.40402-0.92626-0.98002-0.58971-2.0269-0.78398-2.0269-0.78398l-0.5823-1.2389c-0.33086-0.33257 0.38799-3.5308 0.5823-4.3144 0.19659-0.78342 1.1606-1.0914 1.3726-1.6343 0.35087-0.89026 5.4399-20.502 5.4399-20.502l-4.4439-1.2182s-3.0023 15.739-3.2503 19.047" fill="#fbcaa0" stroke-width="4.2857"/>
 <path d="m64.891 135.3s0.19599 2.6051-0.32559 3.4623c-0.52157 0.85251-0.71919 1.2566-0.85038 1.904-0.1296 0.64516-0.39039 1.4954-0.91518 1.2965-0.52157-0.19372-0.58638-1.1714-0.39039-1.6291l0.32559-1.6851c0-0.40624-0.26079-0.86172 0-1.7143 0.26079-0.85088 1.4384-1.7657 2.156-1.6343" fill="#fbcaa0" stroke-width="4.2857"/>
 <path d="m101.55 112.3c0.52685 0.52457 0.78117-1.0177 2.7589-4.5998 0.78116-1.4177 1.192-2.096 1.556-2.6742l-5e-3 -7e-3 2.1292-3.5714 0.47143-0.84342 0.6537-1.6988c0.288-0.75428 0.73659-1.4331 1.3149-2l0.36171-0.348 0.0537 0.05773c0.56229-0.81256 1.0377-1.3148 1.2897-1.1828 0.50229-0.97083 1.0629-2.2925 1.0092-3.7548l0.51771-0.84569c0.3303-0.12514 0.77028-0.06913 1.212 0.67426 0.88629 1.48 1.6206 4.2342-0.73886 8.1136 0 0-0.1983 0.61829-1.1314 1.4977l-1.152 0.99312c-4.1092 3.5046-4.3882 11.703-9.2675 17.739-2.748 3.3994-3.9938 0.0446-6.009-3.6628 1.2006-2.52 2.2075-3.4354 4.9753-3.8862" fill="#efc098" stroke-width="4.2857"/>
 <path d="m117.95 86.81-5.3619 10.799-2.5514-1.308 5.4755-10.766c1.0026 0.1539 1.6629 0.35944 2.4376 1.2748" fill="#f5f2e9" stroke-width="4.2857"/>
 <path d="m108.26 101.12s0.25269-1.9931 0.21056-2.9777c-0.0486-1.0337 0.58475-1.8725 1.1047-2.5937l0.73218 0.05833 0.44867 1.0914-2.4955 4.4215" fill="#efc098" stroke-width="4.2857"/>
 <path d="m75.759 112.33c-0.41953-1.9646-1.1031-4.0622-1.7052-6.1075-1.4514 3.228-1.8863 5.3532-3.0982 9.2969-3.3018 0.65197-4.569-0.42861-6.1496-1.7503 4.1184-15.491 2.8393-21.421 10.131-22.872 3.3418 0.78106 5.1789 6.1829 9.1166 12.495 0.51348 2.3325 0.86983 6.2121 1.1047 9.8708-3.1474 0.0373-6.4663 0.14738-9.3995-0.93316" fill="#94dac5" stroke-width="4.2857"/>
 <path d="m87.374 90.47c-0.56688-1.2566-0.94629-1.8971-1.1069-3.1942-1.688-0.63372-3.2235-0.71429-5.2303 0-0.1497 1.3486-0.2943 2.0223-0.70059 3.1942-1.8532 5.3708 9.2499 4.9084 7.0376 0" fill="#efc098" stroke-width="4.2857"/>
 <path d="m84.057 103.4c3.9373-6.3124 5.5423-11.205 8.8835-11.993 7.2926 1.4508 4.4893 5.4107 8.6075 20.897-0.37419 1.4977-3.4662 4.2457-5.7167 3.8754-1.2116-3.9445-1.7988-5.8529-3.0737-9.1563-0.40817 2.212-1.1306 3.7726-1.6336 5.3035-2.4179 0.77716-4.8643 0.87548-7.0672 0.88636v-9.8125" fill="#94dac5" stroke-width="4.2857"/>
 <path d="m76.998 90.62c0.60742-0.05181 2.656-0.13118 3.3595-0.14738 0 3.6274 6.087 4.0291 7.0355 0 1.278 0.27488 2.8818 0.60059 3.4892 0.65198 2.7496 17.18-16.692 13.25-13.884-0.50455" fill="#fff" stroke-width="4.2857"/>
 <path d="m85.308 114.62c0.62199 13.822-0.21056 34.674-1.2538 52.607-6.3999 0-12.876-2.7726-15.9-5.7994 2.8016-27.698 2.1811-39.046 7.9822-46.444 3.1942-0.22744 5.8933-0.39493 9.1719-0.35944" fill="#94dac5" stroke-width="4.2857"/>
 <path d="m98.452 161.85c-3.0247 3.0222-8.0002 5.3708-14.4 5.3708v-52.658c1.9841-0.0292 4.051 0.0339 6.5246 0.41095 4.1245 4.9487 4.1245 19.121 7.875 46.872" fill="#94dac5" stroke-width="4.2857"/>
 <path d="m91.124 112.32c-0.28183 0.85717-0.49564 1.7034-0.54262 2.652-3.824 0.42861-9.0943 0.4686-14.443 0-0.03257-0.83485-0.18304-1.7257-0.3774-2.6406 5.4845 0.23438 9.8328 0.20052 15.362-0.0116" fill="#66caad" stroke-width="4.2857"/>
 <path d="m84.879 112.49v2.8126c-1.5388 0.27488-3.2435 0.21656-4.4062-0.0518v-2.7611c1.4821-0.3081 3.0938-0.27197 4.4062 0" fill="#4fb083" stroke-width="4.2857"/>
 <path d="m77.007 96.47c-1.3882 0.04534-3.0583 0.38858-2.788-0.77198 0.39039-1.6857 0.52805-2.7703 0.72082-4.7995 0.72403-0.36171 1.3039-0.41708 2.0583-0.28118 1.7542 4.857 3.0154 8.7029 7.0582 11.23 0.64466 0.63835 0.29156 1.1429 0 1.5469-3.4669-0.90175-4.8665-1.5937-7.6899-4.0446-0.85526-0.73653-0.0648-1.6337 0.64145-2.8794" fill="#66caad" stroke-width="4.2857"/>
 <path d="m91.107 96.47c1.3882 0.04534 3.0582 0.38858 2.788-0.77198-0.39039-1.6857-0.76295-2.268-0.95568-4.2972-0.72245-0.3549-1.3039-0.41708-2.0578-0.27891-1.7542 4.857-2.7811 8.1981-6.8259 10.725v1.5469c3.4662-0.90175 4.8656-1.5937 7.6916-4.0446 0.85526-0.73653 0.0648-1.6337-0.64145-2.8794" fill="#66caad" stroke-width="4.2857"/>
 <path d="m93.897 72.676s-0.16684 9.422-2.4509 11.703c-2.2834 2.2857-5.6336 3.5646-8.3726 3.5537-2.741-0.01157-7.0046-3.5137-7.4602-4.8792-0.4584-1.3731-1.0674-5.6965-0.91518-7.8753 0.0486-0.65146-1.1436-5.3258-0.01629-6.9415 2.6298-3.8057 9.1698-5.4509 10.985-4.0623 1.589 1.216 4.2588 2.52 6.0176 4.6782 1.1079 1.3548 2.3239 1.6114 2.2188 3.8234" fill="#fbcaa0" stroke-width="4.2857"/>
 <path d="m91.479 87.11s1.8259-3.1943 3.8057-3.6491c1.9778-0.45775-0.4584-4.5672 0-6.2412 0.45514-1.6811 3.8057-4.719 2.8927-7.4622-0.91518-2.7388-3.6538-9.4392-12.181-11.114-8.5248-1.6766-16.594 5.1758-15.375 14.232 0 0 0.45515 3.4285 1.9776 6.0175 1.5242 2.5897-2.5875 1.9777 0.76132 6.3955 0 0 0.74996-3.732 2.1207-3.732 1.3704 0-1.3039-3.4-0.3693-4.0337 0.93464-0.63368 2.8172-1.5268 5.4039-3.8057 2.5868-2.2857 4.719-4.2634 5.1767-4.875 0 0-1.2181 4.4172-2.8931 5.3327 0 0 4.1114 0.30111 6.699-3.5046 2.5868-3.8057 3.2812 7.2342 3.0308 8.5375-0.24947 1.3034 0.16522 3.9999-2.1137 6.0805 0 0 0.75643 0.30111 1.0626 1.8211" fill="#141c23" stroke-width="4.2857"/>
 <path d="m115.47 85.623-1.8551 3.6516c0.10367 1.3579 0.63369 2.5937 1.1577 3.9438l3.0161-6.0887v-0.3264c-0.72519-0.80129-1.3673-1.0342-2.3187-1.1802z" fill="#f5f2e9" stroke-width="4.2857"/>
 <path d="m151.93 82.711h32.503v-24.586h-31.903l-0.59996 24.586" fill="#fff" stroke-width="4.2857"/>
 <path d="m154.25 80.333c3.72-3.7251 5.9315-6.0064 7.857-11.623 3.0057 1.4332 5.1716 3.2125 10.583 11.623-6.7372 1.0223-14.172 1.5092-18.44 0" fill="#141c23" stroke-width="4.2857"/>
 <path d="m164.47 80.333c4.0857-8.2521 6.7316-7.6919 9.4972-12.062 1.72-2.7142 2.7257 3.692 8.337 6.0561 0 0 1.4857 4.3324 1.4857 5.6515 0 1.7771-13.12 2.52-19.32 0.3549" fill="#16252f" stroke-width="4.2857"/>
 <path d="m158.34 63.019c-2.5086 2.5085 1.1943 6.0175 3.2458 3.212 1.5257-2.0874-1.52-4.9307-3.2458-3.212" fill="#f9a711" stroke-width="4.2857"/>
 <path d="m154.25 59.894c-0.28573-2.5314-1.4857-3.3709-4.2514-4.3778v29.189c2.1257-0.64062 3.6857-1.9263 4.2514-4.377v-20.435" fill="#eb2136" stroke-width="4.2857"/>
 <path d="m182.31 59.894v20.435c0.51995 1.5829 1.0858 3.212 4.2515 4.377v-29.189c-3.0857 1.0874-4.2515 2.688-4.2515 4.3778" fill="#eb2136" stroke-width="4.2857"/>
 <path d="m182.31 59.894 4.2515-4.3778h-36.56l4.2514 4.3778h28.057" fill="#eb2136" stroke-width="4.2857"/>
 <path d="m154.25 80.333-4.2514 4.377h36.56l-4.2515-4.377h-28.057" fill="#eb2136" stroke-width="4.2857"/>
</svg>
