<svg width="650" height="525" version="1.1" viewBox="0 0 650 525" xmlns="http://www.w3.org/2000/svg">
 <path d="m408.62 520.44h-167.23l36.487-113.95h94.258l36.487 113.95" fill="#d6d6d6"/>
 <path d="m263.6 451.06-5.0254 15.697h132.85l-5.0254-15.697z" fill="#c2c2c2"/>
 <path d="m405.41 509.47h-160.51l-27.078 5.4028v10.129h214.36v-10.129l-26.775-5.4028" fill="#c2c2c2"/>
 <path d="m0 388.94v45.911c0 8.9151 7.2955 16.208 16.216 16.208h617.57c8.9209 0 16.216-7.2932 16.216-16.208v-45.911h-650" fill="#d6d6d6"/>
 <path d="m633.79 0h-617.57c-8.9209 0-16.216 7.2908-16.216 16.204v372.74h650v-372.74c0-8.9129-7.2955-16.204-16.216-16.204" fill="#302b3a"/>
 <path d="m336.78 418.27a11.777 11.774 0 0 1-11.777 11.774 11.777 11.774 0 0 1-11.777-11.774 11.777 11.774 0 0 1 11.777-11.774 11.777 11.774 0 0 1 11.777 11.774z" fill="#c2c2c2"/>
</svg>
