<svg width="90" height="50" version="1.1" viewBox="0 0 90 50" xmlns="http://www.w3.org/2000/svg">
 <path d="m25 2.0011e-4c-13.748 0-25 11.252-25 25s11.252 25 25 25c5.6155 0 10.814-1.8782 15-5.0361v5.0361h10v-25c0-8.3435 6.6565-15 15-15s15 6.6565 15 15-6.6565 15-15 15c-3.7017 0-7.2567-1.368-10-3.8233v11.694c3.1279 1.371 6.5201 2.1288 10 2.1289 13.748 0 25-11.252 25-25s-11.252-25-25-25c-5.6155 0-10.814 1.8782-15 5.0361v-5.0361h-10v25c0 8.3435-6.6565 15-15 15s-15-6.6565-15-15 6.6565-15 15-15c3.7021 0 7.2565 1.3683 10 3.8242v-11.694c-3.128-1.3711-6.5201-2.1298-10-2.1299z" fill="#ef5063"/>
</svg>
