<svg width="310" height="50" version="1.1" viewBox="0 0 310 50" xmlns="http://www.w3.org/2000/svg">
 <path d="m25 2.0023e-4c-13.748 0-25 11.252-25 25s11.252 25 25 25c5.6155 0 10.814-1.8782 15-5.0361v5.0361h10v-25c0-8.3435 6.6565-15 15-15 8.3435 0 15 6.6565 15 15s-6.6565 15-15 15c-3.7017 0-7.2567-1.368-10-3.8233v11.694c3.1279 1.371 6.5201 2.1288 10 2.1289 13.748 0 25-11.252 25-25s-11.252-25-25-25c-5.6155 0-10.814 1.8782-15 5.0361v-5.0361h-10v25c0 8.3435-6.6565 15-15 15-8.3435 0-15-6.6565-15-15s6.6565-15 15-15c3.7021 0 7.2565 1.3683 10 3.8242v-11.694c-3.128-1.3711-6.5201-2.1298-10-2.1299z" fill="#ef5063"/>
 <path d="m124.39 5.0002c0.74706 0 1.3518 0.24831 1.8143 0.74468 0.49803 0.46099 0.74706 1.0638 0.74706 1.8085v29.255c0 0.70923-0.24907 1.3121-0.74706 1.8085-0.46246 0.49644-1.0672 0.74468-1.8143 0.74468-0.74706 0-1.3518-0.23055-1.8143-0.6915-0.46242-0.49644-0.69369-1.117-0.69369-1.8617v-1.4894c-0.88932 1.2766-2.1522 2.3582-3.7886 3.2447-1.6008 0.88653-3.3262 1.3298-5.176 1.3298-2.419 0-4.6069-0.62056-6.5634-1.8617-1.9566-1.2412-3.5041-2.961-4.6424-5.1596-1.1384-2.234-1.7076-4.734-1.7076-7.5 0-2.7659 0.5514-5.2482 1.6542-7.4468 1.1384-2.234 2.6858-3.9716 4.6424-5.2128 1.9565-1.2411 4.1088-1.8617 6.4567-1.8617 1.8855 0 3.6286 0.39005 5.2294 1.1702 1.6009 0.78017 2.8993 1.7908 3.8954 3.0319v-7.5c0-0.74468 0.23131-1.3475 0.69369-1.8085 0.4625-0.49644 1.0672-0.74468 1.8143-0.74468zm-10.886 30.213c1.672 0 3.1483-0.42554 4.429-1.2766 1.3162-0.85107 2.3301-2.0213 3.0416-3.5107 0.74706-1.4894 1.1206-3.1737 1.1206-5.0532 0-1.844-0.37342-3.5106-1.1206-5-0.7115-1.5248-1.7254-2.7128-3.0416-3.5638-1.2807-0.85107-2.757-1.2766-4.429-1.2766s-3.1661 0.42554-4.4823 1.2766c-1.2807 0.85104-2.2946 2.039-3.0416 3.5638-0.71149 1.4894-1.0672 3.156-1.0672 5 0 1.8794 0.35565 3.5638 1.0672 5.0532 0.74703 1.4894 1.7609 2.6596 3.0416 3.5107 1.3162 0.85107 2.8103 1.2766 4.4823 1.2766z" fill="#fff"/>
 <path d="m158.03 24.362q-0.0533 0.95743-0.80043 1.6489-0.74701 0.63829-1.7609 0.63829h-18.783q0.37341 3.883 2.9348 6.2234 2.6147 2.3404 6.35 2.3404 2.5613 0 4.1622-0.74468 1.6009-0.74468 2.8282-1.9149 0.80042-0.47872 1.5475-0.47872 0.90717 0 1.4941 0.63829 0.64032 0.63829 0.64032 1.4894 0 1.117-1.0672 2.0213-1.5475 1.5425-4.1088 2.6064-2.5614 1.0638-5.2294 1.0638-4.3222 0-7.6306-1.8085-3.255-1.8085-5.0693-5.0532-1.7609-3.2447-1.7609-7.3404 0-4.4681 1.8143-7.8192 1.8677-3.4043 4.8559-5.2128 3.0416-1.8085 6.51-1.8085 3.4151 0 6.4034 1.7553 2.9882 1.7553 4.8025 4.8404 1.8143 3.0851 1.8676 6.9149zm-13.073-8.8298q-2.9882 0-5.176 1.7021-2.1878 1.6489-2.8815 5.1595h15.742v-0.42554q-0.26683-2.8191-2.5613-4.6277-2.2412-1.8085-5.1227-1.8085z" fill="#fff"/>
 <path d="m175.13 10.851q4.2155 0 6.9903 1.3298 2.8281 1.3298 2.8281 3.4042 0 0.90429-0.58696 1.649-0.58699 0.69146-1.4941 0.69146-0.6937 0-1.1206-0.21279-0.37341-0.21279-1.0672-0.6915-0.32012-0.31899-1.0139-0.74468-0.64032-0.31899-1.8143-0.53189-1.174-0.21279-2.1344-0.21279-2.7748 0-4.9092 1.2766t-3.3084 3.5638q-1.1739 2.234-1.1739 5 0 2.8191 1.1206 5.0532 1.174 2.2341 3.255 3.5107 2.0811 1.2766 4.7492 1.2766 2.7748 0 4.4823-0.85107 0.37342-0.21279 1.0139-0.6915 0.53362-0.42554 0.90715-0.63829 0.42686-0.21279 1.0139-0.21279 1.0672 0 1.6542 0.69146 0.64033 0.63832 0.64033 1.7021 0 1.117-1.4408 2.234-1.3874 1.0638-3.7886 1.7553-2.3479 0.69146-5.0693 0.69146-4.0554 0-7.1504-1.8617-3.095-1.9149-4.8025-5.2128-1.6542-3.3511-1.6542-7.4468t1.7609-7.3936q1.7609-3.3511 4.9092-5.2128 3.1483-1.9149 7.2038-1.9149z" fill="#fff"/>
 <path d="m212.11 11.117q1.1206 0 1.8142 0.74468 0.74706 0.6915 0.74706 1.8617v23.085q0 1.0639-0.74706 1.8085-0.69369 0.74468-1.8142 0.74468-1.1206 0-1.8143-0.6915-0.69369-0.74468-0.69369-1.8617v-1.383q-1.3874 1.8617-3.7887 3.1915-2.4012 1.2766-5.176 1.2766-3.6286 0-6.6168-1.8617-2.9349-1.8617-4.6424-5.1596-1.6542-3.3511-1.6542-7.5t1.6542-7.4468q1.7076-3.351 4.6424-5.2128 2.9349-1.8617 6.4567-1.8617 2.8281 0 5.2294 1.1702 2.4546 1.1702 3.8954 2.9788v-1.2766q0-1.117 0.69369-1.8617 0.6937-0.74468 1.8143-0.74468zm-10.886 24.096q2.508 0 4.429-1.2766 1.9744-1.2766 3.0416-3.5107 1.1206-2.234 1.1206-5.0532 0-2.7659-1.1206-5-1.0672-2.234-3.0416-3.5107-1.921-1.3298-4.429-1.3298-2.5079 0-4.4823 1.2766-1.921 1.2766-3.0416 3.5106-1.0672 2.234-1.0672 5.0532t1.0672 5.0532q1.1206 2.2341 3.0416 3.5107 1.9744 1.2766 4.4823 1.2766z" fill="#fff"/>
 <path d="m235.24 11.011c2.419 0 4.6069 0.62056 6.5634 1.8617 1.9566 1.2057 3.4863 2.9078 4.5891 5.1064 1.1384 2.1986 1.7076 4.6808 1.7076 7.4468 0 2.7659-0.56921 5.2482-1.7076 7.4468-1.1028 2.1631-2.6325 3.8652-4.5891 5.1064s-4.1088 1.8617-6.4567 1.8617c-1.8499 0-3.5752-0.40781-5.1761-1.2234-1.6008-0.81562-2.8993-1.8085-3.8954-2.9787v6.8085c0 0.70923-0.24908 1.3121-0.74706 1.8085-0.46246 0.49648-1.0672 0.74468-1.8142 0.74468-0.71149 0-1.3163-0.24832-1.8143-0.74468-0.46246-0.46099-0.69369-1.0638-0.69369-1.8085v-28.457c0-0.74468 0.2313-1.3652 0.69369-1.8617 0.46246-0.49644 1.0672-0.74468 1.8143-0.74468 0.74702 0 1.3518 0.24832 1.8142 0.74468 0.49807 0.49648 0.74706 1.117 0.74706 1.8617v1.5425c0.85379-1.2411 2.0989-2.3049 3.7353-3.1915s3.3795-1.3298 5.2294-1.3298zm-0.58696 24.149c1.6364 0 3.1127-0.4255 4.429-1.2766 1.3163-0.85107 2.3301-2.0036 3.0416-3.4575 0.74706-1.4894 1.1206-3.156 1.1206-5s-0.3734-3.4929-1.1206-4.9468c-0.7115-1.4894-1.7254-2.6595-3.0416-3.5106-1.3162-0.85107-2.7926-1.2766-4.429-1.2766-1.672 0-3.1661 0.42554-4.4824 1.2766-1.3162 0.81558-2.3479 1.9681-3.0949 3.4574-0.71149 1.4894-1.0672 3.156-1.0672 5s0.35565 3.5106 1.0672 5c0.74706 1.4894 1.7787 2.6596 3.0949 3.5107 1.3163 0.81562 2.8104 1.2234 4.4824 1.2234z" fill="#fff"/>
 <path d="m275.66 11.117q1.1206 0 1.8143 0.74468 0.74705 0.6915 0.74705 1.8617v23.085q0 1.0639-0.74705 1.8085-0.6937 0.74468-1.8143 0.74468-1.1206 0-1.8143-0.6915-0.69369-0.74468-0.69369-1.8617v-1.383q-1.3874 1.8617-3.7886 3.1915-2.4013 1.2766-5.1761 1.2766-3.6285 0-6.6168-1.8617-2.9349-1.8617-4.6424-5.1596-1.6542-3.3511-1.6542-7.5t1.6542-7.4468q1.7076-3.351 4.6424-5.2128 2.9349-1.8617 6.4567-1.8617 2.8281 0 5.2294 1.1702 2.4546 1.1702 3.8954 2.9788v-1.2766q0-1.117 0.69369-1.8617 0.6937-0.74468 1.8143-0.74468zm-10.886 24.096q2.508 0 4.429-1.2766 1.9744-1.2766 3.0416-3.5107 1.1206-2.234 1.1206-5.0532 0-2.7659-1.1206-5-1.0672-2.234-3.0416-3.5107-1.921-1.3298-4.429-1.3298t-4.4824 1.2766q-1.921 1.2766-3.0416 3.5106-1.0672 2.234-1.0672 5.0532t1.0672 5.0532q1.1206 2.2341 3.0416 3.5107 1.9744 1.2766 4.4824 1.2766z" fill="#fff"/>
 <path d="m307.44 5.0002c0.74702 0 1.3518 0.24831 1.8142 0.74468 0.49807 0.46099 0.74706 1.0638 0.74706 1.8085v29.255c0 0.70923-0.24906 1.3121-0.74706 1.8085-0.46246 0.49644-1.0672 0.74468-1.8142 0.74468-0.74705 0-1.3518-0.23055-1.8143-0.6915-0.46246-0.49644-0.69369-1.117-0.69369-1.8617v-1.4894c-0.88935 1.2766-2.1523 2.3582-3.7887 3.2447-1.6008 0.88653-3.3262 1.3298-5.176 1.3298-2.419 0-4.6069-0.62056-6.5634-1.8617-1.9566-1.2412-3.5041-2.961-4.6424-5.1596-1.1384-2.234-1.7076-4.734-1.7076-7.5 0-2.7659 0.5514-5.2482 1.6542-7.4468 1.1384-2.234 2.6858-3.9716 4.6424-5.2128 1.9566-1.2411 4.1088-1.8617 6.4567-1.8617 1.8854 0 3.6285 0.39005 5.2294 1.1702 1.6008 0.78017 2.8993 1.7908 3.8954 3.0319v-7.5c0-0.74468 0.2313-1.3475 0.69369-1.8085 0.46246-0.49644 1.0672-0.74468 1.8143-0.74468zm-10.886 30.213c1.672 0 3.1484-0.42554 4.429-1.2766 1.3163-0.85107 2.3301-2.0213 3.0416-3.5107 0.74708-1.4894 1.1206-3.1737 1.1206-5.0532 0-1.844-0.3734-3.5106-1.1206-5-0.71145-1.5248-1.7253-2.7128-3.0416-3.5638-1.2806-0.85107-2.757-1.2766-4.429-1.2766-1.672 0-3.1661 0.42554-4.4823 1.2766-1.2806 0.85104-2.2945 2.039-3.0416 3.5638-0.7115 1.4894-1.0672 3.156-1.0672 5 0 1.8794 0.35566 3.5638 1.0672 5.0532 0.74705 1.4894 1.7609 2.6596 3.0416 3.5107 1.3163 0.85107 2.8104 1.2766 4.4823 1.2766z" fill="#fff"/>
</svg>
