<svg width="295" height="500" version="1.1" viewBox="0 0 295 500" xmlns="http://www.w3.org/2000/svg">
 <path d="m295 475.43c0 13.513-11.06 24.57-24.577 24.57h-245.85c-13.517 0-24.577-11.057-24.577-24.57v-450.86c0-13.518 11.06-24.575 24.577-24.575h245.85c13.517 0 24.577 11.057 24.577 24.575v450.86" fill="#302b3a"/>
 <path d="m168.99 20.081c0 3.3022-2.6837 5.9852-5.9868 5.9852h-50.472c-3.3131 0-6.0019-2.6831-6.0019-5.9852 0-3.3168 2.6886-5.9999 6.0019-5.9999h50.472c3.3032 0 5.9868 2.6831 5.9868 5.9999" fill="#1d1a22"/>
 <path d="m188.46 20.081c0 3.3022-2.6887 5.9852-5.997 5.9852-3.313 0-5.992-2.6831-5.992-5.9852 0-3.3168 2.679-5.9999 5.992-5.9999 3.3081 0 5.997 2.6831 5.997 5.9999" fill="#1d1a22"/>
 <path d="m159.27 474.52a11.777 11.774 0 0 1-11.777 11.774 11.777 11.774 0 0 1-11.777-11.774 11.777 11.774 0 0 1 11.777-11.774 11.777 11.774 0 0 1 11.777 11.774z" fill="#1d1a22" stroke-width=".26458"/>
</svg>
