<svg width="500" height="465" version="1.1" viewBox="0 0 500 465" xmlns="http://www.w3.org/2000/svg">
 <path d="m0 4.92 5.6984 9.5474 0.0422 0.0706 0.0422 0.0637 5.7193 8.8759 0.0988 0.14111 4.0218 5.7595 7.8186-5.491-3.9234-5.6112-0.0635-0.0919-0.0361-0.0564-5.5365-8.5861-0.0289-0.0423-0.0563-0.0919-5.6137-9.406z" fill="#efefef" stroke-width="1.048" style="font-feature-settings:normal;font-variant-alternates:normal;font-variant-caps:normal;font-variant-ligatures:normal;font-variant-numeric:normal;font-variant-position:normal;isolation:auto;mix-blend-mode:normal;shape-padding:0;text-decoration-color:#000000;text-decoration-line:none;text-decoration-style:solid;text-indent:0;text-orientation:mixed;text-transform:none;white-space:normal"/>
 <path d="m21.42 37.23 1.8032 2.3674 0.0635 0.0778 0.0635 0.0847 5.79 6.9821 0.0703 0.0847 0.0775 0.0778 5.8181 6.4025 0.15508 0.16934 5.649 5.6321 6.7266-6.7842-5.5646-5.5547-5.5927-6.1481-5.7547-6.9466-0.0361-0.0423-1.6764-2.2049z" fill="#efefef" stroke-width="1.048" style="font-feature-settings:normal;font-variant-alternates:normal;font-variant-caps:normal;font-variant-ligatures:normal;font-variant-numeric:normal;font-variant-position:normal;isolation:auto;mix-blend-mode:normal;shape-padding:0;text-decoration-color:#000000;text-decoration-line:none;text-decoration-style:solid;text-indent:0;text-orientation:mixed;text-transform:none;white-space:normal"/>
 <path d="m48.42 65.8 4.839 3.9149 0.10566 0.0847 0.10567 0.0778 5.9379 4.2753 0.11252 0.0778 0.11973 0.0778 5.966 3.7948 0.11973 0.0778 0.11974 0.0706 6.0082 3.3426 0.25388 0.12736 1.0354 0.50177 4.1347-8.6288-0.90862-0.43813-5.7478-3.2013-5.79-3.6819-5.6984-4.106-4.7261-3.823z" fill="#efefef" stroke-width="1.048" style="font-feature-settings:normal;font-variant-alternates:normal;font-variant-caps:normal;font-variant-ligatures:normal;font-variant-numeric:normal;font-variant-position:normal;isolation:auto;mix-blend-mode:normal;shape-padding:0;text-decoration-color:#000000;text-decoration-line:none;text-decoration-style:solid;text-indent:0;text-orientation:mixed;text-transform:none;white-space:normal"/>
 <path d="m277.01 68.11-0.0635 7e-3h-0.0635l-4.6349 0.17657 0.35919 9.5616 4.6277-0.1697 7.4663-0.0778h0.14786l7.6495 0.16246h0.0216l7.7129 0.40987h0.0361l0.35234 0.0362 0.82413-9.5402-0.5142-0.0423-0.0775-7e-3 -0.0844-7e-3 -7.8961-0.41693h-0.0775l-0.0775-7e-3 -7.8186-0.15559h-0.14065z" fill="#efefef" stroke-width="1.048" style="font-feature-settings:normal;font-variant-alternates:normal;font-variant-caps:normal;font-variant-ligatures:normal;font-variant-numeric:normal;font-variant-position:normal;isolation:auto;mix-blend-mode:normal;shape-padding:0;text-decoration-color:#000000;text-decoration-line:none;text-decoration-style:solid;text-indent:0;text-orientation:mixed;text-transform:none;white-space:normal"/>
 <path d="m261.5 68.89h-0.0775l-0.0775 7e-3 -14.961 1.4558-0.0916 7e-3 -0.0844 0.0145-12.383 1.6466 1.2608 9.4906 12.214-1.6324 0.0361-7e-3 14.771-1.4275h0.0288l1.0636-0.0705-0.59873-9.5543z" fill="#efefef" stroke-width="1.048" style="font-feature-settings:normal;font-variant-alternates:normal;font-variant-caps:normal;font-variant-ligatures:normal;font-variant-numeric:normal;font-variant-position:normal;isolation:auto;mix-blend-mode:normal;shape-padding:0;text-decoration-color:#000000;text-decoration-line:none;text-decoration-style:solid;text-indent:0;text-orientation:mixed;text-transform:none;white-space:normal"/>
 <path d="m309.94 79.1 6.0223 0.74199h7e-3l7.7833 1.2579 8.044 1.6183 5.7478 1.3992 2.2469-9.3072-5.7478-1.3992-0.1832-0.0434-8.2268-1.6536-0.0916-0.0217-0.0916-0.0145-8.1424-1.3144-0.0844-0.0145-0.0916-0.0145-6.0223-0.74202z" fill="#efefef" stroke-width="1.048" style="font-feature-settings:normal;font-variant-alternates:normal;font-variant-caps:normal;font-variant-ligatures:normal;font-variant-numeric:normal;font-variant-position:normal;isolation:auto;mix-blend-mode:normal;shape-padding:0;text-decoration-color:#000000;text-decoration-line:none;text-decoration-style:solid;text-indent:0;text-orientation:mixed;text-transform:none;white-space:normal"/>
 <path d="m217 74.64-0.0361 7e-3 -0.0289 7e-3 -14.151 2.4593h-7e-3l-6.8041 1.1943 1.6482 9.4342 6.7901-1.2014h0.0144l14.066-2.4451 0.0703-0.0145 7.1987-1.1448-1.4933-9.4555z" fill="#efefef" stroke-width="1.048" style="font-feature-settings:normal;font-variant-alternates:normal;font-variant-caps:normal;font-variant-ligatures:normal;font-variant-numeric:normal;font-variant-position:normal;isolation:auto;mix-blend-mode:normal;shape-padding:0;text-decoration-color:#000000;text-decoration-line:none;text-decoration-style:solid;text-indent:0;text-orientation:mixed;text-transform:none;white-space:normal"/>
 <path d="m346.57 86.59 1.5707 0.45228 0.0844 0.029 0.0985 0.029 8.1143 2.6925 0.0144 7e-3 8.3819 3.166 0.0288 0.0145 7.9733 3.3992 3.7333-8.8126-8.0014-3.4133-0.1832-0.0724-8.5723-3.2508-0.0916-0.0362-0.0984-0.0289-8.4876-2.8197-0.1832-0.0579-1.7609-0.50174z" fill="#efefef" stroke-width="1.048" style="font-feature-settings:normal;font-variant-alternates:normal;font-variant-caps:normal;font-variant-ligatures:normal;font-variant-numeric:normal;font-variant-position:normal;isolation:auto;mix-blend-mode:normal;shape-padding:0;text-decoration-color:#000000;text-decoration-line:none;text-decoration-style:solid;text-indent:0;text-orientation:mixed;text-transform:none;white-space:normal"/>
 <path d="m82.11 86.26 2.3808 0.97526 0.12695 0.0564 0.13379 0.0423 6.1139 2.1059 0.12695 0.0423 0.13379 0.0423 6.1561 1.7314 0.11973 0.0362 0.12695 0.0289 6.1986 1.3922 0.11974 0.0289 0.12658 0.0217 6.2408 1.06 0.11252 0.0217 0.11252 0.0145 0.50716 0.0564 1.141-9.5051-0.28165-0.029-0.0563-7e-3 -6.0785-1.0318-5.9519-1.3427-5.9379-1.6748-5.8109-1.9999-2.2469-0.92576z" fill="#efefef" stroke-width="1.048" style="font-feature-settings:normal;font-variant-alternates:normal;font-variant-caps:normal;font-variant-ligatures:normal;font-variant-numeric:normal;font-variant-position:normal;isolation:auto;mix-blend-mode:normal;shape-padding:0;text-decoration-color:#000000;text-decoration-line:none;text-decoration-style:solid;text-indent:0;text-orientation:mixed;text-transform:none;white-space:normal"/>
 <path d="m175.38 81.81-0.10567 0.0145-13.143 1.8727-0.10567 0.0145-0.0703 7e-3 -3.3739 0.35351 0.99316 9.5188 3.55-0.37452 0.0844-7e-3 0.0844-0.0145 13.432-1.908 0.0494-7e-3 0.0563-0.0145 11.347-1.8798-1.5567-9.4483z" fill="#efefef" stroke-width="1.048" style="font-feature-settings:normal;font-variant-alternates:normal;font-variant-caps:normal;font-variant-ligatures:normal;font-variant-numeric:normal;font-variant-position:normal;isolation:auto;mix-blend-mode:normal;shape-padding:0;text-decoration-color:#000000;text-decoration-line:none;text-decoration-style:solid;text-indent:0;text-orientation:mixed;text-transform:none;white-space:normal"/>
 <path d="m148.97 85.07-0.0422 7e-3 -6.2123 0.41697h-0.0844l-0.0563 7e-3 -6.1701 0.23338-6.2477 0.0289h-0.0216l-6.1561-0.20479h-0.0144l-2.6062-0.19068-0.71846 9.5402 2.6273 0.19792 0.0985 7e-3 0.0916 7e-3 6.3815 0.21203h0.17599l6.4237-0.0217h0.0844l0.0775-7e-3 6.4731-0.24025 0.0703-7e-3h0.0703l6.5293-0.44518h0.0844l0.0916-0.0145 0.16914-0.0145-0.97202-9.3495-0.0144-0.16969h-7e-3v-7e-3z" fill="#efefef" stroke-width="1.048" style="font-feature-settings:normal;font-variant-alternates:normal;font-variant-caps:normal;font-variant-ligatures:normal;font-variant-numeric:normal;font-variant-position:normal;isolation:auto;mix-blend-mode:normal;shape-padding:0;text-decoration-color:#000000;text-decoration-line:none;text-decoration-style:solid;text-indent:0;text-orientation:mixed;text-transform:none;white-space:normal"/>
 <path d="m381.29 100.37 0.61982 0.28982 0.0361 0.0217 8.6495 4.551 0.0563 0.029 8.7342 5.0529 0.0984 0.0637 0.0635 0.0362 6.1139 3.8726 5.0857-8.0987-6.2758-3.9714-0.0775-0.0496-0.0775-0.0423-8.9524-5.1799-0.0775-0.0496-0.0844-0.0423-8.854-4.6643-0.0844-0.0496-0.0916-0.0362-0.78889-0.38158z" fill="#efefef" stroke-width="1.048" style="font-feature-settings:normal;font-variant-alternates:normal;font-variant-caps:normal;font-variant-ligatures:normal;font-variant-numeric:normal;font-variant-position:normal;isolation:auto;mix-blend-mode:normal;shape-padding:0;text-decoration-color:#000000;text-decoration-line:none;text-decoration-style:solid;text-indent:0;text-orientation:mixed;text-transform:none;white-space:normal"/>
 <path d="m413.45 119.48 3.8177 2.6218 0.0422 0.0289 0.0988 0.0706 9.0862 6.7419 0.0144 0.0145 9.0794 7.2506 0.30294 0.25436 6.1914-7.286-0.30293-0.25437-0.0563-0.0496-0.0635-0.0564-9.347-7.4554-0.0635-0.0496-0.0703-0.0496-9.2344-6.862-0.0703-0.0496-0.0775-0.0496-3.9656-2.7207z" fill="#efefef" stroke-width="1.048" style="font-feature-settings:normal;font-variant-alternates:normal;font-variant-caps:normal;font-variant-ligatures:normal;font-variant-numeric:normal;font-variant-position:normal;isolation:auto;mix-blend-mode:normal;shape-padding:0;text-decoration-color:#000000;text-decoration-line:none;text-decoration-style:solid;text-indent:0;text-orientation:mixed;text-transform:none;white-space:normal"/>
 <path d="m443.15 142.68 1.7679 1.5123 9.4386 8.6215 0.0422 0.0423 0.0635 0.0564 9.3892 9.1444 6.6494-6.8689-9.502-9.2435-0.0563-0.0565-0.0563-0.0496-9.5442-8.7276-0.11252-0.0991-1.8877-1.6183z" fill="#efefef" stroke-width="1.048" style="font-feature-settings:normal;font-variant-alternates:normal;font-variant-caps:normal;font-variant-ligatures:normal;font-variant-numeric:normal;font-variant-position:normal;isolation:auto;mix-blend-mode:normal;shape-padding:0;text-decoration-color:#000000;text-decoration-line:none;text-decoration-style:solid;text-indent:0;text-orientation:mixed;text-transform:none;white-space:normal"/>
 <path d="m469.86 168.83 0.0361 0.0362 0.0563 0.0706 2.6907 3.6323 0.0216 0.029 2.5991 3.9363 2.3878 4.0919 2.2258 4.3108 1.9793 4.3462 1.2678 3.173 8.854-3.5617-1.3524-3.385-0.0422-0.10602-0.0494-0.10601-2.085-4.5651-0.0494-0.10602-0.0563-0.10601-2.2892-4.4237-0.0563-0.10601-0.0635-0.10602-2.4935-4.2753-0.0635-0.10601-0.0703-0.10601-2.6977-4.106-0.0703-0.10601-0.0844-0.10602-2.895-3.9222-0.0844-0.11289-0.0844-0.0988-0.20412-0.24749z" fill="#efefef" stroke-width="1.048" style="font-feature-settings:normal;font-variant-alternates:normal;font-variant-caps:normal;font-variant-ligatures:normal;font-variant-numeric:normal;font-variant-position:normal;isolation:auto;mix-blend-mode:normal;shape-padding:0;text-decoration-color:#000000;text-decoration-line:none;text-decoration-style:solid;text-indent:0;text-orientation:mixed;text-transform:none;white-space:normal"/>
 <path d="m486.03 201.1 0.54939 1.8515 1.1692 4.6925 7e-3 0.0362 1.0002 4.9678 0.0144 0.0637 0.75366 4.8126 0.57759 5.088 0.33792 4.7985v7e-3l0.0216 0.72788 9.537-0.26847-0.0216-0.73497v-0.0988l-7e-3 -0.10602-0.36629-5.2081-7e-3 -0.0988-0.0144-0.10602-0.58463-5.173-0.0144-0.10602-0.0144-0.0988-0.81003-5.1307-0.0144-0.0988-0.0216-0.10602-1.0214-5.067-0.0216-0.0991-0.0288-0.10601-1.2397-4.9964-0.0216-0.0991-0.0361-0.10602-0.57759-1.9575z" fill="#efefef" stroke-width="1.048" style="font-feature-settings:normal;font-variant-alternates:normal;font-variant-caps:normal;font-variant-ligatures:normal;font-variant-numeric:normal;font-variant-position:normal;isolation:auto;mix-blend-mode:normal;shape-padding:0;text-decoration-color:#000000;text-decoration-line:none;text-decoration-style:solid;text-indent:0;text-orientation:mixed;text-transform:none;white-space:normal"/>
 <path d="m490.46 237.44h-7e-3l-7e-3 0.14147v0.0145l-0.33792 4.7985-0.5776 5.088-0.75365 4.8054-0.0144 0.0637-0.99316 4.9396-0.0144 0.0706-1.1693 4.6925-0.0216 0.0919-0.69026 2.3109 9.1497 2.7278 0.73959-2.5158 0.0361-0.10602 0.0216-0.10601 1.2397-4.9892 0.0289-0.10601 0.0216-0.0988 1.0214-5.0742 0.0216-0.0988 0.0144-0.10601 0.81003-5.1234 0.0144-0.10602 0.0144-0.0988 0.58463-5.173 0.0144-0.10602 7e-3 -0.0988 0.36629-5.2081 7e-3 -0.10602v-0.0991l7e-3 -0.15558-8.3819-0.23338-1.1481-0.0847z" fill="#efefef" stroke-width="1.048" style="font-feature-settings:normal;font-variant-alternates:normal;font-variant-caps:normal;font-variant-ligatures:normal;font-variant-numeric:normal;font-variant-position:normal;isolation:auto;mix-blend-mode:normal;shape-padding:0;text-decoration-color:#000000;text-decoration-line:none;text-decoration-style:solid;text-indent:0;text-orientation:mixed;text-transform:none;white-space:normal"/>
 <path d="m481.85 275.72-1.9793 4.3531-0.0144 0.0362-2.2399 4.3249-0.0361 0.0637-2.3244 3.9786-2.5639 3.8726-2.74 3.7101-0.47192 0.56535 7.3252 6.134 0.5776-0.69257 0.16877-0.21203 2.895-3.9222 0.0844-0.10601 0.0703-0.11289 2.6977-4.0987 0.0703-0.10601 0.0635-0.11289 2.4935-4.2684 0.0635-0.10601 0.0563-0.10602 2.2892-4.424 0.0563-0.10601 0.0494-0.10601 2.0849-4.5651 0.0494-0.10602 0.0422-0.10601 1.134-2.848-8.854-3.5617z" fill="#efefef" stroke-width="1.048" style="font-feature-settings:normal;font-variant-alternates:normal;font-variant-caps:normal;font-variant-ligatures:normal;font-variant-numeric:normal;font-variant-position:normal;isolation:auto;mix-blend-mode:normal;shape-padding:0;text-decoration-color:#000000;text-decoration-line:none;text-decoration-style:solid;text-indent:0;text-orientation:mixed;text-transform:none;white-space:normal"/>
 <path d="m454.46 312.1-0.0635 0.0564-0.0422 0.0423-9.4386 8.6215-2.2047 1.8868 6.1914 7.286 2.3244-1.9928 0.11252-0.0991 9.5442-8.7276 0.0563-0.0496 0.0563-0.0564 9.0862-8.8408-6.6494-6.8689z" fill="#efefef" stroke-width="1.048" style="font-feature-settings:normal;font-variant-alternates:normal;font-variant-caps:normal;font-variant-ligatures:normal;font-variant-numeric:normal;font-variant-position:normal;isolation:auto;mix-blend-mode:normal;shape-padding:0;text-decoration-color:#000000;text-decoration-line:none;text-decoration-style:solid;text-indent:0;text-orientation:mixed;text-transform:none;white-space:normal"/>
 <path d="m426.51 336.05-0.0144 0.0145-9.0862 6.7419-0.0988 0.0706-0.0422 0.0289-4.2966 2.9469 5.3883 7.9008 4.4376-3.0458 0.0775-0.0496 0.0703-0.0564 9.2345-6.8548 0.0703-0.0496 0.0635-0.0496 9.1991-7.3425-5.9447-7.4908z" fill="#efefef" stroke-width="1.048" style="font-feature-settings:normal;font-variant-alternates:normal;font-variant-caps:normal;font-variant-ligatures:normal;font-variant-numeric:normal;font-variant-position:normal;isolation:auto;mix-blend-mode:normal;shape-padding:0;text-decoration-color:#000000;text-decoration-line:none;text-decoration-style:solid;text-indent:0;text-orientation:mixed;text-transform:none;white-space:normal"/>
 <path d="m399.38 354.69-8.7342 5.0597-0.0563 0.0289-8.5088 4.4805-0.0216 7e-3 -1.296 0.62187 4.0925 8.6498 1.3101-0.62896 0.0916-0.0423 0.0844-0.0423 8.854-4.6643 0.0844-0.0423 0.0775-0.0496 8.9524-5.1799 0.0775-0.0423 0.0775-0.0496 5.79-3.6606-5.0857-8.0987z" fill="#efefef" stroke-width="1.048" style="font-feature-settings:normal;font-variant-alternates:normal;font-variant-caps:normal;font-variant-ligatures:normal;font-variant-numeric:normal;font-variant-position:normal;isolation:auto;mix-blend-mode:normal;shape-padding:0;text-decoration-color:#000000;text-decoration-line:none;text-decoration-style:solid;text-indent:0;text-orientation:mixed;text-transform:none;white-space:normal"/>
 <path d="m364.86 372.03-0.0289 0.0145-8.3819 3.166-0.0144 7e-3 -8.1143 2.6925-0.1832 0.0579-2.1272 0.60776 2.6202 9.2012 2.3174-0.65725 0.0916-0.029 0.0916-0.0362 8.4876-2.8126 0.0985-0.0362 0.0916-0.0362 8.5723-3.2437 0.1832-0.0724 7.4663-3.1872-3.7333-8.8126z" fill="#efefef" stroke-width="1.048" style="font-feature-settings:normal;font-variant-alternates:normal;font-variant-caps:normal;font-variant-ligatures:normal;font-variant-numeric:normal;font-variant-position:normal;isolation:auto;mix-blend-mode:normal;shape-padding:0;text-decoration-color:#000000;text-decoration-line:none;text-decoration-style:solid;text-indent:0;text-orientation:mixed;text-transform:none;white-space:normal"/>
 <path d="m129.84 369.67-6.3815 0.21202-0.0916 7e-3 -0.0985 7e-3 -3.1978 0.24025 0.71139 9.5402 3.0006-0.22614h0.0144l6.3393-0.21202h0.0216l6.2477 0.0289 6.1701 0.23338 0.0563 7e-3h0.0844l5.9801 0.40282 0.64095-9.5543-6.1211-0.40988-0.0703-7e-3h-0.0703l-6.4731-0.24749h-0.16193l-6.4236-0.029h-0.0844z" fill="#efefef" stroke-width="1.048" style="font-feature-settings:normal;font-variant-alternates:normal;font-variant-caps:normal;font-variant-ligatures:normal;font-variant-numeric:normal;font-variant-position:normal;isolation:auto;mix-blend-mode:normal;shape-padding:0;text-decoration-color:#000000;text-decoration-line:none;text-decoration-style:solid;text-indent:0;text-orientation:mixed;text-transform:none;white-space:normal"/>
 <path d="m103.97 372.25-0.12658 0.0217-0.11973 0.0289-6.1986 1.3922-0.12694 0.029-0.11973 0.0362-6.1561 1.7314-0.13379 0.0362-0.12695 0.0496-6.1139 2.1059-0.1338 0.0423-0.12694 0.0564-2.9161 1.1943 3.6136 8.8618 2.7822-1.1448 5.9238-2.0423 0.0703-0.0217 5.7478-1.6112 5.9592-1.3427 6.0717-1.0317-1.5989-9.4342z" fill="#efefef" stroke-width="1.048" style="font-feature-settings:normal;font-variant-alternates:normal;font-variant-caps:normal;font-variant-ligatures:normal;font-variant-numeric:normal;font-variant-position:normal;isolation:auto;mix-blend-mode:normal;shape-padding:0;text-decoration-color:#000000;text-decoration-line:none;text-decoration-style:solid;text-indent:0;text-orientation:mixed;text-transform:none;white-space:normal"/>
 <path d="m158.01 380.88 3.9446 0.40991 0.0775 7e-3 0.0985 0.0145 13.143 1.8727 0.10567 0.0145 10.671 1.7738 1.5566-9.4483-10.777-1.7879-0.0563-7e-3 -0.0494-7e-3 -13.432-1.9151-0.0844-7e-3 -0.0844-0.0145-4.1206-0.43108z" fill="#efefef" stroke-width="1.048" style="font-feature-settings:normal;font-variant-alternates:normal;font-variant-caps:normal;font-variant-ligatures:normal;font-variant-numeric:normal;font-variant-position:normal;isolation:auto;mix-blend-mode:normal;shape-padding:0;text-decoration-color:#000000;text-decoration-line:none;text-decoration-style:solid;text-indent:0;text-orientation:mixed;text-transform:none;white-space:normal"/>
 <path d="m195.41 386.59 7.3747 1.3003h7e-3l14.151 2.4593 0.0289 7e-3 0.0361 7e-3 6.6985 1.0671 1.4932-9.4555-6.6281-1.053v-7e-3l-14.137-2.4522h-0.0144l-7.3606-1.3003z" fill="#efefef" stroke-width="1.048" style="font-feature-settings:normal;font-variant-alternates:normal;font-variant-caps:normal;font-variant-ligatures:normal;font-variant-numeric:normal;font-variant-position:normal;isolation:auto;mix-blend-mode:normal;shape-padding:0;text-decoration-color:#000000;text-decoration-line:none;text-decoration-style:solid;text-indent:0;text-orientation:mixed;text-transform:none;white-space:normal"/>
 <path d="m331.98 382.25-0.0494 7e-3 -7.9946 1.6183-0.0422 7e-3 -7.9243 1.2862h-7e-3l-6.5928 0.81269 1.1622 9.5051 6.6-0.81269 0.0916-0.0145 0.0844-0.0145 8.1424-1.3144 0.0916-0.0145 0.0916-0.0217 8.2268-1.6537 0.1832-0.0434 5.1914-1.265-2.254-9.3z" fill="#efefef" stroke-width="1.048" style="font-feature-settings:normal;font-variant-alternates:normal;font-variant-caps:normal;font-variant-ligatures:normal;font-variant-numeric:normal;font-variant-position:normal;isolation:auto;mix-blend-mode:normal;shape-padding:0;text-decoration-color:#000000;text-decoration-line:none;text-decoration-style:solid;text-indent:0;text-orientation:mixed;text-transform:none;white-space:normal"/>
 <path d="m72.11 383.29-0.12695 0.0565-0.12694 0.0706-6.0082 3.3426-0.23947 0.14112-5.966 3.802-0.11973 0.0706-0.11252 0.0847-5.9379 4.2753-0.10566 0.0778-0.10567 0.0847-5.2898 4.2825 5.9873 7.4485 5.2545-4.2471 0.0361-0.0289 5.5855-4.0141 5.649-3.6041 0.0494-0.0289 5.825-3.2437 0.4015-0.19068-4.1347-8.6356z" fill="#efefef" stroke-width="1.048" style="font-feature-settings:normal;font-variant-alternates:normal;font-variant-caps:normal;font-variant-ligatures:normal;font-variant-numeric:normal;font-variant-position:normal;isolation:auto;mix-blend-mode:normal;shape-padding:0;text-decoration-color:#000000;text-decoration-line:none;text-decoration-style:solid;text-indent:0;text-orientation:mixed;text-transform:none;white-space:normal"/>
 <path d="m233.25 392.9 12.953 1.7314 0.0844 0.0145 0.0916 7e-3 14.961 1.4487 0.15507 0.0145 0.52123 0.0362 0.59869-9.5543-0.35919-0.0217-0.12694-0.0145h-0.0288l-14.637-1.4204-12.961-1.7243z" fill="#efefef" stroke-width="1.048" style="font-feature-settings:normal;font-variant-alternates:normal;font-variant-caps:normal;font-variant-ligatures:normal;font-variant-numeric:normal;font-variant-position:normal;isolation:auto;mix-blend-mode:normal;shape-padding:0;text-decoration-color:#000000;text-decoration-line:none;text-decoration-style:solid;text-indent:0;text-orientation:mixed;text-transform:none;white-space:normal"/>
 <path d="m292.52 387.24h-0.0288l-7.6422 0.16245v-7e-3l-7.6141-0.0706-5.2054-0.19792-0.35919 9.5684 5.2123 0.19792h0.12694l7.7479 0.0778h0.14065l7.8186-0.16246h0.15507l7.8327-0.41696-0.50009-9.5616z" fill="#efefef" stroke-width="1.048" style="font-feature-settings:normal;font-variant-alternates:normal;font-variant-caps:normal;font-variant-ligatures:normal;font-variant-numeric:normal;font-variant-position:normal;isolation:auto;mix-blend-mode:normal;shape-padding:0;text-decoration-color:#000000;text-decoration-line:none;text-decoration-style:solid;text-indent:0;text-orientation:mixed;text-transform:none;white-space:normal"/>
 <path d="m35.26 411.54-0.15507 0.16934-5.8182 6.3956-0.0775 0.0847-0.0703 0.0847-5.79 6.9821-0.0635 0.0778-0.0635 0.0847-2.1483 2.8338 7.586 5.8018 2.0286-2.6713 0.0361-0.0496 5.7547-6.9398 5.5928-6.1481 5.156-5.1516-6.7266-6.7842z" fill="#efefef" stroke-width="1.048" style="font-feature-settings:normal;font-variant-alternates:normal;font-variant-caps:normal;font-variant-ligatures:normal;font-variant-numeric:normal;font-variant-position:normal;isolation:auto;mix-blend-mode:normal;shape-padding:0;text-decoration-color:#000000;text-decoration-line:none;text-decoration-style:solid;text-indent:0;text-orientation:mixed;text-transform:none;white-space:normal"/>
 <path d="m11.6 441.38-0.0494 0.0778-0.0494 0.0706-5.7193 8.869-0.0844 0.14111-5.6984 9.5402 8.1846 4.9255 5.6137-9.406 5.6209-8.7207 0.0361-0.0564 0.0635-0.0919 3.5923-5.1375-7.8186-5.491z" fill="#efefef" stroke-width="1.048" style="font-feature-settings:normal;font-variant-alternates:normal;font-variant-caps:normal;font-variant-ligatures:normal;font-variant-numeric:normal;font-variant-position:normal;isolation:auto;mix-blend-mode:normal;shape-padding:0;text-decoration-color:#000000;text-decoration-line:none;text-decoration-style:solid;text-indent:0;text-orientation:mixed;text-transform:none;white-space:normal"/>
</svg>
